<svg width="14" height="16" viewBox="0 0 14 16" fill="none" xmlns="http://www.w3.org/2000/svg">
<g clip-path="url(#clip0_1671_1384)">
<path d="M0.293945 7.29414C-0.0966797 7.68477 -0.0966797 8.31914 0.293945 8.70977L5.29395 13.7098C5.68457 14.1004 6.31895 14.1004 6.70957 13.7098C7.1002 13.3191 7.1002 12.6848 6.70957 12.2941L3.4127 9.00039H13.0002C13.5533 9.00039 14.0002 8.55352 14.0002 8.00039C14.0002 7.44727 13.5533 7.00039 13.0002 7.00039H3.41582L6.70645 3.70664C7.09707 3.31602 7.09707 2.68164 6.70645 2.29102C6.31582 1.90039 5.68145 1.90039 5.29082 2.29102L0.29082 7.29102L0.293945 7.29414Z" fill="white"/>
</g>
<defs>
<clipPath id="clip0_1671_1384">
<rect width="14" height="16" fill="white"/>
</clipPath>
</defs>
</svg>
