<svg width="799" height="530" viewBox="0 0 799 530" fill="none" xmlns="http://www.w3.org/2000/svg">
<g filter="url(#filter0_b_1247_667)">
<rect x="33" width="766" height="530" rx="9.52381" fill="black" fill-opacity="0.4"/>
<rect x="34" y="1" width="764" height="528" rx="8.52381" stroke="url(#paint0_linear_1247_667)" stroke-opacity="0.75" stroke-width="2"/>
</g>
<g clip-path="url(#clip0_1247_667)">
<g filter="url(#filter1_bdi_1247_667)">
<path d="M229.687 48.5565H490.443V230.13H229.687V48.5565Z" fill="url(#paint1_linear_1247_667)"/>
</g>
<g filter="url(#filter2_bdi_1247_667)">
<path d="M359.383 99.0696H620.139V280.643H359.383V99.0696Z" fill="url(#paint2_linear_1247_667)" fill-opacity="0.3" shape-rendering="crispEdges"/>
</g>
<g opacity="0.3">
<mask id="mask0_1247_667" style="mask-type:alpha" maskUnits="userSpaceOnUse" x="316" y="-10" width="391" height="391">
<circle cx="511.455" cy="185.172" r="194.897" fill="url(#paint3_radial_1247_667)"/>
</mask>
<g mask="url(#mask0_1247_667)">
<line x1="363.479" y1="325.029" x2="677.479" y2="325.029" stroke="white" stroke-width="1.8046"/>
<line x1="363.479" y1="296.155" x2="677.479" y2="296.155" stroke="white" stroke-width="1.8046"/>
<line x1="363.479" y1="267.282" x2="677.479" y2="267.282" stroke="white" stroke-width="1.8046"/>
<line x1="363.479" y1="238.408" x2="677.479" y2="238.408" stroke="white" stroke-width="1.8046"/>
<line x1="363.479" y1="209.535" x2="677.479" y2="209.535" stroke="white" stroke-width="1.8046"/>
<line x1="363.479" y1="180.661" x2="677.479" y2="180.661" stroke="white" stroke-width="1.8046"/>
<line x1="363.479" y1="151.787" x2="677.479" y2="151.787" stroke="white" stroke-width="1.8046"/>
<line x1="363.479" y1="122.914" x2="677.479" y2="122.914" stroke="white" stroke-width="1.8046"/>
<line x1="363.479" y1="94.0403" x2="677.479" y2="94.0403" stroke="white" stroke-width="1.8046"/>
<line x1="363.479" y1="65.1668" x2="677.479" y2="65.1668" stroke="white" stroke-width="1.8046"/>
<line x1="391.45" y1="39" x2="391.45" y2="353" stroke="white" stroke-width="1.8046"/>
<line x1="420.323" y1="39" x2="420.323" y2="353" stroke="white" stroke-width="1.8046"/>
<line x1="449.197" y1="39" x2="449.197" y2="353" stroke="white" stroke-width="1.8046"/>
<line x1="478.07" y1="39" x2="478.07" y2="353" stroke="white" stroke-width="1.8046"/>
<line x1="506.944" y1="39" x2="506.944" y2="353" stroke="white" stroke-width="1.8046"/>
<line x1="535.817" y1="39" x2="535.817" y2="353" stroke="white" stroke-width="1.8046"/>
<line x1="564.691" y1="39" x2="564.691" y2="353" stroke="white" stroke-width="1.8046"/>
<line x1="593.564" y1="39" x2="593.564" y2="353" stroke="white" stroke-width="1.8046"/>
<line x1="622.438" y1="39" x2="622.438" y2="353" stroke="white" stroke-width="1.8046"/>
<line x1="651.311" y1="39" x2="651.311" y2="353" stroke="white" stroke-width="1.8046"/>
</g>
</g>
<g filter="url(#filter3_bdi_1247_667)">
<circle cx="230.369" cy="219.891" r="64.8478" fill="url(#paint4_linear_1247_667)" fill-opacity="0.75" shape-rendering="crispEdges"/>
</g>
<path d="M76.2 404.4C73.2667 404.4 70.7467 403.813 68.64 402.64C66.56 401.44 64.96 399.76 63.84 397.6C62.72 395.413 62.16 392.84 62.16 389.88C62.16 386.92 62.72 384.36 63.84 382.2C64.96 380.04 66.56 378.373 68.64 377.2C70.7467 376 73.2667 375.4 76.2 375.4C78.0933 375.4 79.88 375.693 81.56 376.28C83.2667 376.867 84.6667 377.707 85.76 378.8L84.08 382.88C82.88 381.867 81.6533 381.133 80.4 380.68C79.1467 380.2 77.8 379.96 76.36 379.96C73.5067 379.96 71.3333 380.827 69.84 382.56C68.3467 384.267 67.6 386.707 67.6 389.88C67.6 393.053 68.3467 395.507 69.84 397.24C71.3333 398.973 73.5067 399.84 76.36 399.84C77.8 399.84 79.1467 399.613 80.4 399.16C81.6533 398.68 82.88 397.933 84.08 396.92L85.76 401C84.6667 402.067 83.2667 402.907 81.56 403.52C79.88 404.107 78.0933 404.4 76.2 404.4ZM95.4853 404.4C94.072 404.4 92.8053 404.133 91.6853 403.6C90.592 403.04 89.7253 402.293 89.0853 401.36C88.472 400.427 88.1653 399.373 88.1653 398.2C88.1653 396.76 88.5386 395.627 89.2853 394.8C90.032 393.947 91.2453 393.333 92.9253 392.96C94.6053 392.587 96.8586 392.4 99.6853 392.4H101.685V395.28H99.7253C98.472 395.28 97.4186 395.333 96.5653 395.44C95.712 395.52 95.0186 395.667 94.4853 395.88C93.9786 396.067 93.6053 396.333 93.3653 396.68C93.152 397.027 93.0453 397.453 93.0453 397.96C93.0453 398.84 93.352 399.56 93.9653 400.12C94.5786 400.68 95.432 400.96 96.5253 400.96C97.4053 400.96 98.1786 400.76 98.8453 400.36C99.5386 399.933 100.085 399.36 100.485 398.64C100.885 397.92 101.085 397.093 101.085 396.16V391.56C101.085 390.227 100.792 389.267 100.205 388.68C99.6186 388.093 98.632 387.8 97.2453 387.8C96.152 387.8 95.032 387.973 93.8853 388.32C92.7386 388.64 91.5786 389.147 90.4053 389.84L88.9653 386.44C89.6586 385.96 90.472 385.547 91.4053 385.2C92.3653 384.827 93.3653 384.547 94.4053 384.36C95.472 384.147 96.472 384.04 97.4053 384.04C99.3253 384.04 100.899 384.333 102.125 384.92C103.379 385.507 104.312 386.4 104.925 387.6C105.539 388.773 105.845 390.293 105.845 392.16V404H101.165V399.84H101.485C101.299 400.773 100.925 401.587 100.365 402.28C99.832 402.947 99.152 403.467 98.3253 403.84C97.4986 404.213 96.552 404.4 95.4853 404.4ZM117.72 404.4C115.4 404.4 113.68 403.773 112.56 402.52C111.467 401.24 110.92 399.373 110.92 396.92V375.8H115.92V396.68C115.92 397.453 116.027 398.12 116.24 398.68C116.48 399.213 116.827 399.613 117.28 399.88C117.734 400.147 118.294 400.28 118.96 400.28C119.254 400.28 119.547 400.267 119.84 400.24C120.134 400.213 120.414 400.16 120.68 400.08L120.6 404.04C120.12 404.147 119.64 404.227 119.16 404.28C118.707 404.36 118.227 404.4 117.72 404.4ZM123.374 380.24V375.36H128.974V380.24H123.374ZM123.694 404V384.44H128.694V404H123.694ZM145.169 404.4C143.516 404.4 142.062 403.987 140.809 403.16C139.582 402.333 138.769 401.227 138.369 399.84H138.769V404H133.889V375.8H138.889V388.4H138.409C138.836 387.093 139.662 386.04 140.889 385.24C142.116 384.44 143.542 384.04 145.169 384.04C146.902 384.04 148.409 384.453 149.689 385.28C150.969 386.107 151.969 387.28 152.689 388.8C153.409 390.293 153.769 392.093 153.769 394.2C153.769 396.28 153.409 398.093 152.689 399.64C151.969 401.16 150.956 402.333 149.649 403.16C148.369 403.987 146.876 404.4 145.169 404.4ZM143.769 400.6C145.262 400.6 146.462 400.067 147.369 399C148.276 397.907 148.729 396.307 148.729 394.2C148.729 392.067 148.276 390.48 147.369 389.44C146.462 388.373 145.262 387.84 143.769 387.84C142.276 387.84 141.076 388.373 140.169 389.44C139.262 390.48 138.809 392.067 138.809 394.2C138.809 396.307 139.262 397.907 140.169 399C141.076 400.067 142.276 400.6 143.769 400.6ZM157.873 404V384.44H162.753V389.16H162.353C162.727 387.56 163.46 386.347 164.553 385.52C165.647 384.667 167.1 384.173 168.913 384.04L170.433 383.92L170.753 388.16L167.873 388.44C166.247 388.6 165.02 389.107 164.193 389.96C163.367 390.787 162.953 391.96 162.953 393.48V404H157.873ZM179.782 404.4C178.369 404.4 177.102 404.133 175.982 403.6C174.889 403.04 174.022 402.293 173.382 401.36C172.769 400.427 172.462 399.373 172.462 398.2C172.462 396.76 172.836 395.627 173.582 394.8C174.329 393.947 175.542 393.333 177.222 392.96C178.902 392.587 181.156 392.4 183.982 392.4H185.982V395.28H184.022C182.769 395.28 181.716 395.333 180.862 395.44C180.009 395.52 179.316 395.667 178.782 395.88C178.276 396.067 177.902 396.333 177.662 396.68C177.449 397.027 177.342 397.453 177.342 397.96C177.342 398.84 177.649 399.56 178.262 400.12C178.876 400.68 179.729 400.96 180.822 400.96C181.702 400.96 182.476 400.76 183.142 400.36C183.836 399.933 184.382 399.36 184.782 398.64C185.182 397.92 185.382 397.093 185.382 396.16V391.56C185.382 390.227 185.089 389.267 184.502 388.68C183.916 388.093 182.929 387.8 181.542 387.8C180.449 387.8 179.329 387.973 178.182 388.32C177.036 388.64 175.876 389.147 174.702 389.84L173.262 386.44C173.956 385.96 174.769 385.547 175.702 385.2C176.662 384.827 177.662 384.547 178.702 384.36C179.769 384.147 180.769 384.04 181.702 384.04C183.622 384.04 185.196 384.333 186.422 384.92C187.676 385.507 188.609 386.4 189.222 387.6C189.836 388.773 190.142 390.293 190.142 392.16V404H185.462V399.84H185.782C185.596 400.773 185.222 401.587 184.662 402.28C184.129 402.947 183.449 403.467 182.622 403.84C181.796 404.213 180.849 404.4 179.782 404.4ZM204.177 404.4C201.564 404.4 199.617 403.747 198.337 402.44C197.057 401.133 196.417 399.227 196.417 396.72V388.2H192.657V384.44H196.417V378.6H201.417V384.44H207.337V388.2H201.417V396.44C201.417 397.72 201.697 398.68 202.257 399.32C202.817 399.96 203.724 400.28 204.977 400.28C205.351 400.28 205.737 400.24 206.137 400.16C206.537 400.053 206.951 399.947 207.377 399.84L208.137 403.52C207.657 403.787 207.044 404 206.297 404.16C205.577 404.32 204.871 404.4 204.177 404.4ZM220.013 404.4C217.8 404.4 215.893 403.987 214.293 403.16C212.693 402.333 211.453 401.16 210.573 399.64C209.72 398.12 209.293 396.32 209.293 394.24C209.293 392.213 209.707 390.44 210.533 388.92C211.387 387.4 212.547 386.213 214.013 385.36C215.507 384.48 217.2 384.04 219.093 384.04C220.96 384.04 222.56 384.44 223.893 385.24C225.227 386.04 226.253 387.173 226.973 388.64C227.72 390.107 228.093 391.853 228.093 393.88V395.36H213.333V392.48H224.573L223.933 393.08C223.933 391.267 223.533 389.88 222.733 388.92C221.933 387.933 220.787 387.44 219.293 387.44C218.173 387.44 217.213 387.707 216.413 388.24C215.64 388.747 215.04 389.48 214.613 390.44C214.213 391.373 214.013 392.493 214.013 393.8V394.08C214.013 395.547 214.24 396.76 214.693 397.72C215.147 398.68 215.827 399.4 216.733 399.88C217.64 400.36 218.76 400.6 220.093 400.6C221.187 400.6 222.28 400.44 223.373 400.12C224.467 399.773 225.467 399.24 226.373 398.52L227.773 401.88C226.84 402.653 225.667 403.267 224.253 403.72C222.84 404.173 221.427 404.4 220.013 404.4ZM234.053 409.32L232.013 407.72C232.6 407.133 233.053 406.573 233.373 406.04C233.693 405.533 233.92 405.013 234.053 404.48C234.213 403.947 234.293 403.4 234.293 402.84L235.373 404H231.613V398.44H237.213V402.12C237.213 403.027 237.106 403.88 236.893 404.68C236.706 405.48 236.386 406.253 235.933 407C235.48 407.773 234.853 408.547 234.053 409.32ZM258.516 404L250.036 384.44H255.356L261.396 399.6H260.196L266.436 384.44H271.436L262.836 404H258.516ZM273.53 380.24V375.36H279.13V380.24H273.53ZM273.85 404V384.44H278.85V404H273.85ZM291.205 404.4C290.112 404.4 289.045 404.307 288.005 404.12C286.992 403.933 286.059 403.68 285.205 403.36C284.352 403.013 283.605 402.587 282.965 402.08L284.245 398.8C284.912 399.227 285.632 399.6 286.405 399.92C287.179 400.24 287.979 400.48 288.805 400.64C289.632 400.8 290.445 400.88 291.245 400.88C292.525 400.88 293.472 400.667 294.085 400.24C294.725 399.787 295.045 399.2 295.045 398.48C295.045 397.867 294.832 397.4 294.405 397.08C294.005 396.733 293.392 396.48 292.565 396.32L288.565 395.56C286.912 395.24 285.645 394.64 284.765 393.76C283.912 392.853 283.485 391.693 283.485 390.28C283.485 389 283.832 387.893 284.525 386.96C285.245 386.027 286.232 385.307 287.485 384.8C288.739 384.293 290.179 384.04 291.805 384.04C292.739 384.04 293.645 384.133 294.525 384.32C295.405 384.48 296.232 384.733 297.005 385.08C297.805 385.4 298.499 385.827 299.085 386.36L297.725 389.64C297.219 389.213 296.632 388.853 295.965 388.56C295.299 388.24 294.605 388 293.885 387.84C293.192 387.653 292.512 387.56 291.845 387.56C290.539 387.56 289.565 387.787 288.925 388.24C288.312 388.693 288.005 389.293 288.005 390.04C288.005 390.6 288.192 391.067 288.565 391.44C288.939 391.813 289.512 392.067 290.285 392.2L294.285 392.96C296.019 393.28 297.325 393.867 298.205 394.72C299.112 395.573 299.565 396.72 299.565 398.16C299.565 399.467 299.219 400.587 298.525 401.52C297.832 402.453 296.859 403.173 295.605 403.68C294.352 404.16 292.885 404.4 291.205 404.4ZM310.657 404.4C309.03 404.4 307.683 404.107 306.617 403.52C305.55 402.907 304.75 402 304.217 400.8C303.71 399.6 303.457 398.107 303.457 396.32V384.44H308.457V396.4C308.457 397.307 308.577 398.067 308.817 398.68C309.083 399.293 309.47 399.747 309.977 400.04C310.51 400.333 311.177 400.48 311.977 400.48C312.883 400.48 313.67 400.28 314.337 399.88C315.03 399.453 315.563 398.867 315.937 398.12C316.337 397.347 316.537 396.453 316.537 395.44V384.44H321.537V404H316.657V399.92H317.217C316.657 401.36 315.803 402.467 314.657 403.24C313.537 404.013 312.203 404.4 310.657 404.4ZM333.181 404.4C331.767 404.4 330.501 404.133 329.381 403.6C328.287 403.04 327.421 402.293 326.781 401.36C326.167 400.427 325.861 399.373 325.861 398.2C325.861 396.76 326.234 395.627 326.981 394.8C327.727 393.947 328.941 393.333 330.621 392.96C332.301 392.587 334.554 392.4 337.381 392.4H339.381V395.28H337.421C336.167 395.28 335.114 395.333 334.261 395.44C333.407 395.52 332.714 395.667 332.181 395.88C331.674 396.067 331.301 396.333 331.061 396.68C330.847 397.027 330.741 397.453 330.741 397.96C330.741 398.84 331.047 399.56 331.661 400.12C332.274 400.68 333.127 400.96 334.221 400.96C335.101 400.96 335.874 400.76 336.541 400.36C337.234 399.933 337.781 399.36 338.181 398.64C338.581 397.92 338.781 397.093 338.781 396.16V391.56C338.781 390.227 338.487 389.267 337.901 388.68C337.314 388.093 336.327 387.8 334.941 387.8C333.847 387.8 332.727 387.973 331.581 388.32C330.434 388.64 329.274 389.147 328.101 389.84L326.661 386.44C327.354 385.96 328.167 385.547 329.101 385.2C330.061 384.827 331.061 384.547 332.101 384.36C333.167 384.147 334.167 384.04 335.101 384.04C337.021 384.04 338.594 384.333 339.821 384.92C341.074 385.507 342.007 386.4 342.621 387.6C343.234 388.773 343.541 390.293 343.541 392.16V404H338.861V399.84H339.181C338.994 400.773 338.621 401.587 338.061 402.28C337.527 402.947 336.847 403.467 336.021 403.84C335.194 404.213 334.247 404.4 333.181 404.4ZM355.416 404.4C353.096 404.4 351.376 403.773 350.256 402.52C349.162 401.24 348.616 399.373 348.616 396.92V375.8H353.616V396.68C353.616 397.453 353.722 398.12 353.936 398.68C354.176 399.213 354.522 399.613 354.976 399.88C355.429 400.147 355.989 400.28 356.656 400.28C356.949 400.28 357.242 400.267 357.536 400.24C357.829 400.213 358.109 400.16 358.376 400.08L358.296 404.04C357.816 404.147 357.336 404.227 356.856 404.28C356.402 404.36 355.922 404.4 355.416 404.4ZM368.189 404.4C365.869 404.4 364.149 403.773 363.029 402.52C361.936 401.24 361.389 399.373 361.389 396.92V375.8H366.389V396.68C366.389 397.453 366.496 398.12 366.709 398.68C366.949 399.213 367.296 399.613 367.749 399.88C368.202 400.147 368.762 400.28 369.429 400.28C369.722 400.28 370.016 400.267 370.309 400.24C370.602 400.213 370.882 400.16 371.149 400.08L371.069 404.04C370.589 404.147 370.109 404.227 369.629 404.28C369.176 404.36 368.696 404.4 368.189 404.4ZM375.415 411.2L379.495 402.2V404.28L370.895 384.44H376.215L382.295 399.6H381.095L387.295 384.44H392.335L380.575 411.2H375.415Z" fill="white"/>
<path d="M62.492 456V436.26H64.424L72.432 451.296H71.592L79.544 436.26H81.476V456H79.348V439.34H80.02L72.768 452.948H71.256L63.92 439.312H64.592V456H62.492ZM91.7371 456.252C90.4118 456.252 89.2638 455.963 88.2931 455.384C87.3225 454.805 86.5665 453.993 86.0251 452.948C85.5025 451.884 85.2411 450.633 85.2411 449.196C85.2411 447.759 85.5025 446.517 86.0251 445.472C86.5665 444.408 87.3225 443.587 88.2931 443.008C89.2638 442.429 90.4118 442.14 91.7371 442.14C93.0625 442.14 94.2105 442.429 95.1811 443.008C96.1518 443.587 96.8985 444.408 97.4211 445.472C97.9625 446.517 98.2331 447.759 98.2331 449.196C98.2331 450.633 97.9625 451.884 97.4211 452.948C96.8985 453.993 96.1518 454.805 95.1811 455.384C94.2105 455.963 93.0625 456.252 91.7371 456.252ZM91.7371 454.432C93.0251 454.432 94.0425 453.984 94.7891 453.088C95.5545 452.173 95.9371 450.867 95.9371 449.168C95.9371 447.488 95.5545 446.2 94.7891 445.304C94.0425 444.408 93.0251 443.96 91.7371 443.96C90.4678 443.96 89.4505 444.408 88.6851 445.304C87.9198 446.2 87.5371 447.488 87.5371 449.168C87.5371 450.867 87.9198 452.173 88.6851 453.088C89.4505 453.984 90.4678 454.432 91.7371 454.432ZM106.82 456.252C105.606 456.252 104.542 455.963 103.628 455.384C102.732 454.805 102.032 453.993 101.528 452.948C101.042 451.884 100.8 450.633 100.8 449.196C100.8 447.74 101.042 446.489 101.528 445.444C102.032 444.38 102.732 443.568 103.628 443.008C104.542 442.429 105.606 442.14 106.82 442.14C108.052 442.14 109.106 442.448 109.984 443.064C110.861 443.68 111.449 444.511 111.748 445.556H111.44V436.26H113.708V456H111.496V452.752H111.776C111.477 453.816 110.88 454.665 109.984 455.3C109.106 455.935 108.052 456.252 106.82 456.252ZM107.296 454.432C108.584 454.432 109.601 453.984 110.348 453.088C111.113 452.173 111.496 450.876 111.496 449.196C111.496 447.497 111.113 446.2 110.348 445.304C109.601 444.408 108.584 443.96 107.296 443.96C106.026 443.96 105.009 444.408 104.244 445.304C103.478 446.2 103.096 447.497 103.096 449.196C103.096 450.876 103.478 452.173 104.244 453.088C105.009 453.984 106.026 454.432 107.296 454.432ZM117.684 439.004V436.456H120.484V439.004H117.684ZM117.964 456V442.392H120.232V456H117.964ZM125.2 456V444.156H122.512V442.392H125.816L125.2 442.98V441.916C125.2 440.105 125.648 438.733 126.544 437.8C127.458 436.867 128.858 436.344 130.744 436.232L131.836 436.176L132.032 437.912L130.744 437.996C129.978 438.052 129.353 438.22 128.868 438.5C128.382 438.78 128.028 439.181 127.804 439.704C127.58 440.227 127.468 440.871 127.468 441.636V442.812L127.132 442.392H131.388V444.156H127.468V456H125.2ZM135.173 461.04L137.721 455.3V456.28L131.757 442.392H134.221L139.093 454.32H138.337L143.265 442.392H145.645L137.553 461.04H135.173ZM160.947 456.252C159.584 456.252 158.408 455.953 157.419 455.356C156.429 454.759 155.664 453.928 155.123 452.864C154.6 451.781 154.339 450.531 154.339 449.112C154.339 447.675 154.6 446.433 155.123 445.388C155.664 444.343 156.429 443.54 157.419 442.98C158.408 442.42 159.584 442.14 160.947 442.14C161.787 442.14 162.617 442.289 163.439 442.588C164.26 442.887 164.941 443.307 165.483 443.848L164.699 445.5C164.157 444.977 163.56 444.595 162.907 444.352C162.272 444.109 161.665 443.988 161.087 443.988C159.668 443.988 158.576 444.436 157.811 445.332C157.045 446.209 156.663 447.479 156.663 449.14C156.663 450.764 157.045 452.052 157.811 453.004C158.576 453.937 159.668 454.404 161.087 454.404C161.665 454.404 162.272 454.283 162.907 454.04C163.56 453.797 164.157 453.405 164.699 452.864L165.483 454.516C164.941 455.057 164.251 455.487 163.411 455.804C162.589 456.103 161.768 456.252 160.947 456.252ZM173.522 456.252C172.197 456.252 171.049 455.963 170.078 455.384C169.108 454.805 168.352 453.993 167.81 452.948C167.288 451.884 167.026 450.633 167.026 449.196C167.026 447.759 167.288 446.517 167.81 445.472C168.352 444.408 169.108 443.587 170.078 443.008C171.049 442.429 172.197 442.14 173.522 442.14C174.848 442.14 175.996 442.429 176.966 443.008C177.937 443.587 178.684 444.408 179.206 445.472C179.748 446.517 180.018 447.759 180.018 449.196C180.018 450.633 179.748 451.884 179.206 452.948C178.684 453.993 177.937 454.805 176.966 455.384C175.996 455.963 174.848 456.252 173.522 456.252ZM173.522 454.432C174.81 454.432 175.828 453.984 176.574 453.088C177.34 452.173 177.722 450.867 177.722 449.168C177.722 447.488 177.34 446.2 176.574 445.304C175.828 444.408 174.81 443.96 173.522 443.96C172.253 443.96 171.236 444.408 170.47 445.304C169.705 446.2 169.322 447.488 169.322 449.168C169.322 450.867 169.705 452.173 170.47 453.088C171.236 453.984 172.253 454.432 173.522 454.432ZM183.481 456V442.392H185.693V445.416H185.385C185.609 444.725 185.936 444.137 186.365 443.652C186.813 443.148 187.336 442.775 187.933 442.532C188.549 442.271 189.221 442.14 189.949 442.14C191.106 442.14 192.04 442.42 192.749 442.98C193.477 443.521 193.962 444.371 194.205 445.528H193.785C194.121 444.483 194.718 443.661 195.577 443.064C196.454 442.448 197.472 442.14 198.629 442.14C199.656 442.14 200.496 442.336 201.149 442.728C201.821 443.12 202.325 443.717 202.661 444.52C202.997 445.304 203.165 446.303 203.165 447.516V456H200.897V447.628C200.897 446.377 200.682 445.463 200.253 444.884C199.824 444.287 199.096 443.988 198.069 443.988C197.341 443.988 196.697 444.165 196.137 444.52C195.596 444.875 195.176 445.379 194.877 446.032C194.597 446.667 194.457 447.423 194.457 448.3V456H192.189V447.628C192.189 446.377 191.965 445.463 191.517 444.884C191.088 444.287 190.369 443.988 189.361 443.988C188.614 443.988 187.97 444.165 187.429 444.52C186.888 444.875 186.468 445.379 186.169 446.032C185.889 446.667 185.749 447.423 185.749 448.3V456H183.481ZM207.405 461.04V442.392H209.617V445.612H209.337C209.636 444.548 210.224 443.708 211.101 443.092C211.997 442.457 213.061 442.14 214.293 442.14C215.507 442.14 216.561 442.429 217.457 443.008C218.372 443.568 219.072 444.38 219.557 445.444C220.061 446.489 220.313 447.74 220.313 449.196C220.313 450.633 220.061 451.884 219.557 452.948C219.072 453.993 218.381 454.805 217.485 455.384C216.589 455.963 215.525 456.252 214.293 456.252C213.061 456.252 212.007 455.944 211.129 455.328C210.252 454.693 209.655 453.853 209.337 452.808H209.673V461.04H207.405ZM213.817 454.432C215.105 454.432 216.123 453.984 216.869 453.088C217.635 452.173 218.017 450.876 218.017 449.196C218.017 447.497 217.635 446.2 216.869 445.304C216.123 444.408 215.105 443.96 213.817 443.96C212.548 443.96 211.531 444.408 210.765 445.304C210 446.2 209.617 447.497 209.617 449.196C209.617 450.876 210 452.173 210.765 453.088C211.531 453.984 212.548 454.432 213.817 454.432ZM229.386 456.252C228.06 456.252 226.912 455.963 225.942 455.384C224.971 454.805 224.215 453.993 223.674 452.948C223.151 451.884 222.89 450.633 222.89 449.196C222.89 447.759 223.151 446.517 223.674 445.472C224.215 444.408 224.971 443.587 225.942 443.008C226.912 442.429 228.06 442.14 229.386 442.14C230.711 442.14 231.859 442.429 232.83 443.008C233.8 443.587 234.547 444.408 235.07 445.472C235.611 446.517 235.882 447.759 235.882 449.196C235.882 450.633 235.611 451.884 235.07 452.948C234.547 453.993 233.8 454.805 232.83 455.384C231.859 455.963 230.711 456.252 229.386 456.252ZM229.386 454.432C230.674 454.432 231.691 453.984 232.438 453.088C233.203 452.173 233.586 450.867 233.586 449.168C233.586 447.488 233.203 446.2 232.438 445.304C231.691 444.408 230.674 443.96 229.386 443.96C228.116 443.96 227.099 444.408 226.334 445.304C225.568 446.2 225.186 447.488 225.186 449.168C225.186 450.867 225.568 452.173 226.334 453.088C227.099 453.984 228.116 454.432 229.386 454.432ZM239.288 456V442.392H241.5V445.416H241.192C241.584 444.333 242.219 443.521 243.096 442.98C243.992 442.42 245.019 442.14 246.176 442.14C247.259 442.14 248.155 442.336 248.864 442.728C249.592 443.101 250.133 443.689 250.488 444.492C250.843 445.295 251.02 446.303 251.02 447.516V456H248.752V447.656C248.752 446.816 248.64 446.125 248.416 445.584C248.211 445.043 247.875 444.641 247.408 444.38C246.96 444.119 246.372 443.988 245.644 443.988C244.823 443.988 244.104 444.165 243.488 444.52C242.872 444.875 242.396 445.369 242.06 446.004C241.724 446.639 241.556 447.385 241.556 448.244V456H239.288ZM261.334 456.252C259.897 456.252 258.656 455.972 257.61 455.412C256.584 454.833 255.781 454.021 255.202 452.976C254.642 451.931 254.362 450.68 254.362 449.224C254.362 447.805 254.642 446.573 255.202 445.528C255.762 444.464 256.528 443.633 257.498 443.036C258.488 442.439 259.626 442.14 260.914 442.14C262.146 442.14 263.201 442.411 264.078 442.952C264.956 443.493 265.628 444.259 266.094 445.248C266.58 446.237 266.822 447.423 266.822 448.804V449.672H256.098V448.188H265.31L264.862 448.552C264.862 447.059 264.526 445.901 263.854 445.08C263.201 444.24 262.24 443.82 260.97 443.82C260.018 443.82 259.206 444.044 258.534 444.492C257.881 444.921 257.386 445.528 257.05 446.312C256.714 447.077 256.546 447.973 256.546 449V449.168C256.546 450.307 256.724 451.268 257.078 452.052C257.452 452.836 258.002 453.433 258.73 453.844C259.458 454.236 260.326 454.432 261.334 454.432C262.137 454.432 262.912 454.311 263.658 454.068C264.424 453.807 265.142 453.387 265.814 452.808L266.598 454.404C265.982 454.964 265.198 455.412 264.246 455.748C263.294 456.084 262.324 456.252 261.334 456.252ZM270.105 456V442.392H272.317V445.416H272.009C272.401 444.333 273.035 443.521 273.913 442.98C274.809 442.42 275.835 442.14 276.993 442.14C278.075 442.14 278.971 442.336 279.681 442.728C280.409 443.101 280.95 443.689 281.305 444.492C281.659 445.295 281.837 446.303 281.837 447.516V456H279.569V447.656C279.569 446.816 279.457 446.125 279.233 445.584C279.027 445.043 278.691 444.641 278.225 444.38C277.777 444.119 277.189 443.988 276.461 443.988C275.639 443.988 274.921 444.165 274.305 444.52C273.689 444.875 273.213 445.369 272.877 446.004C272.541 446.639 272.373 447.385 272.373 448.244V456H270.105ZM291.479 456.252C289.873 456.252 288.669 455.823 287.867 454.964C287.064 454.105 286.663 452.883 286.663 451.296V444.156H284.003V442.392H286.663V438.22H288.931V442.392H293.243V444.156H288.931V451.072C288.931 452.136 289.155 452.948 289.603 453.508C290.051 454.049 290.779 454.32 291.787 454.32C292.085 454.32 292.384 454.283 292.683 454.208C292.981 454.133 293.252 454.059 293.495 453.984L293.887 455.72C293.644 455.851 293.289 455.972 292.823 456.084C292.356 456.196 291.908 456.252 291.479 456.252ZM300.4 456.252C299.69 456.252 299 456.177 298.328 456.028C297.674 455.897 297.058 455.711 296.48 455.468C295.92 455.207 295.434 454.899 295.024 454.544L295.752 452.948C296.2 453.303 296.685 453.601 297.208 453.844C297.73 454.068 298.262 454.236 298.804 454.348C299.345 454.46 299.896 454.516 300.456 454.516C301.52 454.516 302.322 454.32 302.864 453.928C303.405 453.536 303.676 453.004 303.676 452.332C303.676 451.809 303.498 451.399 303.144 451.1C302.789 450.783 302.229 450.54 301.464 450.372L298.916 449.812C297.74 449.569 296.862 449.149 296.284 448.552C295.724 447.955 295.444 447.18 295.444 446.228C295.444 445.388 295.658 444.669 296.088 444.072C296.536 443.456 297.161 442.98 297.964 442.644C298.766 442.308 299.7 442.14 300.764 442.14C301.398 442.14 302.005 442.205 302.584 442.336C303.162 442.467 303.704 442.663 304.208 442.924C304.73 443.167 305.178 443.475 305.552 443.848L304.796 445.444C304.441 445.108 304.04 444.828 303.592 444.604C303.144 444.361 302.677 444.184 302.192 444.072C301.725 443.941 301.249 443.876 300.764 443.876C299.718 443.876 298.925 444.081 298.384 444.492C297.842 444.903 297.572 445.444 297.572 446.116C297.572 446.639 297.74 447.068 298.076 447.404C298.412 447.74 298.934 447.983 299.644 448.132L302.192 448.664C303.405 448.925 304.31 449.345 304.908 449.924C305.524 450.484 305.832 451.249 305.832 452.22C305.832 453.041 305.608 453.76 305.16 454.376C304.712 454.973 304.077 455.44 303.256 455.776C302.453 456.093 301.501 456.252 300.4 456.252ZM309.963 459.192L308.899 458.38C309.235 458.025 309.487 457.689 309.655 457.372C309.842 457.073 309.963 456.765 310.019 456.448C310.094 456.149 310.131 455.841 310.131 455.524L310.635 456H308.787V453.144H311.643V455.16C311.643 455.664 311.587 456.14 311.475 456.588C311.382 457.055 311.214 457.503 310.971 457.932C310.729 458.361 310.393 458.781 309.963 459.192ZM328.482 456.252C327.119 456.252 325.943 455.953 324.954 455.356C323.965 454.759 323.199 453.928 322.658 452.864C322.135 451.781 321.874 450.531 321.874 449.112C321.874 447.675 322.135 446.433 322.658 445.388C323.199 444.343 323.965 443.54 324.954 442.98C325.943 442.42 327.119 442.14 328.482 442.14C329.322 442.14 330.153 442.289 330.974 442.588C331.795 442.887 332.477 443.307 333.018 443.848L332.234 445.5C331.693 444.977 331.095 444.595 330.442 444.352C329.807 444.109 329.201 443.988 328.622 443.988C327.203 443.988 326.111 444.436 325.346 445.332C324.581 446.209 324.198 447.479 324.198 449.14C324.198 450.764 324.581 452.052 325.346 453.004C326.111 453.937 327.203 454.404 328.622 454.404C329.201 454.404 329.807 454.283 330.442 454.04C331.095 453.797 331.693 453.405 332.234 452.864L333.018 454.516C332.477 455.057 331.786 455.487 330.946 455.804C330.125 456.103 329.303 456.252 328.482 456.252ZM341.057 456.252C339.732 456.252 338.584 455.963 337.613 455.384C336.643 454.805 335.887 453.993 335.345 452.948C334.823 451.884 334.561 450.633 334.561 449.196C334.561 447.759 334.823 446.517 335.345 445.472C335.887 444.408 336.643 443.587 337.613 443.008C338.584 442.429 339.732 442.14 341.057 442.14C342.383 442.14 343.531 442.429 344.501 443.008C345.472 443.587 346.219 444.408 346.741 445.472C347.283 446.517 347.553 447.759 347.553 449.196C347.553 450.633 347.283 451.884 346.741 452.948C346.219 453.993 345.472 454.805 344.501 455.384C343.531 455.963 342.383 456.252 341.057 456.252ZM341.057 454.432C342.345 454.432 343.363 453.984 344.109 453.088C344.875 452.173 345.257 450.867 345.257 449.168C345.257 447.488 344.875 446.2 344.109 445.304C343.363 444.408 342.345 443.96 341.057 443.96C339.788 443.96 338.771 444.408 338.005 445.304C337.24 446.2 336.857 447.488 336.857 449.168C336.857 450.867 337.24 452.173 338.005 453.088C338.771 453.984 339.788 454.432 341.057 454.432ZM355.132 456.252C353.751 456.252 352.705 455.841 351.996 455.02C351.305 454.199 350.96 453.023 350.96 451.492V436.26H353.228V451.324C353.228 451.977 353.312 452.528 353.48 452.976C353.667 453.424 353.937 453.76 354.292 453.984C354.647 454.208 355.085 454.32 355.608 454.32C355.832 454.32 356.047 454.311 356.252 454.292C356.476 454.255 356.681 454.208 356.868 454.152L356.812 456.056C356.513 456.112 356.224 456.159 355.944 456.196C355.683 456.233 355.412 456.252 355.132 456.252ZM364.764 456.252C363.439 456.252 362.291 455.963 361.32 455.384C360.35 454.805 359.594 453.993 359.052 452.948C358.53 451.884 358.268 450.633 358.268 449.196C358.268 447.759 358.53 446.517 359.052 445.472C359.594 444.408 360.35 443.587 361.32 443.008C362.291 442.429 363.439 442.14 364.764 442.14C366.09 442.14 367.238 442.429 368.208 443.008C369.179 443.587 369.926 444.408 370.448 445.472C370.99 446.517 371.26 447.759 371.26 449.196C371.26 450.633 370.99 451.884 370.448 452.948C369.926 453.993 369.179 454.805 368.208 455.384C367.238 455.963 366.09 456.252 364.764 456.252ZM364.764 454.432C366.052 454.432 367.07 453.984 367.816 453.088C368.582 452.173 368.964 450.867 368.964 449.168C368.964 447.488 368.582 446.2 367.816 445.304C367.07 444.408 366.052 443.96 364.764 443.96C363.495 443.96 362.478 444.408 361.712 445.304C360.947 446.2 360.564 447.488 360.564 449.168C360.564 450.867 360.947 452.173 361.712 453.088C362.478 453.984 363.495 454.432 364.764 454.432ZM379.483 456.252C378.382 456.252 377.467 456.056 376.739 455.664C376.03 455.253 375.488 454.647 375.115 453.844C374.76 453.041 374.583 452.043 374.583 450.848V442.392H376.851V450.82C376.851 451.623 376.954 452.295 377.159 452.836C377.383 453.359 377.728 453.751 378.195 454.012C378.662 454.255 379.24 454.376 379.931 454.376C380.715 454.376 381.396 454.199 381.975 453.844C382.554 453.489 383.011 452.995 383.347 452.36C383.683 451.725 383.851 450.979 383.851 450.12V442.392H386.119V456H383.907V452.864H384.271C383.898 453.965 383.282 454.805 382.423 455.384C381.583 455.963 380.603 456.252 379.483 456.252ZM390.362 456V442.392H392.574V445.612H392.294C392.612 444.511 393.162 443.68 393.946 443.12C394.73 442.541 395.766 442.205 397.054 442.112L397.866 442.028L398.034 443.988L396.606 444.156C395.337 444.268 394.357 444.679 393.666 445.388C392.994 446.079 392.658 447.031 392.658 448.244V456H390.362ZM404.853 456.252C404.143 456.252 403.453 456.177 402.781 456.028C402.127 455.897 401.511 455.711 400.933 455.468C400.373 455.207 399.887 454.899 399.477 454.544L400.205 452.948C400.653 453.303 401.138 453.601 401.661 453.844C402.183 454.068 402.715 454.236 403.257 454.348C403.798 454.46 404.349 454.516 404.909 454.516C405.973 454.516 406.775 454.32 407.317 453.928C407.858 453.536 408.129 453.004 408.129 452.332C408.129 451.809 407.951 451.399 407.597 451.1C407.242 450.783 406.682 450.54 405.917 450.372L403.369 449.812C402.193 449.569 401.315 449.149 400.737 448.552C400.177 447.955 399.897 447.18 399.897 446.228C399.897 445.388 400.111 444.669 400.541 444.072C400.989 443.456 401.614 442.98 402.417 442.644C403.219 442.308 404.153 442.14 405.217 442.14C405.851 442.14 406.458 442.205 407.037 442.336C407.615 442.467 408.157 442.663 408.661 442.924C409.183 443.167 409.631 443.475 410.005 443.848L409.249 445.444C408.894 445.108 408.493 444.828 408.045 444.604C407.597 444.361 407.13 444.184 406.645 444.072C406.178 443.941 405.702 443.876 405.217 443.876C404.171 443.876 403.378 444.081 402.837 444.492C402.295 444.903 402.025 445.444 402.025 446.116C402.025 446.639 402.193 447.068 402.529 447.404C402.865 447.74 403.387 447.983 404.097 448.132L406.645 448.664C407.858 448.925 408.763 449.345 409.361 449.924C409.977 450.484 410.285 451.249 410.285 452.22C410.285 453.041 410.061 453.76 409.613 454.376C409.165 454.973 408.53 455.44 407.709 455.776C406.906 456.093 405.954 456.252 404.853 456.252ZM414.417 459.192L413.353 458.38C413.689 458.025 413.941 457.689 414.109 457.372C414.295 457.073 414.417 456.765 414.473 456.448C414.547 456.149 414.585 455.841 414.585 455.524L415.089 456H413.241V453.144H416.097V455.16C416.097 455.664 416.041 456.14 415.929 456.588C415.835 457.055 415.667 457.503 415.425 457.932C415.182 458.361 414.846 458.781 414.417 459.192ZM431.451 456.252C430.518 456.252 429.678 456.075 428.931 455.72C428.203 455.347 427.624 454.843 427.195 454.208C426.766 453.573 426.551 452.864 426.551 452.08C426.551 451.072 426.803 450.279 427.307 449.7C427.83 449.121 428.679 448.711 429.855 448.468C431.05 448.225 432.674 448.104 434.727 448.104H435.987V449.588H434.755C433.616 449.588 432.664 449.625 431.899 449.7C431.134 449.775 430.527 449.905 430.079 450.092C429.631 450.279 429.314 450.521 429.127 450.82C428.94 451.119 428.847 451.492 428.847 451.94C428.847 452.705 429.108 453.331 429.631 453.816C430.172 454.301 430.9 454.544 431.815 454.544C432.562 454.544 433.215 454.367 433.775 454.012C434.354 453.657 434.802 453.172 435.119 452.556C435.455 451.94 435.623 451.231 435.623 450.428V447.236C435.623 446.079 435.39 445.248 434.923 444.744C434.456 444.221 433.691 443.96 432.627 443.96C431.806 443.96 431.012 444.081 430.247 444.324C429.482 444.548 428.698 444.921 427.895 445.444L427.111 443.792C427.596 443.456 428.147 443.167 428.763 442.924C429.379 442.663 430.023 442.467 430.695 442.336C431.367 442.205 432.011 442.14 432.627 442.14C433.803 442.14 434.774 442.336 435.539 442.728C436.304 443.101 436.874 443.68 437.247 444.464C437.62 445.229 437.807 446.219 437.807 447.432V456H435.679V452.836H435.931C435.782 453.545 435.492 454.152 435.063 454.656C434.652 455.16 434.139 455.552 433.523 455.832C432.907 456.112 432.216 456.252 431.451 456.252ZM442.015 456V442.392H444.227V445.416H443.919C444.311 444.333 444.945 443.521 445.823 442.98C446.719 442.42 447.745 442.14 448.903 442.14C449.985 442.14 450.881 442.336 451.591 442.728C452.319 443.101 452.86 443.689 453.215 444.492C453.569 445.295 453.747 446.303 453.747 447.516V456H451.479V447.656C451.479 446.816 451.367 446.125 451.143 445.584C450.937 445.043 450.601 444.641 450.135 444.38C449.687 444.119 449.099 443.988 448.371 443.988C447.549 443.988 446.831 444.165 446.215 444.52C445.599 444.875 445.123 445.369 444.787 446.004C444.451 446.639 444.283 447.385 444.283 448.244V456H442.015ZM463.109 456.252C461.895 456.252 460.831 455.963 459.917 455.384C459.021 454.805 458.321 453.993 457.817 452.948C457.331 451.884 457.089 450.633 457.089 449.196C457.089 447.74 457.331 446.489 457.817 445.444C458.321 444.38 459.021 443.568 459.917 443.008C460.831 442.429 461.895 442.14 463.109 442.14C464.341 442.14 465.395 442.448 466.273 443.064C467.15 443.68 467.738 444.511 468.037 445.556H467.729V436.26H469.997V456H467.785V452.752H468.065C467.766 453.816 467.169 454.665 466.273 455.3C465.395 455.935 464.341 456.252 463.109 456.252ZM463.585 454.432C464.873 454.432 465.89 453.984 466.637 453.088C467.402 452.173 467.785 450.876 467.785 449.196C467.785 447.497 467.402 446.2 466.637 445.304C465.89 444.408 464.873 443.96 463.585 443.96C462.315 443.96 461.298 444.408 460.533 445.304C459.767 446.2 459.385 447.497 459.385 449.196C459.385 450.876 459.767 452.173 460.533 453.088C461.298 453.984 462.315 454.432 463.585 454.432ZM485.616 456.252C484.235 456.252 483.19 455.841 482.48 455.02C481.79 454.199 481.444 453.023 481.444 451.492V436.26H483.712V451.324C483.712 451.977 483.796 452.528 483.964 452.976C484.151 453.424 484.422 453.76 484.776 453.984C485.131 454.208 485.57 454.32 486.092 454.32C486.316 454.32 486.531 454.311 486.736 454.292C486.96 454.255 487.166 454.208 487.352 454.152L487.296 456.056C486.998 456.112 486.708 456.159 486.428 456.196C486.167 456.233 485.896 456.252 485.616 456.252ZM494.014 456.252C493.08 456.252 492.24 456.075 491.494 455.72C490.766 455.347 490.187 454.843 489.758 454.208C489.328 453.573 489.114 452.864 489.114 452.08C489.114 451.072 489.366 450.279 489.87 449.7C490.392 449.121 491.242 448.711 492.418 448.468C493.612 448.225 495.236 448.104 497.29 448.104H498.55V449.588H497.318C496.179 449.588 495.227 449.625 494.462 449.7C493.696 449.775 493.09 449.905 492.642 450.092C492.194 450.279 491.876 450.521 491.69 450.82C491.503 451.119 491.41 451.492 491.41 451.94C491.41 452.705 491.671 453.331 492.194 453.816C492.735 454.301 493.463 454.544 494.378 454.544C495.124 454.544 495.778 454.367 496.338 454.012C496.916 453.657 497.364 453.172 497.682 452.556C498.018 451.94 498.186 451.231 498.186 450.428V447.236C498.186 446.079 497.952 445.248 497.486 444.744C497.019 444.221 496.254 443.96 495.19 443.96C494.368 443.96 493.575 444.081 492.81 444.324C492.044 444.548 491.26 444.921 490.458 445.444L489.674 443.792C490.159 443.456 490.71 443.167 491.326 442.924C491.942 442.663 492.586 442.467 493.258 442.336C493.93 442.205 494.574 442.14 495.19 442.14C496.366 442.14 497.336 442.336 498.102 442.728C498.867 443.101 499.436 443.68 499.81 444.464C500.183 445.229 500.37 446.219 500.37 447.432V456H498.242V452.836H498.494C498.344 453.545 498.055 454.152 497.626 454.656C497.215 455.16 496.702 455.552 496.086 455.832C495.47 456.112 494.779 456.252 494.014 456.252ZM506.008 461.04L508.557 455.3V456.28L502.593 442.392H505.057L509.929 454.32H509.173L514.101 442.392H516.481L508.389 461.04H506.008ZM524.288 456.252C522.963 456.252 521.815 455.963 520.844 455.384C519.873 454.805 519.117 453.993 518.576 452.948C518.053 451.884 517.792 450.633 517.792 449.196C517.792 447.759 518.053 446.517 518.576 445.472C519.117 444.408 519.873 443.587 520.844 443.008C521.815 442.429 522.963 442.14 524.288 442.14C525.613 442.14 526.761 442.429 527.732 443.008C528.703 443.587 529.449 444.408 529.972 445.472C530.513 446.517 530.784 447.759 530.784 449.196C530.784 450.633 530.513 451.884 529.972 452.948C529.449 453.993 528.703 454.805 527.732 455.384C526.761 455.963 525.613 456.252 524.288 456.252ZM524.288 454.432C525.576 454.432 526.593 453.984 527.34 453.088C528.105 452.173 528.488 450.867 528.488 449.168C528.488 447.488 528.105 446.2 527.34 445.304C526.593 444.408 525.576 443.96 524.288 443.96C523.019 443.96 522.001 444.408 521.236 445.304C520.471 446.2 520.088 447.488 520.088 449.168C520.088 450.867 520.471 452.173 521.236 453.088C522.001 453.984 523.019 454.432 524.288 454.432ZM539.007 456.252C537.905 456.252 536.991 456.056 536.263 455.664C535.553 455.253 535.012 454.647 534.639 453.844C534.284 453.041 534.107 452.043 534.107 450.848V442.392H536.375V450.82C536.375 451.623 536.477 452.295 536.683 452.836C536.907 453.359 537.252 453.751 537.719 454.012C538.185 454.255 538.764 454.376 539.454 454.376C540.239 454.376 540.92 454.199 541.499 453.844C542.077 453.489 542.535 452.995 542.871 452.36C543.207 451.725 543.375 450.979 543.375 450.12V442.392H545.643V456H543.431V452.864H543.795C543.421 453.965 542.805 454.805 541.947 455.384C541.107 455.963 540.127 456.252 539.007 456.252ZM555.346 456.252C553.74 456.252 552.536 455.823 551.734 454.964C550.931 454.105 550.53 452.883 550.53 451.296V444.156H547.87V442.392H550.53V438.22H552.798V442.392H557.11V444.156H552.798V451.072C552.798 452.136 553.022 452.948 553.47 453.508C553.918 454.049 554.646 454.32 555.654 454.32C555.952 454.32 556.251 454.283 556.55 454.208C556.848 454.133 557.119 454.059 557.362 453.984L557.754 455.72C557.511 455.851 557.156 455.972 556.69 456.084C556.223 456.196 555.775 456.252 555.346 456.252ZM571.15 456.252C570.217 456.252 569.377 456.075 568.63 455.72C567.902 455.347 567.324 454.843 566.894 454.208C566.465 453.573 566.25 452.864 566.25 452.08C566.25 451.072 566.502 450.279 567.006 449.7C567.529 449.121 568.378 448.711 569.554 448.468C570.749 448.225 572.373 448.104 574.426 448.104H575.686V449.588H574.454C573.316 449.588 572.364 449.625 571.598 449.7C570.833 449.775 570.226 449.905 569.778 450.092C569.33 450.279 569.013 450.521 568.826 450.82C568.64 451.119 568.546 451.492 568.546 451.94C568.546 452.705 568.808 453.331 569.33 453.816C569.872 454.301 570.6 454.544 571.514 454.544C572.261 454.544 572.914 454.367 573.474 454.012C574.053 453.657 574.501 453.172 574.818 452.556C575.154 451.94 575.322 451.231 575.322 450.428V447.236C575.322 446.079 575.089 445.248 574.622 444.744C574.156 444.221 573.39 443.96 572.326 443.96C571.505 443.96 570.712 444.081 569.946 444.324C569.181 444.548 568.397 444.921 567.594 445.444L566.81 443.792C567.296 443.456 567.846 443.167 568.462 442.924C569.078 442.663 569.722 442.467 570.394 442.336C571.066 442.205 571.71 442.14 572.326 442.14C573.502 442.14 574.473 442.336 575.238 442.728C576.004 443.101 576.573 443.68 576.946 444.464C577.32 445.229 577.506 446.219 577.506 447.432V456H575.378V452.836H575.63C575.481 453.545 575.192 454.152 574.762 454.656C574.352 455.16 573.838 455.552 573.222 455.832C572.606 456.112 571.916 456.252 571.15 456.252ZM587.174 456.252C585.569 456.252 584.365 455.823 583.562 454.964C582.759 454.105 582.358 452.883 582.358 451.296V444.156H579.698V442.392H582.358V438.22H584.626V442.392H588.938V444.156H584.626V451.072C584.626 452.136 584.85 452.948 585.298 453.508C585.746 454.049 586.474 454.32 587.482 454.32C587.781 454.32 588.079 454.283 588.378 454.208C588.677 454.133 588.947 454.059 589.19 453.984L589.582 455.72C589.339 455.851 588.985 455.972 588.518 456.084C588.051 456.196 587.603 456.252 587.174 456.252ZM602.978 456.252C602.045 456.252 601.205 456.075 600.458 455.72C599.73 455.347 599.152 454.843 598.722 454.208C598.293 453.573 598.078 452.864 598.078 452.08C598.078 451.072 598.33 450.279 598.834 449.7C599.357 449.121 600.206 448.711 601.382 448.468C602.577 448.225 604.201 448.104 606.254 448.104H607.514V449.588H606.282C605.144 449.588 604.192 449.625 603.426 449.7C602.661 449.775 602.054 449.905 601.606 450.092C601.158 450.279 600.841 450.521 600.654 450.82C600.468 451.119 600.374 451.492 600.374 451.94C600.374 452.705 600.636 453.331 601.158 453.816C601.7 454.301 602.428 454.544 603.342 454.544C604.089 454.544 604.742 454.367 605.302 454.012C605.881 453.657 606.329 453.172 606.646 452.556C606.982 451.94 607.15 451.231 607.15 450.428V447.236C607.15 446.079 606.917 445.248 606.45 444.744C605.984 444.221 605.218 443.96 604.154 443.96C603.333 443.96 602.54 444.081 601.774 444.324C601.009 444.548 600.225 444.921 599.422 445.444L598.638 443.792C599.124 443.456 599.674 443.167 600.29 442.924C600.906 442.663 601.55 442.467 602.222 442.336C602.894 442.205 603.538 442.14 604.154 442.14C605.33 442.14 606.301 442.336 607.066 442.728C607.832 443.101 608.401 443.68 608.774 444.464C609.148 445.229 609.334 446.219 609.334 447.432V456H607.206V452.836H607.458C607.309 453.545 607.02 454.152 606.59 454.656C606.18 455.16 605.666 455.552 605.05 455.832C604.434 456.112 603.744 456.252 602.978 456.252ZM613.542 456V442.392H615.754V445.416H615.446C615.838 444.333 616.473 443.521 617.35 442.98C618.246 442.42 619.273 442.14 620.43 442.14C621.513 442.14 622.409 442.336 623.118 442.728C623.846 443.101 624.387 443.689 624.742 444.492C625.097 445.295 625.274 446.303 625.274 447.516V456H623.006V447.656C623.006 446.816 622.894 446.125 622.67 445.584C622.465 445.043 622.129 444.641 621.662 444.38C621.214 444.119 620.626 443.988 619.898 443.988C619.077 443.988 618.358 444.165 617.742 444.52C617.126 444.875 616.65 445.369 616.314 446.004C615.978 446.639 615.81 447.385 615.81 448.244V456H613.542ZM630.887 461.04L633.435 455.3V456.28L627.471 442.392H629.935L634.807 454.32H634.051L638.979 442.392H641.359L633.267 461.04H630.887ZM656.354 456.252C654.748 456.252 653.544 455.823 652.742 454.964C651.939 454.105 651.538 452.883 651.538 451.296V444.156H648.878V442.392H651.538V438.22H653.806V442.392H658.118V444.156H653.806V451.072C653.806 452.136 654.03 452.948 654.478 453.508C654.926 454.049 655.654 454.32 656.662 454.32C656.96 454.32 657.259 454.283 657.558 454.208C657.856 454.133 658.127 454.059 658.37 453.984L658.762 455.72C658.519 455.851 658.164 455.972 657.698 456.084C657.231 456.196 656.783 456.252 656.354 456.252ZM660.403 439.004V436.456H663.203V439.004H660.403ZM660.683 456V442.392H662.951V456H660.683ZM667.247 456V442.392H669.459V445.416H669.151C669.375 444.725 669.701 444.137 670.131 443.652C670.579 443.148 671.101 442.775 671.699 442.532C672.315 442.271 672.987 442.14 673.715 442.14C674.872 442.14 675.805 442.42 676.515 442.98C677.243 443.521 677.728 444.371 677.971 445.528H677.551C677.887 444.483 678.484 443.661 679.343 443.064C680.22 442.448 681.237 442.14 682.395 442.14C683.421 442.14 684.261 442.336 684.915 442.728C685.587 443.12 686.091 443.717 686.427 444.52C686.763 445.304 686.931 446.303 686.931 447.516V456H684.663V447.628C684.663 446.377 684.448 445.463 684.019 444.884C683.589 444.287 682.861 443.988 681.835 443.988C681.107 443.988 680.463 444.165 679.903 444.52C679.361 444.875 678.941 445.379 678.643 446.032C678.363 446.667 678.223 447.423 678.223 448.3V456H675.955V447.628C675.955 446.377 675.731 445.463 675.283 444.884C674.853 444.287 674.135 443.988 673.127 443.988C672.38 443.988 671.736 444.165 671.195 444.52C670.653 444.875 670.233 445.379 669.935 446.032C669.655 446.667 669.515 447.423 669.515 448.3V456H667.247ZM697.303 456.252C695.866 456.252 694.624 455.972 693.579 455.412C692.552 454.833 691.75 454.021 691.171 452.976C690.611 451.931 690.331 450.68 690.331 449.224C690.331 447.805 690.611 446.573 691.171 445.528C691.731 444.464 692.496 443.633 693.467 443.036C694.456 442.439 695.595 442.14 696.883 442.14C698.115 442.14 699.17 442.411 700.047 442.952C700.924 443.493 701.596 444.259 702.063 445.248C702.548 446.237 702.791 447.423 702.791 448.804V449.672H692.067V448.188H701.279L700.831 448.552C700.831 447.059 700.495 445.901 699.823 445.08C699.17 444.24 698.208 443.82 696.939 443.82C695.987 443.82 695.175 444.044 694.503 444.492C693.85 444.921 693.355 445.528 693.019 446.312C692.683 447.077 692.515 447.973 692.515 449V449.168C692.515 450.307 692.692 451.268 693.047 452.052C693.42 452.836 693.971 453.433 694.699 453.844C695.427 454.236 696.295 454.432 697.303 454.432C698.106 454.432 698.88 454.311 699.627 454.068C700.392 453.807 701.111 453.387 701.783 452.808L702.567 454.404C701.951 454.964 701.167 455.412 700.215 455.748C699.263 456.084 698.292 456.252 697.303 456.252ZM705.709 456V453.144H708.565V456H705.709ZM67.28 494V476.248H60.112V474.26H76.772V476.248H69.604V494H67.28ZM78.9718 494V474.26H81.2398V483.416H80.8758C81.2678 482.333 81.9024 481.521 82.7798 480.98C83.6758 480.42 84.7024 480.14 85.8598 480.14C86.9424 480.14 87.8384 480.336 88.5478 480.728C89.2758 481.12 89.8171 481.717 90.1718 482.52C90.5264 483.304 90.7038 484.303 90.7038 485.516V494H88.4358V485.656C88.4358 484.816 88.3238 484.125 88.0998 483.584C87.8944 483.043 87.5584 482.641 87.0918 482.38C86.6438 482.119 86.0558 481.988 85.3278 481.988C84.5064 481.988 83.7878 482.165 83.1718 482.52C82.5558 482.875 82.0798 483.369 81.7438 484.004C81.4078 484.639 81.2398 485.385 81.2398 486.244V494H78.9718ZM101.018 494.252C99.5805 494.252 98.3391 493.972 97.2938 493.412C96.2671 492.833 95.4645 492.021 94.8858 490.976C94.3258 489.931 94.0458 488.68 94.0458 487.224C94.0458 485.805 94.3258 484.573 94.8858 483.528C95.4458 482.464 96.2111 481.633 97.1818 481.036C98.1711 480.439 99.3098 480.14 100.598 480.14C101.83 480.14 102.884 480.411 103.762 480.952C104.639 481.493 105.311 482.259 105.778 483.248C106.263 484.237 106.506 485.423 106.506 486.804V487.672H95.7818V486.188H104.994L104.546 486.552C104.546 485.059 104.21 483.901 103.538 483.08C102.884 482.24 101.923 481.82 100.654 481.82C99.7018 481.82 98.8898 482.044 98.2178 482.492C97.5645 482.921 97.0698 483.528 96.7338 484.312C96.3978 485.077 96.2298 485.973 96.2298 487V487.168C96.2298 488.307 96.4071 489.268 96.7618 490.052C97.1351 490.836 97.6858 491.433 98.4138 491.844C99.1418 492.236 100.01 492.432 101.018 492.432C101.82 492.432 102.595 492.311 103.342 492.068C104.107 491.807 104.826 491.387 105.498 490.808L106.282 492.404C105.666 492.964 104.882 493.412 103.93 493.748C102.978 494.084 102.007 494.252 101.018 494.252ZM109.788 494V480.392H112V483.416H111.692C112.084 482.333 112.719 481.521 113.596 480.98C114.492 480.42 115.519 480.14 116.676 480.14C117.759 480.14 118.655 480.336 119.364 480.728C120.092 481.101 120.633 481.689 120.988 482.492C121.343 483.295 121.52 484.303 121.52 485.516V494H119.252V485.656C119.252 484.816 119.14 484.125 118.916 483.584C118.711 483.043 118.375 482.641 117.908 482.38C117.46 482.119 116.872 481.988 116.144 481.988C115.323 481.988 114.604 482.165 113.988 482.52C113.372 482.875 112.896 483.369 112.56 484.004C112.224 484.639 112.056 485.385 112.056 486.244V494H109.788ZM138.354 494.252C136.748 494.252 135.544 493.823 134.742 492.964C133.939 492.105 133.538 490.883 133.538 489.296V482.156H130.878V480.392H133.538V476.22H135.806V480.392H140.118V482.156H135.806V489.072C135.806 490.136 136.03 490.948 136.478 491.508C136.926 492.049 137.654 492.32 138.662 492.32C138.96 492.32 139.259 492.283 139.558 492.208C139.856 492.133 140.127 492.059 140.37 491.984L140.762 493.72C140.519 493.851 140.164 493.972 139.698 494.084C139.231 494.196 138.783 494.252 138.354 494.252ZM148.678 494.252C147.241 494.252 145.999 493.972 144.954 493.412C143.927 492.833 143.125 492.021 142.546 490.976C141.986 489.931 141.706 488.68 141.706 487.224C141.706 485.805 141.986 484.573 142.546 483.528C143.106 482.464 143.871 481.633 144.842 481.036C145.831 480.439 146.97 480.14 148.258 480.14C149.49 480.14 150.545 480.411 151.422 480.952C152.299 481.493 152.971 482.259 153.438 483.248C153.923 484.237 154.166 485.423 154.166 486.804V487.672H143.442V486.188H152.654L152.206 486.552C152.206 485.059 151.87 483.901 151.198 483.08C150.545 482.24 149.583 481.82 148.314 481.82C147.362 481.82 146.55 482.044 145.878 482.492C145.225 482.921 144.73 483.528 144.394 484.312C144.058 485.077 143.89 485.973 143.89 487V487.168C143.89 488.307 144.067 489.268 144.422 490.052C144.795 490.836 145.346 491.433 146.074 491.844C146.802 492.236 147.67 492.432 148.678 492.432C149.481 492.432 150.255 492.311 151.002 492.068C151.767 491.807 152.486 491.387 153.158 490.808L153.942 492.404C153.326 492.964 152.542 493.412 151.59 493.748C150.638 494.084 149.667 494.252 148.678 494.252ZM162.04 494.252C161.331 494.252 160.64 494.177 159.968 494.028C159.315 493.897 158.699 493.711 158.12 493.468C157.56 493.207 157.075 492.899 156.664 492.544L157.392 490.948C157.84 491.303 158.326 491.601 158.848 491.844C159.371 492.068 159.903 492.236 160.444 492.348C160.986 492.46 161.536 492.516 162.096 492.516C163.16 492.516 163.963 492.32 164.504 491.928C165.046 491.536 165.316 491.004 165.316 490.332C165.316 489.809 165.139 489.399 164.784 489.1C164.43 488.783 163.87 488.54 163.104 488.372L160.556 487.812C159.38 487.569 158.503 487.149 157.924 486.552C157.364 485.955 157.084 485.18 157.084 484.228C157.084 483.388 157.299 482.669 157.728 482.072C158.176 481.456 158.802 480.98 159.604 480.644C160.407 480.308 161.34 480.14 162.404 480.14C163.039 480.14 163.646 480.205 164.224 480.336C164.803 480.467 165.344 480.663 165.848 480.924C166.371 481.167 166.819 481.475 167.192 481.848L166.436 483.444C166.082 483.108 165.68 482.828 165.232 482.604C164.784 482.361 164.318 482.184 163.832 482.072C163.366 481.941 162.89 481.876 162.404 481.876C161.359 481.876 160.566 482.081 160.024 482.492C159.483 482.903 159.212 483.444 159.212 484.116C159.212 484.639 159.38 485.068 159.716 485.404C160.052 485.74 160.575 485.983 161.284 486.132L163.832 486.664C165.046 486.925 165.951 487.345 166.548 487.924C167.164 488.484 167.472 489.249 167.472 490.22C167.472 491.041 167.248 491.76 166.8 492.376C166.352 492.973 165.718 493.44 164.896 493.776C164.094 494.093 163.142 494.252 162.04 494.252ZM176.252 494.252C174.647 494.252 173.443 493.823 172.64 492.964C171.837 492.105 171.436 490.883 171.436 489.296V482.156H168.776V480.392H171.436V476.22H173.704V480.392H178.016V482.156H173.704V489.072C173.704 490.136 173.928 490.948 174.376 491.508C174.824 492.049 175.552 492.32 176.56 492.32C176.859 492.32 177.157 492.283 177.456 492.208C177.755 492.133 178.025 492.059 178.268 491.984L178.66 493.72C178.417 493.851 178.063 493.972 177.596 494.084C177.129 494.196 176.681 494.252 176.252 494.252ZM192.057 494.252C191.123 494.252 190.283 494.075 189.537 493.72C188.809 493.347 188.23 492.843 187.801 492.208C187.371 491.573 187.157 490.864 187.157 490.08C187.157 489.072 187.409 488.279 187.913 487.7C188.435 487.121 189.285 486.711 190.461 486.468C191.655 486.225 193.279 486.104 195.333 486.104H196.593V487.588H195.361C194.222 487.588 193.27 487.625 192.505 487.7C191.739 487.775 191.133 487.905 190.685 488.092C190.237 488.279 189.919 488.521 189.733 488.82C189.546 489.119 189.453 489.492 189.453 489.94C189.453 490.705 189.714 491.331 190.237 491.816C190.778 492.301 191.506 492.544 192.421 492.544C193.167 492.544 193.821 492.367 194.381 492.012C194.959 491.657 195.407 491.172 195.725 490.556C196.061 489.94 196.229 489.231 196.229 488.428V485.236C196.229 484.079 195.995 483.248 195.529 482.744C195.062 482.221 194.297 481.96 193.233 481.96C192.411 481.96 191.618 482.081 190.853 482.324C190.087 482.548 189.303 482.921 188.501 483.444L187.717 481.792C188.202 481.456 188.753 481.167 189.369 480.924C189.985 480.663 190.629 480.467 191.301 480.336C191.973 480.205 192.617 480.14 193.233 480.14C194.409 480.14 195.379 480.336 196.145 480.728C196.91 481.101 197.479 481.68 197.853 482.464C198.226 483.229 198.413 484.219 198.413 485.432V494H196.285V490.836H196.537C196.387 491.545 196.098 492.152 195.669 492.656C195.258 493.16 194.745 493.552 194.129 493.832C193.513 494.112 192.822 494.252 192.057 494.252ZM208.64 499.292C207.464 499.292 206.354 499.133 205.308 498.816C204.282 498.517 203.367 498.06 202.564 497.444L203.32 495.792C203.88 496.184 204.431 496.501 204.972 496.744C205.532 497.005 206.102 497.192 206.68 497.304C207.278 497.416 207.894 497.472 208.528 497.472C209.854 497.472 210.852 497.117 211.524 496.408C212.215 495.699 212.56 494.672 212.56 493.328V490.164H212.84C212.56 491.247 211.963 492.105 211.048 492.74C210.152 493.375 209.098 493.692 207.884 493.692C206.634 493.692 205.551 493.412 204.636 492.852C203.722 492.273 203.012 491.471 202.508 490.444C202.023 489.417 201.78 488.232 201.78 486.888C201.78 485.544 202.023 484.368 202.508 483.36C203.012 482.333 203.722 481.54 204.636 480.98C205.551 480.42 206.634 480.14 207.884 480.14C209.116 480.14 210.18 480.457 211.076 481.092C211.972 481.708 212.551 482.548 212.812 483.612H212.56V480.392H214.772V493.02C214.772 494.401 214.539 495.559 214.072 496.492C213.624 497.425 212.943 498.125 212.028 498.592C211.114 499.059 209.984 499.292 208.64 499.292ZM208.304 491.844C209.611 491.844 210.647 491.396 211.412 490.5C212.178 489.604 212.56 488.4 212.56 486.888C212.56 485.376 212.178 484.181 211.412 483.304C210.647 482.408 209.611 481.96 208.304 481.96C207.016 481.96 205.99 482.408 205.224 483.304C204.459 484.181 204.076 485.376 204.076 486.888C204.076 488.4 204.459 489.604 205.224 490.5C205.99 491.396 207.016 491.844 208.304 491.844ZM223.31 494.252C222.377 494.252 221.537 494.075 220.79 493.72C220.062 493.347 219.484 492.843 219.054 492.208C218.625 491.573 218.41 490.864 218.41 490.08C218.41 489.072 218.662 488.279 219.166 487.7C219.689 487.121 220.538 486.711 221.714 486.468C222.909 486.225 224.533 486.104 226.586 486.104H227.846V487.588H226.614C225.476 487.588 224.524 487.625 223.758 487.7C222.993 487.775 222.386 487.905 221.938 488.092C221.49 488.279 221.173 488.521 220.986 488.82C220.8 489.119 220.706 489.492 220.706 489.94C220.706 490.705 220.968 491.331 221.49 491.816C222.032 492.301 222.76 492.544 223.674 492.544C224.421 492.544 225.074 492.367 225.634 492.012C226.213 491.657 226.661 491.172 226.978 490.556C227.314 489.94 227.482 489.231 227.482 488.428V485.236C227.482 484.079 227.249 483.248 226.782 482.744C226.316 482.221 225.55 481.96 224.486 481.96C223.665 481.96 222.872 482.081 222.106 482.324C221.341 482.548 220.557 482.921 219.754 483.444L218.97 481.792C219.456 481.456 220.006 481.167 220.622 480.924C221.238 480.663 221.882 480.467 222.554 480.336C223.226 480.205 223.87 480.14 224.486 480.14C225.662 480.14 226.633 480.336 227.398 480.728C228.164 481.101 228.733 481.68 229.106 482.464C229.48 483.229 229.666 484.219 229.666 485.432V494H227.538V490.836H227.79C227.641 491.545 227.352 492.152 226.922 492.656C226.512 493.16 225.998 493.552 225.382 493.832C224.766 494.112 224.076 494.252 223.31 494.252ZM233.594 477.004V474.456H236.394V477.004H233.594ZM233.874 494V480.392H236.142V494H233.874ZM240.382 494V480.392H242.594V483.416H242.286C242.678 482.333 243.313 481.521 244.19 480.98C245.086 480.42 246.113 480.14 247.27 480.14C248.353 480.14 249.249 480.336 249.958 480.728C250.686 481.101 251.227 481.689 251.582 482.492C251.937 483.295 252.114 484.303 252.114 485.516V494H249.846V485.656C249.846 484.816 249.734 484.125 249.51 483.584C249.305 483.043 248.969 482.641 248.502 482.38C248.054 482.119 247.466 481.988 246.738 481.988C245.917 481.988 245.198 482.165 244.582 482.52C243.966 482.875 243.49 483.369 243.154 484.004C242.818 484.639 242.65 485.385 242.65 486.244V494H240.382ZM255.932 494V491.144H258.788V494H255.932Z" fill="#D9D9D9"/>
<g filter="url(#filter4_f_1247_667)">
<ellipse cx="430" cy="226" rx="233" ry="146" fill="#4A33BC" fill-opacity="0.25"/>
</g>
</g>
<defs>
<filter id="filter0_b_1247_667" x="21.3" y="-11.7" width="789.4" height="553.4" filterUnits="userSpaceOnUse" color-interpolation-filters="sRGB">
<feFlood flood-opacity="0" result="BackgroundImageFix"/>
<feGaussianBlur in="BackgroundImageFix" stdDeviation="5.85"/>
<feComposite in2="SourceAlpha" operator="in" result="effect1_backgroundBlur_1247_667"/>
<feBlend mode="normal" in="SourceGraphic" in2="effect1_backgroundBlur_1247_667" result="shape"/>
</filter>
<filter id="filter1_bdi_1247_667" x="219.993" y="38.8635" width="280.143" height="200.96" filterUnits="userSpaceOnUse" color-interpolation-filters="sRGB">
<feFlood flood-opacity="0" result="BackgroundImageFix"/>
<feGaussianBlur in="BackgroundImageFix" stdDeviation="3.41304"/>
<feComposite in2="SourceAlpha" operator="in" result="effect1_backgroundBlur_1247_667"/>
<feColorMatrix in="SourceAlpha" type="matrix" values="0 0 0 0 0 0 0 0 0 0 0 0 0 0 0 0 0 0 127 0" result="hardAlpha"/>
<feOffset/>
<feGaussianBlur stdDeviation="4.84652"/>
<feComposite in2="hardAlpha" operator="out"/>
<feColorMatrix type="matrix" values="0 0 0 0 0 0 0 0 0 0 0 0 0 0 0 0 0 0 0.25 0"/>
<feBlend mode="normal" in2="effect1_backgroundBlur_1247_667" result="effect2_dropShadow_1247_667"/>
<feBlend mode="normal" in="SourceGraphic" in2="effect2_dropShadow_1247_667" result="shape"/>
<feColorMatrix in="SourceAlpha" type="matrix" values="0 0 0 0 0 0 0 0 0 0 0 0 0 0 0 0 0 0 127 0" result="hardAlpha"/>
<feOffset dx="-1.36522"/>
<feComposite in2="hardAlpha" operator="arithmetic" k2="-1" k3="1"/>
<feColorMatrix type="matrix" values="0 0 0 0 1 0 0 0 0 1 0 0 0 0 1 0 0 0 0.35 0"/>
<feBlend mode="normal" in2="shape" result="effect3_innerShadow_1247_667"/>
</filter>
<filter id="filter2_bdi_1247_667" x="349.69" y="89.3765" width="280.143" height="200.96" filterUnits="userSpaceOnUse" color-interpolation-filters="sRGB">
<feFlood flood-opacity="0" result="BackgroundImageFix"/>
<feGaussianBlur in="BackgroundImageFix" stdDeviation="3.41304"/>
<feComposite in2="SourceAlpha" operator="in" result="effect1_backgroundBlur_1247_667"/>
<feColorMatrix in="SourceAlpha" type="matrix" values="0 0 0 0 0 0 0 0 0 0 0 0 0 0 0 0 0 0 127 0" result="hardAlpha"/>
<feOffset/>
<feGaussianBlur stdDeviation="4.84652"/>
<feComposite in2="hardAlpha" operator="out"/>
<feColorMatrix type="matrix" values="0 0 0 0 0 0 0 0 0 0 0 0 0 0 0 0 0 0 0.25 0"/>
<feBlend mode="normal" in2="effect1_backgroundBlur_1247_667" result="effect2_dropShadow_1247_667"/>
<feBlend mode="normal" in="SourceGraphic" in2="effect2_dropShadow_1247_667" result="shape"/>
<feColorMatrix in="SourceAlpha" type="matrix" values="0 0 0 0 0 0 0 0 0 0 0 0 0 0 0 0 0 0 127 0" result="hardAlpha"/>
<feOffset dx="-1.36522"/>
<feComposite in2="hardAlpha" operator="arithmetic" k2="-1" k3="1"/>
<feColorMatrix type="matrix" values="0 0 0 0 1 0 0 0 0 1 0 0 0 0 1 0 0 0 0.35 0"/>
<feBlend mode="normal" in2="shape" result="effect3_innerShadow_1247_667"/>
</filter>
<filter id="filter3_bdi_1247_667" x="155.828" y="145.35" width="149.082" height="149.082" filterUnits="userSpaceOnUse" color-interpolation-filters="sRGB">
<feFlood flood-opacity="0" result="BackgroundImageFix"/>
<feGaussianBlur in="BackgroundImageFix" stdDeviation="3.41304"/>
<feComposite in2="SourceAlpha" operator="in" result="effect1_backgroundBlur_1247_667"/>
<feColorMatrix in="SourceAlpha" type="matrix" values="0 0 0 0 0 0 0 0 0 0 0 0 0 0 0 0 0 0 127 0" result="hardAlpha"/>
<feOffset/>
<feGaussianBlur stdDeviation="4.84652"/>
<feComposite in2="hardAlpha" operator="out"/>
<feColorMatrix type="matrix" values="0 0 0 0 0 0 0 0 0 0 0 0 0 0 0 0 0 0 0.25 0"/>
<feBlend mode="normal" in2="effect1_backgroundBlur_1247_667" result="effect2_dropShadow_1247_667"/>
<feBlend mode="normal" in="SourceGraphic" in2="effect2_dropShadow_1247_667" result="shape"/>
<feColorMatrix in="SourceAlpha" type="matrix" values="0 0 0 0 0 0 0 0 0 0 0 0 0 0 0 0 0 0 127 0" result="hardAlpha"/>
<feOffset dx="-1.36522"/>
<feComposite in2="hardAlpha" operator="arithmetic" k2="-1" k3="1"/>
<feColorMatrix type="matrix" values="0 0 0 0 1 0 0 0 0 1 0 0 0 0 1 0 0 0 0.35 0"/>
<feBlend mode="normal" in2="shape" result="effect3_innerShadow_1247_667"/>
</filter>
<filter id="filter4_f_1247_667" x="133" y="16" width="594" height="420" filterUnits="userSpaceOnUse" color-interpolation-filters="sRGB">
<feFlood flood-opacity="0" result="BackgroundImageFix"/>
<feBlend mode="normal" in="SourceGraphic" in2="BackgroundImageFix" result="shape"/>
<feGaussianBlur stdDeviation="32" result="effect1_foregroundBlur_1247_667"/>
</filter>
<linearGradient id="paint0_linear_1247_667" x1="416" y1="468.846" x2="416" y2="30.5769" gradientUnits="userSpaceOnUse">
<stop offset="0.207188" stop-color="#292929"/>
<stop offset="1" stop-color="#8778D7"/>
</linearGradient>
<linearGradient id="paint1_linear_1247_667" x1="185.821" y1="86.6742" x2="435.7" y2="325.943" gradientUnits="userSpaceOnUse">
<stop stop-color="#FF8A65"/>
<stop offset="0.524" stop-color="#FFF586"/>
<stop offset="1" stop-color="#5081EA"/>
</linearGradient>
<linearGradient id="paint2_linear_1247_667" x1="315.517" y1="126.458" x2="532.325" y2="389.272" gradientUnits="userSpaceOnUse">
<stop stop-color="white"/>
<stop offset="1" stop-color="#6D9BFF"/>
</linearGradient>
<radialGradient id="paint3_radial_1247_667" cx="0" cy="0" r="1" gradientUnits="userSpaceOnUse" gradientTransform="translate(511.455 185.172) rotate(90) scale(153.391)">
<stop stop-color="#D9D9D9"/>
<stop offset="1" stop-opacity="0"/>
</radialGradient>
<linearGradient id="paint4_linear_1247_667" x1="143.704" y1="174.607" x2="299.204" y2="305.864" gradientUnits="userSpaceOnUse">
<stop stop-color="#5FC6A3"/>
<stop offset="1" stop-color="#8778D7"/>
</linearGradient>
<clipPath id="clip0_1247_667">
<rect width="723" height="465" fill="white" transform="translate(60 39)"/>
</clipPath>
</defs>
</svg>
