<svg width="379" height="332" viewBox="0 0 379 332" fill="none" xmlns="http://www.w3.org/2000/svg">
<path fill-rule="evenodd" clip-rule="evenodd" d="M181.142 293.418C272.915 293.418 347.312 257.225 347.312 212.578C347.312 167.932 272.915 131.739 181.142 131.739C89.3687 131.739 14.9717 167.932 14.9717 212.578C14.9717 257.225 89.3687 293.418 181.142 293.418ZM181.142 267.968C247.285 267.968 300.904 241.829 300.904 209.584C300.904 177.34 247.285 151.2 181.142 151.2C114.999 151.2 61.3796 177.34 61.3796 209.584C61.3796 241.829 114.999 267.968 181.142 267.968Z" fill="url(#paint0_linear_1925_2875)"/>
<path d="M85.3321 211.081V197.608L35.1816 201.35L37.4272 219.315L85.3321 211.081Z" fill="#2647BD"/>
<mask id="mask0_1925_2875" style="mask-type:alpha" maskUnits="userSpaceOnUse" x="178" y="206" width="168" height="126">
<path d="M178.896 279.945L202.1 224.554L275.455 206.59L345.067 209.584V241.022L285.934 331.592L220.065 326.352L189.376 312.131L178.896 296.412V279.945Z" fill="#D9D9D9"/>
</mask>
<g mask="url(#mask0_1925_2875)">
<path fill-rule="evenodd" clip-rule="evenodd" d="M181.142 293.418C272.915 293.418 347.312 257.225 347.312 212.578C347.312 167.932 272.915 131.739 181.142 131.739C89.3687 131.739 14.9717 167.932 14.9717 212.578C14.9717 257.225 89.3687 293.418 181.142 293.418ZM181.142 267.968C247.285 267.968 300.904 241.829 300.904 209.584C300.904 177.34 247.285 151.2 181.142 151.2C114.999 151.2 61.3796 177.34 61.3796 209.584C61.3796 241.829 114.999 267.968 181.142 267.968Z" fill="#2647BD"/>
<path fill-rule="evenodd" clip-rule="evenodd" d="M181.142 279.945C272.915 279.945 347.312 243.751 347.312 199.105C347.312 154.459 272.915 118.265 181.142 118.265C89.3687 118.265 14.9717 154.459 14.9717 199.105C14.9717 243.751 89.3687 279.945 181.142 279.945ZM181.142 254.495C247.285 254.495 300.904 228.356 300.904 196.111C300.904 163.866 247.285 137.727 181.142 137.727C114.999 137.727 61.3796 163.866 61.3796 196.111C61.3796 228.356 114.999 254.495 181.142 254.495Z" fill="url(#paint1_linear_1925_2875)"/>
</g>
<mask id="mask1_1925_2875" style="mask-type:alpha" maskUnits="userSpaceOnUse" x="0" y="62" width="187" height="159">
<path d="M186.382 104.044L126.5 77.097L88.3262 62.8752L0.75 99.5525L15.7203 154.943V210.333L37.4272 220.812V205.842L92.8173 196.111L186.382 119.014V104.044Z" fill="#D9D9D9"/>
</mask>
<g mask="url(#mask1_1925_2875)">
<path fill-rule="evenodd" clip-rule="evenodd" d="M181.142 259.735C272.915 259.735 347.312 223.542 347.312 178.895C347.312 134.249 272.915 98.0554 181.142 98.0554C89.3687 98.0554 14.9717 134.249 14.9717 178.895C14.9717 223.542 89.3687 259.735 181.142 259.735ZM181.142 234.285C247.285 234.285 300.904 208.146 300.904 175.901C300.904 143.656 247.285 117.517 181.142 117.517C114.999 117.517 61.3796 143.656 61.3796 175.901C61.3796 208.146 114.999 234.285 181.142 234.285Z" fill="#2647BD"/>
<path fill-rule="evenodd" clip-rule="evenodd" d="M181.142 246.261C272.915 246.261 347.312 210.068 347.312 165.422C347.312 120.775 272.915 84.5822 181.142 84.5822C89.3687 84.5822 14.9717 120.775 14.9717 165.422C14.9717 210.068 89.3687 246.261 181.142 246.261ZM181.142 220.812C247.285 220.812 300.904 194.672 300.904 162.428C300.904 130.183 247.285 104.044 181.142 104.044C114.999 104.044 61.3796 130.183 61.3796 162.428C61.3796 194.672 114.999 220.812 181.142 220.812Z" fill="url(#paint2_linear_1925_2875)"/>
</g>
<rect x="299.407" y="131.739" width="46.4079" height="11.9762" fill="#576CBB"/>
<mask id="mask2_1925_2875" style="mask-type:alpha" maskUnits="userSpaceOnUse" x="213" y="0" width="166" height="158">
<path d="M378.75 116.768L251.502 39.6713L285.934 0L235.035 39.6713L213.328 83.0851V110.032L235.035 157.937L299.407 144.463V131.739H378.75V116.768Z" fill="#D9D9D9"/>
</mask>
<g mask="url(#mask2_1925_2875)">
<path fill-rule="evenodd" clip-rule="evenodd" d="M181.142 236.531C272.915 236.531 347.312 200.338 347.312 155.691C347.312 111.045 272.915 74.8514 181.142 74.8514C89.3687 74.8514 14.9717 111.045 14.9717 155.691C14.9717 200.338 89.3687 236.531 181.142 236.531ZM181.142 211.081C247.285 211.081 300.904 184.942 300.904 152.697C300.904 120.452 247.285 94.3128 181.142 94.3128C114.999 94.3128 61.3796 120.452 61.3796 152.697C61.3796 184.942 114.999 211.081 181.142 211.081Z" fill="#748ADA"/>
<path fill-rule="evenodd" clip-rule="evenodd" d="M181.142 223.057C272.915 223.057 347.312 186.864 347.312 142.218C347.312 97.5713 272.915 61.3782 181.142 61.3782C89.3687 61.3782 14.9717 97.5713 14.9717 142.218C14.9717 186.864 89.3687 223.057 181.142 223.057ZM181.142 197.608C247.285 197.608 300.904 171.468 300.904 139.224C300.904 106.979 247.285 80.8396 181.142 80.8396C114.999 80.8396 61.3796 106.979 61.3796 139.224C61.3796 171.468 114.999 197.608 181.142 197.608Z" fill="url(#paint3_linear_1925_2875)"/>
</g>
<defs>
<linearGradient id="paint0_linear_1925_2875" x1="181.142" y1="131.739" x2="-229.793" y2="230.543" gradientUnits="userSpaceOnUse">
<stop stop-color="#2B2641"/>
<stop offset="1" stop-color="#4C5CEC"/>
</linearGradient>
<linearGradient id="paint1_linear_1925_2875" x1="181.142" y1="118.265" x2="181.142" y2="279.945" gradientUnits="userSpaceOnUse">
<stop stop-color="#42A5F5"/>
<stop offset="1" stop-color="#4C5CEC"/>
</linearGradient>
<linearGradient id="paint2_linear_1925_2875" x1="181.142" y1="84.5822" x2="181.142" y2="246.261" gradientUnits="userSpaceOnUse">
<stop stop-color="#42A5F5"/>
<stop offset="1" stop-color="#4C5CEC"/>
</linearGradient>
<linearGradient id="paint3_linear_1925_2875" x1="235.035" y1="77.8455" x2="330.845" y2="122.756" gradientUnits="userSpaceOnUse">
<stop stop-color="#9AD2FF"/>
<stop offset="1" stop-color="white"/>
</linearGradient>
</defs>
</svg>
