<svg width="534" height="477" viewBox="0 0 534 477" fill="none" xmlns="http://www.w3.org/2000/svg">
<g filter="url(#filter0_b_1726_13231)">
<rect width="513" height="439" rx="9.52381" fill="black" fill-opacity="0.4"/>
<rect x="1" y="1" width="511" height="437" rx="8.52381" stroke="url(#paint0_linear_1726_13231)" stroke-opacity="0.75" stroke-width="2"/>
</g>
<path d="M29.976 353.252C28.0347 353.252 26.3733 352.841 24.992 352.02C23.6107 351.199 22.5467 350.032 21.8 348.52C21.072 347.008 20.708 345.207 20.708 343.116C20.708 341.025 21.072 339.233 21.8 337.74C22.5467 336.228 23.6107 335.061 24.992 334.24C26.3733 333.419 28.0347 333.008 29.976 333.008C31.3387 333.008 32.5987 333.223 33.756 333.652C34.9133 334.081 35.884 334.707 36.668 335.528L35.772 337.404C34.9133 336.601 34.0173 336.023 33.084 335.668C32.1693 335.295 31.152 335.108 30.032 335.108C27.8107 335.108 26.112 335.808 24.936 337.208C23.76 338.608 23.172 340.577 23.172 343.116C23.172 345.655 23.76 347.633 24.936 349.052C26.112 350.452 27.8107 351.152 30.032 351.152C31.152 351.152 32.1693 350.975 33.084 350.62C34.0173 350.247 34.9133 349.659 35.772 348.856L36.668 350.732C35.884 351.535 34.9133 352.16 33.756 352.608C32.5987 353.037 31.3387 353.252 29.976 353.252ZM44.6395 353.252C43.3141 353.252 42.1661 352.963 41.1955 352.384C40.2248 351.805 39.4688 350.993 38.9275 349.948C38.4048 348.884 38.1435 347.633 38.1435 346.196C38.1435 344.759 38.4048 343.517 38.9275 342.472C39.4688 341.408 40.2248 340.587 41.1955 340.008C42.1661 339.429 43.3141 339.14 44.6395 339.14C45.9648 339.14 47.1128 339.429 48.0835 340.008C49.0541 340.587 49.8008 341.408 50.3235 342.472C50.8648 343.517 51.1355 344.759 51.1355 346.196C51.1355 347.633 50.8648 348.884 50.3235 349.948C49.8008 350.993 49.0541 351.805 48.0835 352.384C47.1128 352.963 45.9648 353.252 44.6395 353.252ZM44.6395 351.432C45.9275 351.432 46.9448 350.984 47.6915 350.088C48.4568 349.173 48.8395 347.867 48.8395 346.168C48.8395 344.488 48.4568 343.2 47.6915 342.304C46.9448 341.408 45.9275 340.96 44.6395 340.96C43.3701 340.96 42.3528 341.408 41.5875 342.304C40.8221 343.2 40.4395 344.488 40.4395 346.168C40.4395 347.867 40.8221 349.173 41.5875 350.088C42.3528 350.984 43.3701 351.432 44.6395 351.432ZM54.5981 353V339.392H56.8101V342.416H56.5021C56.7261 341.725 57.0527 341.137 57.4821 340.652C57.9301 340.148 58.4527 339.775 59.0501 339.532C59.6661 339.271 60.3381 339.14 61.0661 339.14C62.2234 339.14 63.1567 339.42 63.8661 339.98C64.5941 340.521 65.0794 341.371 65.3221 342.528H64.9021C65.2381 341.483 65.8354 340.661 66.6941 340.064C67.5714 339.448 68.5887 339.14 69.7461 339.14C70.7727 339.14 71.6127 339.336 72.2661 339.728C72.9381 340.12 73.4421 340.717 73.7781 341.52C74.1141 342.304 74.2821 343.303 74.2821 344.516V353H72.0141V344.628C72.0141 343.377 71.7994 342.463 71.3701 341.884C70.9407 341.287 70.2127 340.988 69.1861 340.988C68.4581 340.988 67.8141 341.165 67.2541 341.52C66.7127 341.875 66.2927 342.379 65.9941 343.032C65.7141 343.667 65.5741 344.423 65.5741 345.3V353H63.3061V344.628C63.3061 343.377 63.0821 342.463 62.6341 341.884C62.2047 341.287 61.4861 340.988 60.4781 340.988C59.7314 340.988 59.0874 341.165 58.5461 341.52C58.0047 341.875 57.5847 342.379 57.2861 343.032C57.0061 343.667 56.8661 344.423 56.8661 345.3V353H54.5981ZM78.5785 353V339.392H80.7905V342.416H80.4825C80.7065 341.725 81.0332 341.137 81.4625 340.652C81.9105 340.148 82.4332 339.775 83.0305 339.532C83.6465 339.271 84.3185 339.14 85.0465 339.14C86.2039 339.14 87.1372 339.42 87.8465 339.98C88.5745 340.521 89.0599 341.371 89.3025 342.528H88.8825C89.2185 341.483 89.8159 340.661 90.6745 340.064C91.5519 339.448 92.5692 339.14 93.7265 339.14C94.7532 339.14 95.5932 339.336 96.2465 339.728C96.9185 340.12 97.4225 340.717 97.7585 341.52C98.0945 342.304 98.2625 343.303 98.2625 344.516V353H95.9945V344.628C95.9945 343.377 95.7799 342.463 95.3505 341.884C94.9212 341.287 94.1932 340.988 93.1665 340.988C92.4385 340.988 91.7945 341.165 91.2345 341.52C90.6932 341.875 90.2732 342.379 89.9745 343.032C89.6945 343.667 89.5545 344.423 89.5545 345.3V353H87.2865V344.628C87.2865 343.377 87.0625 342.463 86.6145 341.884C86.1852 341.287 85.4665 340.988 84.4585 340.988C83.7119 340.988 83.0679 341.165 82.5265 341.52C81.9852 341.875 81.5652 342.379 81.2665 343.032C80.9865 343.667 80.8465 344.423 80.8465 345.3V353H78.5785ZM107.319 353.252C106.218 353.252 105.303 353.056 104.575 352.664C103.866 352.253 103.324 351.647 102.951 350.844C102.596 350.041 102.419 349.043 102.419 347.848V339.392H104.687V347.82C104.687 348.623 104.79 349.295 104.995 349.836C105.219 350.359 105.564 350.751 106.031 351.012C106.498 351.255 107.076 351.376 107.767 351.376C108.551 351.376 109.232 351.199 109.811 350.844C110.39 350.489 110.847 349.995 111.183 349.36C111.519 348.725 111.687 347.979 111.687 347.12V339.392H113.955V353H111.743V349.864H112.107C111.734 350.965 111.118 351.805 110.259 352.384C109.419 352.963 108.439 353.252 107.319 353.252ZM118.198 353V339.392H120.41V342.416H120.102C120.494 341.333 121.129 340.521 122.006 339.98C122.902 339.42 123.929 339.14 125.086 339.14C126.169 339.14 127.065 339.336 127.774 339.728C128.502 340.101 129.044 340.689 129.398 341.492C129.753 342.295 129.93 343.303 129.93 344.516V353H127.662V344.656C127.662 343.816 127.55 343.125 127.326 342.584C127.121 342.043 126.785 341.641 126.318 341.38C125.87 341.119 125.282 340.988 124.554 340.988C123.733 340.988 123.014 341.165 122.398 341.52C121.782 341.875 121.306 342.369 120.97 343.004C120.634 343.639 120.466 344.385 120.466 345.244V353H118.198ZM133.832 336.004V333.456H136.632V336.004H133.832ZM134.112 353V339.392H136.38V353H134.112ZM146.388 353.252C145.026 353.252 143.85 352.953 142.86 352.356C141.871 351.759 141.106 350.928 140.564 349.864C140.042 348.781 139.78 347.531 139.78 346.112C139.78 344.675 140.042 343.433 140.564 342.388C141.106 341.343 141.871 340.54 142.86 339.98C143.85 339.42 145.026 339.14 146.388 339.14C147.228 339.14 148.059 339.289 148.88 339.588C149.702 339.887 150.383 340.307 150.924 340.848L150.14 342.5C149.599 341.977 149.002 341.595 148.348 341.352C147.714 341.109 147.107 340.988 146.528 340.988C145.11 340.988 144.018 341.436 143.252 342.332C142.487 343.209 142.104 344.479 142.104 346.14C142.104 347.764 142.487 349.052 143.252 350.004C144.018 350.937 145.11 351.404 146.528 351.404C147.107 351.404 147.714 351.283 148.348 351.04C149.002 350.797 149.599 350.405 150.14 349.864L150.924 351.516C150.383 352.057 149.692 352.487 148.852 352.804C148.031 353.103 147.21 353.252 146.388 353.252ZM157.756 353.252C156.822 353.252 155.982 353.075 155.236 352.72C154.508 352.347 153.929 351.843 153.5 351.208C153.07 350.573 152.856 349.864 152.856 349.08C152.856 348.072 153.108 347.279 153.612 346.7C154.134 346.121 154.984 345.711 156.16 345.468C157.354 345.225 158.978 345.104 161.032 345.104H162.292V346.588H161.06C159.921 346.588 158.969 346.625 158.204 346.7C157.438 346.775 156.832 346.905 156.384 347.092C155.936 347.279 155.618 347.521 155.432 347.82C155.245 348.119 155.152 348.492 155.152 348.94C155.152 349.705 155.413 350.331 155.936 350.816C156.477 351.301 157.205 351.544 158.12 351.544C158.866 351.544 159.52 351.367 160.08 351.012C160.658 350.657 161.106 350.172 161.424 349.556C161.76 348.94 161.928 348.231 161.928 347.428V344.236C161.928 343.079 161.694 342.248 161.228 341.744C160.761 341.221 159.996 340.96 158.932 340.96C158.11 340.96 157.317 341.081 156.552 341.324C155.786 341.548 155.002 341.921 154.2 342.444L153.416 340.792C153.901 340.456 154.452 340.167 155.068 339.924C155.684 339.663 156.328 339.467 157 339.336C157.672 339.205 158.316 339.14 158.932 339.14C160.108 339.14 161.078 339.336 161.844 339.728C162.609 340.101 163.178 340.68 163.552 341.464C163.925 342.229 164.112 343.219 164.112 344.432V353H161.984V349.836H162.236C162.086 350.545 161.797 351.152 161.368 351.656C160.957 352.16 160.444 352.552 159.828 352.832C159.212 353.112 158.521 353.252 157.756 353.252ZM173.779 353.252C172.174 353.252 170.97 352.823 170.167 351.964C169.365 351.105 168.963 349.883 168.963 348.296V341.156H166.303V339.392H168.963V335.22H171.231V339.392H175.543V341.156H171.231V348.072C171.231 349.136 171.455 349.948 171.903 350.508C172.351 351.049 173.079 351.32 174.087 351.32C174.386 351.32 174.685 351.283 174.983 351.208C175.282 351.133 175.553 351.059 175.795 350.984L176.187 352.72C175.945 352.851 175.59 352.972 175.123 353.084C174.657 353.196 174.209 353.252 173.779 353.252ZM184.104 353.252C182.666 353.252 181.425 352.972 180.38 352.412C179.353 351.833 178.55 351.021 177.972 349.976C177.412 348.931 177.132 347.68 177.132 346.224C177.132 344.805 177.412 343.573 177.972 342.528C178.532 341.464 179.297 340.633 180.268 340.036C181.257 339.439 182.396 339.14 183.684 339.14C184.916 339.14 185.97 339.411 186.848 339.952C187.725 340.493 188.397 341.259 188.864 342.248C189.349 343.237 189.592 344.423 189.592 345.804V346.672H178.868V345.188H188.08L187.632 345.552C187.632 344.059 187.296 342.901 186.624 342.08C185.97 341.24 185.009 340.82 183.74 340.82C182.788 340.82 181.976 341.044 181.304 341.492C180.65 341.921 180.156 342.528 179.82 343.312C179.484 344.077 179.316 344.973 179.316 346V346.168C179.316 347.307 179.493 348.268 179.848 349.052C180.221 349.836 180.772 350.433 181.5 350.844C182.228 351.236 183.096 351.432 184.104 351.432C184.906 351.432 185.681 351.311 186.428 351.068C187.193 350.807 187.912 350.387 188.584 349.808L189.368 351.404C188.752 351.964 187.968 352.412 187.016 352.748C186.064 353.084 185.093 353.252 184.104 353.252ZM205.526 353.252C203.92 353.252 202.716 352.823 201.914 351.964C201.111 351.105 200.71 349.883 200.71 348.296V341.156H198.05V339.392H200.71V335.22H202.978V339.392H207.29V341.156H202.978V348.072C202.978 349.136 203.202 349.948 203.65 350.508C204.098 351.049 204.826 351.32 205.834 351.32C206.132 351.32 206.431 351.283 206.73 351.208C207.028 351.133 207.299 351.059 207.542 350.984L207.934 352.72C207.691 352.851 207.336 352.972 206.87 353.084C206.403 353.196 205.955 353.252 205.526 353.252ZM209.855 353V333.26H212.123V342.416H211.759C212.151 341.333 212.785 340.521 213.663 339.98C214.559 339.42 215.585 339.14 216.743 339.14C217.825 339.14 218.721 339.336 219.431 339.728C220.159 340.12 220.7 340.717 221.055 341.52C221.409 342.304 221.587 343.303 221.587 344.516V353H219.319V344.656C219.319 343.816 219.207 343.125 218.983 342.584C218.777 342.043 218.441 341.641 217.975 341.38C217.527 341.119 216.939 340.988 216.211 340.988C215.389 340.988 214.671 341.165 214.055 341.52C213.439 341.875 212.963 342.369 212.627 343.004C212.291 343.639 212.123 344.385 212.123 345.244V353H209.855ZM231.901 353.252C230.463 353.252 229.222 352.972 228.177 352.412C227.15 351.833 226.347 351.021 225.769 349.976C225.209 348.931 224.929 347.68 224.929 346.224C224.929 344.805 225.209 343.573 225.769 342.528C226.329 341.464 227.094 340.633 228.065 340.036C229.054 339.439 230.193 339.14 231.481 339.14C232.713 339.14 233.767 339.411 234.645 339.952C235.522 340.493 236.194 341.259 236.661 342.248C237.146 343.237 237.389 344.423 237.389 345.804V346.672H226.665V345.188H235.877L235.429 345.552C235.429 344.059 235.093 342.901 234.421 342.08C233.767 341.24 232.806 340.82 231.537 340.82C230.585 340.82 229.773 341.044 229.101 341.492C228.447 341.921 227.953 342.528 227.617 343.312C227.281 344.077 227.113 344.973 227.113 346V346.168C227.113 347.307 227.29 348.268 227.645 349.052C228.018 349.836 228.569 350.433 229.297 350.844C230.025 351.236 230.893 351.432 231.901 351.432C232.703 351.432 233.478 351.311 234.225 351.068C234.99 350.807 235.709 350.387 236.381 349.808L237.165 351.404C236.549 351.964 235.765 352.412 234.813 352.748C233.861 353.084 232.89 353.252 231.901 353.252ZM252.146 353.252C251.213 353.252 250.373 353.075 249.626 352.72C248.898 352.347 248.32 351.843 247.89 351.208C247.461 350.573 247.246 349.864 247.246 349.08C247.246 348.072 247.498 347.279 248.002 346.7C248.525 346.121 249.374 345.711 250.55 345.468C251.745 345.225 253.369 345.104 255.422 345.104H256.682V346.588H255.45C254.312 346.588 253.36 346.625 252.594 346.7C251.829 346.775 251.222 346.905 250.774 347.092C250.326 347.279 250.009 347.521 249.822 347.82C249.636 348.119 249.542 348.492 249.542 348.94C249.542 349.705 249.804 350.331 250.326 350.816C250.868 351.301 251.596 351.544 252.51 351.544C253.257 351.544 253.91 351.367 254.47 351.012C255.049 350.657 255.497 350.172 255.814 349.556C256.15 348.94 256.318 348.231 256.318 347.428V344.236C256.318 343.079 256.085 342.248 255.618 341.744C255.152 341.221 254.386 340.96 253.322 340.96C252.501 340.96 251.708 341.081 250.942 341.324C250.177 341.548 249.393 341.921 248.59 342.444L247.806 340.792C248.292 340.456 248.842 340.167 249.458 339.924C250.074 339.663 250.718 339.467 251.39 339.336C252.062 339.205 252.706 339.14 253.322 339.14C254.498 339.14 255.469 339.336 256.234 339.728C257 340.101 257.569 340.68 257.942 341.464C258.316 342.229 258.502 343.219 258.502 344.432V353H256.374V349.836H256.626C256.477 350.545 256.188 351.152 255.758 351.656C255.348 352.16 254.834 352.552 254.218 352.832C253.602 353.112 252.912 353.252 252.146 353.252ZM268.478 353.252C267.115 353.252 265.939 352.953 264.95 352.356C263.961 351.759 263.195 350.928 262.654 349.864C262.131 348.781 261.87 347.531 261.87 346.112C261.87 344.675 262.131 343.433 262.654 342.388C263.195 341.343 263.961 340.54 264.95 339.98C265.939 339.42 267.115 339.14 268.478 339.14C269.318 339.14 270.149 339.289 270.97 339.588C271.791 339.887 272.473 340.307 273.014 340.848L272.23 342.5C271.689 341.977 271.091 341.595 270.438 341.352C269.803 341.109 269.197 340.988 268.618 340.988C267.199 340.988 266.107 341.436 265.342 342.332C264.577 343.209 264.194 344.479 264.194 346.14C264.194 347.764 264.577 349.052 265.342 350.004C266.107 350.937 267.199 351.404 268.618 351.404C269.197 351.404 269.803 351.283 270.438 351.04C271.091 350.797 271.689 350.405 272.23 349.864L273.014 351.516C272.473 352.057 271.782 352.487 270.942 352.804C270.121 353.103 269.299 353.252 268.478 353.252ZM281.131 353.252C279.526 353.252 278.322 352.823 277.519 351.964C276.716 351.105 276.315 349.883 276.315 348.296V341.156H273.655V339.392H276.315V335.22H278.583V339.392H282.895V341.156H278.583V348.072C278.583 349.136 278.807 349.948 279.255 350.508C279.703 351.049 280.431 351.32 281.439 351.32C281.738 351.32 282.036 351.283 282.335 351.208C282.634 351.133 282.904 351.059 283.147 350.984L283.539 352.72C283.296 352.851 282.942 352.972 282.475 353.084C282.008 353.196 281.56 353.252 281.131 353.252ZM290.276 353.252C289.175 353.252 288.26 353.056 287.532 352.664C286.823 352.253 286.281 351.647 285.908 350.844C285.553 350.041 285.376 349.043 285.376 347.848V339.392H287.644V347.82C287.644 348.623 287.747 349.295 287.952 349.836C288.176 350.359 288.521 350.751 288.988 351.012C289.455 351.255 290.033 351.376 290.724 351.376C291.508 351.376 292.189 351.199 292.768 350.844C293.347 350.489 293.804 349.995 294.14 349.36C294.476 348.725 294.644 347.979 294.644 347.12V339.392H296.912V353H294.7V349.864H295.064C294.691 350.965 294.075 351.805 293.216 352.384C292.376 352.963 291.396 353.252 290.276 353.252ZM305.439 353.252C304.506 353.252 303.666 353.075 302.919 352.72C302.191 352.347 301.613 351.843 301.183 351.208C300.754 350.573 300.539 349.864 300.539 349.08C300.539 348.072 300.791 347.279 301.295 346.7C301.818 346.121 302.667 345.711 303.843 345.468C305.038 345.225 306.662 345.104 308.715 345.104H309.975V346.588H308.743C307.605 346.588 306.653 346.625 305.887 346.7C305.122 346.775 304.515 346.905 304.067 347.092C303.619 347.279 303.302 347.521 303.115 347.82C302.929 348.119 302.835 348.492 302.835 348.94C302.835 349.705 303.097 350.331 303.619 350.816C304.161 351.301 304.889 351.544 305.803 351.544C306.55 351.544 307.203 351.367 307.763 351.012C308.342 350.657 308.79 350.172 309.107 349.556C309.443 348.94 309.611 348.231 309.611 347.428V344.236C309.611 343.079 309.378 342.248 308.911 341.744C308.445 341.221 307.679 340.96 306.615 340.96C305.794 340.96 305.001 341.081 304.235 341.324C303.47 341.548 302.686 341.921 301.883 342.444L301.099 340.792C301.585 340.456 302.135 340.167 302.751 339.924C303.367 339.663 304.011 339.467 304.683 339.336C305.355 339.205 305.999 339.14 306.615 339.14C307.791 339.14 308.762 339.336 309.527 339.728C310.293 340.101 310.862 340.68 311.235 341.464C311.609 342.229 311.795 343.219 311.795 344.432V353H309.667V349.836H309.919C309.77 350.545 309.481 351.152 309.051 351.656C308.641 352.16 308.127 352.552 307.511 352.832C306.895 353.112 306.205 353.252 305.439 353.252ZM320.175 353.252C318.794 353.252 317.748 352.841 317.039 352.02C316.348 351.199 316.003 350.023 316.003 348.492V333.26H318.271V348.324C318.271 348.977 318.355 349.528 318.523 349.976C318.71 350.424 318.98 350.76 319.335 350.984C319.69 351.208 320.128 351.32 320.651 351.32C320.875 351.32 321.09 351.311 321.295 351.292C321.519 351.255 321.724 351.208 321.911 351.152L321.855 353.056C321.556 353.112 321.267 353.159 320.987 353.196C320.726 353.233 320.455 353.252 320.175 353.252ZM337.612 353.252C336.174 353.252 334.933 352.972 333.888 352.412C332.861 351.833 332.058 351.021 331.48 349.976C330.92 348.931 330.64 347.68 330.64 346.224C330.64 344.805 330.92 343.573 331.48 342.528C332.04 341.464 332.805 340.633 333.776 340.036C334.765 339.439 335.904 339.14 337.192 339.14C338.424 339.14 339.478 339.411 340.356 339.952C341.233 340.493 341.905 341.259 342.372 342.248C342.857 343.237 343.1 344.423 343.1 345.804V346.672H332.376V345.188H341.588L341.14 345.552C341.14 344.059 340.804 342.901 340.132 342.08C339.478 341.24 338.517 340.82 337.248 340.82C336.296 340.82 335.484 341.044 334.812 341.492C334.158 341.921 333.664 342.528 333.328 343.312C332.992 344.077 332.824 344.973 332.824 346V346.168C332.824 347.307 333.001 348.268 333.356 349.052C333.729 349.836 334.28 350.433 335.008 350.844C335.736 351.236 336.604 351.432 337.612 351.432C338.414 351.432 339.189 351.311 339.936 351.068C340.701 350.807 341.42 350.387 342.092 349.808L342.876 351.404C342.26 351.964 341.476 352.412 340.524 352.748C339.572 353.084 338.601 353.252 337.612 353.252ZM344.537 353L350.641 345.384V346.56L344.873 339.392H347.561L351.901 344.908H351.117L355.485 339.392H358.145L352.405 346.504V345.468L358.481 353H355.793L351.089 347.092H351.901L347.225 353H344.537ZM360.983 358.04V339.392H363.195V342.612H362.915C363.214 341.548 363.802 340.708 364.679 340.092C365.575 339.457 366.639 339.14 367.871 339.14C369.085 339.14 370.139 339.429 371.035 340.008C371.95 340.568 372.65 341.38 373.135 342.444C373.639 343.489 373.891 344.74 373.891 346.196C373.891 347.633 373.639 348.884 373.135 349.948C372.65 350.993 371.959 351.805 371.063 352.384C370.167 352.963 369.103 353.252 367.871 353.252C366.639 353.252 365.585 352.944 364.707 352.328C363.83 351.693 363.233 350.853 362.915 349.808H363.251V358.04H360.983ZM367.395 351.432C368.683 351.432 369.701 350.984 370.447 350.088C371.213 349.173 371.595 347.876 371.595 346.196C371.595 344.497 371.213 343.2 370.447 342.304C369.701 341.408 368.683 340.96 367.395 340.96C366.126 340.96 365.109 341.408 364.343 342.304C363.578 343.2 363.195 344.497 363.195 346.196C363.195 347.876 363.578 349.173 364.343 350.088C365.109 350.984 366.126 351.432 367.395 351.432ZM383.44 353.252C382.002 353.252 380.761 352.972 379.716 352.412C378.689 351.833 377.886 351.021 377.308 349.976C376.748 348.931 376.468 347.68 376.468 346.224C376.468 344.805 376.748 343.573 377.308 342.528C377.868 341.464 378.633 340.633 379.604 340.036C380.593 339.439 381.732 339.14 383.02 339.14C384.252 339.14 385.306 339.411 386.184 339.952C387.061 340.493 387.733 341.259 388.2 342.248C388.685 343.237 388.928 344.423 388.928 345.804V346.672H378.204V345.188H387.416L386.968 345.552C386.968 344.059 386.632 342.901 385.96 342.08C385.306 341.24 384.345 340.82 383.076 340.82C382.124 340.82 381.312 341.044 380.64 341.492C379.986 341.921 379.492 342.528 379.156 343.312C378.82 344.077 378.652 344.973 378.652 346V346.168C378.652 347.307 378.829 348.268 379.184 349.052C379.557 349.836 380.108 350.433 380.836 350.844C381.564 351.236 382.432 351.432 383.44 351.432C384.242 351.432 385.017 351.311 385.764 351.068C386.529 350.807 387.248 350.387 387.92 349.808L388.704 351.404C388.088 351.964 387.304 352.412 386.352 352.748C385.4 353.084 384.429 353.252 383.44 353.252ZM392.21 353V339.392H394.422V342.612H394.142C394.459 341.511 395.01 340.68 395.794 340.12C396.578 339.541 397.614 339.205 398.902 339.112L399.714 339.028L399.882 340.988L398.454 341.156C397.185 341.268 396.205 341.679 395.514 342.388C394.842 343.079 394.506 344.031 394.506 345.244V353H392.21ZM401.965 336.004V333.456H404.765V336.004H401.965ZM402.245 353V339.392H404.513V353H402.245ZM414.885 353.252C413.448 353.252 412.206 352.972 411.161 352.412C410.134 351.833 409.332 351.021 408.753 349.976C408.193 348.931 407.913 347.68 407.913 346.224C407.913 344.805 408.193 343.573 408.753 342.528C409.313 341.464 410.078 340.633 411.049 340.036C412.038 339.439 413.177 339.14 414.465 339.14C415.697 339.14 416.752 339.411 417.629 339.952C418.506 340.493 419.178 341.259 419.645 342.248C420.13 343.237 420.373 344.423 420.373 345.804V346.672H409.649V345.188H418.861L418.413 345.552C418.413 344.059 418.077 342.901 417.405 342.08C416.752 341.24 415.79 340.82 414.521 340.82C413.569 340.82 412.757 341.044 412.085 341.492C411.432 341.921 410.937 342.528 410.601 343.312C410.265 344.077 410.097 344.973 410.097 346V346.168C410.097 347.307 410.274 348.268 410.629 349.052C411.002 349.836 411.553 350.433 412.281 350.844C413.009 351.236 413.877 351.432 414.885 351.432C415.688 351.432 416.462 351.311 417.209 351.068C417.974 350.807 418.693 350.387 419.365 349.808L420.149 351.404C419.533 351.964 418.749 352.412 417.797 352.748C416.845 353.084 415.874 353.252 414.885 353.252ZM423.655 353V339.392H425.867V342.416H425.559C425.951 341.333 426.586 340.521 427.463 339.98C428.359 339.42 429.386 339.14 430.543 339.14C431.626 339.14 432.522 339.336 433.231 339.728C433.959 340.101 434.501 340.689 434.855 341.492C435.21 342.295 435.387 343.303 435.387 344.516V353H433.119V344.656C433.119 343.816 433.007 343.125 432.783 342.584C432.578 342.043 432.242 341.641 431.775 341.38C431.327 341.119 430.739 340.988 430.011 340.988C429.19 340.988 428.471 341.165 427.855 341.52C427.239 341.875 426.763 342.369 426.427 343.004C426.091 343.639 425.923 344.385 425.923 345.244V353H423.655ZM445.337 353.252C443.975 353.252 442.799 352.953 441.809 352.356C440.82 351.759 440.055 350.928 439.513 349.864C438.991 348.781 438.729 347.531 438.729 346.112C438.729 344.675 438.991 343.433 439.513 342.388C440.055 341.343 440.82 340.54 441.809 339.98C442.799 339.42 443.975 339.14 445.337 339.14C446.177 339.14 447.008 339.289 447.829 339.588C448.651 339.887 449.332 340.307 449.873 340.848L449.089 342.5C448.548 341.977 447.951 341.595 447.297 341.352C446.663 341.109 446.056 340.988 445.477 340.988C444.059 340.988 442.967 341.436 442.201 342.332C441.436 343.209 441.053 344.479 441.053 346.14C441.053 347.764 441.436 349.052 442.201 350.004C442.967 350.937 444.059 351.404 445.477 351.404C446.056 351.404 446.663 351.283 447.297 351.04C447.951 350.797 448.548 350.405 449.089 349.864L449.873 351.516C449.332 352.057 448.641 352.487 447.801 352.804C446.98 353.103 446.159 353.252 445.337 353.252ZM458.389 353.252C456.952 353.252 455.71 352.972 454.665 352.412C453.638 351.833 452.836 351.021 452.257 349.976C451.697 348.931 451.417 347.68 451.417 346.224C451.417 344.805 451.697 343.573 452.257 342.528C452.817 341.464 453.582 340.633 454.553 340.036C455.542 339.439 456.681 339.14 457.969 339.14C459.201 339.14 460.256 339.411 461.133 339.952C462.01 340.493 462.682 341.259 463.149 342.248C463.634 343.237 463.877 344.423 463.877 345.804V346.672H453.153V345.188H462.365L461.917 345.552C461.917 344.059 461.581 342.901 460.909 342.08C460.256 341.24 459.294 340.82 458.025 340.82C457.073 340.82 456.261 341.044 455.589 341.492C454.936 341.921 454.441 342.528 454.105 343.312C453.769 344.077 453.601 344.973 453.601 346V346.168C453.601 347.307 453.778 348.268 454.133 349.052C454.506 349.836 455.057 350.433 455.785 350.844C456.513 351.236 457.381 351.432 458.389 351.432C459.192 351.432 459.966 351.311 460.713 351.068C461.478 350.807 462.197 350.387 462.869 349.808L463.653 351.404C463.037 351.964 462.253 352.412 461.301 352.748C460.349 353.084 459.378 353.252 458.389 353.252ZM26.588 391.252C24.9827 391.252 23.7787 390.823 22.976 389.964C22.1733 389.105 21.772 387.883 21.772 386.296V379.156H19.112V377.392H21.772V373.22H24.04V377.392H28.352V379.156H24.04V386.072C24.04 387.136 24.264 387.948 24.712 388.508C25.16 389.049 25.888 389.32 26.896 389.32C27.1947 389.32 27.4933 389.283 27.792 389.208C28.0907 389.133 28.3613 389.059 28.604 388.984L28.996 390.72C28.7533 390.851 28.3987 390.972 27.932 391.084C27.4653 391.196 27.0173 391.252 26.588 391.252ZM36.4363 391.252C35.111 391.252 33.963 390.963 32.9923 390.384C32.0217 389.805 31.2657 388.993 30.7243 387.948C30.2017 386.884 29.9403 385.633 29.9403 384.196C29.9403 382.759 30.2017 381.517 30.7243 380.472C31.2657 379.408 32.0217 378.587 32.9923 378.008C33.963 377.429 35.111 377.14 36.4363 377.14C37.7617 377.14 38.9097 377.429 39.8803 378.008C40.851 378.587 41.5977 379.408 42.1203 380.472C42.6617 381.517 42.9323 382.759 42.9323 384.196C42.9323 385.633 42.6617 386.884 42.1203 387.948C41.5977 388.993 40.851 389.805 39.8803 390.384C38.9097 390.963 37.7617 391.252 36.4363 391.252ZM36.4363 389.432C37.7243 389.432 38.7417 388.984 39.4883 388.088C40.2537 387.173 40.6363 385.867 40.6363 384.168C40.6363 382.488 40.2537 381.2 39.4883 380.304C38.7417 379.408 37.7243 378.96 36.4363 378.96C35.167 378.96 34.1497 379.408 33.3843 380.304C32.619 381.2 32.2363 382.488 32.2363 384.168C32.2363 385.867 32.619 387.173 33.3843 388.088C34.1497 388.984 35.167 389.432 36.4363 389.432ZM59.5503 396.292C58.3743 396.292 57.2637 396.133 56.2183 395.816C55.1917 395.517 54.277 395.06 53.4743 394.444L54.2303 392.792C54.7903 393.184 55.341 393.501 55.8823 393.744C56.4423 394.005 57.0117 394.192 57.5903 394.304C58.1877 394.416 58.8037 394.472 59.4383 394.472C60.7637 394.472 61.7623 394.117 62.4343 393.408C63.125 392.699 63.4703 391.672 63.4703 390.328V387.164H63.7503C63.4703 388.247 62.873 389.105 61.9583 389.74C61.0623 390.375 60.0077 390.692 58.7943 390.692C57.5437 390.692 56.461 390.412 55.5463 389.852C54.6317 389.273 53.9223 388.471 53.4183 387.444C52.933 386.417 52.6903 385.232 52.6903 383.888C52.6903 382.544 52.933 381.368 53.4183 380.36C53.9223 379.333 54.6317 378.54 55.5463 377.98C56.461 377.42 57.5437 377.14 58.7943 377.14C60.0263 377.14 61.0903 377.457 61.9863 378.092C62.8823 378.708 63.461 379.548 63.7223 380.612H63.4703V377.392H65.6823V390.02C65.6823 391.401 65.449 392.559 64.9823 393.492C64.5343 394.425 63.853 395.125 62.9383 395.592C62.0237 396.059 60.8943 396.292 59.5503 396.292ZM59.2143 388.844C60.521 388.844 61.557 388.396 62.3223 387.5C63.0877 386.604 63.4703 385.4 63.4703 383.888C63.4703 382.376 63.0877 381.181 62.3223 380.304C61.557 379.408 60.521 378.96 59.2143 378.96C57.9263 378.96 56.8997 379.408 56.1343 380.304C55.369 381.181 54.9863 382.376 54.9863 383.888C54.9863 385.4 55.369 386.604 56.1343 387.5C56.8997 388.396 57.9263 388.844 59.2143 388.844ZM76.0686 391.252C74.6313 391.252 73.3899 390.972 72.3446 390.412C71.3179 389.833 70.5153 389.021 69.9366 387.976C69.3766 386.931 69.0966 385.68 69.0966 384.224C69.0966 382.805 69.3766 381.573 69.9366 380.528C70.4966 379.464 71.2619 378.633 72.2326 378.036C73.2219 377.439 74.3606 377.14 75.6486 377.14C76.8806 377.14 77.9353 377.411 78.8126 377.952C79.6899 378.493 80.3619 379.259 80.8286 380.248C81.3139 381.237 81.5566 382.423 81.5566 383.804V384.672H70.8326V383.188H80.0446L79.5966 383.552C79.5966 382.059 79.2606 380.901 78.5886 380.08C77.9353 379.24 76.9739 378.82 75.7046 378.82C74.7526 378.82 73.9406 379.044 73.2686 379.492C72.6153 379.921 72.1206 380.528 71.7846 381.312C71.4486 382.077 71.2806 382.973 71.2806 384V384.168C71.2806 385.307 71.4579 386.268 71.8126 387.052C72.1859 387.836 72.7366 388.433 73.4646 388.844C74.1926 389.236 75.0606 389.432 76.0686 389.432C76.8713 389.432 77.6459 389.311 78.3926 389.068C79.1579 388.807 79.8766 388.387 80.5486 387.808L81.3326 389.404C80.7166 389.964 79.9326 390.412 78.9806 390.748C78.0286 391.084 77.0579 391.252 76.0686 391.252ZM90.2989 391.252C88.6936 391.252 87.4896 390.823 86.6869 389.964C85.8843 389.105 85.4829 387.883 85.4829 386.296V379.156H82.8229V377.392H85.4829V373.22H87.7509V377.392H92.0629V379.156H87.7509V386.072C87.7509 387.136 87.9749 387.948 88.4229 388.508C88.8709 389.049 89.5989 389.32 90.6069 389.32C90.9056 389.32 91.2043 389.283 91.5029 389.208C91.8016 389.133 92.0723 389.059 92.3149 388.984L92.7069 390.72C92.4643 390.851 92.1096 390.972 91.6429 391.084C91.1763 391.196 90.7283 391.252 90.2989 391.252ZM106.103 391.252C105.17 391.252 104.33 391.075 103.583 390.72C102.855 390.347 102.277 389.843 101.847 389.208C101.418 388.573 101.203 387.864 101.203 387.08C101.203 386.072 101.455 385.279 101.959 384.7C102.482 384.121 103.331 383.711 104.507 383.468C105.702 383.225 107.326 383.104 109.379 383.104H110.639V384.588H109.407C108.269 384.588 107.317 384.625 106.551 384.7C105.786 384.775 105.179 384.905 104.731 385.092C104.283 385.279 103.966 385.521 103.779 385.82C103.593 386.119 103.499 386.492 103.499 386.94C103.499 387.705 103.761 388.331 104.283 388.816C104.825 389.301 105.553 389.544 106.467 389.544C107.214 389.544 107.867 389.367 108.427 389.012C109.006 388.657 109.454 388.172 109.771 387.556C110.107 386.94 110.275 386.231 110.275 385.428V382.236C110.275 381.079 110.042 380.248 109.575 379.744C109.109 379.221 108.343 378.96 107.279 378.96C106.458 378.96 105.665 379.081 104.899 379.324C104.134 379.548 103.35 379.921 102.547 380.444L101.763 378.792C102.249 378.456 102.799 378.167 103.415 377.924C104.031 377.663 104.675 377.467 105.347 377.336C106.019 377.205 106.663 377.14 107.279 377.14C108.455 377.14 109.426 377.336 110.191 377.728C110.957 378.101 111.526 378.68 111.899 379.464C112.273 380.229 112.459 381.219 112.459 382.432V391H110.331V387.836H110.583C110.434 388.545 110.145 389.152 109.715 389.656C109.305 390.16 108.791 390.552 108.175 390.832C107.559 391.112 106.869 391.252 106.103 391.252ZM122.435 391.252C121.072 391.252 119.896 390.953 118.907 390.356C117.918 389.759 117.152 388.928 116.611 387.864C116.088 386.781 115.827 385.531 115.827 384.112C115.827 382.675 116.088 381.433 116.611 380.388C117.152 379.343 117.918 378.54 118.907 377.98C119.896 377.42 121.072 377.14 122.435 377.14C123.275 377.14 124.106 377.289 124.927 377.588C125.748 377.887 126.43 378.307 126.971 378.848L126.187 380.5C125.646 379.977 125.048 379.595 124.395 379.352C123.76 379.109 123.154 378.988 122.575 378.988C121.156 378.988 120.064 379.436 119.299 380.332C118.534 381.209 118.151 382.479 118.151 384.14C118.151 385.764 118.534 387.052 119.299 388.004C120.064 388.937 121.156 389.404 122.575 389.404C123.154 389.404 123.76 389.283 124.395 389.04C125.048 388.797 125.646 388.405 126.187 387.864L126.971 389.516C126.43 390.057 125.739 390.487 124.899 390.804C124.078 391.103 123.256 391.252 122.435 391.252ZM135.088 391.252C133.483 391.252 132.279 390.823 131.476 389.964C130.673 389.105 130.272 387.883 130.272 386.296V379.156H127.612V377.392H130.272V373.22H132.54V377.392H136.852V379.156H132.54V386.072C132.54 387.136 132.764 387.948 133.212 388.508C133.66 389.049 134.388 389.32 135.396 389.32C135.695 389.32 135.993 389.283 136.292 389.208C136.591 389.133 136.861 389.059 137.104 388.984L137.496 390.72C137.253 390.851 136.899 390.972 136.432 391.084C135.965 391.196 135.517 391.252 135.088 391.252ZM139.137 374.004V371.456H141.937V374.004H139.137ZM139.417 391V377.392H141.685V391H139.417ZM151.581 391.252C150.256 391.252 149.108 390.963 148.137 390.384C147.166 389.805 146.41 388.993 145.869 387.948C145.346 386.884 145.085 385.633 145.085 384.196C145.085 382.759 145.346 381.517 145.869 380.472C146.41 379.408 147.166 378.587 148.137 378.008C149.108 377.429 150.256 377.14 151.581 377.14C152.906 377.14 154.054 377.429 155.025 378.008C155.996 378.587 156.742 379.408 157.265 380.472C157.806 381.517 158.077 382.759 158.077 384.196C158.077 385.633 157.806 386.884 157.265 387.948C156.742 388.993 155.996 389.805 155.025 390.384C154.054 390.963 152.906 391.252 151.581 391.252ZM151.581 389.432C152.869 389.432 153.886 388.984 154.633 388.088C155.398 387.173 155.781 385.867 155.781 384.168C155.781 382.488 155.398 381.2 154.633 380.304C153.886 379.408 152.869 378.96 151.581 378.96C150.312 378.96 149.294 379.408 148.529 380.304C147.764 381.2 147.381 382.488 147.381 384.168C147.381 385.867 147.764 387.173 148.529 388.088C149.294 388.984 150.312 389.432 151.581 389.432ZM161.483 391V377.392H163.695V380.416H163.387C163.779 379.333 164.414 378.521 165.291 377.98C166.187 377.42 167.214 377.14 168.371 377.14C169.454 377.14 170.35 377.336 171.059 377.728C171.787 378.101 172.329 378.689 172.683 379.492C173.038 380.295 173.215 381.303 173.215 382.516V391H170.947V382.656C170.947 381.816 170.835 381.125 170.611 380.584C170.406 380.043 170.07 379.641 169.603 379.38C169.155 379.119 168.567 378.988 167.839 378.988C167.018 378.988 166.299 379.165 165.683 379.52C165.067 379.875 164.591 380.369 164.255 381.004C163.919 381.639 163.751 382.385 163.751 383.244V391H161.483ZM181.682 391.252C180.748 391.252 179.908 391.075 179.162 390.72C178.434 390.347 177.855 389.843 177.426 389.208C176.996 388.573 176.782 387.864 176.782 387.08C176.782 386.072 177.034 385.279 177.538 384.7C178.06 384.121 178.91 383.711 180.086 383.468C181.28 383.225 182.904 383.104 184.958 383.104H186.218V384.588H184.986C183.847 384.588 182.895 384.625 182.13 384.7C181.364 384.775 180.758 384.905 180.31 385.092C179.862 385.279 179.544 385.521 179.358 385.82C179.171 386.119 179.078 386.492 179.078 386.94C179.078 387.705 179.339 388.331 179.862 388.816C180.403 389.301 181.131 389.544 182.046 389.544C182.792 389.544 183.446 389.367 184.006 389.012C184.584 388.657 185.032 388.172 185.35 387.556C185.686 386.94 185.854 386.231 185.854 385.428V382.236C185.854 381.079 185.62 380.248 185.154 379.744C184.687 379.221 183.922 378.96 182.858 378.96C182.036 378.96 181.243 379.081 180.478 379.324C179.712 379.548 178.928 379.921 178.126 380.444L177.342 378.792C177.827 378.456 178.378 378.167 178.994 377.924C179.61 377.663 180.254 377.467 180.926 377.336C181.598 377.205 182.242 377.14 182.858 377.14C184.034 377.14 185.004 377.336 185.77 377.728C186.535 378.101 187.104 378.68 187.478 379.464C187.851 380.229 188.038 381.219 188.038 382.432V391H185.91V387.836H186.162C186.012 388.545 185.723 389.152 185.294 389.656C184.883 390.16 184.37 390.552 183.754 390.832C183.138 391.112 182.447 391.252 181.682 391.252ZM199.133 391.252C197.901 391.252 196.837 390.935 195.941 390.3C195.064 389.665 194.476 388.816 194.177 387.752H194.457V391H192.245V371.26H194.513V380.556H194.177C194.495 379.511 195.092 378.68 195.969 378.064C196.847 377.448 197.901 377.14 199.133 377.14C200.365 377.14 201.429 377.429 202.325 378.008C203.221 378.568 203.912 379.38 204.397 380.444C204.901 381.489 205.153 382.74 205.153 384.196C205.153 385.633 204.901 386.884 204.397 387.948C203.912 388.993 203.212 389.805 202.297 390.384C201.401 390.963 200.347 391.252 199.133 391.252ZM198.657 389.432C199.945 389.432 200.963 388.984 201.709 388.088C202.475 387.173 202.857 385.876 202.857 384.196C202.857 382.497 202.475 381.2 201.709 380.304C200.963 379.408 199.945 378.96 198.657 378.96C197.388 378.96 196.371 379.408 195.605 380.304C194.84 381.2 194.457 382.497 194.457 384.196C194.457 385.876 194.84 387.173 195.605 388.088C196.371 388.984 197.388 389.432 198.657 389.432ZM212.741 391.252C211.36 391.252 210.315 390.841 209.605 390.02C208.915 389.199 208.569 388.023 208.569 386.492V371.26H210.837V386.324C210.837 386.977 210.921 387.528 211.089 387.976C211.276 388.424 211.547 388.76 211.901 388.984C212.256 389.208 212.695 389.32 213.217 389.32C213.441 389.32 213.656 389.311 213.861 389.292C214.085 389.255 214.291 389.208 214.477 389.152L214.421 391.056C214.123 391.112 213.833 391.159 213.553 391.196C213.292 391.233 213.021 391.252 212.741 391.252ZM222.85 391.252C221.413 391.252 220.171 390.972 219.126 390.412C218.099 389.833 217.297 389.021 216.718 387.976C216.158 386.931 215.878 385.68 215.878 384.224C215.878 382.805 216.158 381.573 216.718 380.528C217.278 379.464 218.043 378.633 219.014 378.036C220.003 377.439 221.142 377.14 222.43 377.14C223.662 377.14 224.717 377.411 225.594 377.952C226.471 378.493 227.143 379.259 227.61 380.248C228.095 381.237 228.338 382.423 228.338 383.804V384.672H217.614V383.188H226.826L226.378 383.552C226.378 382.059 226.042 380.901 225.37 380.08C224.717 379.24 223.755 378.82 222.486 378.82C221.534 378.82 220.722 379.044 220.05 379.492C219.397 379.921 218.902 380.528 218.566 381.312C218.23 382.077 218.062 382.973 218.062 384V384.168C218.062 385.307 218.239 386.268 218.594 387.052C218.967 387.836 219.518 388.433 220.246 388.844C220.974 389.236 221.842 389.432 222.85 389.432C223.653 389.432 224.427 389.311 225.174 389.068C225.939 388.807 226.658 388.387 227.33 387.808L228.114 389.404C227.498 389.964 226.714 390.412 225.762 390.748C224.81 391.084 223.839 391.252 222.85 391.252ZM239.54 391V379.156H236.852V377.392H240.156L239.54 377.98V376.916C239.54 375.105 239.988 373.733 240.884 372.8C241.798 371.867 243.198 371.344 245.084 371.232L246.176 371.176L246.372 372.912L245.084 372.996C244.318 373.052 243.693 373.22 243.208 373.5C242.722 373.78 242.368 374.181 242.144 374.704C241.92 375.227 241.808 375.871 241.808 376.636V377.812L241.472 377.392H245.728V379.156H241.808V391H239.54ZM253.885 391.252C252.448 391.252 251.206 390.972 250.161 390.412C249.134 389.833 248.332 389.021 247.753 387.976C247.193 386.931 246.913 385.68 246.913 384.224C246.913 382.805 247.193 381.573 247.753 380.528C248.313 379.464 249.078 378.633 250.049 378.036C251.038 377.439 252.177 377.14 253.465 377.14C254.697 377.14 255.752 377.411 256.629 377.952C257.506 378.493 258.178 379.259 258.645 380.248C259.13 381.237 259.373 382.423 259.373 383.804V384.672H248.649V383.188H257.861L257.413 383.552C257.413 382.059 257.077 380.901 256.405 380.08C255.752 379.24 254.79 378.82 253.521 378.82C252.569 378.82 251.757 379.044 251.085 379.492C250.432 379.921 249.937 380.528 249.601 381.312C249.265 382.077 249.097 382.973 249.097 384V384.168C249.097 385.307 249.274 386.268 249.629 387.052C250.002 387.836 250.553 388.433 251.281 388.844C252.009 389.236 252.877 389.432 253.885 389.432C254.688 389.432 255.462 389.311 256.209 389.068C256.974 388.807 257.693 388.387 258.365 387.808L259.149 389.404C258.533 389.964 257.749 390.412 256.797 390.748C255.845 391.084 254.874 391.252 253.885 391.252ZM268.787 391.252C267.35 391.252 266.109 390.972 265.063 390.412C264.037 389.833 263.234 389.021 262.655 387.976C262.095 386.931 261.815 385.68 261.815 384.224C261.815 382.805 262.095 381.573 262.655 380.528C263.215 379.464 263.981 378.633 264.951 378.036C265.941 377.439 267.079 377.14 268.367 377.14C269.599 377.14 270.654 377.411 271.531 377.952C272.409 378.493 273.081 379.259 273.547 380.248C274.033 381.237 274.275 382.423 274.275 383.804V384.672H263.551V383.188H272.763L272.315 383.552C272.315 382.059 271.979 380.901 271.307 380.08C270.654 379.24 269.693 378.82 268.423 378.82C267.471 378.82 266.659 379.044 265.987 379.492C265.334 379.921 264.839 380.528 264.503 381.312C264.167 382.077 263.999 382.973 263.999 384V384.168C263.999 385.307 264.177 386.268 264.531 387.052C264.905 387.836 265.455 388.433 266.183 388.844C266.911 389.236 267.779 389.432 268.787 389.432C269.59 389.432 270.365 389.311 271.111 389.068C271.877 388.807 272.595 388.387 273.267 387.808L274.051 389.404C273.435 389.964 272.651 390.412 271.699 390.748C270.747 391.084 269.777 391.252 268.787 391.252ZM282.738 391.252C281.524 391.252 280.46 390.963 279.546 390.384C278.65 389.805 277.95 388.993 277.446 387.948C276.96 386.884 276.718 385.633 276.718 384.196C276.718 382.74 276.96 381.489 277.446 380.444C277.95 379.38 278.65 378.568 279.546 378.008C280.46 377.429 281.524 377.14 282.738 377.14C283.97 377.14 285.024 377.448 285.902 378.064C286.779 378.68 287.367 379.511 287.666 380.556H287.358V371.26H289.626V391H287.414V387.752H287.694C287.395 388.816 286.798 389.665 285.902 390.3C285.024 390.935 283.97 391.252 282.738 391.252ZM283.214 389.432C284.502 389.432 285.519 388.984 286.266 388.088C287.031 387.173 287.414 385.876 287.414 384.196C287.414 382.497 287.031 381.2 286.266 380.304C285.519 379.408 284.502 378.96 283.214 378.96C281.944 378.96 280.927 379.408 280.162 380.304C279.396 381.2 279.014 382.497 279.014 384.196C279.014 385.876 279.396 387.173 280.162 388.088C280.927 388.984 281.944 389.432 283.214 389.432ZM300.77 391.252C299.538 391.252 298.474 390.935 297.578 390.3C296.701 389.665 296.113 388.816 295.814 387.752H296.094V391H293.882V371.26H296.15V380.556H295.814C296.131 379.511 296.729 378.68 297.606 378.064C298.483 377.448 299.538 377.14 300.77 377.14C302.002 377.14 303.066 377.429 303.962 378.008C304.858 378.568 305.549 379.38 306.034 380.444C306.538 381.489 306.79 382.74 306.79 384.196C306.79 385.633 306.538 386.884 306.034 387.948C305.549 388.993 304.849 389.805 303.934 390.384C303.038 390.963 301.983 391.252 300.77 391.252ZM300.294 389.432C301.582 389.432 302.599 388.984 303.346 388.088C304.111 387.173 304.494 385.876 304.494 384.196C304.494 382.497 304.111 381.2 303.346 380.304C302.599 379.408 301.582 378.96 300.294 378.96C299.025 378.96 298.007 379.408 297.242 380.304C296.477 381.2 296.094 382.497 296.094 384.196C296.094 385.876 296.477 387.173 297.242 388.088C298.007 388.984 299.025 389.432 300.294 389.432ZM314.49 391.252C313.557 391.252 312.717 391.075 311.97 390.72C311.242 390.347 310.663 389.843 310.234 389.208C309.805 388.573 309.59 387.864 309.59 387.08C309.59 386.072 309.842 385.279 310.346 384.7C310.869 384.121 311.718 383.711 312.894 383.468C314.089 383.225 315.713 383.104 317.766 383.104H319.026V384.588H317.794C316.655 384.588 315.703 384.625 314.938 384.7C314.173 384.775 313.566 384.905 313.118 385.092C312.67 385.279 312.353 385.521 312.166 385.82C311.979 386.119 311.886 386.492 311.886 386.94C311.886 387.705 312.147 388.331 312.67 388.816C313.211 389.301 313.939 389.544 314.854 389.544C315.601 389.544 316.254 389.367 316.814 389.012C317.393 388.657 317.841 388.172 318.158 387.556C318.494 386.94 318.662 386.231 318.662 385.428V382.236C318.662 381.079 318.429 380.248 317.962 379.744C317.495 379.221 316.73 378.96 315.666 378.96C314.845 378.96 314.051 379.081 313.286 379.324C312.521 379.548 311.737 379.921 310.934 380.444L310.15 378.792C310.635 378.456 311.186 378.167 311.802 377.924C312.418 377.663 313.062 377.467 313.734 377.336C314.406 377.205 315.05 377.14 315.666 377.14C316.842 377.14 317.813 377.336 318.578 377.728C319.343 378.101 319.913 378.68 320.286 379.464C320.659 380.229 320.846 381.219 320.846 382.432V391H318.718V387.836H318.97C318.821 388.545 318.531 389.152 318.102 389.656C317.691 390.16 317.178 390.552 316.562 390.832C315.946 391.112 315.255 391.252 314.49 391.252ZM330.822 391.252C329.459 391.252 328.283 390.953 327.294 390.356C326.304 389.759 325.539 388.928 324.998 387.864C324.475 386.781 324.214 385.531 324.214 384.112C324.214 382.675 324.475 381.433 324.998 380.388C325.539 379.343 326.304 378.54 327.294 377.98C328.283 377.42 329.459 377.14 330.822 377.14C331.662 377.14 332.492 377.289 333.314 377.588C334.135 377.887 334.816 378.307 335.358 378.848L334.574 380.5C334.032 379.977 333.435 379.595 332.782 379.352C332.147 379.109 331.54 378.988 330.962 378.988C329.543 378.988 328.451 379.436 327.686 380.332C326.92 381.209 326.538 382.479 326.538 384.14C326.538 385.764 326.92 387.052 327.686 388.004C328.451 388.937 329.543 389.404 330.962 389.404C331.54 389.404 332.147 389.283 332.782 389.04C333.435 388.797 334.032 388.405 334.574 387.864L335.358 389.516C334.816 390.057 334.126 390.487 333.286 390.804C332.464 391.103 331.643 391.252 330.822 391.252ZM338.015 391V371.26H340.283V383.44H340.339L346.639 377.392H349.523L342.047 384.56V383.328L350.111 391H347.227L340.339 384.616H340.283V391H338.015Z" fill="#D9D9D9"/>
<g filter="url(#filter1_f_1726_13231)">
<ellipse cx="267" cy="187.43" rx="197" ry="123.442" fill="#4A33BC" fill-opacity="0.25"/>
</g>
<path d="M428.22 223.366C428.22 232.705 423.79 241.653 415.676 249.845C407.558 258.04 395.783 265.447 381.186 271.68C351.993 284.146 311.623 291.87 267 291.87C222.377 291.87 182.007 284.146 152.814 271.68C138.217 265.447 126.442 258.04 118.324 249.845C110.21 241.653 105.78 232.705 105.78 223.366C105.78 214.026 110.21 205.079 118.324 196.887C126.442 188.692 138.217 181.285 152.814 175.052C182.007 162.586 222.377 154.862 267 154.862C311.623 154.862 351.993 162.586 381.186 175.052C395.783 181.285 407.558 188.692 415.676 196.887C423.79 205.079 428.22 214.026 428.22 223.366Z" stroke="url(#paint1_linear_1726_13231)" stroke-width="1.1811"/>
<path d="M401.055 221.004C401.055 228.712 397.386 236.106 390.646 242.885C383.903 249.667 374.117 255.802 361.978 260.966C337.701 271.295 304.122 277.697 267 277.697C229.879 277.697 196.299 271.295 172.022 260.966C159.883 255.802 150.097 249.667 143.354 242.885C136.614 236.106 132.945 228.712 132.945 221.004C132.945 213.296 136.614 205.903 143.354 199.123C150.097 192.341 159.883 186.207 172.022 181.042C196.299 170.714 229.879 164.311 267 164.311C304.122 164.311 337.701 170.714 361.978 181.042C374.117 186.207 383.903 192.341 390.646 199.123C397.386 205.903 401.055 213.296 401.055 221.004Z" stroke="url(#paint2_linear_1726_13231)" stroke-width="1.1811"/>
<path d="M377.433 219.232C377.433 225.386 374.43 231.302 368.885 236.741C363.339 242.181 355.283 247.108 345.279 251.258C325.276 259.558 297.6 264.705 267 264.705C236.4 264.705 208.725 259.558 188.721 251.258C178.718 247.108 170.661 242.181 165.115 236.741C159.57 231.302 156.567 225.386 156.567 219.232C156.567 213.079 159.57 207.163 165.115 201.724C170.661 196.284 178.718 191.357 188.721 187.206C208.725 178.907 236.4 173.76 267 173.76C297.6 173.76 325.276 178.907 345.279 187.206C355.283 191.357 363.339 196.284 368.885 201.724C374.43 207.163 377.433 213.079 377.433 219.232Z" stroke="url(#paint3_linear_1726_13231)" stroke-width="1.1811"/>
<path d="M339.638 219.232C339.638 223.268 337.69 227.165 334.058 230.766C330.424 234.369 325.135 237.641 318.552 240.402C305.388 245.922 287.162 249.35 267 249.35C246.837 249.35 228.611 245.922 215.448 240.402C208.865 237.641 203.576 234.369 199.942 230.766C196.31 227.165 194.362 223.268 194.362 219.232C194.362 215.196 196.31 211.299 199.942 207.698C203.576 204.095 208.865 200.823 215.448 198.062C228.611 192.542 246.837 189.114 267 189.114C287.162 189.114 305.388 192.542 318.552 198.062C325.135 200.823 330.424 204.095 334.058 207.698C337.69 211.299 339.638 215.196 339.638 219.232Z" stroke="url(#paint4_linear_1726_13231)" stroke-width="1.1811"/>
<rect x="352.039" y="139.652" width="30.1739" height="101.835" fill="url(#paint5_linear_1726_13231)"/>
<rect x="352.039" y="139.652" width="15.345" height="101.835" fill="url(#paint6_linear_1726_13231)"/>
<path d="M352.039 126.835L367.4 119.614L382.206 126.835L367.4 134.595L352.039 126.835Z" fill="white"/>
<path d="M352.039 126.748L367.384 134.508V152.904L352.039 145.145V126.748Z" fill="#E5E1FF"/>
<path d="M382.206 126.835L367.384 134.508V152.905L382.206 145.232V126.835Z" fill="#9286D8"/>
<rect x="292.984" y="91.2266" width="30.1739" height="101.835" fill="url(#paint7_linear_1726_13231)"/>
<rect x="292.984" y="91.2266" width="15.345" height="101.835" fill="url(#paint8_linear_1726_13231)"/>
<path d="M292.984 78.4102L308.345 71.1892L323.151 78.4102L308.345 86.1699L292.984 78.4102Z" fill="white"/>
<path d="M292.984 78.3228L308.329 86.0825V104.479L292.984 96.7194V78.3228Z" fill="#E5E1FF"/>
<path d="M323.151 78.4102L308.329 86.0827V104.479L323.151 96.8068V78.4102Z" fill="#9286D8"/>
<path d="M216.213 148.662L268.234 124.207L318.378 148.662L268.234 174.941L216.213 148.662Z" fill="white"/>
<path d="M216.213 148.366L268.181 174.646V236.949L216.213 210.669V148.366Z" fill="#E5E1FF"/>
<path d="M318.378 148.662L268.181 174.646V236.949L318.378 210.965V148.662Z" fill="#9286D8"/>
<rect x="178.417" y="201.069" width="30.1739" height="101.835" fill="url(#paint9_linear_1726_13231)"/>
<rect x="178.417" y="201.069" width="15.345" height="101.835" fill="url(#paint10_linear_1726_13231)"/>
<path d="M178.417 188.253L193.778 181.032L208.584 188.253L193.778 196.013L178.417 188.253Z" fill="white"/>
<path d="M178.417 188.166L193.762 195.925V214.322L178.417 206.562V188.166Z" fill="#E5E1FF"/>
<path d="M208.584 188.253L193.762 195.925V214.322L208.584 206.65V188.253Z" fill="#9286D8"/>
<rect x="226.843" y="45.6104" width="25.5472" height="86.2205" fill="url(#paint11_linear_1726_13231)"/>
<rect x="226.843" y="45.6104" width="12.9921" height="86.2205" fill="url(#paint12_linear_1726_13231)"/>
<path d="M226.843 34.7588L239.848 28.645L252.384 34.7588L239.848 41.3287L226.843 34.7588Z" fill="white"/>
<path d="M226.843 34.6851L239.835 41.2549V56.8307L226.843 50.2608V34.6851Z" fill="#E5E1FF"/>
<path d="M252.384 34.7588L239.835 41.2549V56.8306L252.384 50.3346V34.7588Z" fill="#9286D8"/>
<rect x="155.977" y="131.384" width="30.1739" height="101.835" fill="url(#paint13_linear_1726_13231)"/>
<rect x="155.977" y="131.384" width="15.345" height="101.835" fill="url(#paint14_linear_1726_13231)"/>
<path d="M155.977 118.568L171.337 111.347L186.143 118.568L171.337 126.328L155.977 118.568Z" fill="white"/>
<path d="M155.977 118.48L171.322 126.24V144.637L155.977 136.877V118.48Z" fill="#E5E1FF"/>
<path d="M186.144 118.568L171.322 126.24V144.637L186.144 136.964V118.568Z" fill="#9286D8"/>
<defs>
<filter id="filter0_b_1726_13231" x="-11.7" y="-11.7" width="536.4" height="462.4" filterUnits="userSpaceOnUse" color-interpolation-filters="sRGB">
<feFlood flood-opacity="0" result="BackgroundImageFix"/>
<feGaussianBlur in="BackgroundImageFix" stdDeviation="5.85"/>
<feComposite in2="SourceAlpha" operator="in" result="effect1_backgroundBlur_1726_13231"/>
<feBlend mode="normal" in="SourceGraphic" in2="effect1_backgroundBlur_1726_13231" result="shape"/>
</filter>
<filter id="filter1_f_1726_13231" x="15.8884" y="9.87669" width="502.223" height="355.107" filterUnits="userSpaceOnUse" color-interpolation-filters="sRGB">
<feFlood flood-opacity="0" result="BackgroundImageFix"/>
<feBlend mode="normal" in="SourceGraphic" in2="BackgroundImageFix" result="shape"/>
<feGaussianBlur stdDeviation="27.0558" result="effect1_foregroundBlur_1726_13231"/>
</filter>
<linearGradient id="paint0_linear_1726_13231" x1="256.5" y1="388.346" x2="256.5" y2="25.3269" gradientUnits="userSpaceOnUse">
<stop offset="0.207188" stop-color="#292929"/>
<stop offset="1" stop-color="#8778D7"/>
</linearGradient>
<linearGradient id="paint1_linear_1726_13231" x1="267" y1="154.271" x2="271.052" y2="386.471" gradientUnits="userSpaceOnUse">
<stop stop-color="#999999" stop-opacity="0"/>
<stop offset="1" stop-color="white"/>
</linearGradient>
<linearGradient id="paint2_linear_1726_13231" x1="267" y1="163.721" x2="270.347" y2="356.229" gradientUnits="userSpaceOnUse">
<stop stop-color="#999999" stop-opacity="0"/>
<stop offset="1" stop-color="white"/>
</linearGradient>
<linearGradient id="paint3_linear_1726_13231" x1="267" y1="173.169" x2="269.625" y2="327.972" gradientUnits="userSpaceOnUse">
<stop stop-color="#999999" stop-opacity="0"/>
<stop offset="1" stop-color="white"/>
</linearGradient>
<linearGradient id="paint4_linear_1726_13231" x1="267" y1="188.523" x2="268.768" y2="291.724" gradientUnits="userSpaceOnUse">
<stop stop-color="#999999" stop-opacity="0"/>
<stop offset="1" stop-color="white"/>
</linearGradient>
<linearGradient id="paint5_linear_1726_13231" x1="367.126" y1="139.652" x2="398.074" y2="221.26" gradientUnits="userSpaceOnUse">
<stop offset="0.156897" stop-color="#A594FF"/>
<stop offset="0.536453" stop-color="#5FC6A3" stop-opacity="0.3"/>
<stop offset="1" stop-color="#5FC6A3" stop-opacity="0"/>
</linearGradient>
<linearGradient id="paint6_linear_1726_13231" x1="359.712" y1="139.652" x2="367.384" y2="217.772" gradientUnits="userSpaceOnUse">
<stop stop-color="#62D5FF"/>
<stop offset="0.390975" stop-color="#62D5FF" stop-opacity="0.3"/>
<stop offset="1" stop-color="#8778D7" stop-opacity="0"/>
</linearGradient>
<linearGradient id="paint7_linear_1726_13231" x1="308.071" y1="91.2266" x2="339.019" y2="172.834" gradientUnits="userSpaceOnUse">
<stop offset="0.156897" stop-color="#FFEA80"/>
<stop offset="0.536453" stop-color="#5FC6A3" stop-opacity="0.3"/>
<stop offset="1" stop-color="#5FC6A3" stop-opacity="0"/>
</linearGradient>
<linearGradient id="paint8_linear_1726_13231" x1="300.657" y1="91.2266" x2="308.329" y2="169.347" gradientUnits="userSpaceOnUse">
<stop stop-color="#FFBEFC"/>
<stop offset="0.390975" stop-color="#62D5FF" stop-opacity="0.3"/>
<stop offset="1" stop-color="#8778D7" stop-opacity="0"/>
</linearGradient>
<linearGradient id="paint9_linear_1726_13231" x1="193.504" y1="201.069" x2="224.452" y2="282.677" gradientUnits="userSpaceOnUse">
<stop offset="0.156897" stop-color="#FFEA80"/>
<stop offset="0.536453" stop-color="#5FC6A3" stop-opacity="0.3"/>
<stop offset="1" stop-color="#5FC6A3" stop-opacity="0"/>
</linearGradient>
<linearGradient id="paint10_linear_1726_13231" x1="186.09" y1="201.069" x2="193.762" y2="279.189" gradientUnits="userSpaceOnUse">
<stop stop-color="#FFBEFC"/>
<stop offset="0.390975" stop-color="#62D5FF" stop-opacity="0.3"/>
<stop offset="1" stop-color="#8778D7" stop-opacity="0"/>
</linearGradient>
<linearGradient id="paint11_linear_1726_13231" x1="239.616" y1="45.6104" x2="265.819" y2="114.705" gradientUnits="userSpaceOnUse">
<stop offset="0.156897" stop-color="#A594FF"/>
<stop offset="0.536453" stop-color="#5FC6A3" stop-opacity="0.3"/>
<stop offset="1" stop-color="#5FC6A3" stop-opacity="0"/>
</linearGradient>
<linearGradient id="paint12_linear_1726_13231" x1="233.339" y1="45.6104" x2="239.835" y2="111.752" gradientUnits="userSpaceOnUse">
<stop stop-color="#62D5FF"/>
<stop offset="0.390975" stop-color="#62D5FF" stop-opacity="0.3"/>
<stop offset="1" stop-color="#8778D7" stop-opacity="0"/>
</linearGradient>
<linearGradient id="paint13_linear_1726_13231" x1="171.064" y1="131.384" x2="202.012" y2="212.992" gradientUnits="userSpaceOnUse">
<stop offset="0.156897" stop-color="#9994FF"/>
<stop offset="0.536453" stop-color="#5FC6A3" stop-opacity="0.3"/>
<stop offset="1" stop-color="#5FC6A3" stop-opacity="0"/>
</linearGradient>
<linearGradient id="paint14_linear_1726_13231" x1="163.649" y1="131.384" x2="171.322" y2="209.504" gradientUnits="userSpaceOnUse">
<stop stop-color="#FF8A65"/>
<stop offset="0.406475" stop-color="#62D5FF" stop-opacity="0.5"/>
<stop offset="0.679589" stop-color="#62D5FF" stop-opacity="0.3"/>
<stop offset="1" stop-color="#8778D7" stop-opacity="0"/>
</linearGradient>
</defs>
</svg>
