<svg width="552" height="535" viewBox="0 0 552 535" fill="none" xmlns="http://www.w3.org/2000/svg">
<g filter="url(#filter0_b_1726_13168)">
<rect x="18" y="64" width="513" height="439" rx="9.52381" fill="black" fill-opacity="0.4"/>
<rect x="19" y="65" width="511" height="437" rx="8.52381" stroke="url(#paint0_linear_1726_13168)" stroke-opacity="0.75" stroke-width="2"/>
</g>
<path d="M44.28 417V399.248H37.112V397.26H53.772V399.248H46.604V417H44.28ZM59.9709 417.252C58.5336 417.252 57.2923 416.972 56.2469 416.412C55.2203 415.833 54.4176 415.021 53.8389 413.976C53.2789 412.931 52.9989 411.68 52.9989 410.224C52.9989 408.805 53.2789 407.573 53.8389 406.528C54.3989 405.464 55.1643 404.633 56.1349 404.036C57.1243 403.439 58.2629 403.14 59.5509 403.14C60.7829 403.14 61.8376 403.411 62.7149 403.952C63.5923 404.493 64.2643 405.259 64.7309 406.248C65.2163 407.237 65.4589 408.423 65.4589 409.804V410.672H54.7349V409.188H63.9469L63.4989 409.552C63.4989 408.059 63.1629 406.901 62.4909 406.08C61.8376 405.24 60.8763 404.82 59.6069 404.82C58.6549 404.82 57.8429 405.044 57.1709 405.492C56.5176 405.921 56.0229 406.528 55.6869 407.312C55.3509 408.077 55.1829 408.973 55.1829 410V410.168C55.1829 411.307 55.3603 412.268 55.7149 413.052C56.0883 413.836 56.6389 414.433 57.3669 414.844C58.0949 415.236 58.9629 415.432 59.9709 415.432C60.7736 415.432 61.5483 415.311 62.2949 415.068C63.0603 414.807 63.7789 414.387 64.4509 413.808L65.2349 415.404C64.6189 415.964 63.8349 416.412 62.8829 416.748C61.9309 417.084 60.9603 417.252 59.9709 417.252ZM73.3333 417.252C72.6239 417.252 71.9333 417.177 71.2613 417.028C70.6079 416.897 69.9919 416.711 69.4133 416.468C68.8533 416.207 68.3679 415.899 67.9573 415.544L68.6853 413.948C69.1333 414.303 69.6186 414.601 70.1413 414.844C70.6639 415.068 71.1959 415.236 71.7373 415.348C72.2786 415.46 72.8293 415.516 73.3893 415.516C74.4533 415.516 75.2559 415.32 75.7973 414.928C76.3386 414.536 76.6093 414.004 76.6093 413.332C76.6093 412.809 76.4319 412.399 76.0773 412.1C75.7226 411.783 75.1626 411.54 74.3973 411.372L71.8493 410.812C70.6733 410.569 69.7959 410.149 69.2173 409.552C68.6573 408.955 68.3773 408.18 68.3773 407.228C68.3773 406.388 68.5919 405.669 69.0213 405.072C69.4693 404.456 70.0946 403.98 70.8973 403.644C71.6999 403.308 72.6333 403.14 73.6973 403.14C74.3319 403.14 74.9386 403.205 75.5173 403.336C76.0959 403.467 76.6373 403.663 77.1413 403.924C77.6639 404.167 78.1119 404.475 78.4853 404.848L77.7293 406.444C77.3746 406.108 76.9733 405.828 76.5253 405.604C76.0773 405.361 75.6106 405.184 75.1253 405.072C74.6586 404.941 74.1826 404.876 73.6973 404.876C72.6519 404.876 71.8586 405.081 71.3173 405.492C70.7759 405.903 70.5053 406.444 70.5053 407.116C70.5053 407.639 70.6733 408.068 71.0093 408.404C71.3453 408.74 71.8679 408.983 72.5773 409.132L75.1253 409.664C76.3386 409.925 77.2439 410.345 77.8413 410.924C78.4573 411.484 78.7653 412.249 78.7653 413.22C78.7653 414.041 78.5413 414.76 78.0933 415.376C77.6453 415.973 77.0106 416.44 76.1893 416.776C75.3866 417.093 74.4346 417.252 73.3333 417.252ZM87.545 417.252C85.9397 417.252 84.7357 416.823 83.933 415.964C83.1304 415.105 82.729 413.883 82.729 412.296V405.156H80.069V403.392H82.729V399.22H84.997V403.392H89.309V405.156H84.997V412.072C84.997 413.136 85.221 413.948 85.669 414.508C86.117 415.049 86.845 415.32 87.853 415.32C88.1517 415.32 88.4504 415.283 88.749 415.208C89.0477 415.133 89.3184 415.059 89.561 414.984L89.953 416.72C89.7104 416.851 89.3557 416.972 88.889 417.084C88.4224 417.196 87.9744 417.252 87.545 417.252ZM99.0655 417V403.392H101.278V406.612H100.998C101.315 405.511 101.866 404.68 102.65 404.12C103.434 403.541 104.47 403.205 105.758 403.112L106.57 403.028L106.738 404.988L105.31 405.156C104.04 405.268 103.06 405.679 102.37 406.388C101.698 407.079 101.362 408.031 101.362 409.244V417H99.0655ZM115.069 417.252C113.631 417.252 112.39 416.972 111.345 416.412C110.318 415.833 109.515 415.021 108.937 413.976C108.377 412.931 108.097 411.68 108.097 410.224C108.097 408.805 108.377 407.573 108.937 406.528C109.497 405.464 110.262 404.633 111.233 404.036C112.222 403.439 113.361 403.14 114.649 403.14C115.881 403.14 116.935 403.411 117.813 403.952C118.69 404.493 119.362 405.259 119.829 406.248C120.314 407.237 120.557 408.423 120.557 409.804V410.672H109.833V409.188H119.045L118.597 409.552C118.597 408.059 118.261 406.901 117.589 406.08C116.935 405.24 115.974 404.82 114.705 404.82C113.753 404.82 112.941 405.044 112.269 405.492C111.615 405.921 111.121 406.528 110.785 407.312C110.449 408.077 110.281 408.973 110.281 410V410.168C110.281 411.307 110.458 412.268 110.813 413.052C111.186 413.836 111.737 414.433 112.465 414.844C113.193 415.236 114.061 415.432 115.069 415.432C115.871 415.432 116.646 415.311 117.393 415.068C118.158 414.807 118.877 414.387 119.549 413.808L120.333 415.404C119.717 415.964 118.933 416.412 117.981 416.748C117.029 417.084 116.058 417.252 115.069 417.252ZM128.123 417.252C127.19 417.252 126.35 417.075 125.603 416.72C124.875 416.347 124.296 415.843 123.867 415.208C123.438 414.573 123.223 413.864 123.223 413.08C123.223 412.072 123.475 411.279 123.979 410.7C124.502 410.121 125.351 409.711 126.527 409.468C127.722 409.225 129.346 409.104 131.399 409.104H132.659V410.588H131.427C130.288 410.588 129.336 410.625 128.571 410.7C127.806 410.775 127.199 410.905 126.751 411.092C126.303 411.279 125.986 411.521 125.799 411.82C125.612 412.119 125.519 412.492 125.519 412.94C125.519 413.705 125.78 414.331 126.303 414.816C126.844 415.301 127.572 415.544 128.487 415.544C129.234 415.544 129.887 415.367 130.447 415.012C131.026 414.657 131.474 414.172 131.791 413.556C132.127 412.94 132.295 412.231 132.295 411.428V408.236C132.295 407.079 132.062 406.248 131.595 405.744C131.128 405.221 130.363 404.96 129.299 404.96C128.478 404.96 127.684 405.081 126.919 405.324C126.154 405.548 125.37 405.921 124.567 406.444L123.783 404.792C124.268 404.456 124.819 404.167 125.435 403.924C126.051 403.663 126.695 403.467 127.367 403.336C128.039 403.205 128.683 403.14 129.299 403.14C130.475 403.14 131.446 403.336 132.211 403.728C132.976 404.101 133.546 404.68 133.919 405.464C134.292 406.229 134.479 407.219 134.479 408.432V417H132.351V413.836H132.603C132.454 414.545 132.164 415.152 131.735 415.656C131.324 416.16 130.811 416.552 130.195 416.832C129.579 417.112 128.888 417.252 128.123 417.252ZM142.859 417.252C141.477 417.252 140.432 416.841 139.723 416.02C139.032 415.199 138.687 414.023 138.687 412.492V397.26H140.955V412.324C140.955 412.977 141.039 413.528 141.207 413.976C141.393 414.424 141.664 414.76 142.019 414.984C142.373 415.208 142.812 415.32 143.335 415.32C143.559 415.32 143.773 415.311 143.979 415.292C144.203 415.255 144.408 415.208 144.595 415.152L144.539 417.056C144.24 417.112 143.951 417.159 143.671 417.196C143.409 417.233 143.139 417.252 142.859 417.252ZM154.891 417V405.156H152.203V403.392H155.507L154.891 403.98V402.916C154.891 401.105 155.339 399.733 156.235 398.8C157.15 397.867 158.55 397.344 160.435 397.232L161.527 397.176L161.723 398.912L160.435 398.996C159.67 399.052 159.044 399.22 158.559 399.5C158.074 399.78 157.719 400.181 157.495 400.704C157.271 401.227 157.159 401.871 157.159 402.636V403.812L156.823 403.392H161.079V405.156H157.159V417H154.891ZM168.303 417.252C167.202 417.252 166.287 417.056 165.559 416.664C164.85 416.253 164.309 415.647 163.935 414.844C163.581 414.041 163.403 413.043 163.403 411.848V403.392H165.671V411.82C165.671 412.623 165.774 413.295 165.979 413.836C166.203 414.359 166.549 414.751 167.015 415.012C167.482 415.255 168.061 415.376 168.751 415.376C169.535 415.376 170.217 415.199 170.795 414.844C171.374 414.489 171.831 413.995 172.167 413.36C172.503 412.725 172.671 411.979 172.671 411.12V403.392H174.939V417H172.727V413.864H173.091C172.718 414.965 172.102 415.805 171.243 416.384C170.403 416.963 169.423 417.252 168.303 417.252ZM179.183 417V403.392H181.395V406.416H181.087C181.479 405.333 182.113 404.521 182.991 403.98C183.887 403.42 184.913 403.14 186.071 403.14C187.153 403.14 188.049 403.336 188.759 403.728C189.487 404.101 190.028 404.689 190.383 405.492C190.737 406.295 190.915 407.303 190.915 408.516V417H188.647V408.656C188.647 407.816 188.535 407.125 188.311 406.584C188.105 406.043 187.769 405.641 187.303 405.38C186.855 405.119 186.267 404.988 185.539 404.988C184.717 404.988 183.999 405.165 183.383 405.52C182.767 405.875 182.291 406.369 181.955 407.004C181.619 407.639 181.451 408.385 181.451 409.244V417H179.183ZM200.865 417.252C199.502 417.252 198.326 416.953 197.337 416.356C196.347 415.759 195.582 414.928 195.041 413.864C194.518 412.781 194.257 411.531 194.257 410.112C194.257 408.675 194.518 407.433 195.041 406.388C195.582 405.343 196.347 404.54 197.337 403.98C198.326 403.42 199.502 403.14 200.865 403.14C201.705 403.14 202.535 403.289 203.357 403.588C204.178 403.887 204.859 404.307 205.401 404.848L204.617 406.5C204.075 405.977 203.478 405.595 202.825 405.352C202.19 405.109 201.583 404.988 201.005 404.988C199.586 404.988 198.494 405.436 197.729 406.332C196.963 407.209 196.581 408.479 196.581 410.14C196.581 411.764 196.963 413.052 197.729 414.004C198.494 414.937 199.586 415.404 201.005 415.404C201.583 415.404 202.19 415.283 202.825 415.04C203.478 414.797 204.075 414.405 204.617 413.864L205.401 415.516C204.859 416.057 204.169 416.487 203.329 416.804C202.507 417.103 201.686 417.252 200.865 417.252ZM213.518 417.252C211.912 417.252 210.708 416.823 209.906 415.964C209.103 415.105 208.702 413.883 208.702 412.296V405.156H206.042V403.392H208.702V399.22H210.97V403.392H215.282V405.156H210.97V412.072C210.97 413.136 211.194 413.948 211.642 414.508C212.09 415.049 212.818 415.32 213.826 415.32C214.124 415.32 214.423 415.283 214.722 415.208C215.02 415.133 215.291 415.059 215.534 414.984L215.926 416.72C215.683 416.851 215.328 416.972 214.862 417.084C214.395 417.196 213.947 417.252 213.518 417.252ZM217.567 400.004V397.456H220.367V400.004H217.567ZM217.847 417V403.392H220.115V417H217.847ZM230.011 417.252C228.685 417.252 227.537 416.963 226.567 416.384C225.596 415.805 224.84 414.993 224.299 413.948C223.776 412.884 223.515 411.633 223.515 410.196C223.515 408.759 223.776 407.517 224.299 406.472C224.84 405.408 225.596 404.587 226.567 404.008C227.537 403.429 228.685 403.14 230.011 403.14C231.336 403.14 232.484 403.429 233.455 404.008C234.425 404.587 235.172 405.408 235.695 406.472C236.236 407.517 236.507 408.759 236.507 410.196C236.507 411.633 236.236 412.884 235.695 413.948C235.172 414.993 234.425 415.805 233.455 416.384C232.484 416.963 231.336 417.252 230.011 417.252ZM230.011 415.432C231.299 415.432 232.316 414.984 233.063 414.088C233.828 413.173 234.211 411.867 234.211 410.168C234.211 408.488 233.828 407.2 233.063 406.304C232.316 405.408 231.299 404.96 230.011 404.96C228.741 404.96 227.724 405.408 226.959 406.304C226.193 407.2 225.811 408.488 225.811 410.168C225.811 411.867 226.193 413.173 226.959 414.088C227.724 414.984 228.741 415.432 230.011 415.432ZM239.913 417V403.392H242.125V406.416H241.817C242.209 405.333 242.844 404.521 243.721 403.98C244.617 403.42 245.644 403.14 246.801 403.14C247.884 403.14 248.78 403.336 249.489 403.728C250.217 404.101 250.758 404.689 251.113 405.492C251.468 406.295 251.645 407.303 251.645 408.516V417H249.377V408.656C249.377 407.816 249.265 407.125 249.041 406.584C248.836 406.043 248.5 405.641 248.033 405.38C247.585 405.119 246.997 404.988 246.269 404.988C245.448 404.988 244.729 405.165 244.113 405.52C243.497 405.875 243.021 406.369 242.685 407.004C242.349 407.639 242.181 408.385 242.181 409.244V417H239.913ZM260.111 417.252C259.178 417.252 258.338 417.075 257.591 416.72C256.863 416.347 256.285 415.843 255.855 415.208C255.426 414.573 255.211 413.864 255.211 413.08C255.211 412.072 255.463 411.279 255.967 410.7C256.49 410.121 257.339 409.711 258.515 409.468C259.71 409.225 261.334 409.104 263.387 409.104H264.647V410.588H263.415C262.277 410.588 261.325 410.625 260.559 410.7C259.794 410.775 259.187 410.905 258.739 411.092C258.291 411.279 257.974 411.521 257.787 411.82C257.601 412.119 257.507 412.492 257.507 412.94C257.507 413.705 257.769 414.331 258.291 414.816C258.833 415.301 259.561 415.544 260.475 415.544C261.222 415.544 261.875 415.367 262.435 415.012C263.014 414.657 263.462 414.172 263.779 413.556C264.115 412.94 264.283 412.231 264.283 411.428V408.236C264.283 407.079 264.05 406.248 263.583 405.744C263.117 405.221 262.351 404.96 261.287 404.96C260.466 404.96 259.673 405.081 258.907 405.324C258.142 405.548 257.358 405.921 256.555 406.444L255.771 404.792C256.257 404.456 256.807 404.167 257.423 403.924C258.039 403.663 258.683 403.467 259.355 403.336C260.027 403.205 260.671 403.14 261.287 403.14C262.463 403.14 263.434 403.336 264.199 403.728C264.965 404.101 265.534 404.68 265.907 405.464C266.281 406.229 266.467 407.219 266.467 408.432V417H264.339V413.836H264.591C264.442 414.545 264.153 415.152 263.723 415.656C263.313 416.16 262.799 416.552 262.183 416.832C261.567 417.112 260.877 417.252 260.111 417.252ZM274.847 417.252C273.466 417.252 272.42 416.841 271.711 416.02C271.02 415.199 270.675 414.023 270.675 412.492V397.26H272.943V412.324C272.943 412.977 273.027 413.528 273.195 413.976C273.382 414.424 273.652 414.76 274.007 414.984C274.362 415.208 274.8 415.32 275.323 415.32C275.547 415.32 275.762 415.311 275.967 415.292C276.191 415.255 276.396 415.208 276.583 415.152L276.527 417.056C276.228 417.112 275.939 417.159 275.659 417.196C275.398 417.233 275.127 417.252 274.847 417.252ZM278.68 400.004V397.456H281.48V400.004H278.68ZM278.96 417V403.392H281.228V417H278.96ZM290.928 417.252C289.323 417.252 288.119 416.823 287.316 415.964C286.513 415.105 286.112 413.883 286.112 412.296V405.156H283.452V403.392H286.112V399.22H288.38V403.392H292.692V405.156H288.38V412.072C288.38 413.136 288.604 413.948 289.052 414.508C289.5 415.049 290.228 415.32 291.236 415.32C291.535 415.32 291.833 415.283 292.132 415.208C292.431 415.133 292.701 415.059 292.944 414.984L293.336 416.72C293.093 416.851 292.739 416.972 292.272 417.084C291.805 417.196 291.357 417.252 290.928 417.252ZM296.989 422.04L299.537 416.3V417.28L293.573 403.392H296.037L300.909 415.32H300.153L305.081 403.392H307.461L299.369 422.04H296.989ZM322.455 417.252C320.85 417.252 319.646 416.823 318.843 415.964C318.041 415.105 317.639 413.883 317.639 412.296V405.156H314.979V403.392H317.639V399.22H319.907V403.392H324.219V405.156H319.907V412.072C319.907 413.136 320.131 413.948 320.579 414.508C321.027 415.049 321.755 415.32 322.763 415.32C323.062 415.32 323.361 415.283 323.659 415.208C323.958 415.133 324.229 415.059 324.471 414.984L324.863 416.72C324.621 416.851 324.266 416.972 323.799 417.084C323.333 417.196 322.885 417.252 322.455 417.252ZM326.784 417V397.26H329.052V406.416H328.688C329.08 405.333 329.715 404.521 330.592 403.98C331.488 403.42 332.515 403.14 333.672 403.14C334.755 403.14 335.651 403.336 336.36 403.728C337.088 404.12 337.63 404.717 337.984 405.52C338.339 406.304 338.516 407.303 338.516 408.516V417H336.248V408.656C336.248 407.816 336.136 407.125 335.912 406.584C335.707 406.043 335.371 405.641 334.904 405.38C334.456 405.119 333.868 404.988 333.14 404.988C332.319 404.988 331.6 405.165 330.984 405.52C330.368 405.875 329.892 406.369 329.556 407.004C329.22 407.639 329.052 408.385 329.052 409.244V417H326.784ZM346.982 417.252C346.049 417.252 345.209 417.075 344.462 416.72C343.734 416.347 343.156 415.843 342.726 415.208C342.297 414.573 342.082 413.864 342.082 413.08C342.082 412.072 342.334 411.279 342.838 410.7C343.361 410.121 344.21 409.711 345.386 409.468C346.581 409.225 348.205 409.104 350.258 409.104H351.518V410.588H350.286C349.148 410.588 348.196 410.625 347.43 410.7C346.665 410.775 346.058 410.905 345.61 411.092C345.162 411.279 344.845 411.521 344.658 411.82C344.472 412.119 344.378 412.492 344.378 412.94C344.378 413.705 344.64 414.331 345.162 414.816C345.704 415.301 346.432 415.544 347.346 415.544C348.093 415.544 348.746 415.367 349.306 415.012C349.885 414.657 350.333 414.172 350.65 413.556C350.986 412.94 351.154 412.231 351.154 411.428V408.236C351.154 407.079 350.921 406.248 350.454 405.744C349.988 405.221 349.222 404.96 348.158 404.96C347.337 404.96 346.544 405.081 345.778 405.324C345.013 405.548 344.229 405.921 343.426 406.444L342.642 404.792C343.128 404.456 343.678 404.167 344.294 403.924C344.91 403.663 345.554 403.467 346.226 403.336C346.898 403.205 347.542 403.14 348.158 403.14C349.334 403.14 350.305 403.336 351.07 403.728C351.836 404.101 352.405 404.68 352.778 405.464C353.152 406.229 353.338 407.219 353.338 408.432V417H351.21V413.836H351.462C351.313 414.545 351.024 415.152 350.594 415.656C350.184 416.16 349.67 416.552 349.054 416.832C348.438 417.112 347.748 417.252 346.982 417.252ZM363.006 417.252C361.401 417.252 360.197 416.823 359.394 415.964C358.591 415.105 358.19 413.883 358.19 412.296V405.156H355.53V403.392H358.19V399.22H360.458V403.392H364.77V405.156H360.458V412.072C360.458 413.136 360.682 413.948 361.13 414.508C361.578 415.049 362.306 415.32 363.314 415.32C363.613 415.32 363.911 415.283 364.21 415.208C364.509 415.133 364.779 415.059 365.022 414.984L365.414 416.72C365.171 416.851 364.817 416.972 364.35 417.084C363.883 417.196 363.435 417.252 363.006 417.252ZM374.526 417V403.392H376.738V406.612H376.458C376.776 405.511 377.326 404.68 378.11 404.12C378.894 403.541 379.93 403.205 381.218 403.112L382.03 403.028L382.198 404.988L380.77 405.156C379.501 405.268 378.521 405.679 377.83 406.388C377.158 407.079 376.822 408.031 376.822 409.244V417H374.526ZM390.53 417.252C389.092 417.252 387.851 416.972 386.806 416.412C385.779 415.833 384.976 415.021 384.398 413.976C383.838 412.931 383.558 411.68 383.558 410.224C383.558 408.805 383.838 407.573 384.398 406.528C384.958 405.464 385.723 404.633 386.694 404.036C387.683 403.439 388.822 403.14 390.11 403.14C391.342 403.14 392.396 403.411 393.274 403.952C394.151 404.493 394.823 405.259 395.29 406.248C395.775 407.237 396.018 408.423 396.018 409.804V410.672H385.294V409.188H394.506L394.058 409.552C394.058 408.059 393.722 406.901 393.05 406.08C392.396 405.24 391.435 404.82 390.166 404.82C389.214 404.82 388.402 405.044 387.73 405.492C387.076 405.921 386.582 406.528 386.246 407.312C385.91 408.077 385.742 408.973 385.742 410V410.168C385.742 411.307 385.919 412.268 386.274 413.052C386.647 413.836 387.198 414.433 387.926 414.844C388.654 415.236 389.522 415.432 390.53 415.432C391.332 415.432 392.107 415.311 392.854 415.068C393.619 414.807 394.338 414.387 395.01 413.808L395.794 415.404C395.178 415.964 394.394 416.412 393.442 416.748C392.49 417.084 391.519 417.252 390.53 417.252ZM399.3 422.04V403.392H401.512V406.612H401.232C401.531 405.548 402.119 404.708 402.996 404.092C403.892 403.457 404.956 403.14 406.188 403.14C407.401 403.14 408.456 403.429 409.352 404.008C410.267 404.568 410.967 405.38 411.452 406.444C411.956 407.489 412.208 408.74 412.208 410.196C412.208 411.633 411.956 412.884 411.452 413.948C410.967 414.993 410.276 415.805 409.38 416.384C408.484 416.963 407.42 417.252 406.188 417.252C404.956 417.252 403.901 416.944 403.024 416.328C402.147 415.693 401.549 414.853 401.232 413.808H401.568V422.04H399.3ZM405.712 415.432C407 415.432 408.017 414.984 408.764 414.088C409.529 413.173 409.912 411.876 409.912 410.196C409.912 408.497 409.529 407.2 408.764 406.304C408.017 405.408 407 404.96 405.712 404.96C404.443 404.96 403.425 405.408 402.66 406.304C401.895 407.2 401.512 408.497 401.512 410.196C401.512 411.876 401.895 413.173 402.66 414.088C403.425 414.984 404.443 415.432 405.712 415.432ZM415.624 417V403.392H417.836V406.612H417.556C417.873 405.511 418.424 404.68 419.208 404.12C419.992 403.541 421.028 403.205 422.316 403.112L423.128 403.028L423.296 404.988L421.868 405.156C420.599 405.268 419.619 405.679 418.928 406.388C418.256 407.079 417.92 408.031 417.92 409.244V417H415.624ZM431.627 417.252C430.19 417.252 428.949 416.972 427.903 416.412C426.877 415.833 426.074 415.021 425.495 413.976C424.935 412.931 424.655 411.68 424.655 410.224C424.655 408.805 424.935 407.573 425.495 406.528C426.055 405.464 426.821 404.633 427.791 404.036C428.781 403.439 429.919 403.14 431.207 403.14C432.439 403.14 433.494 403.411 434.371 403.952C435.249 404.493 435.921 405.259 436.387 406.248C436.873 407.237 437.115 408.423 437.115 409.804V410.672H426.391V409.188H435.603L435.155 409.552C435.155 408.059 434.819 406.901 434.147 406.08C433.494 405.24 432.533 404.82 431.263 404.82C430.311 404.82 429.499 405.044 428.827 405.492C428.174 405.921 427.679 406.528 427.343 407.312C427.007 408.077 426.839 408.973 426.839 410V410.168C426.839 411.307 427.017 412.268 427.371 413.052C427.745 413.836 428.295 414.433 429.023 414.844C429.751 415.236 430.619 415.432 431.627 415.432C432.43 415.432 433.205 415.311 433.951 415.068C434.717 414.807 435.435 414.387 436.107 413.808L436.891 415.404C436.275 415.964 435.491 416.412 434.539 416.748C433.587 417.084 432.617 417.252 431.627 417.252ZM444.99 417.252C444.28 417.252 443.59 417.177 442.918 417.028C442.264 416.897 441.648 416.711 441.07 416.468C440.51 416.207 440.024 415.899 439.614 415.544L440.342 413.948C440.79 414.303 441.275 414.601 441.798 414.844C442.32 415.068 442.852 415.236 443.394 415.348C443.935 415.46 444.486 415.516 445.046 415.516C446.11 415.516 446.912 415.32 447.454 414.928C447.995 414.536 448.266 414.004 448.266 413.332C448.266 412.809 448.088 412.399 447.734 412.1C447.379 411.783 446.819 411.54 446.054 411.372L443.506 410.812C442.33 410.569 441.452 410.149 440.874 409.552C440.314 408.955 440.034 408.18 440.034 407.228C440.034 406.388 440.248 405.669 440.678 405.072C441.126 404.456 441.751 403.98 442.554 403.644C443.356 403.308 444.29 403.14 445.354 403.14C445.988 403.14 446.595 403.205 447.174 403.336C447.752 403.467 448.294 403.663 448.798 403.924C449.32 404.167 449.768 404.475 450.142 404.848L449.386 406.444C449.031 406.108 448.63 405.828 448.182 405.604C447.734 405.361 447.267 405.184 446.782 405.072C446.315 404.941 445.839 404.876 445.354 404.876C444.308 404.876 443.515 405.081 442.974 405.492C442.432 405.903 442.162 406.444 442.162 407.116C442.162 407.639 442.33 408.068 442.666 408.404C443.002 408.74 443.524 408.983 444.234 409.132L446.782 409.664C447.995 409.925 448.9 410.345 449.498 410.924C450.114 411.484 450.422 412.249 450.422 413.22C450.422 414.041 450.198 414.76 449.75 415.376C449.302 415.973 448.667 416.44 447.846 416.776C447.043 417.093 446.091 417.252 444.99 417.252ZM460.01 417.252C458.573 417.252 457.331 416.972 456.286 416.412C455.259 415.833 454.457 415.021 453.878 413.976C453.318 412.931 453.038 411.68 453.038 410.224C453.038 408.805 453.318 407.573 453.878 406.528C454.438 405.464 455.203 404.633 456.174 404.036C457.163 403.439 458.302 403.14 459.59 403.14C460.822 403.14 461.877 403.411 462.754 403.952C463.631 404.493 464.303 405.259 464.77 406.248C465.255 407.237 465.498 408.423 465.498 409.804V410.672H454.774V409.188H463.986L463.538 409.552C463.538 408.059 463.202 406.901 462.53 406.08C461.877 405.24 460.915 404.82 459.646 404.82C458.694 404.82 457.882 405.044 457.21 405.492C456.557 405.921 456.062 406.528 455.726 407.312C455.39 408.077 455.222 408.973 455.222 410V410.168C455.222 411.307 455.399 412.268 455.754 413.052C456.127 413.836 456.678 414.433 457.406 414.844C458.134 415.236 459.002 415.432 460.01 415.432C460.813 415.432 461.587 415.311 462.334 415.068C463.099 414.807 463.818 414.387 464.49 413.808L465.274 415.404C464.658 415.964 463.874 416.412 462.922 416.748C461.97 417.084 460.999 417.252 460.01 417.252ZM468.78 417V403.392H470.992V406.416H470.684C471.076 405.333 471.711 404.521 472.588 403.98C473.484 403.42 474.511 403.14 475.668 403.14C476.751 403.14 477.647 403.336 478.356 403.728C479.084 404.101 479.626 404.689 479.98 405.492C480.335 406.295 480.512 407.303 480.512 408.516V417H478.244V408.656C478.244 407.816 478.132 407.125 477.908 406.584C477.703 406.043 477.367 405.641 476.9 405.38C476.452 405.119 475.864 404.988 475.136 404.988C474.315 404.988 473.596 405.165 472.98 405.52C472.364 405.875 471.888 406.369 471.552 407.004C471.216 407.639 471.048 408.385 471.048 409.244V417H468.78ZM490.154 417.252C488.549 417.252 487.345 416.823 486.542 415.964C485.74 415.105 485.338 413.883 485.338 412.296V405.156H482.678V403.392H485.338V399.22H487.606V403.392H491.918V405.156H487.606V412.072C487.606 413.136 487.83 413.948 488.278 414.508C488.726 415.049 489.454 415.32 490.462 415.32C490.761 415.32 491.06 415.283 491.358 415.208C491.657 415.133 491.928 415.059 492.17 414.984L492.562 416.72C492.32 416.851 491.965 416.972 491.498 417.084C491.032 417.196 490.584 417.252 490.154 417.252ZM499.075 417.252C498.366 417.252 497.675 417.177 497.003 417.028C496.35 416.897 495.734 416.711 495.155 416.468C494.595 416.207 494.11 415.899 493.699 415.544L494.427 413.948C494.875 414.303 495.361 414.601 495.883 414.844C496.406 415.068 496.938 415.236 497.479 415.348C498.021 415.46 498.571 415.516 499.131 415.516C500.195 415.516 500.998 415.32 501.539 414.928C502.081 414.536 502.351 414.004 502.351 413.332C502.351 412.809 502.174 412.399 501.819 412.1C501.465 411.783 500.905 411.54 500.139 411.372L497.591 410.812C496.415 410.569 495.538 410.149 494.959 409.552C494.399 408.955 494.119 408.18 494.119 407.228C494.119 406.388 494.334 405.669 494.763 405.072C495.211 404.456 495.837 403.98 496.639 403.644C497.442 403.308 498.375 403.14 499.439 403.14C500.074 403.14 500.681 403.205 501.259 403.336C501.838 403.467 502.379 403.663 502.883 403.924C503.406 404.167 503.854 404.475 504.227 404.848L503.471 406.444C503.117 406.108 502.715 405.828 502.267 405.604C501.819 405.361 501.353 405.184 500.867 405.072C500.401 404.941 499.925 404.876 499.439 404.876C498.394 404.876 497.601 405.081 497.059 405.492C496.518 405.903 496.247 406.444 496.247 407.116C496.247 407.639 496.415 408.068 496.751 408.404C497.087 408.74 497.61 408.983 498.319 409.132L500.867 409.664C502.081 409.925 502.986 410.345 503.583 410.924C504.199 411.484 504.507 412.249 504.507 413.22C504.507 414.041 504.283 414.76 503.835 415.376C503.387 415.973 502.753 416.44 501.931 416.776C501.129 417.093 500.177 417.252 499.075 417.252ZM39.128 455V435.26H41.396V444.416H41.032C41.424 443.333 42.0587 442.521 42.936 441.98C43.832 441.42 44.8587 441.14 46.016 441.14C47.0987 441.14 47.9947 441.336 48.704 441.728C49.432 442.12 49.9733 442.717 50.328 443.52C50.6827 444.304 50.86 445.303 50.86 446.516V455H48.592V446.656C48.592 445.816 48.48 445.125 48.256 444.584C48.0507 444.043 47.7147 443.641 47.248 443.38C46.8 443.119 46.212 442.988 45.484 442.988C44.6627 442.988 43.944 443.165 43.328 443.52C42.712 443.875 42.236 444.369 41.9 445.004C41.564 445.639 41.396 446.385 41.396 447.244V455H39.128ZM60.6981 455.252C59.3727 455.252 58.2247 454.963 57.2541 454.384C56.2834 453.805 55.5274 452.993 54.9861 451.948C54.4634 450.884 54.2021 449.633 54.2021 448.196C54.2021 446.759 54.4634 445.517 54.9861 444.472C55.5274 443.408 56.2834 442.587 57.2541 442.008C58.2247 441.429 59.3727 441.14 60.6981 441.14C62.0234 441.14 63.1714 441.429 64.1421 442.008C65.1127 442.587 65.8594 443.408 66.3821 444.472C66.9234 445.517 67.1941 446.759 67.1941 448.196C67.1941 449.633 66.9234 450.884 66.3821 451.948C65.8594 452.993 65.1127 453.805 64.1421 454.384C63.1714 454.963 62.0234 455.252 60.6981 455.252ZM60.6981 453.432C61.9861 453.432 63.0034 452.984 63.7501 452.088C64.5154 451.173 64.8981 449.867 64.8981 448.168C64.8981 446.488 64.5154 445.2 63.7501 444.304C63.0034 443.408 61.9861 442.96 60.6981 442.96C59.4287 442.96 58.4114 443.408 57.6461 444.304C56.8807 445.2 56.4981 446.488 56.4981 448.168C56.4981 449.867 56.8807 451.173 57.6461 452.088C58.4114 452.984 59.4287 453.432 60.6981 453.432ZM74.0213 455L68.9533 441.392H71.3333L75.5053 453.32H74.8333L79.1453 441.392H81.0773L85.3053 453.32H84.6613L88.8893 441.392H91.1573L86.0613 455H83.9053L79.4533 442.764H80.6573L76.2053 455H74.0213ZM106.604 455.252C104.998 455.252 103.794 454.823 102.992 453.964C102.189 453.105 101.788 451.883 101.788 450.296V443.156H99.1276V441.392H101.788V437.22H104.056V441.392H108.368V443.156H104.056V450.072C104.056 451.136 104.28 451.948 104.728 452.508C105.176 453.049 105.904 453.32 106.912 453.32C107.21 453.32 107.509 453.283 107.808 453.208C108.106 453.133 108.377 453.059 108.62 452.984L109.012 454.72C108.769 454.851 108.414 454.972 107.948 455.084C107.481 455.196 107.033 455.252 106.604 455.252ZM110.933 455V435.26H113.201V444.416H112.837C113.229 443.333 113.863 442.521 114.741 441.98C115.637 441.42 116.663 441.14 117.821 441.14C118.903 441.14 119.799 441.336 120.509 441.728C121.237 442.12 121.778 442.717 122.133 443.52C122.487 444.304 122.665 445.303 122.665 446.516V455H120.397V446.656C120.397 445.816 120.285 445.125 120.061 444.584C119.855 444.043 119.519 443.641 119.053 443.38C118.605 443.119 118.017 442.988 117.289 442.988C116.467 442.988 115.749 443.165 115.133 443.52C114.517 443.875 114.041 444.369 113.705 445.004C113.369 445.639 113.201 446.385 113.201 447.244V455H110.933ZM132.979 455.252C131.541 455.252 130.3 454.972 129.255 454.412C128.228 453.833 127.425 453.021 126.847 451.976C126.287 450.931 126.007 449.68 126.007 448.224C126.007 446.805 126.287 445.573 126.847 444.528C127.407 443.464 128.172 442.633 129.143 442.036C130.132 441.439 131.271 441.14 132.559 441.14C133.791 441.14 134.845 441.411 135.723 441.952C136.6 442.493 137.272 443.259 137.739 444.248C138.224 445.237 138.467 446.423 138.467 447.804V448.672H127.743V447.188H136.955L136.507 447.552C136.507 446.059 136.171 444.901 135.499 444.08C134.845 443.24 133.884 442.82 132.615 442.82C131.663 442.82 130.851 443.044 130.179 443.492C129.525 443.921 129.031 444.528 128.695 445.312C128.359 446.077 128.191 446.973 128.191 448V448.168C128.191 449.307 128.368 450.268 128.723 451.052C129.096 451.836 129.647 452.433 130.375 452.844C131.103 453.236 131.971 453.432 132.979 453.432C133.781 453.432 134.556 453.311 135.303 453.068C136.068 452.807 136.787 452.387 137.459 451.808L138.243 453.404C137.627 453.964 136.843 454.412 135.891 454.748C134.939 455.084 133.968 455.252 132.979 455.252ZM148.941 455V441.392H151.153V444.612H150.873C151.19 443.511 151.741 442.68 152.525 442.12C153.309 441.541 154.345 441.205 155.633 441.112L156.445 441.028L156.613 442.988L155.185 443.156C153.915 443.268 152.935 443.679 152.245 444.388C151.573 445.079 151.237 446.031 151.237 447.244V455H148.941ZM164.944 455.252C163.506 455.252 162.265 454.972 161.22 454.412C160.193 453.833 159.39 453.021 158.812 451.976C158.252 450.931 157.972 449.68 157.972 448.224C157.972 446.805 158.252 445.573 158.812 444.528C159.372 443.464 160.137 442.633 161.108 442.036C162.097 441.439 163.236 441.14 164.524 441.14C165.756 441.14 166.81 441.411 167.688 441.952C168.565 442.493 169.237 443.259 169.704 444.248C170.189 445.237 170.432 446.423 170.432 447.804V448.672H159.708V447.188H168.92L168.472 447.552C168.472 446.059 168.136 444.901 167.464 444.08C166.81 443.24 165.849 442.82 164.58 442.82C163.628 442.82 162.816 443.044 162.144 443.492C161.49 443.921 160.996 444.528 160.66 445.312C160.324 446.077 160.156 446.973 160.156 448V448.168C160.156 449.307 160.333 450.268 160.688 451.052C161.061 451.836 161.612 452.433 162.34 452.844C163.068 453.236 163.936 453.432 164.944 453.432C165.746 453.432 166.521 453.311 167.268 453.068C168.033 452.807 168.752 452.387 169.424 451.808L170.208 453.404C169.592 453.964 168.808 454.412 167.856 454.748C166.904 455.084 165.933 455.252 164.944 455.252ZM177.998 455.252C177.065 455.252 176.225 455.075 175.478 454.72C174.75 454.347 174.171 453.843 173.742 453.208C173.313 452.573 173.098 451.864 173.098 451.08C173.098 450.072 173.35 449.279 173.854 448.7C174.377 448.121 175.226 447.711 176.402 447.468C177.597 447.225 179.221 447.104 181.274 447.104H182.534V448.588H181.302C180.163 448.588 179.211 448.625 178.446 448.7C177.681 448.775 177.074 448.905 176.626 449.092C176.178 449.279 175.861 449.521 175.674 449.82C175.487 450.119 175.394 450.492 175.394 450.94C175.394 451.705 175.655 452.331 176.178 452.816C176.719 453.301 177.447 453.544 178.362 453.544C179.109 453.544 179.762 453.367 180.322 453.012C180.901 452.657 181.349 452.172 181.666 451.556C182.002 450.94 182.17 450.231 182.17 449.428V446.236C182.17 445.079 181.937 444.248 181.47 443.744C181.003 443.221 180.238 442.96 179.174 442.96C178.353 442.96 177.559 443.081 176.794 443.324C176.029 443.548 175.245 443.921 174.442 444.444L173.658 442.792C174.143 442.456 174.694 442.167 175.31 441.924C175.926 441.663 176.57 441.467 177.242 441.336C177.914 441.205 178.558 441.14 179.174 441.14C180.35 441.14 181.321 441.336 182.086 441.728C182.851 442.101 183.421 442.68 183.794 443.464C184.167 444.229 184.354 445.219 184.354 446.432V455H182.226V451.836H182.478C182.329 452.545 182.039 453.152 181.61 453.656C181.199 454.16 180.686 454.552 180.07 454.832C179.454 455.112 178.763 455.252 177.998 455.252ZM192.734 455.252C191.352 455.252 190.307 454.841 189.598 454.02C188.907 453.199 188.562 452.023 188.562 450.492V435.26H190.83V450.324C190.83 450.977 190.914 451.528 191.082 451.976C191.268 452.424 191.539 452.76 191.894 452.984C192.248 453.208 192.687 453.32 193.21 453.32C193.434 453.32 193.648 453.311 193.854 453.292C194.078 453.255 194.283 453.208 194.47 453.152L194.414 455.056C194.115 455.112 193.826 455.159 193.546 455.196C193.284 455.233 193.014 455.252 192.734 455.252ZM203.758 438.004V435.456H206.558V438.004H203.758ZM204.038 455V441.392H206.306V455H204.038ZM210.546 455V441.392H212.758V444.416H212.45C212.842 443.333 213.477 442.521 214.354 441.98C215.25 441.42 216.277 441.14 217.434 441.14C218.517 441.14 219.413 441.336 220.122 441.728C220.85 442.101 221.391 442.689 221.746 443.492C222.101 444.295 222.278 445.303 222.278 446.516V455H220.01V446.656C220.01 445.816 219.898 445.125 219.674 444.584C219.469 444.043 219.133 443.641 218.666 443.38C218.218 443.119 217.63 442.988 216.902 442.988C216.081 442.988 215.362 443.165 214.746 443.52C214.13 443.875 213.654 444.369 213.318 445.004C212.982 445.639 212.814 446.385 212.814 447.244V455H210.546ZM231.92 455.252C230.315 455.252 229.111 454.823 228.308 453.964C227.505 453.105 227.104 451.883 227.104 450.296V443.156H224.444V441.392H227.104V437.22H229.372V441.392H233.684V443.156H229.372V450.072C229.372 451.136 229.596 451.948 230.044 452.508C230.492 453.049 231.22 453.32 232.228 453.32C232.527 453.32 232.825 453.283 233.124 453.208C233.423 453.133 233.693 453.059 233.936 452.984L234.328 454.72C234.085 454.851 233.731 454.972 233.264 455.084C232.797 455.196 232.349 455.252 231.92 455.252ZM242.244 455.252C240.807 455.252 239.566 454.972 238.52 454.412C237.494 453.833 236.691 453.021 236.112 451.976C235.552 450.931 235.272 449.68 235.272 448.224C235.272 446.805 235.552 445.573 236.112 444.528C236.672 443.464 237.438 442.633 238.408 442.036C239.398 441.439 240.536 441.14 241.824 441.14C243.056 441.14 244.111 441.411 244.988 441.952C245.866 442.493 246.538 443.259 247.004 444.248C247.49 445.237 247.732 446.423 247.732 447.804V448.672H237.008V447.188H246.22L245.772 447.552C245.772 446.059 245.436 444.901 244.764 444.08C244.111 443.24 243.15 442.82 241.88 442.82C240.928 442.82 240.116 443.044 239.444 443.492C238.791 443.921 238.296 444.528 237.96 445.312C237.624 446.077 237.456 446.973 237.456 448V448.168C237.456 449.307 237.634 450.268 237.988 451.052C238.362 451.836 238.912 452.433 239.64 452.844C240.368 453.236 241.236 453.432 242.244 453.432C243.047 453.432 243.822 453.311 244.568 453.068C245.334 452.807 246.052 452.387 246.724 451.808L247.508 453.404C246.892 453.964 246.108 454.412 245.156 454.748C244.204 455.084 243.234 455.252 242.244 455.252ZM251.015 455V441.392H253.227V444.612H252.947C253.264 443.511 253.815 442.68 254.599 442.12C255.383 441.541 256.419 441.205 257.707 441.112L258.519 441.028L258.687 442.988L257.259 443.156C255.989 443.268 255.009 443.679 254.319 444.388C253.647 445.079 253.311 446.031 253.311 447.244V455H251.015ZM265.197 455.252C264.264 455.252 263.424 455.075 262.677 454.72C261.949 454.347 261.37 453.843 260.941 453.208C260.512 452.573 260.297 451.864 260.297 451.08C260.297 450.072 260.549 449.279 261.053 448.7C261.576 448.121 262.425 447.711 263.601 447.468C264.796 447.225 266.42 447.104 268.473 447.104H269.733V448.588H268.501C267.362 448.588 266.41 448.625 265.645 448.7C264.88 448.775 264.273 448.905 263.825 449.092C263.377 449.279 263.06 449.521 262.873 449.82C262.686 450.119 262.593 450.492 262.593 450.94C262.593 451.705 262.854 452.331 263.377 452.816C263.918 453.301 264.646 453.544 265.561 453.544C266.308 453.544 266.961 453.367 267.521 453.012C268.1 452.657 268.548 452.172 268.865 451.556C269.201 450.94 269.369 450.231 269.369 449.428V446.236C269.369 445.079 269.136 444.248 268.669 443.744C268.202 443.221 267.437 442.96 266.373 442.96C265.552 442.96 264.758 443.081 263.993 443.324C263.228 443.548 262.444 443.921 261.641 444.444L260.857 442.792C261.342 442.456 261.893 442.167 262.509 441.924C263.125 441.663 263.769 441.467 264.441 441.336C265.113 441.205 265.757 441.14 266.373 441.14C267.549 441.14 268.52 441.336 269.285 441.728C270.05 442.101 270.62 442.68 270.993 443.464C271.366 444.229 271.553 445.219 271.553 446.432V455H269.425V451.836H269.677C269.528 452.545 269.238 453.152 268.809 453.656C268.398 454.16 267.885 454.552 267.269 454.832C266.653 455.112 265.962 455.252 265.197 455.252ZM281.529 455.252C280.166 455.252 278.99 454.953 278.001 454.356C277.011 453.759 276.246 452.928 275.705 451.864C275.182 450.781 274.921 449.531 274.921 448.112C274.921 446.675 275.182 445.433 275.705 444.388C276.246 443.343 277.011 442.54 278.001 441.98C278.99 441.42 280.166 441.14 281.529 441.14C282.369 441.14 283.199 441.289 284.021 441.588C284.842 441.887 285.523 442.307 286.065 442.848L285.281 444.5C284.739 443.977 284.142 443.595 283.489 443.352C282.854 443.109 282.247 442.988 281.669 442.988C280.25 442.988 279.158 443.436 278.393 444.332C277.627 445.209 277.245 446.479 277.245 448.14C277.245 449.764 277.627 451.052 278.393 452.004C279.158 452.937 280.25 453.404 281.669 453.404C282.247 453.404 282.854 453.283 283.489 453.04C284.142 452.797 284.739 452.405 285.281 451.864L286.065 453.516C285.523 454.057 284.833 454.487 283.993 454.804C283.171 455.103 282.35 455.252 281.529 455.252ZM294.182 455.252C292.576 455.252 291.372 454.823 290.57 453.964C289.767 453.105 289.366 451.883 289.366 450.296V443.156H286.706V441.392H289.366V437.22H291.634V441.392H295.946V443.156H291.634V450.072C291.634 451.136 291.858 451.948 292.306 452.508C292.754 453.049 293.482 453.32 294.49 453.32C294.788 453.32 295.087 453.283 295.386 453.208C295.684 453.133 295.955 453.059 296.198 452.984L296.59 454.72C296.347 454.851 295.992 454.972 295.526 455.084C295.059 455.196 294.611 455.252 294.182 455.252ZM298.231 438.004V435.456H301.031V438.004H298.231ZM298.511 455V441.392H300.779V455H298.511ZM310.675 455.252C309.349 455.252 308.201 454.963 307.231 454.384C306.26 453.805 305.504 452.993 304.963 451.948C304.44 450.884 304.179 449.633 304.179 448.196C304.179 446.759 304.44 445.517 304.963 444.472C305.504 443.408 306.26 442.587 307.231 442.008C308.201 441.429 309.349 441.14 310.675 441.14C312 441.14 313.148 441.429 314.119 442.008C315.089 442.587 315.836 443.408 316.359 444.472C316.9 445.517 317.171 446.759 317.171 448.196C317.171 449.633 316.9 450.884 316.359 451.948C315.836 452.993 315.089 453.805 314.119 454.384C313.148 454.963 312 455.252 310.675 455.252ZM310.675 453.432C311.963 453.432 312.98 452.984 313.727 452.088C314.492 451.173 314.875 449.867 314.875 448.168C314.875 446.488 314.492 445.2 313.727 444.304C312.98 443.408 311.963 442.96 310.675 442.96C309.405 442.96 308.388 443.408 307.623 444.304C306.857 445.2 306.475 446.488 306.475 448.168C306.475 449.867 306.857 451.173 307.623 452.088C308.388 452.984 309.405 453.432 310.675 453.432ZM320.577 455V441.392H322.789V444.416H322.481C322.873 443.333 323.508 442.521 324.385 441.98C325.281 441.42 326.308 441.14 327.465 441.14C328.548 441.14 329.444 441.336 330.153 441.728C330.881 442.101 331.423 442.689 331.777 443.492C332.132 444.295 332.309 445.303 332.309 446.516V455H330.041V446.656C330.041 445.816 329.929 445.125 329.705 444.584C329.5 444.043 329.164 443.641 328.697 443.38C328.249 443.119 327.661 442.988 326.933 442.988C326.112 442.988 325.393 443.165 324.777 443.52C324.161 443.875 323.685 444.369 323.349 445.004C323.013 445.639 322.845 446.385 322.845 447.244V455H320.577ZM348.275 455.252C347.565 455.252 346.875 455.177 346.203 455.028C345.549 454.897 344.933 454.711 344.355 454.468C343.795 454.207 343.309 453.899 342.899 453.544L343.627 451.948C344.075 452.303 344.56 452.601 345.083 452.844C345.605 453.068 346.137 453.236 346.679 453.348C347.22 453.46 347.771 453.516 348.331 453.516C349.395 453.516 350.197 453.32 350.739 452.928C351.28 452.536 351.551 452.004 351.551 451.332C351.551 450.809 351.373 450.399 351.019 450.1C350.664 449.783 350.104 449.54 349.339 449.372L346.791 448.812C345.615 448.569 344.737 448.149 344.159 447.552C343.599 446.955 343.319 446.18 343.319 445.228C343.319 444.388 343.533 443.669 343.963 443.072C344.411 442.456 345.036 441.98 345.839 441.644C346.641 441.308 347.575 441.14 348.639 441.14C349.273 441.14 349.88 441.205 350.459 441.336C351.037 441.467 351.579 441.663 352.083 441.924C352.605 442.167 353.053 442.475 353.427 442.848L352.671 444.444C352.316 444.108 351.915 443.828 351.467 443.604C351.019 443.361 350.552 443.184 350.067 443.072C349.6 442.941 349.124 442.876 348.639 442.876C347.593 442.876 346.8 443.081 346.259 443.492C345.717 443.903 345.447 444.444 345.447 445.116C345.447 445.639 345.615 446.068 345.951 446.404C346.287 446.74 346.809 446.983 347.519 447.132L350.067 447.664C351.28 447.925 352.185 448.345 352.783 448.924C353.399 449.484 353.707 450.249 353.707 451.22C353.707 452.041 353.483 452.76 353.035 453.376C352.587 453.973 351.952 454.44 351.131 454.776C350.328 455.093 349.376 455.252 348.275 455.252ZM357.163 455V435.26H359.431V444.416H359.067C359.459 443.333 360.094 442.521 360.971 441.98C361.867 441.42 362.894 441.14 364.051 441.14C365.134 441.14 366.03 441.336 366.739 441.728C367.467 442.12 368.008 442.717 368.363 443.52C368.718 444.304 368.895 445.303 368.895 446.516V455H366.627V446.656C366.627 445.816 366.515 445.125 366.291 444.584C366.086 444.043 365.75 443.641 365.283 443.38C364.835 443.119 364.247 442.988 363.519 442.988C362.698 442.988 361.979 443.165 361.363 443.52C360.747 443.875 360.271 444.369 359.935 445.004C359.599 445.639 359.431 446.385 359.431 447.244V455H357.163ZM378.733 455.252C377.408 455.252 376.26 454.963 375.289 454.384C374.319 453.805 373.563 452.993 373.021 451.948C372.499 450.884 372.237 449.633 372.237 448.196C372.237 446.759 372.499 445.517 373.021 444.472C373.563 443.408 374.319 442.587 375.289 442.008C376.26 441.429 377.408 441.14 378.733 441.14C380.059 441.14 381.207 441.429 382.177 442.008C383.148 442.587 383.895 443.408 384.417 444.472C384.959 445.517 385.229 446.759 385.229 448.196C385.229 449.633 384.959 450.884 384.417 451.948C383.895 452.993 383.148 453.805 382.177 454.384C381.207 454.963 380.059 455.252 378.733 455.252ZM378.733 453.432C380.021 453.432 381.039 452.984 381.785 452.088C382.551 451.173 382.933 449.867 382.933 448.168C382.933 446.488 382.551 445.2 381.785 444.304C381.039 443.408 380.021 442.96 378.733 442.96C377.464 442.96 376.447 443.408 375.681 444.304C374.916 445.2 374.533 446.488 374.533 448.168C374.533 449.867 374.916 451.173 375.681 452.088C376.447 452.984 377.464 453.432 378.733 453.432ZM393.452 455.252C392.35 455.252 391.436 455.056 390.708 454.664C389.998 454.253 389.457 453.647 389.084 452.844C388.729 452.041 388.552 451.043 388.552 449.848V441.392H390.82V449.82C390.82 450.623 390.922 451.295 391.128 451.836C391.352 452.359 391.697 452.751 392.164 453.012C392.63 453.255 393.209 453.376 393.9 453.376C394.684 453.376 395.365 453.199 395.944 452.844C396.522 452.489 396.98 451.995 397.316 451.36C397.652 450.725 397.82 449.979 397.82 449.12V441.392H400.088V455H397.876V451.864H398.24C397.866 452.965 397.25 453.805 396.392 454.384C395.552 454.963 394.572 455.252 393.452 455.252ZM408.503 455.252C407.122 455.252 406.076 454.841 405.367 454.02C404.676 453.199 404.331 452.023 404.331 450.492V435.26H406.599V450.324C406.599 450.977 406.683 451.528 406.851 451.976C407.038 452.424 407.308 452.76 407.663 452.984C408.018 453.208 408.456 453.32 408.979 453.32C409.203 453.32 409.418 453.311 409.623 453.292C409.847 453.255 410.052 453.208 410.239 453.152L410.183 455.056C409.884 455.112 409.595 455.159 409.315 455.196C409.054 455.233 408.783 455.252 408.503 455.252ZM417.66 455.252C416.446 455.252 415.382 454.963 414.468 454.384C413.572 453.805 412.872 452.993 412.368 451.948C411.882 450.884 411.64 449.633 411.64 448.196C411.64 446.74 411.882 445.489 412.368 444.444C412.872 443.38 413.572 442.568 414.468 442.008C415.382 441.429 416.446 441.14 417.66 441.14C418.892 441.14 419.946 441.448 420.824 442.064C421.701 442.68 422.289 443.511 422.588 444.556H422.28V435.26H424.548V455H422.336V451.752H422.616C422.317 452.816 421.72 453.665 420.824 454.3C419.946 454.935 418.892 455.252 417.66 455.252ZM418.136 453.432C419.424 453.432 420.441 452.984 421.188 452.088C421.953 451.173 422.336 449.876 422.336 448.196C422.336 446.497 421.953 445.2 421.188 444.304C420.441 443.408 419.424 442.96 418.136 442.96C416.866 442.96 415.849 443.408 415.084 444.304C414.318 445.2 413.936 446.497 413.936 448.196C413.936 449.876 414.318 451.173 415.084 452.088C415.849 452.984 416.866 453.432 418.136 453.432ZM439.607 455L434.539 441.392H436.919L441.091 453.32H440.419L444.731 441.392H446.663L450.891 453.32H450.247L454.475 441.392H456.743L451.647 455H449.491L445.039 442.764H446.243L441.791 455H439.607ZM465.003 455.252C463.677 455.252 462.529 454.963 461.559 454.384C460.588 453.805 459.832 452.993 459.291 451.948C458.768 450.884 458.507 449.633 458.507 448.196C458.507 446.759 458.768 445.517 459.291 444.472C459.832 443.408 460.588 442.587 461.559 442.008C462.529 441.429 463.677 441.14 465.003 441.14C466.328 441.14 467.476 441.429 468.447 442.008C469.417 442.587 470.164 443.408 470.687 444.472C471.228 445.517 471.499 446.759 471.499 448.196C471.499 449.633 471.228 450.884 470.687 451.948C470.164 452.993 469.417 453.805 468.447 454.384C467.476 454.963 466.328 455.252 465.003 455.252ZM465.003 453.432C466.291 453.432 467.308 452.984 468.055 452.088C468.82 451.173 469.203 449.867 469.203 448.168C469.203 446.488 468.82 445.2 468.055 444.304C467.308 443.408 466.291 442.96 465.003 442.96C463.733 442.96 462.716 443.408 461.951 444.304C461.185 445.2 460.803 446.488 460.803 448.168C460.803 449.867 461.185 451.173 461.951 452.088C462.716 452.984 463.733 453.432 465.003 453.432ZM474.905 455V441.392H477.117V444.612H476.837C477.155 443.511 477.705 442.68 478.489 442.12C479.273 441.541 480.309 441.205 481.597 441.112L482.409 441.028L482.577 442.988L481.149 443.156C479.88 443.268 478.9 443.679 478.209 444.388C477.537 445.079 477.201 446.031 477.201 447.244V455H474.905ZM484.941 455V435.26H487.209V447.44H487.265L493.565 441.392H496.449L488.973 448.56V447.328L497.037 455H494.153L487.265 448.616H487.209V455H484.941Z" fill="#D9D9D9"/>
<g filter="url(#filter1_f_1726_13168)">
<ellipse cx="285" cy="230.445" rx="197" ry="123.442" fill="#4A33BC" fill-opacity="0.25"/>
</g>
<g opacity="0.2">
<mask id="mask0_1726_13168" style="mask-type:alpha" maskUnits="userSpaceOnUse" x="-5" y="-25" width="556" height="557">
<circle cx="273.036" cy="253.405" r="277.872" fill="url(#paint1_radial_1726_13168)"/>
</mask>
<g mask="url(#mask0_1726_13168)">
<line x1="397.176" y1="1.32629" x2="1.89613" y2="211.5" stroke="#FFBEFC" stroke-width="2.57289"/>
<line x1="416.502" y1="37.6739" x2="21.2223" y2="247.848" stroke="#FFBEFC" stroke-width="2.57289"/>
<line x1="435.829" y1="74.0216" x2="40.549" y2="284.196" stroke="#FFBEFC" stroke-width="2.57289"/>
<line x1="455.155" y1="110.369" x2="59.8751" y2="320.543" stroke="#FFBEFC" stroke-width="2.57289"/>
<line x1="474.482" y1="146.717" x2="79.2018" y2="356.891" stroke="#FFBEFC" stroke-width="2.57289"/>
<line x1="493.808" y1="183.064" x2="98.528" y2="393.238" stroke="#FFBEFC" stroke-width="2.57289"/>
<line x1="513.134" y1="219.412" x2="117.854" y2="429.586" stroke="#FFBEFC" stroke-width="2.57289"/>
<line x1="532.461" y1="255.759" x2="137.181" y2="465.934" stroke="#FFBEFC" stroke-width="2.57289"/>
<line x1="551.787" y1="292.107" x2="156.507" y2="502.281" stroke="#FFBEFC" stroke-width="2.57289"/>
<line x1="571.113" y1="328.455" x2="175.833" y2="538.629" stroke="#FFBEFC" stroke-width="2.57289"/>
<line x1="568.861" y1="206.552" x2="169.973" y2="3.30894" stroke="#FFBEFC" stroke-width="2.57289"/>
<line x1="550.172" y1="243.232" x2="151.284" y2="39.9881" stroke="#FFBEFC" stroke-width="2.57289"/>
<line x1="531.483" y1="279.911" x2="132.595" y2="76.6678" stroke="#FFBEFC" stroke-width="2.57289"/>
<line x1="512.793" y1="316.591" x2="113.906" y2="113.347" stroke="#FFBEFC" stroke-width="2.57289"/>
<line x1="494.104" y1="353.27" x2="95.2166" y2="150.026" stroke="#FFBEFC" stroke-width="2.57289"/>
<line x1="475.415" y1="389.949" x2="76.5276" y2="186.705" stroke="#FFBEFC" stroke-width="2.57289"/>
<line x1="456.727" y1="426.629" x2="57.8386" y2="223.385" stroke="#FFBEFC" stroke-width="2.57289"/>
<line x1="438.038" y1="463.308" x2="39.1497" y2="260.064" stroke="#FFBEFC" stroke-width="2.57289"/>
<line x1="419.348" y1="499.987" x2="20.4602" y2="296.743" stroke="#FFBEFC" stroke-width="2.57289"/>
<line x1="400.66" y1="536.667" x2="1.77173" y2="333.423" stroke="#FFBEFC" stroke-width="2.57289"/>
</g>
</g>
<g filter="url(#filter2_bdi_1726_13168)">
<path d="M112.667 283.554L284.128 202.951L449.402 283.554L284.128 370.171L112.667 283.554Z" fill="url(#paint2_linear_1726_13168)" fill-opacity="0.4" shape-rendering="crispEdges"/>
</g>
<g filter="url(#filter3_bdi_1726_13168)">
<path d="M112.667 246.572L284.128 165.968L449.402 246.572L284.128 333.189L112.667 246.572Z" fill="url(#paint3_linear_1726_13168)" fill-opacity="0.4" shape-rendering="crispEdges"/>
</g>
<g filter="url(#filter4_bdi_1726_13168)">
<path d="M112.667 246.572L284.128 165.968L449.402 246.572L284.128 333.189L112.667 246.572Z" fill="url(#paint4_linear_1726_13168)" fill-opacity="0.4" shape-rendering="crispEdges"/>
</g>
<g filter="url(#filter5_bdi_1726_13168)">
<path d="M112.667 213.482L284.128 132.878L449.402 213.482L284.128 300.099L112.667 213.482Z" fill="url(#paint5_linear_1726_13168)" fill-opacity="0.5" shape-rendering="crispEdges"/>
</g>
<g filter="url(#filter6_bd_1726_13168)">
<path d="M112.667 173.58L284.128 92.9765L449.402 173.58L284.128 260.197L112.667 173.58Z" fill="url(#paint6_linear_1726_13168)" fill-opacity="0.75" shape-rendering="crispEdges"/>
<path d="M284.119 259.102L114.887 173.612L284.12 94.0555L447.245 173.611L284.119 259.102Z" stroke="#E0E0E0" stroke-opacity="0.5" stroke-width="1.94644" shape-rendering="crispEdges"/>
</g>
<defs>
<filter id="filter0_b_1726_13168" x="6.3" y="52.3" width="536.4" height="462.4" filterUnits="userSpaceOnUse" color-interpolation-filters="sRGB">
<feFlood flood-opacity="0" result="BackgroundImageFix"/>
<feGaussianBlur in="BackgroundImageFix" stdDeviation="5.85"/>
<feComposite in2="SourceAlpha" operator="in" result="effect1_backgroundBlur_1726_13168"/>
<feBlend mode="normal" in="SourceGraphic" in2="effect1_backgroundBlur_1726_13168" result="shape"/>
</filter>
<filter id="filter1_f_1726_13168" x="33.8884" y="52.8913" width="502.223" height="355.107" filterUnits="userSpaceOnUse" color-interpolation-filters="sRGB">
<feFlood flood-opacity="0" result="BackgroundImageFix"/>
<feBlend mode="normal" in="SourceGraphic" in2="BackgroundImageFix" result="shape"/>
<feGaussianBlur stdDeviation="27.0558" result="effect1_foregroundBlur_1726_13168"/>
</filter>
<filter id="filter2_bdi_1726_13168" x="98.8467" y="189.131" width="364.374" height="194.86" filterUnits="userSpaceOnUse" color-interpolation-filters="sRGB">
<feFlood flood-opacity="0" result="BackgroundImageFix"/>
<feGaussianBlur in="BackgroundImageFix" stdDeviation="4.86611"/>
<feComposite in2="SourceAlpha" operator="in" result="effect1_backgroundBlur_1726_13168"/>
<feColorMatrix in="SourceAlpha" type="matrix" values="0 0 0 0 0 0 0 0 0 0 0 0 0 0 0 0 0 0 127 0" result="hardAlpha"/>
<feOffset/>
<feGaussianBlur stdDeviation="6.90988"/>
<feComposite in2="hardAlpha" operator="out"/>
<feColorMatrix type="matrix" values="0 0 0 0 0 0 0 0 0 0 0 0 0 0 0 0 0 0 0.25 0"/>
<feBlend mode="normal" in2="effect1_backgroundBlur_1726_13168" result="effect2_dropShadow_1726_13168"/>
<feBlend mode="normal" in="SourceGraphic" in2="effect2_dropShadow_1726_13168" result="shape"/>
<feColorMatrix in="SourceAlpha" type="matrix" values="0 0 0 0 0 0 0 0 0 0 0 0 0 0 0 0 0 0 127 0" result="hardAlpha"/>
<feOffset dy="-1.94644"/>
<feComposite in2="hardAlpha" operator="arithmetic" k2="-1" k3="1"/>
<feColorMatrix type="matrix" values="0 0 0 0 0.270588 0 0 0 0 0.247059 0 0 0 0 0.45098 0 0 0 1 0"/>
<feBlend mode="normal" in2="shape" result="effect3_innerShadow_1726_13168"/>
</filter>
<filter id="filter3_bdi_1726_13168" x="98.8467" y="152.149" width="364.374" height="194.86" filterUnits="userSpaceOnUse" color-interpolation-filters="sRGB">
<feFlood flood-opacity="0" result="BackgroundImageFix"/>
<feGaussianBlur in="BackgroundImageFix" stdDeviation="4.86611"/>
<feComposite in2="SourceAlpha" operator="in" result="effect1_backgroundBlur_1726_13168"/>
<feColorMatrix in="SourceAlpha" type="matrix" values="0 0 0 0 0 0 0 0 0 0 0 0 0 0 0 0 0 0 127 0" result="hardAlpha"/>
<feOffset/>
<feGaussianBlur stdDeviation="6.90988"/>
<feComposite in2="hardAlpha" operator="out"/>
<feColorMatrix type="matrix" values="0 0 0 0 0 0 0 0 0 0 0 0 0 0 0 0 0 0 0.25 0"/>
<feBlend mode="normal" in2="effect1_backgroundBlur_1726_13168" result="effect2_dropShadow_1726_13168"/>
<feBlend mode="normal" in="SourceGraphic" in2="effect2_dropShadow_1726_13168" result="shape"/>
<feColorMatrix in="SourceAlpha" type="matrix" values="0 0 0 0 0 0 0 0 0 0 0 0 0 0 0 0 0 0 127 0" result="hardAlpha"/>
<feOffset dy="-1.94644"/>
<feComposite in2="hardAlpha" operator="arithmetic" k2="-1" k3="1"/>
<feColorMatrix type="matrix" values="0 0 0 0 0.270588 0 0 0 0 0.247059 0 0 0 0 0.45098 0 0 0 1 0"/>
<feBlend mode="normal" in2="shape" result="effect3_innerShadow_1726_13168"/>
</filter>
<filter id="filter4_bdi_1726_13168" x="98.8467" y="152.149" width="364.374" height="194.86" filterUnits="userSpaceOnUse" color-interpolation-filters="sRGB">
<feFlood flood-opacity="0" result="BackgroundImageFix"/>
<feGaussianBlur in="BackgroundImageFix" stdDeviation="4.86611"/>
<feComposite in2="SourceAlpha" operator="in" result="effect1_backgroundBlur_1726_13168"/>
<feColorMatrix in="SourceAlpha" type="matrix" values="0 0 0 0 0 0 0 0 0 0 0 0 0 0 0 0 0 0 127 0" result="hardAlpha"/>
<feOffset/>
<feGaussianBlur stdDeviation="6.90988"/>
<feComposite in2="hardAlpha" operator="out"/>
<feColorMatrix type="matrix" values="0 0 0 0 0 0 0 0 0 0 0 0 0 0 0 0 0 0 0.25 0"/>
<feBlend mode="normal" in2="effect1_backgroundBlur_1726_13168" result="effect2_dropShadow_1726_13168"/>
<feBlend mode="normal" in="SourceGraphic" in2="effect2_dropShadow_1726_13168" result="shape"/>
<feColorMatrix in="SourceAlpha" type="matrix" values="0 0 0 0 0 0 0 0 0 0 0 0 0 0 0 0 0 0 127 0" result="hardAlpha"/>
<feOffset dy="-1.94644"/>
<feComposite in2="hardAlpha" operator="arithmetic" k2="-1" k3="1"/>
<feColorMatrix type="matrix" values="0 0 0 0 0.270588 0 0 0 0 0.247059 0 0 0 0 0.45098 0 0 0 1 0"/>
<feBlend mode="normal" in2="shape" result="effect3_innerShadow_1726_13168"/>
</filter>
<filter id="filter5_bdi_1726_13168" x="98.8467" y="119.059" width="364.374" height="194.86" filterUnits="userSpaceOnUse" color-interpolation-filters="sRGB">
<feFlood flood-opacity="0" result="BackgroundImageFix"/>
<feGaussianBlur in="BackgroundImageFix" stdDeviation="4.86611"/>
<feComposite in2="SourceAlpha" operator="in" result="effect1_backgroundBlur_1726_13168"/>
<feColorMatrix in="SourceAlpha" type="matrix" values="0 0 0 0 0 0 0 0 0 0 0 0 0 0 0 0 0 0 127 0" result="hardAlpha"/>
<feOffset/>
<feGaussianBlur stdDeviation="6.90988"/>
<feComposite in2="hardAlpha" operator="out"/>
<feColorMatrix type="matrix" values="0 0 0 0 0 0 0 0 0 0 0 0 0 0 0 0 0 0 0.25 0"/>
<feBlend mode="normal" in2="effect1_backgroundBlur_1726_13168" result="effect2_dropShadow_1726_13168"/>
<feBlend mode="normal" in="SourceGraphic" in2="effect2_dropShadow_1726_13168" result="shape"/>
<feColorMatrix in="SourceAlpha" type="matrix" values="0 0 0 0 0 0 0 0 0 0 0 0 0 0 0 0 0 0 127 0" result="hardAlpha"/>
<feOffset dy="-1.94644"/>
<feComposite in2="hardAlpha" operator="arithmetic" k2="-1" k3="1"/>
<feColorMatrix type="matrix" values="0 0 0 0 0.270588 0 0 0 0 0.247059 0 0 0 0 0.45098 0 0 0 1 0"/>
<feBlend mode="normal" in2="shape" result="effect3_innerShadow_1726_13168"/>
</filter>
<filter id="filter6_bd_1726_13168" x="98.8467" y="79.1568" width="364.374" height="194.86" filterUnits="userSpaceOnUse" color-interpolation-filters="sRGB">
<feFlood flood-opacity="0" result="BackgroundImageFix"/>
<feGaussianBlur in="BackgroundImageFix" stdDeviation="4.86611"/>
<feComposite in2="SourceAlpha" operator="in" result="effect1_backgroundBlur_1726_13168"/>
<feColorMatrix in="SourceAlpha" type="matrix" values="0 0 0 0 0 0 0 0 0 0 0 0 0 0 0 0 0 0 127 0" result="hardAlpha"/>
<feOffset/>
<feGaussianBlur stdDeviation="6.90988"/>
<feComposite in2="hardAlpha" operator="out"/>
<feColorMatrix type="matrix" values="0 0 0 0 0 0 0 0 0 0 0 0 0 0 0 0 0 0 0.25 0"/>
<feBlend mode="normal" in2="effect1_backgroundBlur_1726_13168" result="effect2_dropShadow_1726_13168"/>
<feBlend mode="normal" in="SourceGraphic" in2="effect2_dropShadow_1726_13168" result="shape"/>
</filter>
<linearGradient id="paint0_linear_1726_13168" x1="274.5" y1="452.346" x2="274.5" y2="89.3269" gradientUnits="userSpaceOnUse">
<stop offset="0.207188" stop-color="#292929"/>
<stop offset="1" stop-color="#8778D7"/>
</linearGradient>
<radialGradient id="paint1_radial_1726_13168" cx="0" cy="0" r="1" gradientUnits="userSpaceOnUse" gradientTransform="translate(273.036 253.405) rotate(90) scale(218.695)">
<stop stop-color="#D9D9D9"/>
<stop offset="1" stop-opacity="0"/>
</radialGradient>
<linearGradient id="paint2_linear_1726_13168" x1="307.311" y1="347.787" x2="305.365" y2="271.876" gradientUnits="userSpaceOnUse">
<stop offset="0.139" stop-color="#7C6DC9"/>
<stop offset="1" stop-color="#BDB0FF"/>
</linearGradient>
<linearGradient id="paint3_linear_1726_13168" x1="307.311" y1="310.804" x2="303.418" y2="168.714" gradientUnits="userSpaceOnUse">
<stop offset="0.139" stop-color="#54488F"/>
<stop offset="1" stop-color="#8577CB"/>
</linearGradient>
<linearGradient id="paint4_linear_1726_13168" x1="307.311" y1="310.804" x2="303.418" y2="168.714" gradientUnits="userSpaceOnUse">
<stop offset="0.139" stop-color="#54488F"/>
<stop offset="1" stop-color="#8577CB"/>
</linearGradient>
<linearGradient id="paint5_linear_1726_13168" x1="307.311" y1="285.5" x2="307.311" y2="164.821" gradientUnits="userSpaceOnUse">
<stop offset="0.0589996" stop-color="#4D3D98"/>
<stop offset="1" stop-color="#181529"/>
</linearGradient>
<linearGradient id="paint6_linear_1726_13168" x1="241.132" y1="65.5524" x2="362.785" y2="234.893" gradientUnits="userSpaceOnUse">
<stop stop-color="white"/>
<stop offset="1" stop-color="#BBAEFF"/>
</linearGradient>
</defs>
</svg>
