<svg width="572" height="651" viewBox="0 0 572 651" fill="none" xmlns="http://www.w3.org/2000/svg">
<g filter="url(#filter0_b_1253_7768)">
<rect x="18" y="29" width="510" height="622" rx="9.52381" fill="black" fill-opacity="0.4"/>
<rect x="19" y="30" width="508" height="620" rx="8.52381" stroke="url(#paint0_linear_1253_7768)" stroke-opacity="0.75" stroke-width="2"/>
</g>
<path d="M40.08 386V357.8H50.56C53.7067 357.8 56.3733 358.347 58.56 359.44C60.7733 360.533 62.4533 362.133 63.6 364.24C64.7733 366.32 65.36 368.867 65.36 371.88C65.36 374.893 64.7733 377.453 63.6 379.56C62.4533 381.667 60.7733 383.267 58.56 384.36C56.3733 385.453 53.7067 386 50.56 386H40.08ZM45.2 381.76H50.24C53.52 381.76 55.96 380.947 57.56 379.32C59.1867 377.667 60 375.187 60 371.88C60 368.573 59.1867 366.107 57.56 364.48C55.9333 362.853 53.4933 362.04 50.24 362.04H45.2V381.76ZM70.0688 386V366.44H74.9488V371.16H74.5488C74.9221 369.56 75.6554 368.347 76.7488 367.52C77.8421 366.667 79.2954 366.173 81.1088 366.04L82.6288 365.92L82.9488 370.16L80.0688 370.44C78.4421 370.6 77.2154 371.107 76.3888 371.96C75.5621 372.787 75.1488 373.96 75.1488 375.48V386H70.0688ZM91.9775 386.4C90.5642 386.4 89.2975 386.133 88.1775 385.6C87.0842 385.04 86.2175 384.293 85.5775 383.36C84.9642 382.427 84.6575 381.373 84.6575 380.2C84.6575 378.76 85.0308 377.627 85.7775 376.8C86.5242 375.947 87.7375 375.333 89.4175 374.96C91.0975 374.587 93.3508 374.4 96.1775 374.4H98.1775V377.28H96.2175C94.9642 377.28 93.9108 377.333 93.0575 377.44C92.2042 377.52 91.5108 377.667 90.9775 377.88C90.4708 378.067 90.0975 378.333 89.8575 378.68C89.6442 379.027 89.5375 379.453 89.5375 379.96C89.5375 380.84 89.8442 381.56 90.4575 382.12C91.0708 382.68 91.9242 382.96 93.0175 382.96C93.8975 382.96 94.6708 382.76 95.3375 382.36C96.0308 381.933 96.5775 381.36 96.9775 380.64C97.3775 379.92 97.5775 379.093 97.5775 378.16V373.56C97.5775 372.227 97.2842 371.267 96.6975 370.68C96.1108 370.093 95.1242 369.8 93.7375 369.8C92.6442 369.8 91.5242 369.973 90.3775 370.32C89.2308 370.64 88.0708 371.147 86.8975 371.84L85.4575 368.44C86.1508 367.96 86.9642 367.547 87.8975 367.2C88.8575 366.827 89.8575 366.547 90.8975 366.36C91.9642 366.147 92.9642 366.04 93.8975 366.04C95.8175 366.04 97.3908 366.333 98.6175 366.92C99.8708 367.507 100.804 368.4 101.418 369.6C102.031 370.773 102.338 372.293 102.338 374.16V386H97.6575V381.84H97.9775C97.7908 382.773 97.4175 383.587 96.8575 384.28C96.3242 384.947 95.6442 385.467 94.8175 385.84C93.9908 386.213 93.0442 386.4 91.9775 386.4ZM116.533 393.6C114.719 393.6 113.013 393.387 111.413 392.96C109.839 392.56 108.453 391.933 107.253 391.08L108.693 387.6C109.439 388.08 110.226 388.48 111.053 388.8C111.879 389.147 112.719 389.4 113.573 389.56C114.426 389.72 115.279 389.8 116.133 389.8C117.919 389.8 119.253 389.36 120.133 388.48C121.039 387.627 121.493 386.347 121.493 384.64V381.04H121.853C121.453 382.4 120.613 383.493 119.333 384.32C118.079 385.12 116.653 385.52 115.053 385.52C113.293 385.52 111.759 385.12 110.453 384.32C109.146 383.493 108.133 382.347 107.413 380.88C106.693 379.413 106.333 377.707 106.333 375.76C106.333 373.813 106.693 372.12 107.413 370.68C108.133 369.213 109.146 368.08 110.453 367.28C111.759 366.453 113.293 366.04 115.053 366.04C116.706 366.04 118.146 366.453 119.373 367.28C120.626 368.08 121.439 369.147 121.813 370.48H121.493V366.44H126.373V384.04C126.373 386.147 125.999 387.907 125.253 389.32C124.506 390.76 123.399 391.827 121.933 392.52C120.466 393.24 118.666 393.6 116.533 393.6ZM116.413 381.72C117.959 381.72 119.186 381.187 120.093 380.12C120.999 379.053 121.453 377.6 121.453 375.76C121.453 373.92 120.999 372.48 120.093 371.44C119.186 370.373 117.959 369.84 116.413 369.84C114.866 369.84 113.639 370.373 112.733 371.44C111.826 372.48 111.373 373.92 111.373 375.76C111.373 377.6 111.826 379.053 112.733 380.12C113.639 381.187 114.866 381.72 116.413 381.72ZM131.673 377.28V373.28H143.593V377.28H131.673ZM155.337 386.4C153.924 386.4 152.657 386.133 151.537 385.6C150.444 385.04 149.577 384.293 148.937 383.36C148.324 382.427 148.017 381.373 148.017 380.2C148.017 378.76 148.39 377.627 149.137 376.8C149.884 375.947 151.097 375.333 152.777 374.96C154.457 374.587 156.71 374.4 159.537 374.4H161.537V377.28H159.577C158.324 377.28 157.27 377.333 156.417 377.44C155.564 377.52 154.87 377.667 154.337 377.88C153.83 378.067 153.457 378.333 153.217 378.68C153.004 379.027 152.897 379.453 152.897 379.96C152.897 380.84 153.204 381.56 153.817 382.12C154.43 382.68 155.284 382.96 156.377 382.96C157.257 382.96 158.03 382.76 158.697 382.36C159.39 381.933 159.937 381.36 160.337 380.64C160.737 379.92 160.937 379.093 160.937 378.16V373.56C160.937 372.227 160.644 371.267 160.057 370.68C159.47 370.093 158.484 369.8 157.097 369.8C156.004 369.8 154.884 369.973 153.737 370.32C152.59 370.64 151.43 371.147 150.257 371.84L148.817 368.44C149.51 367.96 150.324 367.547 151.257 367.2C152.217 366.827 153.217 366.547 154.257 366.36C155.324 366.147 156.324 366.04 157.257 366.04C159.177 366.04 160.75 366.333 161.977 366.92C163.23 367.507 164.164 368.4 164.777 369.6C165.39 370.773 165.697 372.293 165.697 374.16V386H161.017V381.84H161.337C161.15 382.773 160.777 383.587 160.217 384.28C159.684 384.947 159.004 385.467 158.177 385.84C157.35 386.213 156.404 386.4 155.337 386.4ZM170.772 386V366.44H175.652V370.36H175.212C175.799 368.947 176.705 367.88 177.932 367.16C179.185 366.413 180.599 366.04 182.172 366.04C183.745 366.04 185.039 366.333 186.052 366.92C187.065 367.507 187.825 368.4 188.332 369.6C188.839 370.773 189.092 372.267 189.092 374.08V386H184.092V374.32C184.092 373.307 183.959 372.48 183.692 371.84C183.452 371.2 183.065 370.733 182.532 370.44C182.025 370.12 181.372 369.96 180.572 369.96C179.612 369.96 178.772 370.173 178.052 370.6C177.332 371 176.772 371.587 176.372 372.36C175.972 373.107 175.772 373.987 175.772 375V386H170.772ZM201.69 386.4C199.984 386.4 198.477 385.987 197.17 385.16C195.89 384.333 194.89 383.16 194.17 381.64C193.45 380.093 193.09 378.28 193.09 376.2C193.09 374.093 193.45 372.293 194.17 370.8C194.89 369.28 195.89 368.107 197.17 367.28C198.477 366.453 199.984 366.04 201.69 366.04C203.317 366.04 204.73 366.44 205.93 367.24C207.157 368.04 207.984 369.093 208.41 370.4H207.97V357.8H212.97V386H208.09V381.84H208.45C208.05 383.227 207.237 384.333 206.01 385.16C204.784 385.987 203.344 386.4 201.69 386.4ZM203.09 382.6C204.584 382.6 205.784 382.067 206.69 381C207.597 379.907 208.05 378.307 208.05 376.2C208.05 374.067 207.597 372.48 206.69 371.44C205.784 370.373 204.584 369.84 203.09 369.84C201.597 369.84 200.397 370.373 199.49 371.44C198.584 372.48 198.13 374.067 198.13 376.2C198.13 378.307 198.584 379.907 199.49 381C200.397 382.067 201.597 382.6 203.09 382.6ZM218.275 377.28V373.28H230.195V377.28H218.275ZM235.978 386V357.8H246.458C249.605 357.8 252.272 358.347 254.458 359.44C256.672 360.533 258.352 362.133 259.498 364.24C260.672 366.32 261.258 368.867 261.258 371.88C261.258 374.893 260.672 377.453 259.498 379.56C258.352 381.667 256.672 383.267 254.458 384.36C252.272 385.453 249.605 386 246.458 386H235.978ZM241.098 381.76H246.138C249.418 381.76 251.858 380.947 253.458 379.32C255.085 377.667 255.898 375.187 255.898 371.88C255.898 368.573 255.085 366.107 253.458 364.48C251.832 362.853 249.392 362.04 246.138 362.04H241.098V381.76ZM265.967 386V366.44H270.847V371.16H270.447C270.821 369.56 271.554 368.347 272.647 367.52C273.741 366.667 275.194 366.173 277.007 366.04L278.527 365.92L278.847 370.16L275.967 370.44C274.341 370.6 273.114 371.107 272.287 371.96C271.461 372.787 271.047 373.96 271.047 375.48V386H265.967ZM290.239 386.4C288.212 386.4 286.452 385.987 284.959 385.16C283.465 384.333 282.305 383.16 281.479 381.64C280.652 380.093 280.239 378.28 280.239 376.2C280.239 374.12 280.652 372.32 281.479 370.8C282.305 369.28 283.465 368.107 284.959 367.28C286.452 366.453 288.212 366.04 290.239 366.04C292.265 366.04 294.025 366.453 295.519 367.28C297.012 368.107 298.172 369.28 298.999 370.8C299.825 372.32 300.239 374.12 300.239 376.2C300.239 378.28 299.825 380.093 298.999 381.64C298.172 383.16 297.012 384.333 295.519 385.16C294.025 385.987 292.265 386.4 290.239 386.4ZM290.239 382.6C291.732 382.6 292.932 382.067 293.839 381C294.745 379.907 295.199 378.307 295.199 376.2C295.199 374.067 294.745 372.48 293.839 371.44C292.932 370.373 291.732 369.84 290.239 369.84C288.745 369.84 287.545 370.373 286.639 371.44C285.732 372.48 285.279 374.067 285.279 376.2C285.279 378.307 285.732 379.907 286.639 381C287.545 382.067 288.745 382.6 290.239 382.6ZM304.366 393.2V366.44H309.246V370.56H308.846C309.246 369.2 310.059 368.107 311.286 367.28C312.539 366.453 313.992 366.04 315.646 366.04C317.352 366.04 318.846 366.453 320.126 367.28C321.432 368.107 322.446 369.28 323.166 370.8C323.886 372.293 324.246 374.093 324.246 376.2C324.246 378.28 323.886 380.093 323.166 381.64C322.446 383.16 321.446 384.333 320.166 385.16C318.886 385.987 317.379 386.4 315.646 386.4C314.019 386.4 312.592 386 311.366 385.2C310.139 384.373 309.312 383.307 308.886 382H309.366V393.2H304.366ZM314.246 382.6C315.739 382.6 316.939 382.067 317.846 381C318.752 379.907 319.206 378.307 319.206 376.2C319.206 374.067 318.752 372.48 317.846 371.44C316.939 370.373 315.739 369.84 314.246 369.84C312.752 369.84 311.552 370.373 310.646 371.44C309.739 372.48 309.286 374.067 309.286 376.2C309.286 378.307 309.739 379.907 310.646 381C311.552 382.067 312.752 382.6 314.246 382.6ZM344.891 386L336.411 366.44H341.731L347.771 381.6H346.571L352.811 366.44H357.811L349.211 386H344.891ZM359.905 362.24V357.36H365.505V362.24H359.905ZM360.225 386V366.44H365.225V386H360.225ZM377.58 386.4C376.487 386.4 375.42 386.307 374.38 386.12C373.367 385.933 372.434 385.68 371.58 385.36C370.727 385.013 369.98 384.587 369.34 384.08L370.62 380.8C371.287 381.227 372.007 381.6 372.78 381.92C373.554 382.24 374.354 382.48 375.18 382.64C376.007 382.8 376.82 382.88 377.62 382.88C378.9 382.88 379.847 382.667 380.46 382.24C381.1 381.787 381.42 381.2 381.42 380.48C381.42 379.867 381.207 379.4 380.78 379.08C380.38 378.733 379.767 378.48 378.94 378.32L374.94 377.56C373.287 377.24 372.02 376.64 371.14 375.76C370.287 374.853 369.86 373.693 369.86 372.28C369.86 371 370.207 369.893 370.9 368.96C371.62 368.027 372.607 367.307 373.86 366.8C375.114 366.293 376.554 366.04 378.18 366.04C379.114 366.04 380.02 366.133 380.9 366.32C381.78 366.48 382.607 366.733 383.38 367.08C384.18 367.4 384.874 367.827 385.46 368.36L384.1 371.64C383.594 371.213 383.007 370.853 382.34 370.56C381.674 370.24 380.98 370 380.26 369.84C379.567 369.653 378.887 369.56 378.22 369.56C376.914 369.56 375.94 369.787 375.3 370.24C374.687 370.693 374.38 371.293 374.38 372.04C374.38 372.6 374.567 373.067 374.94 373.44C375.314 373.813 375.887 374.067 376.66 374.2L380.66 374.96C382.394 375.28 383.7 375.867 384.58 376.72C385.487 377.573 385.94 378.72 385.94 380.16C385.94 381.467 385.594 382.587 384.9 383.52C384.207 384.453 383.234 385.173 381.98 385.68C380.727 386.16 379.26 386.4 377.58 386.4ZM397.032 386.4C395.405 386.4 394.058 386.107 392.992 385.52C391.925 384.907 391.125 384 390.592 382.8C390.085 381.6 389.832 380.107 389.832 378.32V366.44H394.832V378.4C394.832 379.307 394.952 380.067 395.192 380.68C395.458 381.293 395.845 381.747 396.352 382.04C396.885 382.333 397.552 382.48 398.352 382.48C399.258 382.48 400.045 382.28 400.712 381.88C401.405 381.453 401.938 380.867 402.312 380.12C402.712 379.347 402.912 378.453 402.912 377.44V366.44H407.912V386H403.032V381.92H403.592C403.032 383.36 402.178 384.467 401.032 385.24C399.912 386.013 398.578 386.4 397.032 386.4ZM419.556 386.4C418.142 386.4 416.876 386.133 415.756 385.6C414.662 385.04 413.796 384.293 413.156 383.36C412.542 382.427 412.236 381.373 412.236 380.2C412.236 378.76 412.609 377.627 413.356 376.8C414.102 375.947 415.316 375.333 416.996 374.96C418.676 374.587 420.929 374.4 423.756 374.4H425.756V377.28H423.796C422.542 377.28 421.489 377.333 420.636 377.44C419.782 377.52 419.089 377.667 418.556 377.88C418.049 378.067 417.676 378.333 417.436 378.68C417.222 379.027 417.116 379.453 417.116 379.96C417.116 380.84 417.422 381.56 418.036 382.12C418.649 382.68 419.502 382.96 420.596 382.96C421.476 382.96 422.249 382.76 422.916 382.36C423.609 381.933 424.156 381.36 424.556 380.64C424.956 379.92 425.156 379.093 425.156 378.16V373.56C425.156 372.227 424.862 371.267 424.276 370.68C423.689 370.093 422.702 369.8 421.316 369.8C420.222 369.8 419.102 369.973 417.956 370.32C416.809 370.64 415.649 371.147 414.476 371.84L413.036 368.44C413.729 367.96 414.542 367.547 415.476 367.2C416.436 366.827 417.436 366.547 418.476 366.36C419.542 366.147 420.542 366.04 421.476 366.04C423.396 366.04 424.969 366.333 426.196 366.92C427.449 367.507 428.382 368.4 428.996 369.6C429.609 370.773 429.916 372.293 429.916 374.16V386H425.236V381.84H425.556C425.369 382.773 424.996 383.587 424.436 384.28C423.902 384.947 423.222 385.467 422.396 385.84C421.569 386.213 420.622 386.4 419.556 386.4ZM441.791 386.4C439.471 386.4 437.751 385.773 436.631 384.52C435.537 383.24 434.991 381.373 434.991 378.92V357.8H439.991V378.68C439.991 379.453 440.097 380.12 440.311 380.68C440.551 381.213 440.897 381.613 441.351 381.88C441.804 382.147 442.364 382.28 443.031 382.28C443.324 382.28 443.617 382.267 443.911 382.24C444.204 382.213 444.484 382.16 444.751 382.08L444.671 386.04C444.191 386.147 443.711 386.227 443.231 386.28C442.777 386.36 442.297 386.4 441.791 386.4ZM39.28 417.24V412.36H44.88V417.24H39.28ZM39.6 441V421.44H44.6V441H39.6ZM49.7953 441V421.44H54.6753V425.36H54.2353C54.822 423.947 55.7286 422.88 56.9553 422.16C58.2086 421.413 59.622 421.04 61.1953 421.04C62.7686 421.04 64.062 421.333 65.0753 421.92C66.0886 422.507 66.8486 423.4 67.3553 424.6C67.862 425.773 68.1153 427.267 68.1153 429.08V441H63.1153V429.32C63.1153 428.307 62.982 427.48 62.7153 426.84C62.4753 426.2 62.0886 425.733 61.5553 425.44C61.0486 425.12 60.3953 424.96 59.5953 424.96C58.6353 424.96 57.7953 425.173 57.0753 425.6C56.3553 426 55.7953 426.587 55.3953 427.36C54.9953 428.107 54.7953 428.987 54.7953 430V441H49.7953ZM82.1538 441.4C79.5404 441.4 77.5938 440.747 76.3138 439.44C75.0338 438.133 74.3938 436.227 74.3938 433.72V425.2H70.6338V421.44H74.3938V415.6H79.3938V421.44H85.3138V425.2H79.3938V433.44C79.3938 434.72 79.6738 435.68 80.2338 436.32C80.7938 436.96 81.7004 437.28 82.9538 437.28C83.3271 437.28 83.7138 437.24 84.1138 437.16C84.5138 437.053 84.9271 436.947 85.3538 436.84L86.1138 440.52C85.6338 440.787 85.0204 441 84.2738 441.16C83.5538 441.32 82.8471 441.4 82.1538 441.4ZM97.99 441.4C95.7767 441.4 93.87 440.987 92.27 440.16C90.67 439.333 89.43 438.16 88.55 436.64C87.6967 435.12 87.27 433.32 87.27 431.24C87.27 429.213 87.6833 427.44 88.51 425.92C89.3633 424.4 90.5233 423.213 91.99 422.36C93.4833 421.48 95.1767 421.04 97.07 421.04C98.9367 421.04 100.537 421.44 101.87 422.24C103.203 423.04 104.23 424.173 104.95 425.64C105.697 427.107 106.07 428.853 106.07 430.88V432.36H91.31V429.48H102.55L101.91 430.08C101.91 428.267 101.51 426.88 100.71 425.92C99.91 424.933 98.7633 424.44 97.27 424.44C96.15 424.44 95.19 424.707 94.39 425.24C93.6167 425.747 93.0167 426.48 92.59 427.44C92.19 428.373 91.99 429.493 91.99 430.8V431.08C91.99 432.547 92.2167 433.76 92.67 434.72C93.1233 435.68 93.8033 436.4 94.71 436.88C95.6167 437.36 96.7367 437.6 98.07 437.6C99.1633 437.6 100.257 437.44 101.35 437.12C102.443 436.773 103.443 436.24 104.35 435.52L105.75 438.88C104.817 439.653 103.643 440.267 102.23 440.72C100.817 441.173 99.4033 441.4 97.99 441.4ZM110.03 441V421.44H114.91V426.16H114.51C114.883 424.56 115.616 423.347 116.71 422.52C117.803 421.667 119.256 421.173 121.07 421.04L122.59 420.92L122.91 425.16L120.03 425.44C118.403 425.6 117.176 426.107 116.35 426.96C115.523 427.787 115.11 428.96 115.11 430.48V441H110.03ZM128.147 441V425.2H124.387V421.44H129.587L128.147 422.76V421.4C128.147 418.627 128.867 416.533 130.307 415.12C131.773 413.707 134.04 412.907 137.107 412.72L139.067 412.6L139.387 416.28L137.547 416.4C136.48 416.453 135.627 416.653 134.987 417C134.347 417.32 133.88 417.773 133.587 418.36C133.293 418.947 133.147 419.693 133.147 420.6V422.08L132.507 421.44H138.467V425.2H133.147V441H128.147ZM147.642 441.4C146.228 441.4 144.962 441.133 143.842 440.6C142.748 440.04 141.882 439.293 141.242 438.36C140.628 437.427 140.322 436.373 140.322 435.2C140.322 433.76 140.695 432.627 141.442 431.8C142.188 430.947 143.402 430.333 145.082 429.96C146.762 429.587 149.015 429.4 151.842 429.4H153.842V432.28H151.882C150.628 432.28 149.575 432.333 148.722 432.44C147.868 432.52 147.175 432.667 146.642 432.88C146.135 433.067 145.762 433.333 145.522 433.68C145.308 434.027 145.202 434.453 145.202 434.96C145.202 435.84 145.508 436.56 146.122 437.12C146.735 437.68 147.588 437.96 148.682 437.96C149.562 437.96 150.335 437.76 151.002 437.36C151.695 436.933 152.242 436.36 152.642 435.64C153.042 434.92 153.242 434.093 153.242 433.16V428.56C153.242 427.227 152.948 426.267 152.362 425.68C151.775 425.093 150.788 424.8 149.402 424.8C148.308 424.8 147.188 424.973 146.042 425.32C144.895 425.64 143.735 426.147 142.562 426.84L141.122 423.44C141.815 422.96 142.628 422.547 143.562 422.2C144.522 421.827 145.522 421.547 146.562 421.36C147.628 421.147 148.628 421.04 149.562 421.04C151.482 421.04 153.055 421.333 154.282 421.92C155.535 422.507 156.468 423.4 157.082 424.6C157.695 425.773 158.002 427.293 158.002 429.16V441H153.322V436.84H153.642C153.455 437.773 153.082 438.587 152.522 439.28C151.988 439.947 151.308 440.467 150.482 440.84C149.655 441.213 148.708 441.4 147.642 441.4ZM172.117 441.4C170.063 441.4 168.277 440.987 166.757 440.16C165.237 439.307 164.063 438.107 163.237 436.56C162.41 435.013 161.997 433.2 161.997 431.12C161.997 429.04 162.41 427.253 163.237 425.76C164.063 424.24 165.237 423.08 166.757 422.28C168.277 421.453 170.063 421.04 172.117 421.04C173.37 421.04 174.61 421.24 175.837 421.64C177.063 422.04 178.077 422.6 178.877 423.32L177.397 426.8C176.703 426.187 175.917 425.72 175.037 425.4C174.183 425.08 173.357 424.92 172.557 424.92C170.823 424.92 169.477 425.467 168.517 426.56C167.583 427.627 167.117 429.16 167.117 431.16C167.117 433.133 167.583 434.693 168.517 435.84C169.477 436.96 170.823 437.52 172.557 437.52C173.33 437.52 174.157 437.36 175.037 437.04C175.917 436.72 176.703 436.24 177.397 435.6L178.877 439.12C178.077 439.813 177.05 440.373 175.797 440.8C174.57 441.2 173.343 441.4 172.117 441.4ZM191.193 441.4C188.98 441.4 187.073 440.987 185.473 440.16C183.873 439.333 182.633 438.16 181.753 436.64C180.9 435.12 180.473 433.32 180.473 431.24C180.473 429.213 180.886 427.44 181.713 425.92C182.566 424.4 183.726 423.213 185.193 422.36C186.686 421.48 188.38 421.04 190.273 421.04C192.14 421.04 193.74 421.44 195.073 422.24C196.406 423.04 197.433 424.173 198.153 425.64C198.9 427.107 199.273 428.853 199.273 430.88V432.36H184.513V429.48H195.753L195.113 430.08C195.113 428.267 194.713 426.88 193.913 425.92C193.113 424.933 191.966 424.44 190.473 424.44C189.353 424.44 188.393 424.707 187.593 425.24C186.82 425.747 186.22 426.48 185.793 427.44C185.393 428.373 185.193 429.493 185.193 430.8V431.08C185.193 432.547 185.42 433.76 185.873 434.72C186.326 435.68 187.006 436.4 187.913 436.88C188.82 437.36 189.94 437.6 191.273 437.6C192.366 437.6 193.46 437.44 194.553 437.12C195.646 436.773 196.646 436.24 197.553 435.52L198.953 438.88C198.02 439.653 196.846 440.267 195.433 440.72C194.02 441.173 192.606 441.4 191.193 441.4Z" fill="white"/>
<path d="M48.452 493.252C46.3427 493.252 44.56 492.851 43.104 492.048C41.6667 491.245 40.5747 490.088 39.828 488.576C39.0813 487.064 38.708 485.253 38.708 483.144C38.708 481.053 39.0813 479.252 39.828 477.74C40.5747 476.228 41.648 475.061 43.048 474.24C44.448 473.419 46.1373 473.008 48.116 473.008C49.0493 473.008 49.9267 473.101 50.748 473.288C51.588 473.475 52.3627 473.755 53.072 474.128C53.8 474.483 54.4347 474.931 54.976 475.472L54.08 477.32C53.184 476.536 52.26 475.967 51.308 475.612C50.356 475.257 49.2827 475.08 48.088 475.08C45.8293 475.08 44.1027 475.78 42.908 477.18C41.732 478.58 41.144 480.568 41.144 483.144C41.144 485.757 41.7507 487.755 42.964 489.136C44.196 490.517 46.044 491.208 48.508 491.208C49.404 491.208 50.2813 491.124 51.14 490.956C51.9987 490.769 52.8107 490.517 53.576 490.2L53.072 491.516V484.544H48.06V482.724H55.06V491.852C54.556 492.113 53.9307 492.356 53.184 492.58C52.4373 492.785 51.6533 492.944 50.832 493.056C50.0107 493.187 49.2173 493.252 48.452 493.252ZM65.5764 493.252C64.1391 493.252 62.8977 492.972 61.8524 492.412C60.8257 491.833 60.0231 491.021 59.4444 489.976C58.8844 488.931 58.6044 487.68 58.6044 486.224C58.6044 484.805 58.8844 483.573 59.4444 482.528C60.0044 481.464 60.7697 480.633 61.7404 480.036C62.7297 479.439 63.8684 479.14 65.1564 479.14C66.3884 479.14 67.4431 479.411 68.3204 479.952C69.1977 480.493 69.8697 481.259 70.3364 482.248C70.8217 483.237 71.0644 484.423 71.0644 485.804V486.672H60.3404V485.188H69.5524L69.1044 485.552C69.1044 484.059 68.7684 482.901 68.0964 482.08C67.4431 481.24 66.4817 480.82 65.2124 480.82C64.2604 480.82 63.4484 481.044 62.7764 481.492C62.1231 481.921 61.6284 482.528 61.2924 483.312C60.9564 484.077 60.7884 484.973 60.7884 486V486.168C60.7884 487.307 60.9657 488.268 61.3204 489.052C61.6937 489.836 62.2444 490.433 62.9724 490.844C63.7004 491.236 64.5684 491.432 65.5764 491.432C66.3791 491.432 67.1537 491.311 67.9004 491.068C68.6657 490.807 69.3844 490.387 70.0564 489.808L70.8404 491.404C70.2244 491.964 69.4404 492.412 68.4884 492.748C67.5364 493.084 66.5657 493.252 65.5764 493.252ZM74.3468 493V479.392H76.5588V482.416H76.2508C76.6428 481.333 77.2774 480.521 78.1548 479.98C79.0508 479.42 80.0774 479.14 81.2348 479.14C82.3174 479.14 83.2134 479.336 83.9228 479.728C84.6508 480.101 85.1921 480.689 85.5468 481.492C85.9014 482.295 86.0788 483.303 86.0788 484.516V493H83.8108V484.656C83.8108 483.816 83.6988 483.125 83.4748 482.584C83.2694 482.043 82.9334 481.641 82.4668 481.38C82.0188 481.119 81.4308 480.988 80.7028 480.988C79.8814 480.988 79.1628 481.165 78.5468 481.52C77.9308 481.875 77.4548 482.369 77.1188 483.004C76.7828 483.639 76.6148 484.385 76.6148 485.244V493H74.3468ZM96.3928 493.252C94.9555 493.252 93.7141 492.972 92.6688 492.412C91.6421 491.833 90.8395 491.021 90.2608 489.976C89.7008 488.931 89.4208 487.68 89.4208 486.224C89.4208 484.805 89.7008 483.573 90.2608 482.528C90.8208 481.464 91.5861 480.633 92.5568 480.036C93.5461 479.439 94.6848 479.14 95.9728 479.14C97.2048 479.14 98.2595 479.411 99.1368 479.952C100.014 480.493 100.686 481.259 101.153 482.248C101.638 483.237 101.881 484.423 101.881 485.804V486.672H91.1568V485.188H100.369L99.9208 485.552C99.9208 484.059 99.5848 482.901 98.9128 482.08C98.2595 481.24 97.2981 480.82 96.0288 480.82C95.0768 480.82 94.2648 481.044 93.5928 481.492C92.9395 481.921 92.4448 482.528 92.1088 483.312C91.7728 484.077 91.6048 484.973 91.6048 486V486.168C91.6048 487.307 91.7821 488.268 92.1368 489.052C92.5101 489.836 93.0608 490.433 93.7888 490.844C94.5168 491.236 95.3848 491.432 96.3928 491.432C97.1955 491.432 97.9701 491.311 98.7168 491.068C99.4821 490.807 100.201 490.387 100.873 489.808L101.657 491.404C101.041 491.964 100.257 492.412 99.3048 492.748C98.3528 493.084 97.3821 493.252 96.3928 493.252ZM105.163 493V479.392H107.375V482.612H107.095C107.412 481.511 107.963 480.68 108.747 480.12C109.531 479.541 110.567 479.205 111.855 479.112L112.667 479.028L112.835 480.988L111.407 481.156C110.138 481.268 109.158 481.679 108.467 482.388C107.795 483.079 107.459 484.031 107.459 485.244V493H105.163ZM119.346 493.252C118.412 493.252 117.572 493.075 116.826 492.72C116.098 492.347 115.519 491.843 115.09 491.208C114.66 490.573 114.446 489.864 114.446 489.08C114.446 488.072 114.698 487.279 115.202 486.7C115.724 486.121 116.574 485.711 117.75 485.468C118.944 485.225 120.568 485.104 122.622 485.104H123.882V486.588H122.65C121.511 486.588 120.559 486.625 119.794 486.7C119.028 486.775 118.422 486.905 117.974 487.092C117.526 487.279 117.208 487.521 117.022 487.82C116.835 488.119 116.742 488.492 116.742 488.94C116.742 489.705 117.003 490.331 117.526 490.816C118.067 491.301 118.795 491.544 119.71 491.544C120.456 491.544 121.11 491.367 121.67 491.012C122.248 490.657 122.696 490.172 123.014 489.556C123.35 488.94 123.518 488.231 123.518 487.428V484.236C123.518 483.079 123.284 482.248 122.818 481.744C122.351 481.221 121.586 480.96 120.522 480.96C119.7 480.96 118.907 481.081 118.142 481.324C117.376 481.548 116.592 481.921 115.79 482.444L115.006 480.792C115.491 480.456 116.042 480.167 116.658 479.924C117.274 479.663 117.918 479.467 118.59 479.336C119.262 479.205 119.906 479.14 120.522 479.14C121.698 479.14 122.668 479.336 123.434 479.728C124.199 480.101 124.768 480.68 125.142 481.464C125.515 482.229 125.702 483.219 125.702 484.432V493H123.574V489.836H123.826C123.676 490.545 123.387 491.152 122.958 491.656C122.547 492.16 122.034 492.552 121.418 492.832C120.802 493.112 120.111 493.252 119.346 493.252ZM135.369 493.252C133.764 493.252 132.56 492.823 131.757 491.964C130.955 491.105 130.553 489.883 130.553 488.296V481.156H127.893V479.392H130.553V475.22H132.821V479.392H137.133V481.156H132.821V488.072C132.821 489.136 133.045 489.948 133.493 490.508C133.941 491.049 134.669 491.32 135.677 491.32C135.976 491.32 136.275 491.283 136.573 491.208C136.872 491.133 137.143 491.059 137.385 490.984L137.777 492.72C137.535 492.851 137.18 492.972 136.713 493.084C136.247 493.196 135.799 493.252 135.369 493.252ZM145.694 493.252C144.256 493.252 143.015 492.972 141.97 492.412C140.943 491.833 140.14 491.021 139.562 489.976C139.002 488.931 138.722 487.68 138.722 486.224C138.722 484.805 139.002 483.573 139.562 482.528C140.122 481.464 140.887 480.633 141.858 480.036C142.847 479.439 143.986 479.14 145.274 479.14C146.506 479.14 147.56 479.411 148.438 479.952C149.315 480.493 149.987 481.259 150.454 482.248C150.939 483.237 151.182 484.423 151.182 485.804V486.672H140.458V485.188H149.67L149.222 485.552C149.222 484.059 148.886 482.901 148.214 482.08C147.56 481.24 146.599 480.82 145.33 480.82C144.378 480.82 143.566 481.044 142.894 481.492C142.24 481.921 141.746 482.528 141.41 483.312C141.074 484.077 140.906 484.973 140.906 486V486.168C140.906 487.307 141.083 488.268 141.438 489.052C141.811 489.836 142.362 490.433 143.09 490.844C143.818 491.236 144.686 491.432 145.694 491.432C146.496 491.432 147.271 491.311 148.018 491.068C148.783 490.807 149.502 490.387 150.174 489.808L150.958 491.404C150.342 491.964 149.558 492.412 148.606 492.748C147.654 493.084 146.683 493.252 145.694 493.252ZM161.375 476.004V473.456H164.175V476.004H161.375ZM161.655 493V479.392H163.923V493H161.655ZM168.163 493V479.392H170.375V482.416H170.067C170.459 481.333 171.094 480.521 171.971 479.98C172.867 479.42 173.894 479.14 175.051 479.14C176.134 479.14 177.03 479.336 177.739 479.728C178.467 480.101 179.008 480.689 179.363 481.492C179.718 482.295 179.895 483.303 179.895 484.516V493H177.627V484.656C177.627 483.816 177.515 483.125 177.291 482.584C177.086 482.043 176.75 481.641 176.283 481.38C175.835 481.119 175.247 480.988 174.519 480.988C173.698 480.988 172.979 481.165 172.363 481.52C171.747 481.875 171.271 482.369 170.935 483.004C170.599 483.639 170.431 484.385 170.431 485.244V493H168.163ZM189.537 493.252C187.932 493.252 186.728 492.823 185.925 491.964C185.123 491.105 184.721 489.883 184.721 488.296V481.156H182.061V479.392H184.721V475.22H186.989V479.392H191.301V481.156H186.989V488.072C186.989 489.136 187.213 489.948 187.661 490.508C188.109 491.049 188.837 491.32 189.845 491.32C190.144 491.32 190.443 491.283 190.741 491.208C191.04 491.133 191.311 491.059 191.553 490.984L191.945 492.72C191.703 492.851 191.348 492.972 190.881 493.084C190.415 493.196 189.967 493.252 189.537 493.252ZM199.862 493.252C198.424 493.252 197.183 492.972 196.138 492.412C195.111 491.833 194.308 491.021 193.73 489.976C193.17 488.931 192.89 487.68 192.89 486.224C192.89 484.805 193.17 483.573 193.73 482.528C194.29 481.464 195.055 480.633 196.026 480.036C197.015 479.439 198.154 479.14 199.442 479.14C200.674 479.14 201.728 479.411 202.606 479.952C203.483 480.493 204.155 481.259 204.622 482.248C205.107 483.237 205.35 484.423 205.35 485.804V486.672H194.626V485.188H203.838L203.39 485.552C203.39 484.059 203.054 482.901 202.382 482.08C201.728 481.24 200.767 480.82 199.498 480.82C198.546 480.82 197.734 481.044 197.062 481.492C196.408 481.921 195.914 482.528 195.578 483.312C195.242 484.077 195.074 484.973 195.074 486V486.168C195.074 487.307 195.251 488.268 195.606 489.052C195.979 489.836 196.53 490.433 197.258 490.844C197.986 491.236 198.854 491.432 199.862 491.432C200.664 491.432 201.439 491.311 202.186 491.068C202.951 490.807 203.67 490.387 204.342 489.808L205.126 491.404C204.51 491.964 203.726 492.412 202.774 492.748C201.822 493.084 200.851 493.252 199.862 493.252ZM208.632 493V479.392H210.844V482.612H210.564C210.881 481.511 211.432 480.68 212.216 480.12C213 479.541 214.036 479.205 215.324 479.112L216.136 479.028L216.304 480.988L214.876 481.156C213.607 481.268 212.627 481.679 211.936 482.388C211.264 483.079 210.928 484.031 210.928 485.244V493H208.632ZM222.814 493.252C221.881 493.252 221.041 493.075 220.294 492.72C219.566 492.347 218.988 491.843 218.558 491.208C218.129 490.573 217.914 489.864 217.914 489.08C217.914 488.072 218.166 487.279 218.67 486.7C219.193 486.121 220.042 485.711 221.218 485.468C222.413 485.225 224.037 485.104 226.09 485.104H227.35V486.588H226.118C224.98 486.588 224.028 486.625 223.262 486.7C222.497 486.775 221.89 486.905 221.442 487.092C220.994 487.279 220.677 487.521 220.49 487.82C220.304 488.119 220.21 488.492 220.21 488.94C220.21 489.705 220.472 490.331 220.994 490.816C221.536 491.301 222.264 491.544 223.178 491.544C223.925 491.544 224.578 491.367 225.138 491.012C225.717 490.657 226.165 490.172 226.482 489.556C226.818 488.94 226.986 488.231 226.986 487.428V484.236C226.986 483.079 226.753 482.248 226.286 481.744C225.82 481.221 225.054 480.96 223.99 480.96C223.169 480.96 222.376 481.081 221.61 481.324C220.845 481.548 220.061 481.921 219.258 482.444L218.474 480.792C218.96 480.456 219.51 480.167 220.126 479.924C220.742 479.663 221.386 479.467 222.058 479.336C222.73 479.205 223.374 479.14 223.99 479.14C225.166 479.14 226.137 479.336 226.902 479.728C227.668 480.101 228.237 480.68 228.61 481.464C228.984 482.229 229.17 483.219 229.17 484.432V493H227.042V489.836H227.294C227.145 490.545 226.856 491.152 226.426 491.656C226.016 492.16 225.502 492.552 224.886 492.832C224.27 493.112 223.58 493.252 222.814 493.252ZM239.146 493.252C237.783 493.252 236.607 492.953 235.618 492.356C234.629 491.759 233.863 490.928 233.322 489.864C232.799 488.781 232.538 487.531 232.538 486.112C232.538 484.675 232.799 483.433 233.322 482.388C233.863 481.343 234.629 480.54 235.618 479.98C236.607 479.42 237.783 479.14 239.146 479.14C239.986 479.14 240.817 479.289 241.638 479.588C242.459 479.887 243.141 480.307 243.682 480.848L242.898 482.5C242.357 481.977 241.759 481.595 241.106 481.352C240.471 481.109 239.865 480.988 239.286 480.988C237.867 480.988 236.775 481.436 236.01 482.332C235.245 483.209 234.862 484.479 234.862 486.14C234.862 487.764 235.245 489.052 236.01 490.004C236.775 490.937 237.867 491.404 239.286 491.404C239.865 491.404 240.471 491.283 241.106 491.04C241.759 490.797 242.357 490.405 242.898 489.864L243.682 491.516C243.141 492.057 242.45 492.487 241.61 492.804C240.789 493.103 239.967 493.252 239.146 493.252ZM251.799 493.252C250.194 493.252 248.99 492.823 248.187 491.964C247.384 491.105 246.983 489.883 246.983 488.296V481.156H244.323V479.392H246.983V475.22H249.251V479.392H253.563V481.156H249.251V488.072C249.251 489.136 249.475 489.948 249.923 490.508C250.371 491.049 251.099 491.32 252.107 491.32C252.406 491.32 252.704 491.283 253.003 491.208C253.302 491.133 253.572 491.059 253.815 490.984L254.207 492.72C253.964 492.851 253.61 492.972 253.143 493.084C252.676 493.196 252.228 493.252 251.799 493.252ZM255.848 476.004V473.456H258.648V476.004H255.848ZM256.128 493V479.392H258.396V493H256.128ZM266.64 493L260.788 479.392H263.252L268.124 491.32H267.368L272.324 479.392H274.648L268.768 493H266.64ZM282.987 493.252C281.549 493.252 280.308 492.972 279.263 492.412C278.236 491.833 277.433 491.021 276.855 489.976C276.295 488.931 276.015 487.68 276.015 486.224C276.015 484.805 276.295 483.573 276.855 482.528C277.415 481.464 278.18 480.633 279.151 480.036C280.14 479.439 281.279 479.14 282.567 479.14C283.799 479.14 284.853 479.411 285.731 479.952C286.608 480.493 287.28 481.259 287.747 482.248C288.232 483.237 288.475 484.423 288.475 485.804V486.672H277.751V485.188H286.963L286.515 485.552C286.515 484.059 286.179 482.901 285.507 482.08C284.853 481.24 283.892 480.82 282.623 480.82C281.671 480.82 280.859 481.044 280.187 481.492C279.533 481.921 279.039 482.528 278.703 483.312C278.367 484.077 278.199 484.973 278.199 486V486.168C278.199 487.307 278.376 488.268 278.731 489.052C279.104 489.836 279.655 490.433 280.383 490.844C281.111 491.236 281.979 491.432 282.987 491.432C283.789 491.432 284.564 491.311 285.311 491.068C286.076 490.807 286.795 490.387 287.467 489.808L288.251 491.404C287.635 491.964 286.851 492.412 285.899 492.748C284.947 493.084 283.976 493.252 282.987 493.252ZM298.948 498.04V479.392H301.16V482.612H300.88C301.179 481.548 301.767 480.708 302.644 480.092C303.54 479.457 304.604 479.14 305.836 479.14C307.05 479.14 308.104 479.429 309 480.008C309.915 480.568 310.615 481.38 311.1 482.444C311.604 483.489 311.856 484.74 311.856 486.196C311.856 487.633 311.604 488.884 311.1 489.948C310.615 490.993 309.924 491.805 309.028 492.384C308.132 492.963 307.068 493.252 305.836 493.252C304.604 493.252 303.55 492.944 302.672 492.328C301.795 491.693 301.198 490.853 300.88 489.808H301.216V498.04H298.948ZM305.36 491.432C306.648 491.432 307.666 490.984 308.412 490.088C309.178 489.173 309.56 487.876 309.56 486.196C309.56 484.497 309.178 483.2 308.412 482.304C307.666 481.408 306.648 480.96 305.36 480.96C304.091 480.96 303.074 481.408 302.308 482.304C301.543 483.2 301.16 484.497 301.16 486.196C301.16 487.876 301.543 489.173 302.308 490.088C303.074 490.984 304.091 491.432 305.36 491.432ZM315.273 493V479.392H317.485V482.612H317.205C317.522 481.511 318.073 480.68 318.857 480.12C319.641 479.541 320.677 479.205 321.965 479.112L322.777 479.028L322.945 480.988L321.517 481.156C320.247 481.268 319.267 481.679 318.577 482.388C317.905 483.079 317.569 484.031 317.569 485.244V493H315.273ZM330.8 493.252C329.474 493.252 328.326 492.963 327.356 492.384C326.385 491.805 325.629 490.993 325.088 489.948C324.565 488.884 324.304 487.633 324.304 486.196C324.304 484.759 324.565 483.517 325.088 482.472C325.629 481.408 326.385 480.587 327.356 480.008C328.326 479.429 329.474 479.14 330.8 479.14C332.125 479.14 333.273 479.429 334.244 480.008C335.214 480.587 335.961 481.408 336.484 482.472C337.025 483.517 337.296 484.759 337.296 486.196C337.296 487.633 337.025 488.884 336.484 489.948C335.961 490.993 335.214 491.805 334.244 492.384C333.273 492.963 332.125 493.252 330.8 493.252ZM330.8 491.432C332.088 491.432 333.105 490.984 333.852 490.088C334.617 489.173 335 487.867 335 486.168C335 484.488 334.617 483.2 333.852 482.304C333.105 481.408 332.088 480.96 330.8 480.96C329.53 480.96 328.513 481.408 327.748 482.304C326.982 483.2 326.6 484.488 326.6 486.168C326.6 487.867 326.982 489.173 327.748 490.088C328.513 490.984 329.53 491.432 330.8 491.432ZM346.026 493.252C344.42 493.252 343.216 492.823 342.414 491.964C341.611 491.105 341.21 489.883 341.21 488.296V481.156H338.55V479.392H341.21V475.22H343.478V479.392H347.79V481.156H343.478V488.072C343.478 489.136 343.702 489.948 344.15 490.508C344.598 491.049 345.326 491.32 346.334 491.32C346.632 491.32 346.931 491.283 347.23 491.208C347.528 491.133 347.799 491.059 348.042 490.984L348.434 492.72C348.191 492.851 347.836 492.972 347.37 493.084C346.903 493.196 346.455 493.252 346.026 493.252ZM355.874 493.252C354.549 493.252 353.401 492.963 352.43 492.384C351.459 491.805 350.703 490.993 350.162 489.948C349.639 488.884 349.378 487.633 349.378 486.196C349.378 484.759 349.639 483.517 350.162 482.472C350.703 481.408 351.459 480.587 352.43 480.008C353.401 479.429 354.549 479.14 355.874 479.14C357.199 479.14 358.347 479.429 359.318 480.008C360.289 480.587 361.035 481.408 361.558 482.472C362.099 483.517 362.37 484.759 362.37 486.196C362.37 487.633 362.099 488.884 361.558 489.948C361.035 490.993 360.289 491.805 359.318 492.384C358.347 492.963 357.199 493.252 355.874 493.252ZM355.874 491.432C357.162 491.432 358.179 490.984 358.926 490.088C359.691 489.173 360.074 487.867 360.074 486.168C360.074 484.488 359.691 483.2 358.926 482.304C358.179 481.408 357.162 480.96 355.874 480.96C354.605 480.96 353.587 481.408 352.822 482.304C352.057 483.2 351.674 484.488 351.674 486.168C351.674 487.867 352.057 489.173 352.822 490.088C353.587 490.984 354.605 491.432 355.874 491.432ZM371.1 493.252C369.494 493.252 368.29 492.823 367.488 491.964C366.685 491.105 366.284 489.883 366.284 488.296V481.156H363.624V479.392H366.284V475.22H368.552V479.392H372.864V481.156H368.552V488.072C368.552 489.136 368.776 489.948 369.224 490.508C369.672 491.049 370.4 491.32 371.408 491.32C371.706 491.32 372.005 491.283 372.304 491.208C372.602 491.133 372.873 491.059 373.116 490.984L373.508 492.72C373.265 492.851 372.91 492.972 372.444 493.084C371.977 493.196 371.529 493.252 371.1 493.252ZM377.161 498.04L379.709 492.3V493.28L373.745 479.392H376.209L381.081 491.32H380.325L385.253 479.392H387.633L379.541 498.04H377.161ZM389.976 498.04V479.392H392.188V482.612H391.908C392.206 481.548 392.794 480.708 393.672 480.092C394.568 479.457 395.632 479.14 396.864 479.14C398.077 479.14 399.132 479.429 400.028 480.008C400.942 480.568 401.642 481.38 402.128 482.444C402.632 483.489 402.884 484.74 402.884 486.196C402.884 487.633 402.632 488.884 402.128 489.948C401.642 490.993 400.952 491.805 400.056 492.384C399.16 492.963 398.096 493.252 396.864 493.252C395.632 493.252 394.577 492.944 393.7 492.328C392.822 491.693 392.225 490.853 391.908 489.808H392.244V498.04H389.976ZM396.388 491.432C397.676 491.432 398.693 490.984 399.44 490.088C400.205 489.173 400.588 487.876 400.588 486.196C400.588 484.497 400.205 483.2 399.44 482.304C398.693 481.408 397.676 480.96 396.388 480.96C395.118 480.96 394.101 481.408 393.336 482.304C392.57 483.2 392.188 484.497 392.188 486.196C392.188 487.876 392.57 489.173 393.336 490.088C394.101 490.984 395.118 491.432 396.388 491.432ZM412.432 493.252C410.995 493.252 409.753 492.972 408.708 492.412C407.681 491.833 406.879 491.021 406.3 489.976C405.74 488.931 405.46 487.68 405.46 486.224C405.46 484.805 405.74 483.573 406.3 482.528C406.86 481.464 407.625 480.633 408.596 480.036C409.585 479.439 410.724 479.14 412.012 479.14C413.244 479.14 414.299 479.411 415.176 479.952C416.053 480.493 416.725 481.259 417.192 482.248C417.677 483.237 417.92 484.423 417.92 485.804V486.672H407.196V485.188H416.408L415.96 485.552C415.96 484.059 415.624 482.901 414.952 482.08C414.299 481.24 413.337 480.82 412.068 480.82C411.116 480.82 410.304 481.044 409.632 481.492C408.979 481.921 408.484 482.528 408.148 483.312C407.812 484.077 407.644 484.973 407.644 486V486.168C407.644 487.307 407.821 488.268 408.176 489.052C408.549 489.836 409.1 490.433 409.828 490.844C410.556 491.236 411.424 491.432 412.432 491.432C413.235 491.432 414.009 491.311 414.756 491.068C415.521 490.807 416.24 490.387 416.912 489.808L417.696 491.404C417.08 491.964 416.296 492.412 415.344 492.748C414.392 493.084 413.421 493.252 412.432 493.252ZM425.794 493.252C425.085 493.252 424.394 493.177 423.722 493.028C423.069 492.897 422.453 492.711 421.874 492.468C421.314 492.207 420.829 491.899 420.418 491.544L421.146 489.948C421.594 490.303 422.08 490.601 422.602 490.844C423.125 491.068 423.657 491.236 424.198 491.348C424.74 491.46 425.29 491.516 425.85 491.516C426.914 491.516 427.717 491.32 428.258 490.928C428.8 490.536 429.07 490.004 429.07 489.332C429.07 488.809 428.893 488.399 428.538 488.1C428.184 487.783 427.624 487.54 426.858 487.372L424.31 486.812C423.134 486.569 422.257 486.149 421.678 485.552C421.118 484.955 420.838 484.18 420.838 483.228C420.838 482.388 421.053 481.669 421.482 481.072C421.93 480.456 422.556 479.98 423.358 479.644C424.161 479.308 425.094 479.14 426.158 479.14C426.793 479.14 427.4 479.205 427.978 479.336C428.557 479.467 429.098 479.663 429.602 479.924C430.125 480.167 430.573 480.475 430.946 480.848L430.19 482.444C429.836 482.108 429.434 481.828 428.986 481.604C428.538 481.361 428.072 481.184 427.586 481.072C427.12 480.941 426.644 480.876 426.158 480.876C425.113 480.876 424.32 481.081 423.778 481.492C423.237 481.903 422.966 482.444 422.966 483.116C422.966 483.639 423.134 484.068 423.47 484.404C423.806 484.74 424.329 484.983 425.038 485.132L427.586 485.664C428.8 485.925 429.705 486.345 430.302 486.924C430.918 487.484 431.226 488.249 431.226 489.22C431.226 490.041 431.002 490.76 430.554 491.376C430.106 491.973 429.472 492.44 428.65 492.776C427.848 493.093 426.896 493.252 425.794 493.252ZM42.74 531L37.672 517.392H40.052L44.224 529.32H43.552L47.864 517.392H49.796L54.024 529.32H53.38L57.608 517.392H59.876L54.78 531H52.624L48.172 518.764H49.376L44.924 531H42.74ZM62.391 514.004V511.456H65.191V514.004H62.391ZM62.671 531V517.392H64.939V531H62.671ZM74.6388 531.252C73.0334 531.252 71.8294 530.823 71.0268 529.964C70.2241 529.105 69.8228 527.883 69.8228 526.296V519.156H67.1628V517.392H69.8228V513.22H72.0908V517.392H76.4028V519.156H72.0908V526.072C72.0908 527.136 72.3148 527.948 72.7628 528.508C73.2108 529.049 73.9388 529.32 74.9468 529.32C75.2454 529.32 75.5441 529.283 75.8428 529.208C76.1414 529.133 76.4121 529.059 76.6548 528.984L77.0468 530.72C76.8041 530.851 76.4494 530.972 75.9828 531.084C75.5161 531.196 75.0681 531.252 74.6388 531.252ZM78.9678 531V511.26H81.2358V520.416H80.8718C81.2638 519.333 81.8985 518.521 82.7758 517.98C83.6718 517.42 84.6985 517.14 85.8558 517.14C86.9385 517.14 87.8345 517.336 88.5438 517.728C89.2718 518.12 89.8132 518.717 90.1678 519.52C90.5225 520.304 90.6998 521.303 90.6998 522.516V531H88.4318V522.656C88.4318 521.816 88.3198 521.125 88.0958 520.584C87.8905 520.043 87.5545 519.641 87.0878 519.38C86.6398 519.119 86.0518 518.988 85.3238 518.988C84.5025 518.988 83.7838 519.165 83.1678 519.52C82.5518 519.875 82.0758 520.369 81.7398 521.004C81.4038 521.639 81.2358 522.385 81.2358 523.244V531H78.9678ZM100.538 531.252C99.2126 531.252 98.0646 530.963 97.0939 530.384C96.1232 529.805 95.3672 528.993 94.8259 527.948C94.3032 526.884 94.0419 525.633 94.0419 524.196C94.0419 522.759 94.3032 521.517 94.8259 520.472C95.3672 519.408 96.1232 518.587 97.0939 518.008C98.0646 517.429 99.2126 517.14 100.538 517.14C101.863 517.14 103.011 517.429 103.982 518.008C104.953 518.587 105.699 519.408 106.222 520.472C106.763 521.517 107.034 522.759 107.034 524.196C107.034 525.633 106.763 526.884 106.222 527.948C105.699 528.993 104.953 529.805 103.982 530.384C103.011 530.963 101.863 531.252 100.538 531.252ZM100.538 529.432C101.826 529.432 102.843 528.984 103.59 528.088C104.355 527.173 104.738 525.867 104.738 524.168C104.738 522.488 104.355 521.2 103.59 520.304C102.843 519.408 101.826 518.96 100.538 518.96C99.2686 518.96 98.2512 519.408 97.4859 520.304C96.7206 521.2 96.3379 522.488 96.3379 524.168C96.3379 525.867 96.7206 527.173 97.4859 528.088C98.2512 528.984 99.2686 529.432 100.538 529.432ZM115.257 531.252C114.155 531.252 113.241 531.056 112.513 530.664C111.803 530.253 111.262 529.647 110.889 528.844C110.534 528.041 110.357 527.043 110.357 525.848V517.392H112.625V525.82C112.625 526.623 112.727 527.295 112.933 527.836C113.157 528.359 113.502 528.751 113.969 529.012C114.435 529.255 115.014 529.376 115.704 529.376C116.489 529.376 117.17 529.199 117.749 528.844C118.327 528.489 118.785 527.995 119.121 527.36C119.457 526.725 119.625 525.979 119.625 525.12V517.392H121.893V531H119.681V527.864H120.045C119.671 528.965 119.055 529.805 118.197 530.384C117.357 530.963 116.377 531.252 115.257 531.252ZM131.596 531.252C129.99 531.252 128.786 530.823 127.984 529.964C127.181 529.105 126.78 527.883 126.78 526.296V519.156H124.12V517.392H126.78V513.22H129.048V517.392H133.36V519.156H129.048V526.072C129.048 527.136 129.272 527.948 129.72 528.508C130.168 529.049 130.896 529.32 131.904 529.32C132.202 529.32 132.501 529.283 132.8 529.208C133.098 529.133 133.369 529.059 133.612 528.984L134.004 530.72C133.761 530.851 133.406 530.972 132.94 531.084C132.473 531.196 132.025 531.252 131.596 531.252ZM146.728 531L141.66 517.392H144.04L148.212 529.32H147.54L151.852 517.392H153.784L158.012 529.32H157.368L161.596 517.392H163.864L158.768 531H156.612L152.16 518.764H153.364L148.912 531H146.728ZM166.659 531V517.392H168.871V520.612H168.591C168.909 519.511 169.459 518.68 170.243 518.12C171.027 517.541 172.063 517.205 173.351 517.112L174.163 517.028L174.331 518.988L172.903 519.156C171.634 519.268 170.654 519.679 169.963 520.388C169.291 521.079 168.955 522.031 168.955 523.244V531H166.659ZM176.414 514.004V511.456H179.214V514.004H176.414ZM176.694 531V517.392H178.962V531H176.694ZM188.662 531.252C187.057 531.252 185.853 530.823 185.05 529.964C184.248 529.105 183.846 527.883 183.846 526.296V519.156H181.186V517.392H183.846V513.22H186.114V517.392H190.426V519.156H186.114V526.072C186.114 527.136 186.338 527.948 186.786 528.508C187.234 529.049 187.962 529.32 188.97 529.32C189.269 529.32 189.568 529.283 189.866 529.208C190.165 529.133 190.436 529.059 190.678 528.984L191.07 530.72C190.828 530.851 190.473 530.972 190.006 531.084C189.54 531.196 189.092 531.252 188.662 531.252ZM192.711 514.004V511.456H195.511V514.004H192.711ZM192.991 531V517.392H195.259V531H192.991ZM199.499 531V517.392H201.711V520.416H201.403C201.795 519.333 202.43 518.521 203.307 517.98C204.203 517.42 205.23 517.14 206.387 517.14C207.47 517.14 208.366 517.336 209.075 517.728C209.803 518.101 210.344 518.689 210.699 519.492C211.054 520.295 211.231 521.303 211.231 522.516V531H208.963V522.656C208.963 521.816 208.851 521.125 208.627 520.584C208.422 520.043 208.086 519.641 207.619 519.38C207.171 519.119 206.583 518.988 205.855 518.988C205.034 518.988 204.315 519.165 203.699 519.52C203.083 519.875 202.607 520.369 202.271 521.004C201.935 521.639 201.767 522.385 201.767 523.244V531H199.499ZM221.433 536.292C220.257 536.292 219.146 536.133 218.101 535.816C217.074 535.517 216.16 535.06 215.357 534.444L216.113 532.792C216.673 533.184 217.224 533.501 217.765 533.744C218.325 534.005 218.894 534.192 219.473 534.304C220.07 534.416 220.686 534.472 221.321 534.472C222.646 534.472 223.645 534.117 224.317 533.408C225.008 532.699 225.353 531.672 225.353 530.328V527.164H225.633C225.353 528.247 224.756 529.105 223.841 529.74C222.945 530.375 221.89 530.692 220.677 530.692C219.426 530.692 218.344 530.412 217.429 529.852C216.514 529.273 215.805 528.471 215.301 527.444C214.816 526.417 214.573 525.232 214.573 523.888C214.573 522.544 214.816 521.368 215.301 520.36C215.805 519.333 216.514 518.54 217.429 517.98C218.344 517.42 219.426 517.14 220.677 517.14C221.909 517.14 222.973 517.457 223.869 518.092C224.765 518.708 225.344 519.548 225.605 520.612H225.353V517.392H227.565V530.02C227.565 531.401 227.332 532.559 226.865 533.492C226.417 534.425 225.736 535.125 224.821 535.592C223.906 536.059 222.777 536.292 221.433 536.292ZM221.097 528.844C222.404 528.844 223.44 528.396 224.205 527.5C224.97 526.604 225.353 525.4 225.353 523.888C225.353 522.376 224.97 521.181 224.205 520.304C223.44 519.408 222.404 518.96 221.097 518.96C219.809 518.96 218.782 519.408 218.017 520.304C217.252 521.181 216.869 522.376 216.869 523.888C216.869 525.4 217.252 526.604 218.017 527.5C218.782 528.396 219.809 528.844 221.097 528.844ZM243.155 536.376C241.96 534.304 241.092 532.213 240.551 530.104C240.009 527.995 239.739 525.839 239.739 523.636C239.739 521.433 240.009 519.277 240.551 517.168C241.092 515.059 241.96 512.968 243.155 510.896L244.779 511.512C244.2 512.893 243.715 514.256 243.323 515.6C242.931 516.925 242.632 518.251 242.427 519.576C242.24 520.901 242.147 522.255 242.147 523.636C242.147 524.999 242.24 526.352 242.427 527.696C242.632 529.021 242.931 530.347 243.323 531.672C243.715 532.997 244.2 534.36 244.779 535.76L243.155 536.376ZM253.28 531.252C251.955 531.252 250.807 530.963 249.836 530.384C248.865 529.805 248.109 528.993 247.568 527.948C247.045 526.884 246.784 525.633 246.784 524.196C246.784 522.759 247.045 521.517 247.568 520.472C248.109 519.408 248.865 518.587 249.836 518.008C250.807 517.429 251.955 517.14 253.28 517.14C254.605 517.14 255.753 517.429 256.724 518.008C257.695 518.587 258.441 519.408 258.964 520.472C259.505 521.517 259.776 522.759 259.776 524.196C259.776 525.633 259.505 526.884 258.964 527.948C258.441 528.993 257.695 529.805 256.724 530.384C255.753 530.963 254.605 531.252 253.28 531.252ZM253.28 529.432C254.568 529.432 255.585 528.984 256.332 528.088C257.097 527.173 257.48 525.867 257.48 524.168C257.48 522.488 257.097 521.2 256.332 520.304C255.585 519.408 254.568 518.96 253.28 518.96C252.011 518.96 250.993 519.408 250.228 520.304C249.463 521.2 249.08 522.488 249.08 524.168C249.08 525.867 249.463 527.173 250.228 528.088C250.993 528.984 252.011 529.432 253.28 529.432ZM263.183 531V517.392H265.395V520.612H265.115C265.432 519.511 265.983 518.68 266.767 518.12C267.551 517.541 268.587 517.205 269.875 517.112L270.687 517.028L270.855 518.988L269.427 519.156C268.157 519.268 267.177 519.679 266.487 520.388C265.815 521.079 265.479 522.031 265.479 523.244V531H263.183ZM280.409 531V517.392H282.621V520.612H282.341C282.659 519.511 283.209 518.68 283.993 518.12C284.777 517.541 285.813 517.205 287.101 517.112L287.913 517.028L288.081 518.988L286.653 519.156C285.384 519.268 284.404 519.679 283.713 520.388C283.041 521.079 282.705 522.031 282.705 523.244V531H280.409ZM296.412 531.252C294.975 531.252 293.734 530.972 292.688 530.412C291.662 529.833 290.859 529.021 290.28 527.976C289.72 526.931 289.44 525.68 289.44 524.224C289.44 522.805 289.72 521.573 290.28 520.528C290.84 519.464 291.606 518.633 292.576 518.036C293.566 517.439 294.704 517.14 295.992 517.14C297.224 517.14 298.279 517.411 299.156 517.952C300.034 518.493 300.706 519.259 301.172 520.248C301.658 521.237 301.9 522.423 301.9 523.804V524.672H291.176V523.188H300.388L299.94 523.552C299.94 522.059 299.604 520.901 298.932 520.08C298.279 519.24 297.318 518.82 296.048 518.82C295.096 518.82 294.284 519.044 293.612 519.492C292.959 519.921 292.464 520.528 292.128 521.312C291.792 522.077 291.624 522.973 291.624 524V524.168C291.624 525.307 291.802 526.268 292.156 527.052C292.53 527.836 293.08 528.433 293.808 528.844C294.536 529.236 295.404 529.432 296.412 529.432C297.215 529.432 297.99 529.311 298.736 529.068C299.502 528.807 300.22 528.387 300.892 527.808L301.676 529.404C301.06 529.964 300.276 530.412 299.324 530.748C298.372 531.084 297.402 531.252 296.412 531.252ZM308.631 531L303.563 517.392H305.943L310.115 529.32H309.443L313.755 517.392H315.687L319.915 529.32H319.271L323.499 517.392H325.767L320.671 531H318.515L314.063 518.764H315.267L310.815 531H308.631ZM328.562 531V517.392H330.774V520.612H330.494C330.811 519.511 331.362 518.68 332.146 518.12C332.93 517.541 333.966 517.205 335.254 517.112L336.066 517.028L336.234 518.988L334.806 519.156C333.536 519.268 332.556 519.679 331.866 520.388C331.194 521.079 330.858 522.031 330.858 523.244V531H328.562ZM338.317 514.004V511.456H341.117V514.004H338.317ZM338.597 531V517.392H340.865V531H338.597ZM350.565 531.252C348.959 531.252 347.755 530.823 346.953 529.964C346.15 529.105 345.749 527.883 345.749 526.296V519.156H343.089V517.392H345.749V513.22H348.017V517.392H352.329V519.156H348.017V526.072C348.017 527.136 348.241 527.948 348.689 528.508C349.137 529.049 349.865 529.32 350.873 529.32C351.171 529.32 351.47 529.283 351.769 529.208C352.067 529.133 352.338 529.059 352.581 528.984L352.973 530.72C352.73 530.851 352.375 530.972 351.909 531.084C351.442 531.196 350.994 531.252 350.565 531.252ZM354.614 514.004V511.456H357.414V514.004H354.614ZM354.894 531V517.392H357.162V531H354.894ZM361.401 531V517.392H363.613V520.416H363.305C363.697 519.333 364.332 518.521 365.209 517.98C366.105 517.42 367.132 517.14 368.289 517.14C369.372 517.14 370.268 517.336 370.977 517.728C371.705 518.101 372.247 518.689 372.601 519.492C372.956 520.295 373.133 521.303 373.133 522.516V531H370.865V522.656C370.865 521.816 370.753 521.125 370.529 520.584C370.324 520.043 369.988 519.641 369.521 519.38C369.073 519.119 368.485 518.988 367.757 518.988C366.936 518.988 366.217 519.165 365.601 519.52C364.985 519.875 364.509 520.369 364.173 521.004C363.837 521.639 363.669 522.385 363.669 523.244V531H361.401ZM383.336 536.292C382.16 536.292 381.049 536.133 380.004 535.816C378.977 535.517 378.062 535.06 377.26 534.444L378.016 532.792C378.576 533.184 379.126 533.501 379.668 533.744C380.228 534.005 380.797 534.192 381.376 534.304C381.973 534.416 382.589 534.472 383.224 534.472C384.549 534.472 385.548 534.117 386.22 533.408C386.91 532.699 387.256 531.672 387.256 530.328V527.164H387.536C387.256 528.247 386.658 529.105 385.744 529.74C384.848 530.375 383.793 530.692 382.579 530.692C381.329 530.692 380.246 530.412 379.332 529.852C378.417 529.273 377.708 528.471 377.204 527.444C376.718 526.417 376.476 525.232 376.476 523.888C376.476 522.544 376.718 521.368 377.204 520.36C377.708 519.333 378.417 518.54 379.332 517.98C380.246 517.42 381.329 517.14 382.579 517.14C383.812 517.14 384.876 517.457 385.772 518.092C386.668 518.708 387.246 519.548 387.508 520.612H387.256V517.392H389.468V530.02C389.468 531.401 389.234 532.559 388.768 533.492C388.32 534.425 387.638 535.125 386.724 535.592C385.809 536.059 384.68 536.292 383.336 536.292ZM383 528.844C384.306 528.844 385.342 528.396 386.108 527.5C386.873 526.604 387.256 525.4 387.256 523.888C387.256 522.376 386.873 521.181 386.108 520.304C385.342 519.408 384.306 518.96 383 518.96C381.712 518.96 380.685 519.408 379.92 520.304C379.154 521.181 378.772 522.376 378.772 523.888C378.772 525.4 379.154 526.604 379.92 527.5C380.685 528.396 381.712 528.844 383 528.844ZM394.198 536.376L392.574 535.76C393.171 534.341 393.656 532.96 394.03 531.616C394.422 530.291 394.711 528.975 394.898 527.668C395.084 526.343 395.178 524.999 395.178 523.636C395.178 522.273 395.084 520.939 394.898 519.632C394.711 518.307 394.422 516.972 394.03 515.628C393.656 514.284 393.171 512.912 392.574 511.512L394.198 510.896C395.392 512.968 396.26 515.068 396.802 517.196C397.343 519.305 397.614 521.452 397.614 523.636C397.614 525.839 397.343 527.995 396.802 530.104C396.26 532.213 395.392 534.304 394.198 536.376ZM414.084 531.252C413.151 531.252 412.311 531.075 411.564 530.72C410.836 530.347 410.257 529.843 409.828 529.208C409.399 528.573 409.184 527.864 409.184 527.08C409.184 526.072 409.436 525.279 409.94 524.7C410.463 524.121 411.312 523.711 412.488 523.468C413.683 523.225 415.307 523.104 417.36 523.104H418.62V524.588H417.388C416.249 524.588 415.297 524.625 414.532 524.7C413.767 524.775 413.16 524.905 412.712 525.092C412.264 525.279 411.947 525.521 411.76 525.82C411.573 526.119 411.48 526.492 411.48 526.94C411.48 527.705 411.741 528.331 412.264 528.816C412.805 529.301 413.533 529.544 414.448 529.544C415.195 529.544 415.848 529.367 416.408 529.012C416.987 528.657 417.435 528.172 417.752 527.556C418.088 526.94 418.256 526.231 418.256 525.428V522.236C418.256 521.079 418.023 520.248 417.556 519.744C417.089 519.221 416.324 518.96 415.26 518.96C414.439 518.96 413.645 519.081 412.88 519.324C412.115 519.548 411.331 519.921 410.528 520.444L409.744 518.792C410.229 518.456 410.78 518.167 411.396 517.924C412.012 517.663 412.656 517.467 413.328 517.336C414 517.205 414.644 517.14 415.26 517.14C416.436 517.14 417.407 517.336 418.172 517.728C418.937 518.101 419.507 518.68 419.88 519.464C420.253 520.229 420.44 521.219 420.44 522.432V531H418.312V527.836H418.564C418.415 528.545 418.125 529.152 417.696 529.656C417.285 530.16 416.772 530.552 416.156 530.832C415.54 531.112 414.849 531.252 414.084 531.252ZM43.72 569.252C43.0107 569.252 42.32 569.177 41.648 569.028C40.9947 568.897 40.3787 568.711 39.8 568.468C39.24 568.207 38.7547 567.899 38.344 567.544L39.072 565.948C39.52 566.303 40.0053 566.601 40.528 566.844C41.0507 567.068 41.5827 567.236 42.124 567.348C42.6653 567.46 43.216 567.516 43.776 567.516C44.84 567.516 45.6427 567.32 46.184 566.928C46.7253 566.536 46.996 566.004 46.996 565.332C46.996 564.809 46.8187 564.399 46.464 564.1C46.1093 563.783 45.5493 563.54 44.784 563.372L42.236 562.812C41.06 562.569 40.1827 562.149 39.604 561.552C39.044 560.955 38.764 560.18 38.764 559.228C38.764 558.388 38.9787 557.669 39.408 557.072C39.856 556.456 40.4813 555.98 41.284 555.644C42.0867 555.308 43.02 555.14 44.084 555.14C44.7187 555.14 45.3253 555.205 45.904 555.336C46.4827 555.467 47.024 555.663 47.528 555.924C48.0507 556.167 48.4987 556.475 48.872 556.848L48.116 558.444C47.7613 558.108 47.36 557.828 46.912 557.604C46.464 557.361 45.9973 557.184 45.512 557.072C45.0453 556.941 44.5693 556.876 44.084 556.876C43.0387 556.876 42.2453 557.081 41.704 557.492C41.1627 557.903 40.892 558.444 40.892 559.116C40.892 559.639 41.06 560.068 41.396 560.404C41.732 560.74 42.2547 560.983 42.964 561.132L45.512 561.664C46.7253 561.925 47.6307 562.345 48.228 562.924C48.844 563.484 49.152 564.249 49.152 565.22C49.152 566.041 48.928 566.76 48.48 567.376C48.032 567.973 47.3973 568.44 46.576 568.776C45.7733 569.093 44.8213 569.252 43.72 569.252ZM52.3285 552.004V549.456H55.1285V552.004H52.3285ZM52.6085 569V555.392H54.8765V569H52.6085ZM59.1163 569V555.392H61.3283V558.416H61.0203C61.4123 557.333 62.0469 556.521 62.9243 555.98C63.8203 555.42 64.8469 555.14 66.0043 555.14C67.0869 555.14 67.9829 555.336 68.6923 555.728C69.4203 556.101 69.9616 556.689 70.3163 557.492C70.6709 558.295 70.8483 559.303 70.8483 560.516V569H68.5803V560.656C68.5803 559.816 68.4683 559.125 68.2443 558.584C68.0389 558.043 67.7029 557.641 67.2363 557.38C66.7883 557.119 66.2003 556.988 65.4723 556.988C64.6509 556.988 63.9323 557.165 63.3163 557.52C62.7003 557.875 62.2243 558.369 61.8883 559.004C61.5523 559.639 61.3843 560.385 61.3843 561.244V569H59.1163ZM81.0503 574.292C79.8743 574.292 78.7637 574.133 77.7183 573.816C76.6917 573.517 75.777 573.06 74.9743 572.444L75.7303 570.792C76.2903 571.184 76.841 571.501 77.3823 571.744C77.9423 572.005 78.5117 572.192 79.0903 572.304C79.6877 572.416 80.3037 572.472 80.9383 572.472C82.2637 572.472 83.2623 572.117 83.9343 571.408C84.625 570.699 84.9703 569.672 84.9703 568.328V565.164H85.2503C84.9703 566.247 84.373 567.105 83.4583 567.74C82.5623 568.375 81.5077 568.692 80.2943 568.692C79.0437 568.692 77.961 568.412 77.0463 567.852C76.1317 567.273 75.4223 566.471 74.9183 565.444C74.433 564.417 74.1903 563.232 74.1903 561.888C74.1903 560.544 74.433 559.368 74.9183 558.36C75.4223 557.333 76.1317 556.54 77.0463 555.98C77.961 555.42 79.0437 555.14 80.2943 555.14C81.5263 555.14 82.5903 555.457 83.4863 556.092C84.3823 556.708 84.961 557.548 85.2223 558.612H84.9703V555.392H87.1823V568.02C87.1823 569.401 86.949 570.559 86.4823 571.492C86.0343 572.425 85.353 573.125 84.4383 573.592C83.5237 574.059 82.3943 574.292 81.0503 574.292ZM80.7143 566.844C82.021 566.844 83.057 566.396 83.8223 565.5C84.5877 564.604 84.9703 563.4 84.9703 561.888C84.9703 560.376 84.5877 559.181 83.8223 558.304C83.057 557.408 82.021 556.96 80.7143 556.96C79.4263 556.96 78.3997 557.408 77.6343 558.304C76.869 559.181 76.4863 560.376 76.4863 561.888C76.4863 563.4 76.869 564.604 77.6343 565.5C78.3997 566.396 79.4263 566.844 80.7143 566.844ZM95.6086 569.252C94.2273 569.252 93.1819 568.841 92.4726 568.02C91.7819 567.199 91.4366 566.023 91.4366 564.492V549.26H93.7046V564.324C93.7046 564.977 93.7886 565.528 93.9566 565.976C94.1433 566.424 94.4139 566.76 94.7686 566.984C95.1233 567.208 95.5619 567.32 96.0846 567.32C96.3086 567.32 96.5233 567.311 96.7286 567.292C96.9526 567.255 97.1579 567.208 97.3446 567.152L97.2886 569.056C96.9899 569.112 96.7006 569.159 96.4206 569.196C96.1593 569.233 95.8886 569.252 95.6086 569.252ZM105.717 569.252C104.28 569.252 103.038 568.972 101.993 568.412C100.966 567.833 100.164 567.021 99.585 565.976C99.025 564.931 98.745 563.68 98.745 562.224C98.745 560.805 99.025 559.573 99.585 558.528C100.145 557.464 100.91 556.633 101.881 556.036C102.87 555.439 104.009 555.14 105.297 555.14C106.529 555.14 107.584 555.411 108.461 555.952C109.338 556.493 110.01 557.259 110.477 558.248C110.962 559.237 111.205 560.423 111.205 561.804V562.672H100.481V561.188H109.693L109.245 561.552C109.245 560.059 108.909 558.901 108.237 558.08C107.584 557.24 106.622 556.82 105.353 556.82C104.401 556.82 103.589 557.044 102.917 557.492C102.264 557.921 101.769 558.528 101.433 559.312C101.097 560.077 100.929 560.973 100.929 562V562.168C100.929 563.307 101.106 564.268 101.461 565.052C101.834 565.836 102.385 566.433 103.113 566.844C103.841 567.236 104.709 567.432 105.717 567.432C106.52 567.432 107.294 567.311 108.041 567.068C108.806 566.807 109.525 566.387 110.197 565.808L110.981 567.404C110.365 567.964 109.581 568.412 108.629 568.748C107.677 569.084 106.706 569.252 105.717 569.252ZM121.679 574.04V555.392H123.891V558.612H123.611C123.909 557.548 124.497 556.708 125.375 556.092C126.271 555.457 127.335 555.14 128.567 555.14C129.78 555.14 130.835 555.429 131.731 556.008C132.645 556.568 133.345 557.38 133.831 558.444C134.335 559.489 134.587 560.74 134.587 562.196C134.587 563.633 134.335 564.884 133.831 565.948C133.345 566.993 132.655 567.805 131.759 568.384C130.863 568.963 129.799 569.252 128.567 569.252C127.335 569.252 126.28 568.944 125.403 568.328C124.525 567.693 123.928 566.853 123.611 565.808H123.947V574.04H121.679ZM128.091 567.432C129.379 567.432 130.396 566.984 131.143 566.088C131.908 565.173 132.291 563.876 132.291 562.196C132.291 560.497 131.908 559.2 131.143 558.304C130.396 557.408 129.379 556.96 128.091 556.96C126.821 556.96 125.804 557.408 125.039 558.304C124.273 559.2 123.891 560.497 123.891 562.196C123.891 563.876 124.273 565.173 125.039 566.088C125.804 566.984 126.821 567.432 128.091 567.432ZM138.003 569V555.392H140.215V558.612H139.935C140.252 557.511 140.803 556.68 141.587 556.12C142.371 555.541 143.407 555.205 144.695 555.112L145.507 555.028L145.675 556.988L144.247 557.156C142.978 557.268 141.998 557.679 141.307 558.388C140.635 559.079 140.299 560.031 140.299 561.244V569H138.003ZM153.53 569.252C152.205 569.252 151.057 568.963 150.086 568.384C149.115 567.805 148.359 566.993 147.818 565.948C147.295 564.884 147.034 563.633 147.034 562.196C147.034 560.759 147.295 559.517 147.818 558.472C148.359 557.408 149.115 556.587 150.086 556.008C151.057 555.429 152.205 555.14 153.53 555.14C154.855 555.14 156.003 555.429 156.974 556.008C157.945 556.587 158.691 557.408 159.214 558.472C159.755 559.517 160.026 560.759 160.026 562.196C160.026 563.633 159.755 564.884 159.214 565.948C158.691 566.993 157.945 567.805 156.974 568.384C156.003 568.963 154.855 569.252 153.53 569.252ZM153.53 567.432C154.818 567.432 155.835 566.984 156.582 566.088C157.347 565.173 157.73 563.867 157.73 562.168C157.73 560.488 157.347 559.2 156.582 558.304C155.835 557.408 154.818 556.96 153.53 556.96C152.261 556.96 151.243 557.408 150.478 558.304C149.713 559.2 149.33 560.488 149.33 562.168C149.33 563.867 149.713 565.173 150.478 566.088C151.243 566.984 152.261 567.432 153.53 567.432ZM163.489 569V555.392H165.701V558.416H165.393C165.617 557.725 165.943 557.137 166.373 556.652C166.821 556.148 167.343 555.775 167.941 555.532C168.557 555.271 169.229 555.14 169.957 555.14C171.114 555.14 172.047 555.42 172.757 555.98C173.485 556.521 173.97 557.371 174.213 558.528H173.793C174.129 557.483 174.726 556.661 175.585 556.064C176.462 555.448 177.479 555.14 178.637 555.14C179.663 555.14 180.503 555.336 181.157 555.728C181.829 556.12 182.333 556.717 182.669 557.52C183.005 558.304 183.173 559.303 183.173 560.516V569H180.905V560.628C180.905 559.377 180.69 558.463 180.261 557.884C179.831 557.287 179.103 556.988 178.077 556.988C177.349 556.988 176.705 557.165 176.145 557.52C175.603 557.875 175.183 558.379 174.885 559.032C174.605 559.667 174.465 560.423 174.465 561.3V569H172.197V560.628C172.197 559.377 171.973 558.463 171.525 557.884C171.095 557.287 170.377 556.988 169.369 556.988C168.622 556.988 167.978 557.165 167.437 557.52C166.895 557.875 166.475 558.379 166.177 559.032C165.897 559.667 165.757 560.423 165.757 561.3V569H163.489ZM187.413 574.04V555.392H189.625V558.612H189.345C189.644 557.548 190.232 556.708 191.109 556.092C192.005 555.457 193.069 555.14 194.301 555.14C195.514 555.14 196.569 555.429 197.465 556.008C198.38 556.568 199.08 557.38 199.565 558.444C200.069 559.489 200.321 560.74 200.321 562.196C200.321 563.633 200.069 564.884 199.565 565.948C199.08 566.993 198.389 567.805 197.493 568.384C196.597 568.963 195.533 569.252 194.301 569.252C193.069 569.252 192.014 568.944 191.137 568.328C190.26 567.693 189.662 566.853 189.345 565.808H189.681V574.04H187.413ZM193.825 567.432C195.113 567.432 196.13 566.984 196.877 566.088C197.642 565.173 198.025 563.876 198.025 562.196C198.025 560.497 197.642 559.2 196.877 558.304C196.13 557.408 195.113 556.96 193.825 556.96C192.556 556.96 191.538 557.408 190.773 558.304C190.008 559.2 189.625 560.497 189.625 562.196C189.625 563.876 190.008 565.173 190.773 566.088C191.538 566.984 192.556 567.432 193.825 567.432ZM209.061 569.252C207.455 569.252 206.251 568.823 205.449 567.964C204.646 567.105 204.245 565.883 204.245 564.296V557.156H201.585V555.392H204.245V551.22H206.513V555.392H210.825V557.156H206.513V564.072C206.513 565.136 206.737 565.948 207.185 566.508C207.633 567.049 208.361 567.32 209.369 567.32C209.667 567.32 209.966 567.283 210.265 567.208C210.563 567.133 210.834 567.059 211.077 566.984L211.469 568.72C211.226 568.851 210.871 568.972 210.405 569.084C209.938 569.196 209.49 569.252 209.061 569.252ZM213.409 569V566.144H216.265V569H213.409Z" fill="#D9D9D9"/>
<ellipse cx="286" cy="208" rx="286" ry="187" fill="url(#paint1_radial_1253_7768)"/>
<g filter="url(#filter1_bdi_1253_7768)">
<path d="M142 256L288.646 187.062L430 256L288.646 330.081L142 256Z" fill="url(#paint2_linear_1253_7768)" fill-opacity="0.2" shape-rendering="crispEdges"/>
</g>
<g filter="url(#filter2_bdi_1253_7768)">
<path d="M142 248L288.646 179.062L430 248L288.646 322.081L142 248Z" fill="url(#paint3_linear_1253_7768)" fill-opacity="0.6" shape-rendering="crispEdges"/>
</g>
<path d="M231.812 134L252.18 124.425L271.812 134L252.18 144.289L231.812 134Z" fill="white"/>
<path d="M231.812 133.884L252.159 144.173V186.033L231.812 175.744V133.884Z" fill="#A493FC"/>
<path d="M271.812 134L252.159 144.173V186.033L271.812 175.86V134Z" fill="#453F73"/>
<path d="M250.812 165.467L271.18 155.892L290.812 165.467L271.18 175.756L250.812 165.467Z" fill="white"/>
<path d="M250.812 165.351L271.159 175.64V217.5L250.812 207.211V165.351Z" fill="#A493FC"/>
<path d="M290.812 165.467L271.159 175.64V217.5L290.812 207.327V165.467Z" fill="#453F73"/>
<path d="M212.812 183L233.18 173.425L252.812 183L233.18 193.289L212.812 183Z" fill="white"/>
<path d="M212.812 182.884L233.159 193.173V235.033L212.812 224.744V182.884Z" fill="#A493FC"/>
<path d="M252.812 183L233.159 193.173V235.033L252.812 224.86V183Z" fill="#453F73"/>
<path d="M238.812 183L259.18 173.425L278.812 183L259.18 193.289L238.812 183Z" fill="white"/>
<path d="M238.812 182.884L259.159 193.173V227.033L238.812 216.744V182.884Z" fill="#A493FC"/>
<path d="M278.812 183L259.159 193.173V227.033L278.812 216.86V183Z" fill="#453F73"/>
<path d="M275.812 81L296.18 71.4253L315.812 81L296.18 91.289L275.812 81Z" fill="white"/>
<path d="M275.812 80.8844L296.159 91.1734V133.033L275.812 122.744V80.8844Z" fill="#A493FC"/>
<path d="M315.812 81L296.159 91.1734V133.033L315.812 122.86V81Z" fill="#453F73"/>
<path d="M318.812 165L339.18 155.425L358.812 165L339.18 175.289L318.812 165Z" fill="white"/>
<path d="M318.812 164.884L339.159 175.173V209.033L318.812 198.744V164.884Z" fill="#A493FC"/>
<path d="M358.812 165L339.159 175.173V209.033L358.812 198.86V165Z" fill="#453F73"/>
<path d="M270.812 226L291.18 216.425L310.812 226L291.18 236.289L270.812 226Z" fill="white"/>
<path d="M270.812 225.884L291.159 236.173V268.033L270.812 257.744V225.884Z" fill="#A493FC"/>
<path d="M310.812 226L291.159 236.173V268.033L310.812 257.86V226Z" fill="#453F73"/>
<defs>
<filter id="filter0_b_1253_7768" x="6.3" y="17.3" width="533.4" height="645.4" filterUnits="userSpaceOnUse" color-interpolation-filters="sRGB">
<feFlood flood-opacity="0" result="BackgroundImageFix"/>
<feGaussianBlur in="BackgroundImageFix" stdDeviation="5.85"/>
<feComposite in2="SourceAlpha" operator="in" result="effect1_backgroundBlur_1253_7768"/>
<feBlend mode="normal" in="SourceGraphic" in2="effect1_backgroundBlur_1253_7768" result="shape"/>
</filter>
<filter id="filter1_bdi_1253_7768" x="134.9" y="179.962" width="302.2" height="157.219" filterUnits="userSpaceOnUse" color-interpolation-filters="sRGB">
<feFlood flood-opacity="0" result="BackgroundImageFix"/>
<feGaussianBlur in="BackgroundImageFix" stdDeviation="2.5"/>
<feComposite in2="SourceAlpha" operator="in" result="effect1_backgroundBlur_1253_7768"/>
<feColorMatrix in="SourceAlpha" type="matrix" values="0 0 0 0 0 0 0 0 0 0 0 0 0 0 0 0 0 0 127 0" result="hardAlpha"/>
<feOffset/>
<feGaussianBlur stdDeviation="3.55"/>
<feComposite in2="hardAlpha" operator="out"/>
<feColorMatrix type="matrix" values="0 0 0 0 0 0 0 0 0 0 0 0 0 0 0 0 0 0 0.25 0"/>
<feBlend mode="normal" in2="effect1_backgroundBlur_1253_7768" result="effect2_dropShadow_1253_7768"/>
<feBlend mode="normal" in="SourceGraphic" in2="effect2_dropShadow_1253_7768" result="shape"/>
<feColorMatrix in="SourceAlpha" type="matrix" values="0 0 0 0 0 0 0 0 0 0 0 0 0 0 0 0 0 0 127 0" result="hardAlpha"/>
<feOffset dx="-1"/>
<feComposite in2="hardAlpha" operator="arithmetic" k2="-1" k3="1"/>
<feColorMatrix type="matrix" values="0 0 0 0 1 0 0 0 0 1 0 0 0 0 1 0 0 0 0.35 0"/>
<feBlend mode="normal" in2="shape" result="effect3_innerShadow_1253_7768"/>
</filter>
<filter id="filter2_bdi_1253_7768" x="134.9" y="171.962" width="302.2" height="157.219" filterUnits="userSpaceOnUse" color-interpolation-filters="sRGB">
<feFlood flood-opacity="0" result="BackgroundImageFix"/>
<feGaussianBlur in="BackgroundImageFix" stdDeviation="2.5"/>
<feComposite in2="SourceAlpha" operator="in" result="effect1_backgroundBlur_1253_7768"/>
<feColorMatrix in="SourceAlpha" type="matrix" values="0 0 0 0 0 0 0 0 0 0 0 0 0 0 0 0 0 0 127 0" result="hardAlpha"/>
<feOffset/>
<feGaussianBlur stdDeviation="3.55"/>
<feComposite in2="hardAlpha" operator="out"/>
<feColorMatrix type="matrix" values="0 0 0 0 0 0 0 0 0 0 0 0 0 0 0 0 0 0 0.25 0"/>
<feBlend mode="normal" in2="effect1_backgroundBlur_1253_7768" result="effect2_dropShadow_1253_7768"/>
<feBlend mode="normal" in="SourceGraphic" in2="effect2_dropShadow_1253_7768" result="shape"/>
<feColorMatrix in="SourceAlpha" type="matrix" values="0 0 0 0 0 0 0 0 0 0 0 0 0 0 0 0 0 0 127 0" result="hardAlpha"/>
<feOffset dy="-2"/>
<feComposite in2="hardAlpha" operator="arithmetic" k2="-1" k3="1"/>
<feColorMatrix type="matrix" values="0 0 0 0 0.267189 0 0 0 0 0.226822 0 0 0 0 0.576667 0 0 0 1 0"/>
<feBlend mode="normal" in2="shape" result="effect3_innerShadow_1253_7768"/>
</filter>
<linearGradient id="paint0_linear_1253_7768" x1="273" y1="579.231" x2="273" y2="64.8846" gradientUnits="userSpaceOnUse">
<stop offset="0.207188" stop-color="#292929"/>
<stop offset="1" stop-color="#8778D7"/>
</linearGradient>
<radialGradient id="paint1_radial_1253_7768" cx="0" cy="0" r="1" gradientUnits="userSpaceOnUse" gradientTransform="translate(286 208) rotate(90) scale(187 286)">
<stop stop-color="#B754B3"/>
<stop offset="1" stop-opacity="0"/>
</radialGradient>
<linearGradient id="paint2_linear_1253_7768" x1="139.496" y1="301.945" x2="457.881" y2="275.028" gradientUnits="userSpaceOnUse">
<stop stop-color="white"/>
<stop offset="1" stop-color="#6D9BFF"/>
</linearGradient>
<linearGradient id="paint3_linear_1253_7768" x1="169" y1="231" x2="380" y2="271" gradientUnits="userSpaceOnUse">
<stop stop-color="#BBAEFF"/>
<stop offset="1" stop-color="#453F73"/>
</linearGradient>
</defs>
</svg>
