<svg width="590" height="446" viewBox="0 0 590 446" fill="none" xmlns="http://www.w3.org/2000/svg">
<g opacity="0.5">
<mask id="mask0_1934_2876" style="mask-type:alpha" maskUnits="userSpaceOnUse" x="15" y="111" width="347" height="255">
<ellipse cx="188.5" cy="238.5" rx="173.5" ry="127.5" fill="url(#paint0_radial_1934_2876)"/>
</mask>
<g mask="url(#mask0_1934_2876)">
<line x1="250.169" y1="83.5621" x2="47.0907" y2="191.541" stroke="white" stroke-width="1.32184"/>
<line x1="260.098" y1="102.236" x2="57.0199" y2="210.214" stroke="white" stroke-width="1.32184"/>
<line x1="270.027" y1="120.91" x2="66.9486" y2="228.888" stroke="white" stroke-width="1.32184"/>
<line x1="279.956" y1="139.584" x2="76.8778" y2="247.562" stroke="white" stroke-width="1.32184"/>
<line x1="289.885" y1="158.258" x2="86.807" y2="266.236" stroke="white" stroke-width="1.32184"/>
<line x1="299.814" y1="176.931" x2="96.7362" y2="284.91" stroke="white" stroke-width="1.32184"/>
<line x1="309.743" y1="195.605" x2="106.665" y2="303.584" stroke="white" stroke-width="1.32184"/>
<line x1="319.672" y1="214.279" x2="116.594" y2="322.257" stroke="white" stroke-width="1.32184"/>
<line x1="329.601" y1="232.953" x2="126.523" y2="340.931" stroke="white" stroke-width="1.32184"/>
<line x1="339.53" y1="251.627" x2="136.452" y2="359.605" stroke="white" stroke-width="1.32184"/>
<line x1="338.373" y1="188.999" x2="133.441" y2="84.5807" stroke="white" stroke-width="1.32184"/>
<line x1="328.771" y1="207.843" x2="123.84" y2="103.425" stroke="white" stroke-width="1.32184"/>
<line x1="319.17" y1="226.687" x2="114.238" y2="122.269" stroke="white" stroke-width="1.32184"/>
<line x1="309.568" y1="245.531" x2="104.637" y2="141.114" stroke="white" stroke-width="1.32184"/>
<line x1="299.966" y1="264.376" x2="95.0346" y2="159.958" stroke="white" stroke-width="1.32184"/>
<line x1="290.364" y1="283.22" x2="85.433" y2="178.802" stroke="white" stroke-width="1.32184"/>
<line x1="280.763" y1="302.064" x2="75.8315" y2="197.646" stroke="white" stroke-width="1.32184"/>
<line x1="271.161" y1="320.908" x2="66.2299" y2="216.491" stroke="white" stroke-width="1.32184"/>
<line x1="261.56" y1="339.753" x2="56.6283" y2="235.335" stroke="white" stroke-width="1.32184"/>
<line x1="251.958" y1="358.597" x2="47.0268" y2="254.179" stroke="white" stroke-width="1.32184"/>
</g>
</g>
<g opacity="0.5">
<mask id="mask1_1934_2876" style="mask-type:alpha" maskUnits="userSpaceOnUse" x="265" y="121" width="347" height="255">
<ellipse cx="438.5" cy="248.5" rx="173.5" ry="127.5" fill="url(#paint1_radial_1934_2876)"/>
</mask>
<g mask="url(#mask1_1934_2876)">
<line x1="500.169" y1="93.5621" x2="297.091" y2="201.541" stroke="white" stroke-width="1.32184"/>
<line x1="510.097" y1="112.236" x2="307.019" y2="220.214" stroke="white" stroke-width="1.32184"/>
<line x1="520.027" y1="130.91" x2="316.949" y2="238.888" stroke="white" stroke-width="1.32184"/>
<line x1="529.956" y1="149.584" x2="326.878" y2="257.562" stroke="white" stroke-width="1.32184"/>
<line x1="539.885" y1="168.258" x2="336.807" y2="276.236" stroke="white" stroke-width="1.32184"/>
<line x1="549.814" y1="186.931" x2="346.736" y2="294.91" stroke="white" stroke-width="1.32184"/>
<line x1="559.743" y1="205.605" x2="356.665" y2="313.584" stroke="white" stroke-width="1.32184"/>
<line x1="569.672" y1="224.279" x2="366.594" y2="332.257" stroke="white" stroke-width="1.32184"/>
<line x1="579.601" y1="242.953" x2="376.523" y2="350.931" stroke="white" stroke-width="1.32184"/>
<line x1="589.53" y1="261.627" x2="386.452" y2="369.605" stroke="white" stroke-width="1.32184"/>
<line x1="588.373" y1="198.999" x2="383.441" y2="94.5807" stroke="white" stroke-width="1.32184"/>
<line x1="578.771" y1="217.843" x2="373.84" y2="113.425" stroke="white" stroke-width="1.32184"/>
<line x1="569.17" y1="236.687" x2="364.238" y2="132.269" stroke="white" stroke-width="1.32184"/>
<line x1="559.568" y1="255.531" x2="354.637" y2="151.114" stroke="white" stroke-width="1.32184"/>
<line x1="549.967" y1="274.376" x2="345.035" y2="169.958" stroke="white" stroke-width="1.32184"/>
<line x1="540.365" y1="293.22" x2="335.434" y2="188.802" stroke="white" stroke-width="1.32184"/>
<line x1="530.763" y1="312.064" x2="325.832" y2="207.646" stroke="white" stroke-width="1.32184"/>
<line x1="521.161" y1="330.908" x2="316.229" y2="226.491" stroke="white" stroke-width="1.32184"/>
<line x1="511.559" y1="349.753" x2="306.628" y2="245.335" stroke="white" stroke-width="1.32184"/>
<line x1="501.958" y1="368.597" x2="297.026" y2="264.179" stroke="white" stroke-width="1.32184"/>
</g>
</g>
<g opacity="0.5">
<mask id="mask2_1934_2876" style="mask-type:alpha" maskUnits="userSpaceOnUse" x="130" y="241" width="347" height="255">
<ellipse cx="303.5" cy="368.5" rx="173.5" ry="127.5" fill="url(#paint2_radial_1934_2876)"/>
</mask>
<g mask="url(#mask2_1934_2876)">
<line x1="365.169" y1="213.562" x2="162.091" y2="321.541" stroke="white" stroke-width="1.32184"/>
<line x1="375.098" y1="232.236" x2="172.02" y2="340.214" stroke="white" stroke-width="1.32184"/>
<line x1="385.027" y1="250.91" x2="181.949" y2="358.888" stroke="white" stroke-width="1.32184"/>
<line x1="394.956" y1="269.584" x2="191.878" y2="377.562" stroke="white" stroke-width="1.32184"/>
<line x1="404.885" y1="288.258" x2="201.807" y2="396.236" stroke="white" stroke-width="1.32184"/>
<line x1="414.814" y1="306.931" x2="211.736" y2="414.91" stroke="white" stroke-width="1.32184"/>
<line x1="424.743" y1="325.605" x2="221.665" y2="433.584" stroke="white" stroke-width="1.32184"/>
<line x1="434.672" y1="344.279" x2="231.594" y2="452.257" stroke="white" stroke-width="1.32184"/>
<line x1="444.601" y1="362.953" x2="241.523" y2="470.931" stroke="white" stroke-width="1.32184"/>
<line x1="454.53" y1="381.627" x2="251.452" y2="489.605" stroke="white" stroke-width="1.32184"/>
<line x1="453.373" y1="318.999" x2="248.441" y2="214.581" stroke="white" stroke-width="1.32184"/>
<line x1="443.771" y1="337.843" x2="238.84" y2="233.425" stroke="white" stroke-width="1.32184"/>
<line x1="434.17" y1="356.687" x2="229.238" y2="252.269" stroke="white" stroke-width="1.32184"/>
<line x1="424.568" y1="375.531" x2="219.637" y2="271.114" stroke="white" stroke-width="1.32184"/>
<line x1="414.967" y1="394.376" x2="210.035" y2="289.958" stroke="white" stroke-width="1.32184"/>
<line x1="405.364" y1="413.22" x2="200.433" y2="308.802" stroke="white" stroke-width="1.32184"/>
<line x1="395.763" y1="432.064" x2="190.831" y2="327.646" stroke="white" stroke-width="1.32184"/>
<line x1="386.161" y1="450.908" x2="181.23" y2="346.491" stroke="white" stroke-width="1.32184"/>
<line x1="376.56" y1="469.753" x2="171.628" y2="365.335" stroke="white" stroke-width="1.32184"/>
<line x1="366.958" y1="488.597" x2="162.027" y2="384.179" stroke="white" stroke-width="1.32184"/>
</g>
</g>
<path d="M3 223.086L75.8747 264.447C84.0922 269.111 94.0548 269.491 102.6 265.459C113.564 260.285 129.015 252.993 140.686 247.486C152.339 241.987 167.762 234.708 178.723 229.536C187.295 225.49 197.292 225.886 205.522 230.589L277.126 271.506C285.207 276.124 295.011 276.59 303.494 272.759L349.11 252.158C357.263 248.476 366.658 248.756 374.577 252.917L420.04 276.805C426.726 280.317 431.526 286.594 433.164 293.966V293.966C435.738 305.55 430.04 317.389 419.381 322.604L325.457 368.552C304.486 378.811 303.573 408.365 323.871 419.9L459.048 496.714" stroke="url(#paint3_radial_1934_2876)" stroke-width="5.80952" stroke-linecap="round"/>
<ellipse cx="319.834" cy="264.398" rx="38.5214" ry="18.2578" transform="rotate(-24.491 319.834 264.398)" fill="url(#paint4_radial_1934_2876)"/>
<ellipse cx="88.786" cy="267.774" rx="25.8204" ry="18.2578" transform="rotate(0.93685 88.786 267.774)" fill="url(#paint5_radial_1934_2876)"/>
<path d="M143.59 86.2714L194.766 62.2138L244.095 86.2714L194.766 112.124L143.59 86.2714Z" fill="white"/>
<path d="M143.59 85.981L194.714 111.833V259.105L143.59 233.252V85.981Z" fill="url(#paint6_linear_1934_2876)"/>
<path d="M244.095 86.2714L194.714 111.833V259.105L244.095 233.543V86.2714Z" fill="url(#paint7_linear_1934_2876)"/>
<g filter="url(#filter0_f_1934_2876)">
<ellipse cx="195.876" cy="84.8191" rx="32.5333" ry="15.1048" fill="#707070"/>
</g>
<circle cx="196.4" cy="59" r="36" fill="url(#paint8_linear_1934_2876)"/>
<path d="M389.914 192.005L441.09 167.947L490.419 192.005L441.09 217.857L389.914 192.005Z" fill="white"/>
<path d="M389.914 191.714L441.038 217.567V336.952L389.914 311.1V191.714Z" fill="url(#paint9_linear_1934_2876)"/>
<path d="M490.419 192.005L441.038 217.567V335.79L490.419 310.229V192.005Z" fill="url(#paint10_linear_1934_2876)"/>
<g filter="url(#filter1_f_1934_2876)">
<ellipse cx="442.2" cy="194.619" rx="29.0476" ry="13.3619" fill="#707070"/>
</g>
<circle cx="442.2" cy="166.152" r="36.019" fill="url(#paint11_linear_1934_2876)"/>
<path d="M257.457 395.338L308.633 371.281L357.962 395.338L308.633 421.191L257.457 395.338Z" fill="white"/>
<g filter="url(#filter2_f_1934_2876)">
<ellipse cx="308.324" cy="394.952" rx="24.981" ry="13.3619" fill="#707070"/>
</g>
<circle cx="307.743" cy="366.486" r="36.019" fill="url(#paint12_linear_1934_2876)"/>
<defs>
<filter id="filter0_f_1934_2876" x="161.019" y="67.3905" width="69.7145" height="34.8572" filterUnits="userSpaceOnUse" color-interpolation-filters="sRGB">
<feFlood flood-opacity="0" result="BackgroundImageFix"/>
<feBlend mode="normal" in="SourceGraphic" in2="BackgroundImageFix" result="shape"/>
<feGaussianBlur stdDeviation="1.1619" result="effect1_foregroundBlur_1934_2876"/>
</filter>
<filter id="filter1_f_1934_2876" x="410.829" y="178.933" width="62.7433" height="31.3714" filterUnits="userSpaceOnUse" color-interpolation-filters="sRGB">
<feFlood flood-opacity="0" result="BackgroundImageFix"/>
<feBlend mode="normal" in="SourceGraphic" in2="BackgroundImageFix" result="shape"/>
<feGaussianBlur stdDeviation="1.1619" result="effect1_foregroundBlur_1934_2876"/>
</filter>
<filter id="filter2_f_1934_2876" x="281.019" y="379.267" width="54.6095" height="31.3714" filterUnits="userSpaceOnUse" color-interpolation-filters="sRGB">
<feFlood flood-opacity="0" result="BackgroundImageFix"/>
<feBlend mode="normal" in="SourceGraphic" in2="BackgroundImageFix" result="shape"/>
<feGaussianBlur stdDeviation="1.1619" result="effect1_foregroundBlur_1934_2876"/>
</filter>
<radialGradient id="paint0_radial_1934_2876" cx="0" cy="0" r="1" gradientUnits="userSpaceOnUse" gradientTransform="translate(188.5 238.5) rotate(90) scale(100.347 136.551)">
<stop stop-color="#D9D9D9"/>
<stop offset="1" stop-opacity="0"/>
</radialGradient>
<radialGradient id="paint1_radial_1934_2876" cx="0" cy="0" r="1" gradientUnits="userSpaceOnUse" gradientTransform="translate(438.5 248.5) rotate(90) scale(100.347 136.551)">
<stop stop-color="#D9D9D9"/>
<stop offset="1" stop-opacity="0"/>
</radialGradient>
<radialGradient id="paint2_radial_1934_2876" cx="0" cy="0" r="1" gradientUnits="userSpaceOnUse" gradientTransform="translate(303.5 368.5) rotate(90) scale(100.347 136.551)">
<stop stop-color="#D9D9D9"/>
<stop offset="1" stop-opacity="0"/>
</radialGradient>
<radialGradient id="paint3_radial_1934_2876" cx="0" cy="0" r="1" gradientUnits="userSpaceOnUse" gradientTransform="translate(264.429 261.429) rotate(119.627) scale(175.102 291.837)">
<stop stop-color="#27CDFF"/>
<stop offset="1" stop-color="#27CDFF" stop-opacity="0"/>
</radialGradient>
<radialGradient id="paint4_radial_1934_2876" cx="0" cy="0" r="1" gradientUnits="userSpaceOnUse" gradientTransform="translate(319.834 264.398) rotate(90) scale(18.2578 38.5214)">
<stop offset="0.0239996" stop-color="white"/>
<stop offset="0.189" stop-color="#27CDFF"/>
<stop offset="1" stop-color="#242424" stop-opacity="0"/>
</radialGradient>
<radialGradient id="paint5_radial_1934_2876" cx="0" cy="0" r="1" gradientUnits="userSpaceOnUse" gradientTransform="translate(88.786 267.774) rotate(90) scale(18.2578 25.8204)">
<stop offset="0.0239996" stop-color="white"/>
<stop offset="0.189" stop-color="#27CDFF"/>
<stop offset="1" stop-color="#242424" stop-opacity="0"/>
</radialGradient>
<linearGradient id="paint6_linear_1934_2876" x1="169.152" y1="85.981" x2="169.152" y2="259.105" gradientUnits="userSpaceOnUse">
<stop stop-color="#E5E1FF"/>
<stop offset="1" stop-color="#8778D7"/>
</linearGradient>
<linearGradient id="paint7_linear_1934_2876" x1="219.405" y1="86.2714" x2="219.405" y2="259.105" gradientUnits="userSpaceOnUse">
<stop stop-color="#B6B4C1"/>
<stop offset="1" stop-color="#242F93"/>
</linearGradient>
<linearGradient id="paint8_linear_1934_2876" x1="172.1" y1="33.8" x2="207.2" y2="74.3" gradientUnits="userSpaceOnUse">
<stop stop-color="#B9F2A9"/>
<stop offset="1" stop-color="#1F6966"/>
</linearGradient>
<linearGradient id="paint9_linear_1934_2876" x1="415.476" y1="191.714" x2="415.476" y2="364.838" gradientUnits="userSpaceOnUse">
<stop stop-color="#E5E1FF"/>
<stop offset="1" stop-color="#8778D7"/>
</linearGradient>
<linearGradient id="paint10_linear_1934_2876" x1="465.728" y1="192.005" x2="465.728" y2="364.838" gradientUnits="userSpaceOnUse">
<stop stop-color="#B6B4C1"/>
<stop offset="1" stop-color="#242F93"/>
</linearGradient>
<linearGradient id="paint11_linear_1934_2876" x1="417.887" y1="140.939" x2="453.006" y2="181.461" gradientUnits="userSpaceOnUse">
<stop stop-color="#FFD54F"/>
<stop offset="1" stop-color="#FF6636"/>
</linearGradient>
<linearGradient id="paint12_linear_1934_2876" x1="283.43" y1="341.272" x2="318.548" y2="381.794" gradientUnits="userSpaceOnUse">
<stop stop-color="#A08DFF"/>
<stop offset="1" stop-color="#4C5CEC"/>
</linearGradient>
</defs>
</svg>
