<svg width="766" height="549" viewBox="0 0 766 549" fill="none" xmlns="http://www.w3.org/2000/svg">
<g filter="url(#filter0_b_1247_674)">
<rect y="19" width="766" height="530" rx="9.52381" fill="black" fill-opacity="0.4"/>
<rect x="1" y="20" width="764" height="528" rx="8.52381" stroke="url(#paint0_linear_1247_674)" stroke-opacity="0.75" stroke-width="2"/>
</g>
<g filter="url(#filter1_bdi_1247_674)">
<path d="M366.215 56L521.808 134.087V316.291L366.215 243.024V56Z" fill="url(#paint1_linear_1247_674)" fill-opacity="0.2" shape-rendering="crispEdges"/>
</g>
<g filter="url(#filter2_bdi_1247_674)">
<path d="M334.224 74.9038L489.817 152.991V335.195L334.224 261.928V74.9038Z" fill="url(#paint2_linear_1247_674)" fill-opacity="0.2" shape-rendering="crispEdges"/>
</g>
<g filter="url(#filter3_bdi_1247_674)">
<path d="M299.325 92.3535L454.918 170.441V352.645L299.325 279.378V92.3535Z" fill="url(#paint3_linear_1247_674)"/>
</g>
<g filter="url(#filter4_bdi_1247_674)">
<path d="M270.242 111.257L425.835 189.345V371.549L270.242 298.282V111.257Z" fill="url(#paint4_linear_1247_674)" fill-opacity="0.2" shape-rendering="crispEdges"/>
</g>
<path d="M30.36 423V418.76H36.72V399.12H39.2L31.8 403.6L29.8 399.84L38.2 394.8H41.84V418.76H47.8V423H30.36ZM61.9844 423.4C59.771 423.4 57.891 422.84 56.3444 421.72C54.8244 420.573 53.6644 418.92 52.8644 416.76C52.091 414.6 51.7044 411.96 51.7044 408.84C51.7044 405.693 52.091 403.053 52.8644 400.92C53.6644 398.76 54.8244 397.133 56.3444 396.04C57.891 394.947 59.771 394.4 61.9844 394.4C64.2244 394.4 66.1044 394.947 67.6244 396.04C69.171 397.133 70.331 398.747 71.1044 400.88C71.8777 403.013 72.2644 405.653 72.2644 408.8C72.2644 411.92 71.8644 414.573 71.0644 416.76C70.291 418.92 69.1444 420.573 67.6244 421.72C66.1044 422.84 64.2244 423.4 61.9844 423.4ZM61.9844 419.2C63.7977 419.2 65.131 418.373 65.9844 416.72C66.8644 415.04 67.3044 412.4 67.3044 408.8C67.3044 405.227 66.8644 402.64 65.9844 401.04C65.131 399.413 63.7977 398.6 61.9844 398.6C60.1977 398.6 58.8644 399.413 57.9844 401.04C57.1044 402.64 56.6644 405.24 56.6644 408.84C56.6644 412.413 57.1044 415.04 57.9844 416.72C58.8644 418.373 60.1977 419.2 61.9844 419.2ZM85.9688 423.4C83.7554 423.4 81.8754 422.84 80.3288 421.72C78.8088 420.573 77.6488 418.92 76.8488 416.76C76.0754 414.6 75.6888 411.96 75.6888 408.84C75.6888 405.693 76.0754 403.053 76.8488 400.92C77.6488 398.76 78.8088 397.133 80.3288 396.04C81.8754 394.947 83.7554 394.4 85.9688 394.4C88.2088 394.4 90.0888 394.947 91.6088 396.04C93.1554 397.133 94.3154 398.747 95.0887 400.88C95.8621 403.013 96.2488 405.653 96.2488 408.8C96.2488 411.92 95.8488 414.573 95.0488 416.76C94.2754 418.92 93.1288 420.573 91.6088 421.72C90.0888 422.84 88.2088 423.4 85.9688 423.4ZM85.9688 419.2C87.7821 419.2 89.1154 418.373 89.9688 416.72C90.8488 415.04 91.2888 412.4 91.2888 408.8C91.2888 405.227 90.8488 402.64 89.9688 401.04C89.1154 399.413 87.7821 398.6 85.9688 398.6C84.1821 398.6 82.8488 399.413 81.9688 401.04C81.0888 402.64 80.6488 405.24 80.6488 408.84C80.6488 412.413 81.0888 415.04 81.9688 416.72C82.8488 418.373 84.1821 419.2 85.9688 419.2ZM110.273 424.12L106.993 422.2L123.473 393.68L126.713 395.6L110.273 424.12ZM106.833 411.64C105.34 411.64 104.06 411.293 102.993 410.6C101.926 409.907 101.113 408.92 100.553 407.64C99.9931 406.333 99.7131 404.787 99.7131 403C99.7131 400.333 100.34 398.24 101.593 396.72C102.846 395.173 104.593 394.4 106.833 394.4C108.326 394.4 109.606 394.747 110.673 395.44C111.74 396.133 112.553 397.12 113.113 398.4C113.673 399.68 113.953 401.213 113.953 403C113.953 404.787 113.673 406.333 113.113 407.64C112.553 408.92 111.74 409.907 110.673 410.6C109.606 411.293 108.326 411.64 106.833 411.64ZM106.833 408.28C107.793 408.28 108.54 407.853 109.073 407C109.606 406.12 109.873 404.787 109.873 403C109.873 401.213 109.606 399.893 109.073 399.04C108.54 398.187 107.793 397.76 106.833 397.76C105.873 397.76 105.126 398.187 104.593 399.04C104.06 399.867 103.793 401.187 103.793 403C103.793 404.813 104.06 406.147 104.593 407C105.126 407.853 105.873 408.28 106.833 408.28ZM126.913 423.4C125.42 423.4 124.14 423.053 123.073 422.36C122.006 421.667 121.193 420.68 120.633 419.4C120.073 418.093 119.793 416.547 119.793 414.76C119.793 412.093 120.42 410 121.673 408.48C122.926 406.933 124.673 406.16 126.913 406.16C128.406 406.16 129.686 406.507 130.753 407.2C131.82 407.893 132.633 408.88 133.193 410.16C133.753 411.44 134.033 412.973 134.033 414.76C134.033 416.547 133.753 418.093 133.193 419.4C132.633 420.68 131.82 421.667 130.753 422.36C129.686 423.053 128.406 423.4 126.913 423.4ZM126.913 420.04C127.873 420.04 128.62 419.613 129.153 418.76C129.686 417.88 129.953 416.547 129.953 414.76C129.953 412.973 129.686 411.653 129.153 410.8C128.62 409.947 127.873 409.52 126.913 409.52C125.953 409.52 125.206 409.947 124.673 410.8C124.14 411.627 123.873 412.947 123.873 414.76C123.873 416.573 124.14 417.907 124.673 418.76C125.206 419.613 125.953 420.04 126.913 420.04ZM155.587 423.4C154.174 423.4 152.907 423.133 151.787 422.6C150.694 422.04 149.827 421.293 149.187 420.36C148.574 419.427 148.267 418.373 148.267 417.2C148.267 415.76 148.64 414.627 149.387 413.8C150.134 412.947 151.347 412.333 153.027 411.96C154.707 411.587 156.96 411.4 159.787 411.4H161.787V414.28H159.827C158.574 414.28 157.52 414.333 156.667 414.44C155.814 414.52 155.12 414.667 154.587 414.88C154.08 415.067 153.707 415.333 153.467 415.68C153.254 416.027 153.147 416.453 153.147 416.96C153.147 417.84 153.454 418.56 154.067 419.12C154.68 419.68 155.534 419.96 156.627 419.96C157.507 419.96 158.28 419.76 158.947 419.36C159.64 418.933 160.187 418.36 160.587 417.64C160.987 416.92 161.187 416.093 161.187 415.16V410.56C161.187 409.227 160.894 408.267 160.307 407.68C159.72 407.093 158.734 406.8 157.347 406.8C156.254 406.8 155.134 406.973 153.987 407.32C152.84 407.64 151.68 408.147 150.507 408.84L149.067 405.44C149.76 404.96 150.574 404.547 151.507 404.2C152.467 403.827 153.467 403.547 154.507 403.36C155.574 403.147 156.574 403.04 157.507 403.04C159.427 403.04 161 403.333 162.227 403.92C163.48 404.507 164.414 405.4 165.027 406.6C165.64 407.773 165.947 409.293 165.947 411.16V423H161.267V418.84H161.587C161.4 419.773 161.027 420.587 160.467 421.28C159.934 421.947 159.254 422.467 158.427 422.84C157.6 423.213 156.654 423.4 155.587 423.4ZM180.062 423.4C178.009 423.4 176.222 422.987 174.702 422.16C173.182 421.307 172.009 420.107 171.182 418.56C170.355 417.013 169.942 415.2 169.942 413.12C169.942 411.04 170.355 409.253 171.182 407.76C172.009 406.24 173.182 405.08 174.702 404.28C176.222 403.453 178.009 403.04 180.062 403.04C181.315 403.04 182.555 403.24 183.782 403.64C185.009 404.04 186.022 404.6 186.822 405.32L185.342 408.8C184.649 408.187 183.862 407.72 182.982 407.4C182.129 407.08 181.302 406.92 180.502 406.92C178.769 406.92 177.422 407.467 176.462 408.56C175.529 409.627 175.062 411.16 175.062 413.16C175.062 415.133 175.529 416.693 176.462 417.84C177.422 418.96 178.769 419.52 180.502 419.52C181.275 419.52 182.102 419.36 182.982 419.04C183.862 418.72 184.649 418.24 185.342 417.6L186.822 421.12C186.022 421.813 184.995 422.373 183.742 422.8C182.515 423.2 181.289 423.4 180.062 423.4ZM198.538 423.4C196.485 423.4 194.698 422.987 193.178 422.16C191.658 421.307 190.485 420.107 189.658 418.56C188.832 417.013 188.418 415.2 188.418 413.12C188.418 411.04 188.832 409.253 189.658 407.76C190.485 406.24 191.658 405.08 193.178 404.28C194.698 403.453 196.485 403.04 198.538 403.04C199.792 403.04 201.032 403.24 202.258 403.64C203.485 404.04 204.498 404.6 205.298 405.32L203.818 408.8C203.125 408.187 202.338 407.72 201.458 407.4C200.605 407.08 199.778 406.92 198.978 406.92C197.245 406.92 195.898 407.467 194.938 408.56C194.005 409.627 193.538 411.16 193.538 413.16C193.538 415.133 194.005 416.693 194.938 417.84C195.898 418.96 197.245 419.52 198.978 419.52C199.752 419.52 200.578 419.36 201.458 419.04C202.338 418.72 203.125 418.24 203.818 417.6L205.298 421.12C204.498 421.813 203.472 422.373 202.218 422.8C200.992 423.2 199.765 423.4 198.538 423.4ZM215.446 423.4C213.819 423.4 212.472 423.107 211.406 422.52C210.339 421.907 209.539 421 209.006 419.8C208.499 418.6 208.246 417.107 208.246 415.32V403.44H213.246V415.4C213.246 416.307 213.366 417.067 213.606 417.68C213.872 418.293 214.259 418.747 214.766 419.04C215.299 419.333 215.966 419.48 216.766 419.48C217.672 419.48 218.459 419.28 219.126 418.88C219.819 418.453 220.352 417.867 220.726 417.12C221.126 416.347 221.326 415.453 221.326 414.44V403.44H226.326V423H221.446V418.92H222.006C221.446 420.36 220.592 421.467 219.446 422.24C218.326 423.013 216.992 423.4 215.446 423.4ZM231.53 423V403.44H236.41V408.16H236.01C236.383 406.56 237.116 405.347 238.21 404.52C239.303 403.667 240.756 403.173 242.57 403.04L244.09 402.92L244.41 407.16L241.53 407.44C239.903 407.6 238.676 408.107 237.85 408.96C237.023 409.787 236.61 410.96 236.61 412.48V423H231.53ZM253.438 423.4C252.025 423.4 250.758 423.133 249.638 422.6C248.545 422.04 247.678 421.293 247.038 420.36C246.425 419.427 246.118 418.373 246.118 417.2C246.118 415.76 246.492 414.627 247.238 413.8C247.985 412.947 249.198 412.333 250.878 411.96C252.558 411.587 254.812 411.4 257.638 411.4H259.638V414.28H257.678C256.425 414.28 255.372 414.333 254.518 414.44C253.665 414.52 252.972 414.667 252.438 414.88C251.932 415.067 251.558 415.333 251.318 415.68C251.105 416.027 250.998 416.453 250.998 416.96C250.998 417.84 251.305 418.56 251.918 419.12C252.532 419.68 253.385 419.96 254.478 419.96C255.358 419.96 256.132 419.76 256.798 419.36C257.492 418.933 258.038 418.36 258.438 417.64C258.838 416.92 259.038 416.093 259.038 415.16V410.56C259.038 409.227 258.745 408.267 258.158 407.68C257.572 407.093 256.585 406.8 255.198 406.8C254.105 406.8 252.985 406.973 251.838 407.32C250.692 407.64 249.532 408.147 248.358 408.84L246.918 405.44C247.612 404.96 248.425 404.547 249.358 404.2C250.318 403.827 251.318 403.547 252.358 403.36C253.425 403.147 254.425 403.04 255.358 403.04C257.278 403.04 258.852 403.333 260.078 403.92C261.332 404.507 262.265 405.4 262.878 406.6C263.492 407.773 263.798 409.293 263.798 411.16V423H259.118V418.84H259.438C259.252 419.773 258.878 420.587 258.318 421.28C257.785 421.947 257.105 422.467 256.278 422.84C255.452 423.213 254.505 423.4 253.438 423.4ZM277.833 423.4C275.22 423.4 273.273 422.747 271.993 421.44C270.713 420.133 270.073 418.227 270.073 415.72V407.2H266.313V403.44H270.073V397.6H275.073V403.44H280.993V407.2H275.073V415.44C275.073 416.72 275.353 417.68 275.913 418.32C276.473 418.96 277.38 419.28 278.633 419.28C279.007 419.28 279.393 419.24 279.793 419.16C280.193 419.053 280.607 418.947 281.033 418.84L281.793 422.52C281.313 422.787 280.7 423 279.953 423.16C279.233 423.32 278.527 423.4 277.833 423.4ZM293.67 423.4C291.456 423.4 289.55 422.987 287.95 422.16C286.35 421.333 285.11 420.16 284.23 418.64C283.376 417.12 282.95 415.32 282.95 413.24C282.95 411.213 283.363 409.44 284.19 407.92C285.043 406.4 286.203 405.213 287.67 404.36C289.163 403.48 290.856 403.04 292.75 403.04C294.616 403.04 296.216 403.44 297.55 404.24C298.883 405.04 299.91 406.173 300.63 407.64C301.376 409.107 301.75 410.853 301.75 412.88V414.36H286.99V411.48H298.23L297.59 412.08C297.59 410.267 297.19 408.88 296.39 407.92C295.59 406.933 294.443 406.44 292.95 406.44C291.83 406.44 290.87 406.707 290.07 407.24C289.296 407.747 288.696 408.48 288.27 409.44C287.87 410.373 287.67 411.493 287.67 412.8V413.08C287.67 414.547 287.896 415.76 288.35 416.72C288.803 417.68 289.483 418.4 290.39 418.88C291.296 419.36 292.416 419.6 293.75 419.6C294.843 419.6 295.936 419.44 297.03 419.12C298.123 418.773 299.123 418.24 300.03 417.52L301.43 420.88C300.496 421.653 299.323 422.267 297.91 422.72C296.496 423.173 295.083 423.4 293.67 423.4ZM325.451 423.4C322.837 423.4 320.891 422.747 319.611 421.44C318.331 420.133 317.691 418.227 317.691 415.72V407.2H313.931V403.44H317.691V397.6H322.691V403.44H328.611V407.2H322.691V415.44C322.691 416.72 322.971 417.68 323.531 418.32C324.091 418.96 324.997 419.28 326.251 419.28C326.624 419.28 327.011 419.24 327.411 419.16C327.811 419.053 328.224 418.947 328.651 418.84L329.411 422.52C328.931 422.787 328.317 423 327.571 423.16C326.851 423.32 326.144 423.4 325.451 423.4ZM340.567 423.4C338.54 423.4 336.78 422.987 335.287 422.16C333.794 421.333 332.634 420.16 331.807 418.64C330.98 417.093 330.567 415.28 330.567 413.2C330.567 411.12 330.98 409.32 331.807 407.8C332.634 406.28 333.794 405.107 335.287 404.28C336.78 403.453 338.54 403.04 340.567 403.04C342.594 403.04 344.354 403.453 345.847 404.28C347.34 405.107 348.5 406.28 349.327 407.8C350.154 409.32 350.567 411.12 350.567 413.2C350.567 415.28 350.154 417.093 349.327 418.64C348.5 420.16 347.34 421.333 345.847 422.16C344.354 422.987 342.594 423.4 340.567 423.4ZM340.567 419.6C342.06 419.6 343.26 419.067 344.167 418C345.074 416.907 345.527 415.307 345.527 413.2C345.527 411.067 345.074 409.48 344.167 408.44C343.26 407.373 342.06 406.84 340.567 406.84C339.074 406.84 337.874 407.373 336.967 408.44C336.06 409.48 335.607 411.067 335.607 413.2C335.607 415.307 336.06 416.907 336.967 418C337.874 419.067 339.074 419.6 340.567 419.6ZM367.235 430.2L371.315 421.2V423.28L362.715 403.44H368.035L374.115 418.6H372.915L379.115 403.44H384.155L372.395 430.2H367.235ZM395.059 423.4C393.032 423.4 391.272 422.987 389.779 422.16C388.286 421.333 387.126 420.16 386.299 418.64C385.472 417.093 385.059 415.28 385.059 413.2C385.059 411.12 385.472 409.32 386.299 407.8C387.126 406.28 388.286 405.107 389.779 404.28C391.272 403.453 393.032 403.04 395.059 403.04C397.086 403.04 398.846 403.453 400.339 404.28C401.832 405.107 402.992 406.28 403.819 407.8C404.646 409.32 405.059 411.12 405.059 413.2C405.059 415.28 404.646 417.093 403.819 418.64C402.992 420.16 401.832 421.333 400.339 422.16C398.846 422.987 397.086 423.4 395.059 423.4ZM395.059 419.6C396.552 419.6 397.752 419.067 398.659 418C399.566 416.907 400.019 415.307 400.019 413.2C400.019 411.067 399.566 409.48 398.659 408.44C397.752 407.373 396.552 406.84 395.059 406.84C393.566 406.84 392.366 407.373 391.459 408.44C390.552 409.48 390.099 411.067 390.099 413.2C390.099 415.307 390.552 416.907 391.459 418C392.366 419.067 393.566 419.6 395.059 419.6ZM416.266 423.4C414.639 423.4 413.293 423.107 412.226 422.52C411.159 421.907 410.359 421 409.826 419.8C409.319 418.6 409.066 417.107 409.066 415.32V403.44H414.066V415.4C414.066 416.307 414.186 417.067 414.426 417.68C414.693 418.293 415.079 418.747 415.586 419.04C416.119 419.333 416.786 419.48 417.586 419.48C418.493 419.48 419.279 419.28 419.946 418.88C420.639 418.453 421.173 417.867 421.546 417.12C421.946 416.347 422.146 415.453 422.146 414.44V403.44H427.146V423H422.266V418.92H422.826C422.266 420.36 421.413 421.467 420.266 422.24C419.146 423.013 417.813 423.4 416.266 423.4ZM432.35 423V403.44H437.23V408.16H436.83C437.203 406.56 437.937 405.347 439.03 404.52C440.123 403.667 441.577 403.173 443.39 403.04L444.91 402.92L445.23 407.16L442.35 407.44C440.723 407.6 439.497 408.107 438.67 408.96C437.843 409.787 437.43 410.96 437.43 412.48V423H432.35ZM466.315 423.4C464.609 423.4 463.102 422.987 461.795 422.16C460.515 421.333 459.515 420.16 458.795 418.64C458.075 417.093 457.715 415.28 457.715 413.2C457.715 411.093 458.075 409.293 458.795 407.8C459.515 406.28 460.515 405.107 461.795 404.28C463.102 403.453 464.609 403.04 466.315 403.04C467.942 403.04 469.355 403.44 470.555 404.24C471.782 405.04 472.609 406.093 473.035 407.4H472.595V394.8H477.595V423H472.715V418.84H473.075C472.675 420.227 471.862 421.333 470.635 422.16C469.409 422.987 467.969 423.4 466.315 423.4ZM467.715 419.6C469.209 419.6 470.409 419.067 471.315 418C472.222 416.907 472.675 415.307 472.675 413.2C472.675 411.067 472.222 409.48 471.315 408.44C470.409 407.373 469.209 406.84 467.715 406.84C466.222 406.84 465.022 407.373 464.115 408.44C463.209 409.48 462.755 411.067 462.755 413.2C462.755 415.307 463.209 416.907 464.115 418C465.022 419.067 466.222 419.6 467.715 419.6ZM492.42 423.4C490.206 423.4 488.3 422.987 486.7 422.16C485.1 421.333 483.86 420.16 482.98 418.64C482.126 417.12 481.7 415.32 481.7 413.24C481.7 411.213 482.113 409.44 482.94 407.92C483.793 406.4 484.953 405.213 486.42 404.36C487.913 403.48 489.606 403.04 491.5 403.04C493.366 403.04 494.966 403.44 496.3 404.24C497.633 405.04 498.66 406.173 499.38 407.64C500.126 409.107 500.5 410.853 500.5 412.88V414.36H485.74V411.48H496.98L496.34 412.08C496.34 410.267 495.94 408.88 495.14 407.92C494.34 406.933 493.193 406.44 491.7 406.44C490.58 406.44 489.62 406.707 488.82 407.24C488.046 407.747 487.446 408.48 487.02 409.44C486.62 410.373 486.42 411.493 486.42 412.8V413.08C486.42 414.547 486.646 415.76 487.1 416.72C487.553 417.68 488.233 418.4 489.14 418.88C490.046 419.36 491.166 419.6 492.5 419.6C493.593 419.6 494.686 419.44 495.78 419.12C496.873 418.773 497.873 418.24 498.78 417.52L500.18 420.88C499.246 421.653 498.073 422.267 496.66 422.72C495.246 423.173 493.833 423.4 492.42 423.4ZM511.619 423.4C510.526 423.4 509.459 423.307 508.419 423.12C507.406 422.933 506.473 422.68 505.619 422.36C504.766 422.013 504.019 421.587 503.379 421.08L504.659 417.8C505.326 418.227 506.046 418.6 506.819 418.92C507.593 419.24 508.393 419.48 509.219 419.64C510.046 419.8 510.859 419.88 511.659 419.88C512.939 419.88 513.886 419.667 514.499 419.24C515.139 418.787 515.459 418.2 515.459 417.48C515.459 416.867 515.246 416.4 514.819 416.08C514.419 415.733 513.806 415.48 512.979 415.32L508.979 414.56C507.326 414.24 506.059 413.64 505.179 412.76C504.326 411.853 503.899 410.693 503.899 409.28C503.899 408 504.246 406.893 504.939 405.96C505.659 405.027 506.646 404.307 507.899 403.8C509.153 403.293 510.593 403.04 512.219 403.04C513.153 403.04 514.059 403.133 514.939 403.32C515.819 403.48 516.646 403.733 517.419 404.08C518.219 404.4 518.913 404.827 519.499 405.36L518.139 408.64C517.633 408.213 517.046 407.853 516.379 407.56C515.713 407.24 515.019 407 514.299 406.84C513.606 406.653 512.926 406.56 512.259 406.56C510.953 406.56 509.979 406.787 509.339 407.24C508.726 407.693 508.419 408.293 508.419 409.04C508.419 409.6 508.606 410.067 508.979 410.44C509.353 410.813 509.926 411.067 510.699 411.2L514.699 411.96C516.433 412.28 517.739 412.867 518.619 413.72C519.526 414.573 519.979 415.72 519.979 417.16C519.979 418.467 519.633 419.587 518.939 420.52C518.246 421.453 517.273 422.173 516.019 422.68C514.766 423.16 513.299 423.4 511.619 423.4ZM523.671 399.24V394.36H529.271V399.24H523.671ZM523.991 423V403.44H528.991V423H523.991ZM543.306 430.6C541.493 430.6 539.786 430.387 538.186 429.96C536.613 429.56 535.226 428.933 534.026 428.08L535.466 424.6C536.213 425.08 536.999 425.48 537.826 425.8C538.653 426.147 539.493 426.4 540.346 426.56C541.199 426.72 542.053 426.8 542.906 426.8C544.693 426.8 546.026 426.36 546.906 425.48C547.813 424.627 548.266 423.347 548.266 421.64V418.04H548.626C548.226 419.4 547.386 420.493 546.106 421.32C544.853 422.12 543.426 422.52 541.826 422.52C540.066 422.52 538.533 422.12 537.226 421.32C535.919 420.493 534.906 419.347 534.186 417.88C533.466 416.413 533.106 414.707 533.106 412.76C533.106 410.813 533.466 409.12 534.186 407.68C534.906 406.213 535.919 405.08 537.226 404.28C538.533 403.453 540.066 403.04 541.826 403.04C543.479 403.04 544.919 403.453 546.146 404.28C547.399 405.08 548.213 406.147 548.586 407.48H548.266V403.44H553.146V421.04C553.146 423.147 552.773 424.907 552.026 426.32C551.279 427.76 550.173 428.827 548.706 429.52C547.239 430.24 545.439 430.6 543.306 430.6ZM543.186 418.72C544.733 418.72 545.959 418.187 546.866 417.12C547.773 416.053 548.226 414.6 548.226 412.76C548.226 410.92 547.773 409.48 546.866 408.44C545.959 407.373 544.733 406.84 543.186 406.84C541.639 406.84 540.413 407.373 539.506 408.44C538.599 409.48 538.146 410.92 538.146 412.76C538.146 414.6 538.599 416.053 539.506 417.12C540.413 418.187 541.639 418.72 543.186 418.72ZM558.327 423V403.44H563.207V407.36H562.767C563.353 405.947 564.26 404.88 565.487 404.16C566.74 403.413 568.153 403.04 569.727 403.04C571.3 403.04 572.593 403.333 573.607 403.92C574.62 404.507 575.38 405.4 575.887 406.6C576.393 407.773 576.647 409.267 576.647 411.08V423H571.647V411.32C571.647 410.307 571.513 409.48 571.247 408.84C571.007 408.2 570.62 407.733 570.087 407.44C569.58 407.12 568.927 406.96 568.127 406.96C567.167 406.96 566.327 407.173 565.607 407.6C564.887 408 564.327 408.587 563.927 409.36C563.527 410.107 563.327 410.987 563.327 412V423H558.327Z" fill="white"/>
<path d="M28.436 475V455.26H36.248C37.6667 455.26 38.8613 455.493 39.832 455.96C40.8213 456.408 41.568 457.08 42.072 457.976C42.576 458.853 42.828 459.927 42.828 461.196C42.828 462.428 42.576 463.492 42.072 464.388C41.568 465.284 40.8213 465.965 39.832 466.432C38.8613 466.899 37.6667 467.132 36.248 467.132H30.732V475H28.436ZM30.732 465.2H35.968C37.48 465.2 38.6187 464.864 39.384 464.192C40.168 463.501 40.56 462.503 40.56 461.196C40.56 459.871 40.168 458.872 39.384 458.2C38.6187 457.509 37.48 457.164 35.968 457.164H30.732V465.2ZM45.5733 475V461.392H47.7853V464.612H47.5053C47.8226 463.511 48.3733 462.68 49.1573 462.12C49.9413 461.541 50.9773 461.205 52.2653 461.112L53.0773 461.028L53.2453 462.988L51.8173 463.156C50.548 463.268 49.568 463.679 48.8773 464.388C48.2053 465.079 47.8693 466.031 47.8693 467.244V475H45.5733ZM61.1004 475.252C59.7751 475.252 58.6271 474.963 57.6564 474.384C56.6857 473.805 55.9297 472.993 55.3884 471.948C54.8657 470.884 54.6044 469.633 54.6044 468.196C54.6044 466.759 54.8657 465.517 55.3884 464.472C55.9297 463.408 56.6857 462.587 57.6564 462.008C58.6271 461.429 59.7751 461.14 61.1004 461.14C62.4257 461.14 63.5737 461.429 64.5444 462.008C65.5151 462.587 66.2617 463.408 66.7844 464.472C67.3257 465.517 67.5964 466.759 67.5964 468.196C67.5964 469.633 67.3257 470.884 66.7844 471.948C66.2617 472.993 65.5151 473.805 64.5444 474.384C63.5737 474.963 62.4257 475.252 61.1004 475.252ZM61.1004 473.432C62.3884 473.432 63.4057 472.984 64.1524 472.088C64.9177 471.173 65.3004 469.867 65.3004 468.168C65.3004 466.488 64.9177 465.2 64.1524 464.304C63.4057 463.408 62.3884 462.96 61.1004 462.96C59.8311 462.96 58.8137 463.408 58.0484 464.304C57.2831 465.2 56.9004 466.488 56.9004 468.168C56.9004 469.867 57.2831 471.173 58.0484 472.088C58.8137 472.984 59.8311 473.432 61.1004 473.432ZM76.3263 475.252C74.7209 475.252 73.5169 474.823 72.7143 473.964C71.9116 473.105 71.5103 471.883 71.5103 470.296V463.156H68.8503V461.392H71.5103V457.22H73.7783V461.392H78.0903V463.156H73.7783V470.072C73.7783 471.136 74.0023 471.948 74.4503 472.508C74.8983 473.049 75.6263 473.32 76.6343 473.32C76.9329 473.32 77.2316 473.283 77.5303 473.208C77.8289 473.133 78.0996 473.059 78.3423 472.984L78.7343 474.72C78.4916 474.851 78.1369 474.972 77.6703 475.084C77.2036 475.196 76.7556 475.252 76.3263 475.252ZM86.1746 475.252C84.8493 475.252 83.7013 474.963 82.7306 474.384C81.76 473.805 81.004 472.993 80.4626 471.948C79.94 470.884 79.6786 469.633 79.6786 468.196C79.6786 466.759 79.94 465.517 80.4626 464.472C81.004 463.408 81.76 462.587 82.7306 462.008C83.7013 461.429 84.8493 461.14 86.1746 461.14C87.5 461.14 88.648 461.429 89.6186 462.008C90.5893 462.587 91.336 463.408 91.8586 464.472C92.4 465.517 92.6706 466.759 92.6706 468.196C92.6706 469.633 92.4 470.884 91.8586 471.948C91.336 472.993 90.5893 473.805 89.6186 474.384C88.648 474.963 87.5 475.252 86.1746 475.252ZM86.1746 473.432C87.4626 473.432 88.48 472.984 89.2266 472.088C89.992 471.173 90.3746 469.867 90.3746 468.168C90.3746 466.488 89.992 465.2 89.2266 464.304C88.48 463.408 87.4626 462.96 86.1746 462.96C84.9053 462.96 83.888 463.408 83.1226 464.304C82.3573 465.2 81.9746 466.488 81.9746 468.168C81.9746 469.867 82.3573 471.173 83.1226 472.088C83.888 472.984 84.9053 473.432 86.1746 473.432ZM101.401 475.252C99.7952 475.252 98.5912 474.823 97.7885 473.964C96.9858 473.105 96.5845 471.883 96.5845 470.296V463.156H93.9245V461.392H96.5845V457.22H98.8525V461.392H103.165V463.156H98.8525V470.072C98.8525 471.136 99.0765 471.948 99.5245 472.508C99.9725 473.049 100.701 473.32 101.709 473.32C102.007 473.32 102.306 473.283 102.605 473.208C102.903 473.133 103.174 473.059 103.417 472.984L103.809 474.72C103.566 474.851 103.211 474.972 102.745 475.084C102.278 475.196 101.83 475.252 101.401 475.252ZM107.462 480.04L110.01 474.3V475.28L104.046 461.392H106.51L111.382 473.32H110.626L115.554 461.392H117.934L109.842 480.04H107.462ZM120.276 480.04V461.392H122.488V464.612H122.208C122.507 463.548 123.095 462.708 123.972 462.092C124.868 461.457 125.932 461.14 127.164 461.14C128.378 461.14 129.432 461.429 130.328 462.008C131.243 462.568 131.943 463.38 132.428 464.444C132.932 465.489 133.184 466.74 133.184 468.196C133.184 469.633 132.932 470.884 132.428 471.948C131.943 472.993 131.252 473.805 130.356 474.384C129.46 474.963 128.396 475.252 127.164 475.252C125.932 475.252 124.878 474.944 124 474.328C123.123 473.693 122.526 472.853 122.208 471.808H122.544V480.04H120.276ZM126.688 473.432C127.976 473.432 128.994 472.984 129.74 472.088C130.506 471.173 130.888 469.876 130.888 468.196C130.888 466.497 130.506 465.2 129.74 464.304C128.994 463.408 127.976 462.96 126.688 462.96C125.419 462.96 124.402 463.408 123.636 464.304C122.871 465.2 122.488 466.497 122.488 468.196C122.488 469.876 122.871 471.173 123.636 472.088C124.402 472.984 125.419 473.432 126.688 473.432ZM142.733 475.252C141.295 475.252 140.054 474.972 139.009 474.412C137.982 473.833 137.179 473.021 136.601 471.976C136.041 470.931 135.761 469.68 135.761 468.224C135.761 466.805 136.041 465.573 136.601 464.528C137.161 463.464 137.926 462.633 138.897 462.036C139.886 461.439 141.025 461.14 142.313 461.14C143.545 461.14 144.599 461.411 145.477 461.952C146.354 462.493 147.026 463.259 147.493 464.248C147.978 465.237 148.221 466.423 148.221 467.804V468.672H137.497V467.188H146.709L146.261 467.552C146.261 466.059 145.925 464.901 145.253 464.08C144.599 463.24 143.638 462.82 142.369 462.82C141.417 462.82 140.605 463.044 139.933 463.492C139.279 463.921 138.785 464.528 138.449 465.312C138.113 466.077 137.945 466.973 137.945 468V468.168C137.945 469.307 138.122 470.268 138.477 471.052C138.85 471.836 139.401 472.433 140.129 472.844C140.857 473.236 141.725 473.432 142.733 473.432C143.535 473.432 144.31 473.311 145.057 473.068C145.822 472.807 146.541 472.387 147.213 471.808L147.997 473.404C147.381 473.964 146.597 474.412 145.645 474.748C144.693 475.084 143.722 475.252 142.733 475.252ZM156.095 475.252C155.386 475.252 154.695 475.177 154.023 475.028C153.37 474.897 152.754 474.711 152.175 474.468C151.615 474.207 151.13 473.899 150.719 473.544L151.447 471.948C151.895 472.303 152.38 472.601 152.903 472.844C153.426 473.068 153.958 473.236 154.499 473.348C155.04 473.46 155.591 473.516 156.151 473.516C157.215 473.516 158.018 473.32 158.559 472.928C159.1 472.536 159.371 472.004 159.371 471.332C159.371 470.809 159.194 470.399 158.839 470.1C158.484 469.783 157.924 469.54 157.159 469.372L154.611 468.812C153.435 468.569 152.558 468.149 151.979 467.552C151.419 466.955 151.139 466.18 151.139 465.228C151.139 464.388 151.354 463.669 151.783 463.072C152.231 462.456 152.856 461.98 153.659 461.644C154.462 461.308 155.395 461.14 156.459 461.14C157.094 461.14 157.7 461.205 158.279 461.336C158.858 461.467 159.399 461.663 159.903 461.924C160.426 462.167 160.874 462.475 161.247 462.848L160.491 464.444C160.136 464.108 159.735 463.828 159.287 463.604C158.839 463.361 158.372 463.184 157.887 463.072C157.42 462.941 156.944 462.876 156.459 462.876C155.414 462.876 154.62 463.081 154.079 463.492C153.538 463.903 153.267 464.444 153.267 465.116C153.267 465.639 153.435 466.068 153.771 466.404C154.107 466.74 154.63 466.983 155.339 467.132L157.887 467.664C159.1 467.925 160.006 468.345 160.603 468.924C161.219 469.484 161.527 470.249 161.527 471.22C161.527 472.041 161.303 472.76 160.855 473.376C160.407 473.973 159.772 474.44 158.951 474.776C158.148 475.093 157.196 475.252 156.095 475.252ZM176.459 475.252C175.526 475.252 174.686 475.075 173.939 474.72C173.211 474.347 172.632 473.843 172.203 473.208C171.774 472.573 171.559 471.864 171.559 471.08C171.559 470.072 171.811 469.279 172.315 468.7C172.838 468.121 173.687 467.711 174.863 467.468C176.058 467.225 177.682 467.104 179.735 467.104H180.995V468.588H179.763C178.624 468.588 177.672 468.625 176.907 468.7C176.142 468.775 175.535 468.905 175.087 469.092C174.639 469.279 174.322 469.521 174.135 469.82C173.948 470.119 173.855 470.492 173.855 470.94C173.855 471.705 174.116 472.331 174.639 472.816C175.18 473.301 175.908 473.544 176.823 473.544C177.57 473.544 178.223 473.367 178.783 473.012C179.362 472.657 179.81 472.172 180.127 471.556C180.463 470.94 180.631 470.231 180.631 469.428V466.236C180.631 465.079 180.398 464.248 179.931 463.744C179.464 463.221 178.699 462.96 177.635 462.96C176.814 462.96 176.02 463.081 175.255 463.324C174.49 463.548 173.706 463.921 172.903 464.444L172.119 462.792C172.604 462.456 173.155 462.167 173.771 461.924C174.387 461.663 175.031 461.467 175.703 461.336C176.375 461.205 177.019 461.14 177.635 461.14C178.811 461.14 179.782 461.336 180.547 461.728C181.312 462.101 181.882 462.68 182.255 463.464C182.628 464.229 182.815 465.219 182.815 466.432V475H180.687V471.836H180.939C180.79 472.545 180.5 473.152 180.071 473.656C179.66 474.16 179.147 474.552 178.531 474.832C177.915 475.112 177.224 475.252 176.459 475.252ZM192.203 475.252C190.989 475.252 189.925 474.963 189.011 474.384C188.115 473.805 187.415 472.993 186.911 471.948C186.425 470.884 186.183 469.633 186.183 468.196C186.183 466.74 186.425 465.489 186.911 464.444C187.415 463.38 188.115 462.568 189.011 462.008C189.925 461.429 190.989 461.14 192.203 461.14C193.435 461.14 194.489 461.448 195.367 462.064C196.244 462.68 196.832 463.511 197.131 464.556H196.823V455.26H199.091V475H196.879V471.752H197.159C196.86 472.816 196.263 473.665 195.367 474.3C194.489 474.935 193.435 475.252 192.203 475.252ZM192.679 473.432C193.967 473.432 194.984 472.984 195.731 472.088C196.496 471.173 196.879 469.876 196.879 468.196C196.879 466.497 196.496 465.2 195.731 464.304C194.984 463.408 193.967 462.96 192.679 462.96C191.409 462.96 190.392 463.408 189.627 464.304C188.861 465.2 188.479 466.497 188.479 468.196C188.479 469.876 188.861 471.173 189.627 472.088C190.392 472.984 191.409 473.432 192.679 473.432ZM203.347 475V455.26H205.615V464.416H205.251C205.643 463.333 206.277 462.521 207.155 461.98C208.051 461.42 209.077 461.14 210.235 461.14C211.317 461.14 212.213 461.336 212.923 461.728C213.651 462.12 214.192 462.717 214.547 463.52C214.901 464.304 215.079 465.303 215.079 466.516V475H212.811V466.656C212.811 465.816 212.699 465.125 212.475 464.584C212.269 464.043 211.933 463.641 211.467 463.38C211.019 463.119 210.431 462.988 209.703 462.988C208.881 462.988 208.163 463.165 207.547 463.52C206.931 463.875 206.455 464.369 206.119 465.004C205.783 465.639 205.615 466.385 205.615 467.244V475H203.347ZM225.393 475.252C223.955 475.252 222.714 474.972 221.669 474.412C220.642 473.833 219.839 473.021 219.261 471.976C218.701 470.931 218.421 469.68 218.421 468.224C218.421 466.805 218.701 465.573 219.261 464.528C219.821 463.464 220.586 462.633 221.557 462.036C222.546 461.439 223.685 461.14 224.973 461.14C226.205 461.14 227.259 461.411 228.137 461.952C229.014 462.493 229.686 463.259 230.153 464.248C230.638 465.237 230.881 466.423 230.881 467.804V468.672H220.157V467.188H229.369L228.921 467.552C228.921 466.059 228.585 464.901 227.913 464.08C227.259 463.24 226.298 462.82 225.029 462.82C224.077 462.82 223.265 463.044 222.593 463.492C221.939 463.921 221.445 464.528 221.109 465.312C220.773 466.077 220.605 466.973 220.605 468V468.168C220.605 469.307 220.782 470.268 221.137 471.052C221.51 471.836 222.061 472.433 222.789 472.844C223.517 473.236 224.385 473.432 225.393 473.432C226.195 473.432 226.97 473.311 227.717 473.068C228.482 472.807 229.201 472.387 229.873 471.808L230.657 473.404C230.041 473.964 229.257 474.412 228.305 474.748C227.353 475.084 226.382 475.252 225.393 475.252ZM234.163 475V461.392H236.375V464.612H236.095C236.412 463.511 236.963 462.68 237.747 462.12C238.531 461.541 239.567 461.205 240.855 461.112L241.667 461.028L241.835 462.988L240.407 463.156C239.138 463.268 238.158 463.679 237.467 464.388C236.795 465.079 236.459 466.031 236.459 467.244V475H234.163ZM250.166 475.252C248.729 475.252 247.488 474.972 246.442 474.412C245.416 473.833 244.613 473.021 244.034 471.976C243.474 470.931 243.194 469.68 243.194 468.224C243.194 466.805 243.474 465.573 244.034 464.528C244.594 463.464 245.36 462.633 246.33 462.036C247.32 461.439 248.458 461.14 249.746 461.14C250.978 461.14 252.033 461.411 252.91 461.952C253.788 462.493 254.46 463.259 254.926 464.248C255.412 465.237 255.654 466.423 255.654 467.804V468.672H244.93V467.188H254.142L253.694 467.552C253.694 466.059 253.358 464.901 252.686 464.08C252.033 463.24 251.072 462.82 249.802 462.82C248.85 462.82 248.038 463.044 247.366 463.492C246.713 463.921 246.218 464.528 245.882 465.312C245.546 466.077 245.378 466.973 245.378 468V468.168C245.378 469.307 245.556 470.268 245.91 471.052C246.284 471.836 246.834 472.433 247.562 472.844C248.29 473.236 249.158 473.432 250.166 473.432C250.969 473.432 251.744 473.311 252.49 473.068C253.256 472.807 253.974 472.387 254.646 471.808L255.43 473.404C254.814 473.964 254.03 474.412 253.078 474.748C252.126 475.084 251.156 475.252 250.166 475.252ZM271.588 475.252C269.983 475.252 268.779 474.823 267.976 473.964C267.173 473.105 266.772 471.883 266.772 470.296V463.156H264.112V461.392H266.772V457.22H269.04V461.392H273.352V463.156H269.04V470.072C269.04 471.136 269.264 471.948 269.712 472.508C270.16 473.049 270.888 473.32 271.896 473.32C272.195 473.32 272.493 473.283 272.792 473.208C273.091 473.133 273.361 473.059 273.604 472.984L273.996 474.72C273.753 474.851 273.399 474.972 272.932 475.084C272.465 475.196 272.017 475.252 271.588 475.252ZM281.436 475.252C280.111 475.252 278.963 474.963 277.992 474.384C277.022 473.805 276.266 472.993 275.724 471.948C275.202 470.884 274.94 469.633 274.94 468.196C274.94 466.759 275.202 465.517 275.724 464.472C276.266 463.408 277.022 462.587 277.992 462.008C278.963 461.429 280.111 461.14 281.436 461.14C282.762 461.14 283.91 461.429 284.88 462.008C285.851 462.587 286.598 463.408 287.12 464.472C287.662 465.517 287.932 466.759 287.932 468.196C287.932 469.633 287.662 470.884 287.12 471.948C286.598 472.993 285.851 473.805 284.88 474.384C283.91 474.963 282.762 475.252 281.436 475.252ZM281.436 473.432C282.724 473.432 283.742 472.984 284.488 472.088C285.254 471.173 285.636 469.867 285.636 468.168C285.636 466.488 285.254 465.2 284.488 464.304C283.742 463.408 282.724 462.96 281.436 462.96C280.167 462.96 279.15 463.408 278.384 464.304C277.619 465.2 277.236 466.488 277.236 468.168C277.236 469.867 277.619 471.173 278.384 472.088C279.15 472.984 280.167 473.432 281.436 473.432ZM303.99 475.252C302.385 475.252 301.181 474.823 300.378 473.964C299.576 473.105 299.174 471.883 299.174 470.296V463.156H296.514V461.392H299.174V457.22H301.442V461.392H305.754V463.156H301.442V470.072C301.442 471.136 301.666 471.948 302.114 472.508C302.562 473.049 303.29 473.32 304.298 473.32C304.597 473.32 304.896 473.283 305.194 473.208C305.493 473.133 305.764 473.059 306.006 472.984L306.398 474.72C306.156 474.851 305.801 474.972 305.334 475.084C304.868 475.196 304.42 475.252 303.99 475.252ZM308.319 475V455.26H310.587V464.416H310.223C310.615 463.333 311.25 462.521 312.127 461.98C313.023 461.42 314.05 461.14 315.207 461.14C316.29 461.14 317.186 461.336 317.895 461.728C318.623 462.12 319.165 462.717 319.519 463.52C319.874 464.304 320.051 465.303 320.051 466.516V475H317.783V466.656C317.783 465.816 317.671 465.125 317.447 464.584C317.242 464.043 316.906 463.641 316.439 463.38C315.991 463.119 315.403 462.988 314.675 462.988C313.854 462.988 313.135 463.165 312.519 463.52C311.903 463.875 311.427 464.369 311.091 465.004C310.755 465.639 310.587 466.385 310.587 467.244V475H308.319ZM330.365 475.252C328.928 475.252 327.687 474.972 326.641 474.412C325.615 473.833 324.812 473.021 324.233 471.976C323.673 470.931 323.393 469.68 323.393 468.224C323.393 466.805 323.673 465.573 324.233 464.528C324.793 463.464 325.559 462.633 326.529 462.036C327.519 461.439 328.657 461.14 329.945 461.14C331.177 461.14 332.232 461.411 333.109 461.952C333.987 462.493 334.659 463.259 335.125 464.248C335.611 465.237 335.853 466.423 335.853 467.804V468.672H325.129V467.188H334.341L333.893 467.552C333.893 466.059 333.557 464.901 332.885 464.08C332.232 463.24 331.271 462.82 330.001 462.82C329.049 462.82 328.237 463.044 327.565 463.492C326.912 463.921 326.417 464.528 326.081 465.312C325.745 466.077 325.577 466.973 325.577 468V468.168C325.577 469.307 325.755 470.268 326.109 471.052C326.483 471.836 327.033 472.433 327.761 472.844C328.489 473.236 329.357 473.432 330.365 473.432C331.168 473.432 331.943 473.311 332.689 473.068C333.455 472.807 334.173 472.387 334.845 471.808L335.629 473.404C335.013 473.964 334.229 474.412 333.277 474.748C332.325 475.084 331.355 475.252 330.365 475.252ZM346.327 475V461.392H348.539V464.612H348.259C348.577 463.511 349.127 462.68 349.911 462.12C350.695 461.541 351.731 461.205 353.019 461.112L353.831 461.028L353.999 462.988L352.571 463.156C351.302 463.268 350.322 463.679 349.631 464.388C348.959 465.079 348.623 466.031 348.623 467.244V475H346.327ZM362.33 475.252C360.893 475.252 359.652 474.972 358.606 474.412C357.58 473.833 356.777 473.021 356.198 471.976C355.638 470.931 355.358 469.68 355.358 468.224C355.358 466.805 355.638 465.573 356.198 464.528C356.758 463.464 357.524 462.633 358.494 462.036C359.484 461.439 360.622 461.14 361.91 461.14C363.142 461.14 364.197 461.411 365.074 461.952C365.952 462.493 366.624 463.259 367.09 464.248C367.576 465.237 367.818 466.423 367.818 467.804V468.672H357.094V467.188H366.306L365.858 467.552C365.858 466.059 365.522 464.901 364.85 464.08C364.197 463.24 363.236 462.82 361.966 462.82C361.014 462.82 360.202 463.044 359.53 463.492C358.877 463.921 358.382 464.528 358.046 465.312C357.71 466.077 357.542 466.973 357.542 468V468.168C357.542 469.307 357.72 470.268 358.074 471.052C358.448 471.836 358.998 472.433 359.726 472.844C360.454 473.236 361.322 473.432 362.33 473.432C363.133 473.432 363.908 473.311 364.654 473.068C365.42 472.807 366.138 472.387 366.81 471.808L367.594 473.404C366.978 473.964 366.194 474.412 365.242 474.748C364.29 475.084 363.32 475.252 362.33 475.252ZM380.901 480.04V471.808H381.209C380.91 472.853 380.322 473.693 379.445 474.328C378.567 474.944 377.513 475.252 376.281 475.252C375.067 475.252 374.003 474.963 373.089 474.384C372.193 473.805 371.493 472.993 370.989 471.948C370.503 470.884 370.261 469.633 370.261 468.196C370.261 466.74 370.503 465.489 370.989 464.444C371.493 463.38 372.193 462.568 373.089 462.008C374.003 461.429 375.067 461.14 376.281 461.14C377.513 461.14 378.567 461.457 379.445 462.092C380.341 462.708 380.938 463.548 381.237 464.612H380.957V461.392H383.169V480.04H380.901ZM376.757 473.432C378.045 473.432 379.062 472.984 379.809 472.088C380.574 471.173 380.957 469.876 380.957 468.196C380.957 466.497 380.574 465.2 379.809 464.304C379.062 463.408 378.045 462.96 376.757 462.96C375.487 462.96 374.47 463.408 373.705 464.304C372.939 465.2 372.557 466.497 372.557 468.196C372.557 469.876 372.939 471.173 373.705 472.088C374.47 472.984 375.487 473.432 376.757 473.432ZM392.241 475.252C391.14 475.252 390.225 475.056 389.497 474.664C388.788 474.253 388.246 473.647 387.873 472.844C387.518 472.041 387.341 471.043 387.341 469.848V461.392H389.609V469.82C389.609 470.623 389.712 471.295 389.917 471.836C390.141 472.359 390.486 472.751 390.953 473.012C391.42 473.255 391.998 473.376 392.689 473.376C393.473 473.376 394.154 473.199 394.733 472.844C395.312 472.489 395.769 471.995 396.105 471.36C396.441 470.725 396.609 469.979 396.609 469.12V461.392H398.877V475H396.665V471.864H397.029C396.656 472.965 396.04 473.805 395.181 474.384C394.341 474.963 393.361 475.252 392.241 475.252ZM402.84 458.004V455.456H405.64V458.004H402.84ZM403.12 475V461.392H405.388V475H403.12ZM409.628 475V461.392H411.84V464.612H411.56C411.877 463.511 412.428 462.68 413.212 462.12C413.996 461.541 415.032 461.205 416.32 461.112L417.132 461.028L417.3 462.988L415.872 463.156C414.603 463.268 413.623 463.679 412.932 464.388C412.26 465.079 411.924 466.031 411.924 467.244V475H409.628ZM425.631 475.252C424.194 475.252 422.952 474.972 421.907 474.412C420.88 473.833 420.078 473.021 419.499 471.976C418.939 470.931 418.659 469.68 418.659 468.224C418.659 466.805 418.939 465.573 419.499 464.528C420.059 463.464 420.824 462.633 421.795 462.036C422.784 461.439 423.923 461.14 425.211 461.14C426.443 461.14 427.498 461.411 428.375 461.952C429.252 462.493 429.924 463.259 430.391 464.248C430.876 465.237 431.119 466.423 431.119 467.804V468.672H420.395V467.188H429.607L429.159 467.552C429.159 466.059 428.823 464.901 428.151 464.08C427.498 463.24 426.536 462.82 425.267 462.82C424.315 462.82 423.503 463.044 422.831 463.492C422.178 463.921 421.683 464.528 421.347 465.312C421.011 466.077 420.843 466.973 420.843 468V468.168C420.843 469.307 421.02 470.268 421.375 471.052C421.748 471.836 422.299 472.433 423.027 472.844C423.755 473.236 424.623 473.432 425.631 473.432C426.434 473.432 427.208 473.311 427.955 473.068C428.72 472.807 429.439 472.387 430.111 471.808L430.895 473.404C430.279 473.964 429.495 474.412 428.543 474.748C427.591 475.084 426.62 475.252 425.631 475.252ZM434.457 475V461.392H436.669V464.416H436.361C436.585 463.725 436.912 463.137 437.341 462.652C437.789 462.148 438.312 461.775 438.909 461.532C439.525 461.271 440.197 461.14 440.925 461.14C442.083 461.14 443.016 461.42 443.725 461.98C444.453 462.521 444.939 463.371 445.181 464.528H444.761C445.097 463.483 445.695 462.661 446.553 462.064C447.431 461.448 448.448 461.14 449.605 461.14C450.632 461.14 451.472 461.336 452.125 461.728C452.797 462.12 453.301 462.717 453.637 463.52C453.973 464.304 454.141 465.303 454.141 466.516V475H451.873V466.628C451.873 465.377 451.659 464.463 451.229 463.884C450.8 463.287 450.072 462.988 449.045 462.988C448.317 462.988 447.673 463.165 447.113 463.52C446.572 463.875 446.152 464.379 445.853 465.032C445.573 465.667 445.433 466.423 445.433 467.3V475H443.165V466.628C443.165 465.377 442.941 464.463 442.493 463.884C442.064 463.287 441.345 462.988 440.337 462.988C439.591 462.988 438.947 463.165 438.405 463.52C437.864 463.875 437.444 464.379 437.145 465.032C436.865 465.667 436.725 466.423 436.725 467.3V475H434.457ZM464.514 475.252C463.077 475.252 461.835 474.972 460.79 474.412C459.763 473.833 458.961 473.021 458.382 471.976C457.822 470.931 457.542 469.68 457.542 468.224C457.542 466.805 457.822 465.573 458.382 464.528C458.942 463.464 459.707 462.633 460.678 462.036C461.667 461.439 462.806 461.14 464.094 461.14C465.326 461.14 466.381 461.411 467.258 461.952C468.135 462.493 468.807 463.259 469.274 464.248C469.759 465.237 470.002 466.423 470.002 467.804V468.672H459.278V467.188H468.49L468.042 467.552C468.042 466.059 467.706 464.901 467.034 464.08C466.381 463.24 465.419 462.82 464.15 462.82C463.198 462.82 462.386 463.044 461.714 463.492C461.061 463.921 460.566 464.528 460.23 465.312C459.894 466.077 459.726 466.973 459.726 468V468.168C459.726 469.307 459.903 470.268 460.258 471.052C460.631 471.836 461.182 472.433 461.91 472.844C462.638 473.236 463.506 473.432 464.514 473.432C465.317 473.432 466.091 473.311 466.838 473.068C467.603 472.807 468.322 472.387 468.994 471.808L469.778 473.404C469.162 473.964 468.378 474.412 467.426 474.748C466.474 475.084 465.503 475.252 464.514 475.252ZM473.284 475V461.392H475.496V464.416H475.188C475.58 463.333 476.215 462.521 477.092 461.98C477.988 461.42 479.015 461.14 480.172 461.14C481.255 461.14 482.151 461.336 482.86 461.728C483.588 462.101 484.13 462.689 484.484 463.492C484.839 464.295 485.016 465.303 485.016 466.516V475H482.748V466.656C482.748 465.816 482.636 465.125 482.412 464.584C482.207 464.043 481.871 463.641 481.404 463.38C480.956 463.119 480.368 462.988 479.64 462.988C478.819 462.988 478.1 463.165 477.484 463.52C476.868 463.875 476.392 464.369 476.056 465.004C475.72 465.639 475.552 466.385 475.552 467.244V475H473.284ZM494.658 475.252C493.053 475.252 491.849 474.823 491.046 473.964C490.244 473.105 489.842 471.883 489.842 470.296V463.156H487.182V461.392H489.842V457.22H492.11V461.392H496.422V463.156H492.11V470.072C492.11 471.136 492.334 471.948 492.782 472.508C493.23 473.049 493.958 473.32 494.966 473.32C495.265 473.32 495.564 473.283 495.862 473.208C496.161 473.133 496.432 473.059 496.674 472.984L497.066 474.72C496.824 474.851 496.469 474.972 496.002 475.084C495.536 475.196 495.088 475.252 494.658 475.252ZM503.579 475.252C502.87 475.252 502.179 475.177 501.507 475.028C500.854 474.897 500.238 474.711 499.659 474.468C499.099 474.207 498.614 473.899 498.203 473.544L498.931 471.948C499.379 472.303 499.865 472.601 500.387 472.844C500.91 473.068 501.442 473.236 501.983 473.348C502.525 473.46 503.075 473.516 503.635 473.516C504.699 473.516 505.502 473.32 506.043 472.928C506.585 472.536 506.855 472.004 506.855 471.332C506.855 470.809 506.678 470.399 506.323 470.1C505.969 469.783 505.409 469.54 504.643 469.372L502.095 468.812C500.919 468.569 500.042 468.149 499.463 467.552C498.903 466.955 498.623 466.18 498.623 465.228C498.623 464.388 498.838 463.669 499.267 463.072C499.715 462.456 500.341 461.98 501.143 461.644C501.946 461.308 502.879 461.14 503.943 461.14C504.578 461.14 505.185 461.205 505.763 461.336C506.342 461.467 506.883 461.663 507.387 461.924C507.91 462.167 508.358 462.475 508.731 462.848L507.975 464.444C507.621 464.108 507.219 463.828 506.771 463.604C506.323 463.361 505.857 463.184 505.371 463.072C504.905 462.941 504.429 462.876 503.943 462.876C502.898 462.876 502.105 463.081 501.563 463.492C501.022 463.903 500.751 464.444 500.751 465.116C500.751 465.639 500.919 466.068 501.255 466.404C501.591 466.74 502.114 466.983 502.823 467.132L505.371 467.664C506.585 467.925 507.49 468.345 508.087 468.924C508.703 469.484 509.011 470.249 509.011 471.22C509.011 472.041 508.787 472.76 508.339 473.376C507.891 473.973 507.257 474.44 506.435 474.776C505.633 475.093 504.681 475.252 503.579 475.252ZM525.315 475.252C523.99 475.252 522.842 474.963 521.871 474.384C520.901 473.805 520.145 472.993 519.603 471.948C519.081 470.884 518.819 469.633 518.819 468.196C518.819 466.759 519.081 465.517 519.603 464.472C520.145 463.408 520.901 462.587 521.871 462.008C522.842 461.429 523.99 461.14 525.315 461.14C526.641 461.14 527.789 461.429 528.759 462.008C529.73 462.587 530.477 463.408 530.999 464.472C531.541 465.517 531.811 466.759 531.811 468.196C531.811 469.633 531.541 470.884 530.999 471.948C530.477 472.993 529.73 473.805 528.759 474.384C527.789 474.963 526.641 475.252 525.315 475.252ZM525.315 473.432C526.603 473.432 527.621 472.984 528.367 472.088C529.133 471.173 529.515 469.867 529.515 468.168C529.515 466.488 529.133 465.2 528.367 464.304C527.621 463.408 526.603 462.96 525.315 462.96C524.046 462.96 523.029 463.408 522.263 464.304C521.498 465.2 521.115 466.488 521.115 468.168C521.115 469.867 521.498 471.173 522.263 472.088C523.029 472.984 524.046 473.432 525.315 473.432ZM535.809 475V463.156H533.121V461.392H536.425L535.809 461.98V460.916C535.809 459.105 536.257 457.733 537.153 456.8C538.068 455.867 539.468 455.344 541.353 455.232L542.445 455.176L542.641 456.912L541.353 456.996C540.588 457.052 539.962 457.22 539.477 457.5C538.992 457.78 538.637 458.181 538.413 458.704C538.189 459.227 538.077 459.871 538.077 460.636V461.812L537.741 461.392H541.997V463.156H538.077V475H535.809ZM553.165 480.04L555.713 474.3V475.28L549.749 461.392H552.213L557.085 473.32H556.329L561.257 461.392H563.637L555.545 480.04H553.165ZM571.444 475.252C570.119 475.252 568.971 474.963 568 474.384C567.029 473.805 566.273 472.993 565.732 471.948C565.209 470.884 564.948 469.633 564.948 468.196C564.948 466.759 565.209 465.517 565.732 464.472C566.273 463.408 567.029 462.587 568 462.008C568.971 461.429 570.119 461.14 571.444 461.14C572.769 461.14 573.917 461.429 574.888 462.008C575.859 462.587 576.605 463.408 577.128 464.472C577.669 465.517 577.94 466.759 577.94 468.196C577.94 469.633 577.669 470.884 577.128 471.948C576.605 472.993 575.859 473.805 574.888 474.384C573.917 474.963 572.769 475.252 571.444 475.252ZM571.444 473.432C572.732 473.432 573.749 472.984 574.496 472.088C575.261 471.173 575.644 469.867 575.644 468.168C575.644 466.488 575.261 465.2 574.496 464.304C573.749 463.408 572.732 462.96 571.444 462.96C570.175 462.96 569.157 463.408 568.392 464.304C567.627 465.2 567.244 466.488 567.244 468.168C567.244 469.867 567.627 471.173 568.392 472.088C569.157 472.984 570.175 473.432 571.444 473.432ZM586.163 475.252C585.061 475.252 584.147 475.056 583.419 474.664C582.709 474.253 582.168 473.647 581.795 472.844C581.44 472.041 581.263 471.043 581.263 469.848V461.392H583.531V469.82C583.531 470.623 583.633 471.295 583.839 471.836C584.063 472.359 584.408 472.751 584.875 473.012C585.341 473.255 585.92 473.376 586.611 473.376C587.395 473.376 588.076 473.199 588.655 472.844C589.233 472.489 589.691 471.995 590.027 471.36C590.363 470.725 590.531 469.979 590.531 469.12V461.392H592.799V475H590.587V471.864H590.951C590.577 472.965 589.961 473.805 589.103 474.384C588.263 474.963 587.283 475.252 586.163 475.252ZM597.042 475V461.392H599.254V464.612H598.974C599.291 463.511 599.842 462.68 600.626 462.12C601.41 461.541 602.446 461.205 603.734 461.112L604.546 461.028L604.714 462.988L603.286 463.156C602.017 463.268 601.037 463.679 600.346 464.388C599.674 465.079 599.338 466.031 599.338 467.244V475H597.042ZM619.449 475.252C618.235 475.252 617.171 474.963 616.257 474.384C615.361 473.805 614.661 472.993 614.157 471.948C613.671 470.884 613.429 469.633 613.429 468.196C613.429 466.74 613.671 465.489 614.157 464.444C614.661 463.38 615.361 462.568 616.257 462.008C617.171 461.429 618.235 461.14 619.449 461.14C620.681 461.14 621.735 461.448 622.613 462.064C623.49 462.68 624.078 463.511 624.377 464.556H624.069V455.26H626.337V475H624.125V471.752H624.405C624.106 472.816 623.509 473.665 622.613 474.3C621.735 474.935 620.681 475.252 619.449 475.252ZM619.925 473.432C621.213 473.432 622.23 472.984 622.977 472.088C623.742 471.173 624.125 469.876 624.125 468.196C624.125 466.497 623.742 465.2 622.977 464.304C622.23 463.408 621.213 462.96 619.925 462.96C618.655 462.96 617.638 463.408 616.873 464.304C616.107 465.2 615.725 466.497 615.725 468.196C615.725 469.876 616.107 471.173 616.873 472.088C617.638 472.984 618.655 473.432 619.925 473.432ZM636.725 475.252C635.288 475.252 634.046 474.972 633.001 474.412C631.974 473.833 631.172 473.021 630.593 471.976C630.033 470.931 629.753 469.68 629.753 468.224C629.753 466.805 630.033 465.573 630.593 464.528C631.153 463.464 631.918 462.633 632.889 462.036C633.878 461.439 635.017 461.14 636.305 461.14C637.537 461.14 638.592 461.411 639.469 461.952C640.346 462.493 641.018 463.259 641.485 464.248C641.97 465.237 642.213 466.423 642.213 467.804V468.672H631.489V467.188H640.701L640.253 467.552C640.253 466.059 639.917 464.901 639.245 464.08C638.592 463.24 637.63 462.82 636.361 462.82C635.409 462.82 634.597 463.044 633.925 463.492C633.272 463.921 632.777 464.528 632.441 465.312C632.105 466.077 631.937 466.973 631.937 468V468.168C631.937 469.307 632.114 470.268 632.469 471.052C632.842 471.836 633.393 472.433 634.121 472.844C634.849 473.236 635.717 473.432 636.725 473.432C637.528 473.432 638.302 473.311 639.049 473.068C639.814 472.807 640.533 472.387 641.205 471.808L641.989 473.404C641.373 473.964 640.589 474.412 639.637 474.748C638.685 475.084 637.714 475.252 636.725 475.252ZM650.087 475.252C649.378 475.252 648.687 475.177 648.015 475.028C647.362 474.897 646.746 474.711 646.167 474.468C645.607 474.207 645.122 473.899 644.711 473.544L645.439 471.948C645.887 472.303 646.373 472.601 646.895 472.844C647.418 473.068 647.95 473.236 648.491 473.348C649.033 473.46 649.583 473.516 650.143 473.516C651.207 473.516 652.01 473.32 652.551 472.928C653.093 472.536 653.363 472.004 653.363 471.332C653.363 470.809 653.186 470.399 652.831 470.1C652.477 469.783 651.917 469.54 651.151 469.372L648.603 468.812C647.427 468.569 646.55 468.149 645.971 467.552C645.411 466.955 645.131 466.18 645.131 465.228C645.131 464.388 645.346 463.669 645.775 463.072C646.223 462.456 646.849 461.98 647.651 461.644C648.454 461.308 649.387 461.14 650.451 461.14C651.086 461.14 651.693 461.205 652.271 461.336C652.85 461.467 653.391 461.663 653.895 461.924C654.418 462.167 654.866 462.475 655.239 462.848L654.483 464.444C654.129 464.108 653.727 463.828 653.279 463.604C652.831 463.361 652.365 463.184 651.879 463.072C651.413 462.941 650.937 462.876 650.451 462.876C649.406 462.876 648.613 463.081 648.071 463.492C647.53 463.903 647.259 464.444 647.259 465.116C647.259 465.639 647.427 466.068 647.763 466.404C648.099 466.74 648.622 466.983 649.331 467.132L651.879 467.664C653.093 467.925 653.998 468.345 654.595 468.924C655.211 469.484 655.519 470.249 655.519 471.22C655.519 472.041 655.295 472.76 654.847 473.376C654.399 473.973 653.765 474.44 652.943 474.776C652.141 475.093 651.189 475.252 650.087 475.252ZM658.696 458.004V455.456H661.496V458.004H658.696ZM658.976 475V461.392H661.244V475H658.976ZM671.503 480.292C670.327 480.292 669.217 480.133 668.171 479.816C667.145 479.517 666.23 479.06 665.427 478.444L666.183 476.792C666.743 477.184 667.294 477.501 667.835 477.744C668.395 478.005 668.965 478.192 669.543 478.304C670.141 478.416 670.757 478.472 671.391 478.472C672.717 478.472 673.715 478.117 674.387 477.408C675.078 476.699 675.423 475.672 675.423 474.328V471.164H675.703C675.423 472.247 674.826 473.105 673.911 473.74C673.015 474.375 671.961 474.692 670.747 474.692C669.497 474.692 668.414 474.412 667.499 473.852C666.585 473.273 665.875 472.471 665.371 471.444C664.886 470.417 664.643 469.232 664.643 467.888C664.643 466.544 664.886 465.368 665.371 464.36C665.875 463.333 666.585 462.54 667.499 461.98C668.414 461.42 669.497 461.14 670.747 461.14C671.979 461.14 673.043 461.457 673.939 462.092C674.835 462.708 675.414 463.548 675.675 464.612H675.423V461.392H677.635V474.02C677.635 475.401 677.402 476.559 676.935 477.492C676.487 478.425 675.806 479.125 674.891 479.592C673.977 480.059 672.847 480.292 671.503 480.292ZM671.167 472.844C672.474 472.844 673.51 472.396 674.275 471.5C675.041 470.604 675.423 469.4 675.423 467.888C675.423 466.376 675.041 465.181 674.275 464.304C673.51 463.408 672.474 462.96 671.167 462.96C669.879 462.96 668.853 463.408 668.087 464.304C667.322 465.181 666.939 466.376 666.939 467.888C666.939 469.4 667.322 470.604 668.087 471.5C668.853 472.396 669.879 472.844 671.167 472.844ZM681.89 475V461.392H684.102V464.416H683.794C684.186 463.333 684.82 462.521 685.698 461.98C686.594 461.42 687.62 461.14 688.778 461.14C689.86 461.14 690.756 461.336 691.466 461.728C692.194 462.101 692.735 462.689 693.09 463.492C693.444 464.295 693.622 465.303 693.622 466.516V475H691.354V466.656C691.354 465.816 691.242 465.125 691.018 464.584C690.812 464.043 690.476 463.641 690.01 463.38C689.562 463.119 688.974 462.988 688.246 462.988C687.424 462.988 686.706 463.165 686.09 463.52C685.474 463.875 684.998 464.369 684.662 465.004C684.326 465.639 684.158 466.385 684.158 467.244V475H681.89ZM698.616 478.192L697.552 477.38C697.888 477.025 698.14 476.689 698.308 476.372C698.494 476.073 698.616 475.765 698.672 475.448C698.746 475.149 698.784 474.841 698.784 474.524L699.288 475H697.44V472.144H700.296V474.16C700.296 474.664 700.24 475.14 700.128 475.588C700.034 476.055 699.866 476.503 699.624 476.932C699.381 477.361 699.045 477.781 698.616 478.192ZM34.26 513.252C32.8227 513.252 31.5813 512.972 30.536 512.412C29.5093 511.833 28.7067 511.021 28.128 509.976C27.568 508.931 27.288 507.68 27.288 506.224C27.288 504.805 27.568 503.573 28.128 502.528C28.688 501.464 29.4533 500.633 30.424 500.036C31.4133 499.439 32.552 499.14 33.84 499.14C35.072 499.14 36.1267 499.411 37.004 499.952C37.8813 500.493 38.5533 501.259 39.02 502.248C39.5053 503.237 39.748 504.423 39.748 505.804V506.672H29.024V505.188H38.236L37.788 505.552C37.788 504.059 37.452 502.901 36.78 502.08C36.1267 501.24 35.1653 500.82 33.896 500.82C32.944 500.82 32.132 501.044 31.46 501.492C30.8067 501.921 30.312 502.528 29.976 503.312C29.64 504.077 29.472 504.973 29.472 506V506.168C29.472 507.307 29.6493 508.268 30.004 509.052C30.3773 509.836 30.928 510.433 31.656 510.844C32.384 511.236 33.252 511.432 34.26 511.432C35.0627 511.432 35.8373 511.311 36.584 511.068C37.3493 510.807 38.068 510.387 38.74 509.808L39.524 511.404C38.908 511.964 38.124 512.412 37.172 512.748C36.22 513.084 35.2493 513.252 34.26 513.252ZM46.8703 513L41.0183 499.392H43.4823L48.3543 511.32H47.5983L52.5543 499.392H54.8783L48.9983 513H46.8703ZM63.217 513.252C61.7797 513.252 60.5384 512.972 59.493 512.412C58.4664 511.833 57.6637 511.021 57.085 509.976C56.525 508.931 56.245 507.68 56.245 506.224C56.245 504.805 56.525 503.573 57.085 502.528C57.645 501.464 58.4104 500.633 59.381 500.036C60.3704 499.439 61.509 499.14 62.797 499.14C64.029 499.14 65.0837 499.411 65.961 499.952C66.8384 500.493 67.5104 501.259 67.977 502.248C68.4624 503.237 68.705 504.423 68.705 505.804V506.672H57.981V505.188H67.193L66.745 505.552C66.745 504.059 66.409 502.901 65.737 502.08C65.0837 501.24 64.1224 500.82 62.853 500.82C61.901 500.82 61.089 501.044 60.417 501.492C59.7637 501.921 59.269 502.528 58.933 503.312C58.597 504.077 58.429 504.973 58.429 506V506.168C58.429 507.307 58.6064 508.268 58.961 509.052C59.3344 509.836 59.885 510.433 60.613 510.844C61.341 511.236 62.209 511.432 63.217 511.432C64.0197 511.432 64.7944 511.311 65.541 511.068C66.3064 510.807 67.025 510.387 67.697 509.808L68.481 511.404C67.865 511.964 67.081 512.412 66.129 512.748C65.177 513.084 64.2064 513.252 63.217 513.252ZM71.9874 513V499.392H74.1994V502.612H73.9194C74.2367 501.511 74.7874 500.68 75.5714 500.12C76.3554 499.541 77.3914 499.205 78.6794 499.112L79.4914 499.028L79.6594 500.988L78.2314 501.156C76.962 501.268 75.982 501.679 75.2914 502.388C74.6194 503.079 74.2834 504.031 74.2834 505.244V513H71.9874ZM84.4382 518.04L86.9862 512.3V513.28L81.0222 499.392H83.4862L88.3582 511.32H87.6022L92.5302 499.392H94.9102L86.8182 518.04H84.4382ZM109.904 513.252C108.299 513.252 107.095 512.823 106.292 511.964C105.49 511.105 105.088 509.883 105.088 508.296V501.156H102.428V499.392H105.088V495.22H107.356V499.392H111.668V501.156H107.356V508.072C107.356 509.136 107.58 509.948 108.028 510.508C108.476 511.049 109.204 511.32 110.212 511.32C110.511 511.32 110.81 511.283 111.108 511.208C111.407 511.133 111.678 511.059 111.92 510.984L112.312 512.72C112.07 512.851 111.715 512.972 111.248 513.084C110.782 513.196 110.334 513.252 109.904 513.252ZM113.953 496.004V493.456H116.753V496.004H113.953ZM114.233 513V499.392H116.501V513H114.233ZM120.797 513V499.392H123.009V502.416H122.701C122.925 501.725 123.252 501.137 123.681 500.652C124.129 500.148 124.652 499.775 125.249 499.532C125.865 499.271 126.537 499.14 127.265 499.14C128.423 499.14 129.356 499.42 130.065 499.98C130.793 500.521 131.279 501.371 131.521 502.528H131.101C131.437 501.483 132.035 500.661 132.893 500.064C133.771 499.448 134.788 499.14 135.945 499.14C136.972 499.14 137.812 499.336 138.465 499.728C139.137 500.12 139.641 500.717 139.977 501.52C140.313 502.304 140.481 503.303 140.481 504.516V513H138.213V504.628C138.213 503.377 137.999 502.463 137.569 501.884C137.14 501.287 136.412 500.988 135.385 500.988C134.657 500.988 134.013 501.165 133.453 501.52C132.912 501.875 132.492 502.379 132.193 503.032C131.913 503.667 131.773 504.423 131.773 505.3V513H129.505V504.628C129.505 503.377 129.281 502.463 128.833 501.884C128.404 501.287 127.685 500.988 126.677 500.988C125.931 500.988 125.287 501.165 124.745 501.52C124.204 501.875 123.784 502.379 123.485 503.032C123.205 503.667 123.065 504.423 123.065 505.3V513H120.797ZM150.854 513.252C149.416 513.252 148.175 512.972 147.13 512.412C146.103 511.833 145.3 511.021 144.722 509.976C144.162 508.931 143.882 507.68 143.882 506.224C143.882 504.805 144.162 503.573 144.722 502.528C145.282 501.464 146.047 500.633 147.018 500.036C148.007 499.439 149.146 499.14 150.434 499.14C151.666 499.14 152.72 499.411 153.598 499.952C154.475 500.493 155.147 501.259 155.614 502.248C156.099 503.237 156.342 504.423 156.342 505.804V506.672H145.618V505.188H154.83L154.382 505.552C154.382 504.059 154.046 502.901 153.374 502.08C152.72 501.24 151.759 500.82 150.49 500.82C149.538 500.82 148.726 501.044 148.054 501.492C147.4 501.921 146.906 502.528 146.57 503.312C146.234 504.077 146.066 504.973 146.066 506V506.168C146.066 507.307 146.243 508.268 146.598 509.052C146.971 509.836 147.522 510.433 148.25 510.844C148.978 511.236 149.846 511.432 150.854 511.432C151.656 511.432 152.431 511.311 153.178 511.068C153.943 510.807 154.662 510.387 155.334 509.808L156.118 511.404C155.502 511.964 154.718 512.412 153.766 512.748C152.814 513.084 151.843 513.252 150.854 513.252ZM159.26 513V510.144H162.116V513H159.26ZM173.495 513V493.26H175.791V513H173.495ZM180.407 513V499.392H182.619V502.416H182.311C182.535 501.725 182.861 501.137 183.291 500.652C183.739 500.148 184.261 499.775 184.859 499.532C185.475 499.271 186.147 499.14 186.875 499.14C188.032 499.14 188.965 499.42 189.675 499.98C190.403 500.521 190.888 501.371 191.131 502.528H190.711C191.047 501.483 191.644 500.661 192.503 500.064C193.38 499.448 194.397 499.14 195.555 499.14C196.581 499.14 197.421 499.336 198.075 499.728C198.747 500.12 199.251 500.717 199.587 501.52C199.923 502.304 200.091 503.303 200.091 504.516V513H197.823V504.628C197.823 503.377 197.608 502.463 197.179 501.884C196.749 501.287 196.021 500.988 194.995 500.988C194.267 500.988 193.623 501.165 193.063 501.52C192.521 501.875 192.101 502.379 191.803 503.032C191.523 503.667 191.383 504.423 191.383 505.3V513H189.115V504.628C189.115 503.377 188.891 502.463 188.443 501.884C188.013 501.287 187.295 500.988 186.287 500.988C185.54 500.988 184.896 501.165 184.355 501.52C183.813 501.875 183.393 502.379 183.095 503.032C182.815 503.667 182.675 504.423 182.675 505.3V513H180.407ZM204.331 518.04V499.392H206.543V502.612H206.263C206.562 501.548 207.15 500.708 208.027 500.092C208.923 499.457 209.987 499.14 211.219 499.14C212.432 499.14 213.487 499.429 214.383 500.008C215.298 500.568 215.998 501.38 216.483 502.444C216.987 503.489 217.239 504.74 217.239 506.196C217.239 507.633 216.987 508.884 216.483 509.948C215.998 510.993 215.307 511.805 214.411 512.384C213.515 512.963 212.451 513.252 211.219 513.252C209.987 513.252 208.932 512.944 208.055 512.328C207.178 511.693 206.58 510.853 206.263 509.808H206.599V518.04H204.331ZM210.743 511.432C212.031 511.432 213.048 510.984 213.795 510.088C214.56 509.173 214.943 507.876 214.943 506.196C214.943 504.497 214.56 503.2 213.795 502.304C213.048 501.408 212.031 500.96 210.743 500.96C209.474 500.96 208.456 501.408 207.691 502.304C206.926 503.2 206.543 504.497 206.543 506.196C206.543 507.876 206.926 509.173 207.691 510.088C208.456 510.984 209.474 511.432 210.743 511.432ZM226.311 513.252C224.986 513.252 223.838 512.963 222.867 512.384C221.897 511.805 221.141 510.993 220.599 509.948C220.077 508.884 219.815 507.633 219.815 506.196C219.815 504.759 220.077 503.517 220.599 502.472C221.141 501.408 221.897 500.587 222.867 500.008C223.838 499.429 224.986 499.14 226.311 499.14C227.637 499.14 228.785 499.429 229.755 500.008C230.726 500.587 231.473 501.408 231.995 502.472C232.537 503.517 232.807 504.759 232.807 506.196C232.807 507.633 232.537 508.884 231.995 509.948C231.473 510.993 230.726 511.805 229.755 512.384C228.785 512.963 227.637 513.252 226.311 513.252ZM226.311 511.432C227.599 511.432 228.617 510.984 229.363 510.088C230.129 509.173 230.511 507.867 230.511 506.168C230.511 504.488 230.129 503.2 229.363 502.304C228.617 501.408 227.599 500.96 226.311 500.96C225.042 500.96 224.025 501.408 223.259 502.304C222.494 503.2 222.111 504.488 222.111 506.168C222.111 507.867 222.494 509.173 223.259 510.088C224.025 510.984 225.042 511.432 226.311 511.432ZM236.214 513V499.392H238.426V502.612H238.146C238.463 501.511 239.014 500.68 239.798 500.12C240.582 499.541 241.618 499.205 242.906 499.112L243.718 499.028L243.886 500.988L242.458 501.156C241.189 501.268 240.209 501.679 239.518 502.388C238.846 503.079 238.51 504.031 238.51 505.244V513H236.214ZM252.447 513.252C250.842 513.252 249.638 512.823 248.835 511.964C248.033 511.105 247.631 509.883 247.631 508.296V501.156H244.971V499.392H247.631V495.22H249.899V499.392H254.211V501.156H249.899V508.072C249.899 509.136 250.123 509.948 250.571 510.508C251.019 511.049 251.747 511.32 252.755 511.32C253.054 511.32 253.353 511.283 253.651 511.208C253.95 511.133 254.221 511.059 254.463 510.984L254.855 512.72C254.613 512.851 254.258 512.972 253.791 513.084C253.325 513.196 252.877 513.252 252.447 513.252ZM265.536 518.04L268.084 512.3V513.28L262.12 499.392H264.584L269.456 511.32H268.7L273.628 499.392H276.008L267.916 518.04H265.536ZM283.815 513.252C282.49 513.252 281.342 512.963 280.371 512.384C279.401 511.805 278.645 510.993 278.103 509.948C277.581 508.884 277.319 507.633 277.319 506.196C277.319 504.759 277.581 503.517 278.103 502.472C278.645 501.408 279.401 500.587 280.371 500.008C281.342 499.429 282.49 499.14 283.815 499.14C285.141 499.14 286.289 499.429 287.259 500.008C288.23 500.587 288.977 501.408 289.499 502.472C290.041 503.517 290.311 504.759 290.311 506.196C290.311 507.633 290.041 508.884 289.499 509.948C288.977 510.993 288.23 511.805 287.259 512.384C286.289 512.963 285.141 513.252 283.815 513.252ZM283.815 511.432C285.103 511.432 286.121 510.984 286.867 510.088C287.633 509.173 288.015 507.867 288.015 506.168C288.015 504.488 287.633 503.2 286.867 502.304C286.121 501.408 285.103 500.96 283.815 500.96C282.546 500.96 281.529 501.408 280.763 502.304C279.998 503.2 279.615 504.488 279.615 506.168C279.615 507.867 279.998 509.173 280.763 510.088C281.529 510.984 282.546 511.432 283.815 511.432ZM298.534 513.252C297.433 513.252 296.518 513.056 295.79 512.664C295.081 512.253 294.539 511.647 294.166 510.844C293.811 510.041 293.634 509.043 293.634 507.848V499.392H295.902V507.82C295.902 508.623 296.005 509.295 296.21 509.836C296.434 510.359 296.779 510.751 297.246 511.012C297.713 511.255 298.291 511.376 298.982 511.376C299.766 511.376 300.447 511.199 301.026 510.844C301.605 510.489 302.062 509.995 302.398 509.36C302.734 508.725 302.902 507.979 302.902 507.12V499.392H305.17V513H302.958V509.864H303.322C302.949 510.965 302.333 511.805 301.474 512.384C300.634 512.963 299.654 513.252 298.534 513.252ZM309.413 513V499.392H311.625V502.612H311.345C311.662 501.511 312.213 500.68 312.997 500.12C313.781 499.541 314.817 499.205 316.105 499.112L316.917 499.028L317.085 500.988L315.657 501.156C314.388 501.268 313.408 501.679 312.717 502.388C312.045 503.079 311.709 504.031 311.709 505.244V513H309.413ZM332.296 513.252C330.97 513.252 329.822 512.963 328.852 512.384C327.881 511.805 327.125 510.993 326.584 509.948C326.061 508.884 325.8 507.633 325.8 506.196C325.8 504.759 326.061 503.517 326.584 502.472C327.125 501.408 327.881 500.587 328.852 500.008C329.822 499.429 330.97 499.14 332.296 499.14C333.621 499.14 334.769 499.429 335.74 500.008C336.71 500.587 337.457 501.408 337.98 502.472C338.521 503.517 338.792 504.759 338.792 506.196C338.792 507.633 338.521 508.884 337.98 509.948C337.457 510.993 336.71 511.805 335.74 512.384C334.769 512.963 333.621 513.252 332.296 513.252ZM332.296 511.432C333.584 511.432 334.601 510.984 335.348 510.088C336.113 509.173 336.496 507.867 336.496 506.168C336.496 504.488 336.113 503.2 335.348 502.304C334.601 501.408 333.584 500.96 332.296 500.96C331.026 500.96 330.009 501.408 329.244 502.304C328.478 503.2 328.096 504.488 328.096 506.168C328.096 507.867 328.478 509.173 329.244 510.088C330.009 510.984 331.026 511.432 332.296 511.432ZM345.619 513L340.551 499.392H342.931L347.103 511.32H346.431L350.743 499.392H352.675L356.903 511.32H356.259L360.487 499.392H362.755L357.659 513H355.503L351.051 500.764H352.255L347.803 513H345.619ZM365.55 513V499.392H367.762V502.416H367.454C367.846 501.333 368.481 500.521 369.358 499.98C370.254 499.42 371.281 499.14 372.438 499.14C373.521 499.14 374.417 499.336 375.126 499.728C375.854 500.101 376.395 500.689 376.75 501.492C377.105 502.295 377.282 503.303 377.282 504.516V513H375.014V504.656C375.014 503.816 374.902 503.125 374.678 502.584C374.473 502.043 374.137 501.641 373.67 501.38C373.222 501.119 372.634 500.988 371.906 500.988C371.085 500.988 370.366 501.165 369.75 501.52C369.134 501.875 368.658 502.369 368.322 503.004C367.986 503.639 367.818 504.385 367.818 505.244V513H365.55ZM394.311 513.252C392.986 513.252 391.838 512.963 390.867 512.384C389.897 511.805 389.141 510.993 388.599 509.948C388.077 508.884 387.815 507.633 387.815 506.196C387.815 504.759 388.077 503.517 388.599 502.472C389.141 501.408 389.897 500.587 390.867 500.008C391.838 499.429 392.986 499.14 394.311 499.14C395.637 499.14 396.785 499.429 397.755 500.008C398.726 500.587 399.473 501.408 399.995 502.472C400.537 503.517 400.807 504.759 400.807 506.196C400.807 507.633 400.537 508.884 399.995 509.948C399.473 510.993 398.726 511.805 397.755 512.384C396.785 512.963 395.637 513.252 394.311 513.252ZM394.311 511.432C395.599 511.432 396.617 510.984 397.363 510.088C398.129 509.173 398.511 507.867 398.511 506.168C398.511 504.488 398.129 503.2 397.363 502.304C396.617 501.408 395.599 500.96 394.311 500.96C393.042 500.96 392.025 501.408 391.259 502.304C390.494 503.2 390.111 504.488 390.111 506.168C390.111 507.867 390.494 509.173 391.259 510.088C392.025 510.984 393.042 511.432 394.311 511.432ZM404.214 513V499.392H406.426V502.612H406.146C406.463 501.511 407.014 500.68 407.798 500.12C408.582 499.541 409.618 499.205 410.906 499.112L411.718 499.028L411.886 500.988L410.458 501.156C409.189 501.268 408.209 501.679 407.518 502.388C406.846 503.079 406.51 504.031 406.51 505.244V513H404.214ZM426.901 513.252C425.295 513.252 424.091 512.823 423.289 511.964C422.486 511.105 422.085 509.883 422.085 508.296V501.156H419.425V499.392H422.085V495.22H424.353V499.392H428.665V501.156H424.353V508.072C424.353 509.136 424.577 509.948 425.025 510.508C425.473 511.049 426.201 511.32 427.209 511.32C427.507 511.32 427.806 511.283 428.105 511.208C428.403 511.133 428.674 511.059 428.917 510.984L429.309 512.72C429.066 512.851 428.711 512.972 428.245 513.084C427.778 513.196 427.33 513.252 426.901 513.252ZM431.23 513V499.392H433.442V502.612H433.162C433.479 501.511 434.03 500.68 434.814 500.12C435.598 499.541 436.634 499.205 437.922 499.112L438.734 499.028L438.902 500.988L437.474 501.156C436.204 501.268 435.224 501.679 434.534 502.388C433.862 503.079 433.526 504.031 433.526 505.244V513H431.23ZM443.68 518.04L446.228 512.3V513.28L440.264 499.392H442.728L447.6 511.32H446.844L451.772 499.392H454.152L446.06 518.04H443.68ZM468.279 513.252C467.569 513.252 466.879 513.177 466.207 513.028C465.553 512.897 464.937 512.711 464.359 512.468C463.799 512.207 463.313 511.899 462.903 511.544L463.631 509.948C464.079 510.303 464.564 510.601 465.087 510.844C465.609 511.068 466.141 511.236 466.683 511.348C467.224 511.46 467.775 511.516 468.335 511.516C469.399 511.516 470.201 511.32 470.743 510.928C471.284 510.536 471.555 510.004 471.555 509.332C471.555 508.809 471.377 508.399 471.023 508.1C470.668 507.783 470.108 507.54 469.343 507.372L466.795 506.812C465.619 506.569 464.741 506.149 464.163 505.552C463.603 504.955 463.323 504.18 463.323 503.228C463.323 502.388 463.537 501.669 463.967 501.072C464.415 500.456 465.04 499.98 465.843 499.644C466.645 499.308 467.579 499.14 468.643 499.14C469.277 499.14 469.884 499.205 470.463 499.336C471.041 499.467 471.583 499.663 472.087 499.924C472.609 500.167 473.057 500.475 473.431 500.848L472.675 502.444C472.32 502.108 471.919 501.828 471.471 501.604C471.023 501.361 470.556 501.184 470.071 501.072C469.604 500.941 469.128 500.876 468.643 500.876C467.597 500.876 466.804 501.081 466.263 501.492C465.721 501.903 465.451 502.444 465.451 503.116C465.451 503.639 465.619 504.068 465.955 504.404C466.291 504.74 466.813 504.983 467.523 505.132L470.071 505.664C471.284 505.925 472.189 506.345 472.787 506.924C473.403 507.484 473.711 508.249 473.711 509.22C473.711 510.041 473.487 510.76 473.039 511.376C472.591 511.973 471.956 512.44 471.135 512.776C470.332 513.093 469.38 513.252 468.279 513.252ZM482.823 513.252C481.498 513.252 480.35 512.963 479.379 512.384C478.408 511.805 477.652 510.993 477.111 509.948C476.588 508.884 476.327 507.633 476.327 506.196C476.327 504.759 476.588 503.517 477.111 502.472C477.652 501.408 478.408 500.587 479.379 500.008C480.35 499.429 481.498 499.14 482.823 499.14C484.148 499.14 485.296 499.429 486.267 500.008C487.238 500.587 487.984 501.408 488.507 502.472C489.048 503.517 489.319 504.759 489.319 506.196C489.319 507.633 489.048 508.884 488.507 509.948C487.984 510.993 487.238 511.805 486.267 512.384C485.296 512.963 484.148 513.252 482.823 513.252ZM482.823 511.432C484.111 511.432 485.128 510.984 485.875 510.088C486.64 509.173 487.023 507.867 487.023 506.168C487.023 504.488 486.64 503.2 485.875 502.304C485.128 501.408 484.111 500.96 482.823 500.96C481.554 500.96 480.536 501.408 479.771 502.304C479.006 503.2 478.623 504.488 478.623 506.168C478.623 507.867 479.006 509.173 479.771 510.088C480.536 510.984 481.554 511.432 482.823 511.432ZM492.782 513V499.392H494.994V502.416H494.686C494.91 501.725 495.236 501.137 495.666 500.652C496.114 500.148 496.636 499.775 497.234 499.532C497.85 499.271 498.522 499.14 499.25 499.14C500.407 499.14 501.34 499.42 502.05 499.98C502.778 500.521 503.263 501.371 503.506 502.528H503.086C503.422 501.483 504.019 500.661 504.878 500.064C505.755 499.448 506.772 499.14 507.93 499.14C508.956 499.14 509.796 499.336 510.45 499.728C511.122 500.12 511.626 500.717 511.962 501.52C512.298 502.304 512.466 503.303 512.466 504.516V513H510.198V504.628C510.198 503.377 509.983 502.463 509.554 501.884C509.124 501.287 508.396 500.988 507.37 500.988C506.642 500.988 505.998 501.165 505.438 501.52C504.896 501.875 504.476 502.379 504.178 503.032C503.898 503.667 503.758 504.423 503.758 505.3V513H501.49V504.628C501.49 503.377 501.266 502.463 500.818 501.884C500.388 501.287 499.67 500.988 498.662 500.988C497.915 500.988 497.271 501.165 496.73 501.52C496.188 501.875 495.768 502.379 495.47 503.032C495.19 503.667 495.05 504.423 495.05 505.3V513H492.782ZM522.838 513.252C521.401 513.252 520.159 512.972 519.114 512.412C518.087 511.833 517.285 511.021 516.706 509.976C516.146 508.931 515.866 507.68 515.866 506.224C515.866 504.805 516.146 503.573 516.706 502.528C517.266 501.464 518.031 500.633 519.002 500.036C519.991 499.439 521.13 499.14 522.418 499.14C523.65 499.14 524.705 499.411 525.582 499.952C526.459 500.493 527.131 501.259 527.598 502.248C528.083 503.237 528.326 504.423 528.326 505.804V506.672H517.602V505.188H526.814L526.366 505.552C526.366 504.059 526.03 502.901 525.358 502.08C524.705 501.24 523.743 500.82 522.474 500.82C521.522 500.82 520.71 501.044 520.038 501.492C519.385 501.921 518.89 502.528 518.554 503.312C518.218 504.077 518.05 504.973 518.05 506V506.168C518.05 507.307 518.227 508.268 518.582 509.052C518.955 509.836 519.506 510.433 520.234 510.844C520.962 511.236 521.83 511.432 522.838 511.432C523.641 511.432 524.415 511.311 525.162 511.068C525.927 510.807 526.646 510.387 527.318 509.808L528.102 511.404C527.486 511.964 526.702 512.412 525.75 512.748C524.798 513.084 523.827 513.252 522.838 513.252ZM537.068 513.252C535.463 513.252 534.259 512.823 533.456 511.964C532.654 511.105 532.252 509.883 532.252 508.296V501.156H529.592V499.392H532.252V495.22H534.52V499.392H538.832V501.156H534.52V508.072C534.52 509.136 534.744 509.948 535.192 510.508C535.64 511.049 536.368 511.32 537.376 511.32C537.675 511.32 537.974 511.283 538.272 511.208C538.571 511.133 538.842 511.059 539.084 510.984L539.476 512.72C539.234 512.851 538.879 512.972 538.412 513.084C537.946 513.196 537.498 513.252 537.068 513.252ZM541.398 513V493.26H543.666V502.416H543.302C543.694 501.333 544.328 500.521 545.206 499.98C546.102 499.42 547.128 499.14 548.286 499.14C549.368 499.14 550.264 499.336 550.974 499.728C551.702 500.12 552.243 500.717 552.598 501.52C552.952 502.304 553.13 503.303 553.13 504.516V513H550.862V504.656C550.862 503.816 550.75 503.125 550.526 502.584C550.32 502.043 549.984 501.641 549.518 501.38C549.07 501.119 548.482 500.988 547.754 500.988C546.932 500.988 546.214 501.165 545.598 501.52C544.982 501.875 544.506 502.369 544.17 503.004C543.834 503.639 543.666 504.385 543.666 505.244V513H541.398ZM557.032 496.004V493.456H559.832V496.004H557.032ZM557.312 513V499.392H559.58V513H557.312ZM563.819 513V499.392H566.031V502.416H565.723C566.115 501.333 566.75 500.521 567.627 499.98C568.523 499.42 569.55 499.14 570.707 499.14C571.79 499.14 572.686 499.336 573.395 499.728C574.123 500.101 574.665 500.689 575.019 501.492C575.374 502.295 575.551 503.303 575.551 504.516V513H573.283V504.656C573.283 503.816 573.171 503.125 572.947 502.584C572.742 502.043 572.406 501.641 571.939 501.38C571.491 501.119 570.903 500.988 570.175 500.988C569.354 500.988 568.635 501.165 568.019 501.52C567.403 501.875 566.927 502.369 566.591 503.004C566.255 503.639 566.087 504.385 566.087 505.244V513H563.819ZM585.753 518.292C584.577 518.292 583.467 518.133 582.421 517.816C581.395 517.517 580.48 517.06 579.677 516.444L580.433 514.792C580.993 515.184 581.544 515.501 582.085 515.744C582.645 516.005 583.215 516.192 583.793 516.304C584.391 516.416 585.007 516.472 585.641 516.472C586.967 516.472 587.965 516.117 588.637 515.408C589.328 514.699 589.673 513.672 589.673 512.328V509.164H589.953C589.673 510.247 589.076 511.105 588.161 511.74C587.265 512.375 586.211 512.692 584.997 512.692C583.747 512.692 582.664 512.412 581.749 511.852C580.835 511.273 580.125 510.471 579.621 509.444C579.136 508.417 578.893 507.232 578.893 505.888C578.893 504.544 579.136 503.368 579.621 502.36C580.125 501.333 580.835 500.54 581.749 499.98C582.664 499.42 583.747 499.14 584.997 499.14C586.229 499.14 587.293 499.457 588.189 500.092C589.085 500.708 589.664 501.548 589.925 502.612H589.673V499.392H591.885V512.02C591.885 513.401 591.652 514.559 591.185 515.492C590.737 516.425 590.056 517.125 589.141 517.592C588.227 518.059 587.097 518.292 585.753 518.292ZM585.417 510.844C586.724 510.844 587.76 510.396 588.525 509.5C589.291 508.604 589.673 507.4 589.673 505.888C589.673 504.376 589.291 503.181 588.525 502.304C587.76 501.408 586.724 500.96 585.417 500.96C584.129 500.96 583.103 501.408 582.337 502.304C581.572 503.181 581.189 504.376 581.189 505.888C581.189 507.4 581.572 508.604 582.337 509.5C583.103 510.396 584.129 510.844 585.417 510.844ZM603.331 513V499.392H605.543V502.416H605.235C605.627 501.333 606.262 500.521 607.139 499.98C608.035 499.42 609.062 499.14 610.219 499.14C611.302 499.14 612.198 499.336 612.907 499.728C613.635 500.101 614.176 500.689 614.531 501.492C614.886 502.295 615.063 503.303 615.063 504.516V513H612.795V504.656C612.795 503.816 612.683 503.125 612.459 502.584C612.254 502.043 611.918 501.641 611.451 501.38C611.003 501.119 610.415 500.988 609.687 500.988C608.866 500.988 608.147 501.165 607.531 501.52C606.915 501.875 606.439 502.369 606.103 503.004C605.767 503.639 605.599 504.385 605.599 505.244V513H603.331ZM625.377 513.252C623.94 513.252 622.699 512.972 621.653 512.412C620.627 511.833 619.824 511.021 619.245 509.976C618.685 508.931 618.405 507.68 618.405 506.224C618.405 504.805 618.685 503.573 619.245 502.528C619.805 501.464 620.571 500.633 621.541 500.036C622.531 499.439 623.669 499.14 624.957 499.14C626.189 499.14 627.244 499.411 628.121 499.952C628.999 500.493 629.671 501.259 630.137 502.248C630.623 503.237 630.865 504.423 630.865 505.804V506.672H620.141V505.188H629.353L628.905 505.552C628.905 504.059 628.569 502.901 627.897 502.08C627.244 501.24 626.283 500.82 625.013 500.82C624.061 500.82 623.249 501.044 622.577 501.492C621.924 501.921 621.429 502.528 621.093 503.312C620.757 504.077 620.589 504.973 620.589 506V506.168C620.589 507.307 620.767 508.268 621.121 509.052C621.495 509.836 622.045 510.433 622.773 510.844C623.501 511.236 624.369 511.432 625.377 511.432C626.18 511.432 626.955 511.311 627.701 511.068C628.467 510.807 629.185 510.387 629.857 509.808L630.641 511.404C630.025 511.964 629.241 512.412 628.289 512.748C627.337 513.084 626.367 513.252 625.377 513.252ZM637.595 513L632.527 499.392H634.907L639.079 511.32H638.407L642.719 499.392H644.651L648.879 511.32H648.235L652.463 499.392H654.731L649.635 513H647.479L643.027 500.764H644.231L639.779 513H637.595ZM655.795 513V510.144H658.651V513H655.795Z" fill="#D9D9D9"/>
<g filter="url(#filter5_f_1247_674)">
<ellipse cx="396" cy="210" rx="233" ry="146" fill="#4A33BC" fill-opacity="0.25"/>
</g>
<defs>
<filter id="filter0_b_1247_674" x="-11.7" y="7.3" width="789.4" height="553.4" filterUnits="userSpaceOnUse" color-interpolation-filters="sRGB">
<feFlood flood-opacity="0" result="BackgroundImageFix"/>
<feGaussianBlur in="BackgroundImageFix" stdDeviation="5.85"/>
<feComposite in2="SourceAlpha" operator="in" result="effect1_backgroundBlur_1247_674"/>
<feBlend mode="normal" in="SourceGraphic" in2="effect1_backgroundBlur_1247_674" result="shape"/>
</filter>
<filter id="filter1_bdi_1247_674" x="355.89" y="45.6756" width="176.242" height="280.94" filterUnits="userSpaceOnUse" color-interpolation-filters="sRGB">
<feFlood flood-opacity="0" result="BackgroundImageFix"/>
<feGaussianBlur in="BackgroundImageFix" stdDeviation="3.63535"/>
<feComposite in2="SourceAlpha" operator="in" result="effect1_backgroundBlur_1247_674"/>
<feColorMatrix in="SourceAlpha" type="matrix" values="0 0 0 0 0 0 0 0 0 0 0 0 0 0 0 0 0 0 127 0" result="hardAlpha"/>
<feOffset/>
<feGaussianBlur stdDeviation="5.1622"/>
<feComposite in2="hardAlpha" operator="out"/>
<feColorMatrix type="matrix" values="0 0 0 0 0 0 0 0 0 0 0 0 0 0 0 0 0 0 0.25 0"/>
<feBlend mode="normal" in2="effect1_backgroundBlur_1247_674" result="effect2_dropShadow_1247_674"/>
<feBlend mode="normal" in="SourceGraphic" in2="effect2_dropShadow_1247_674" result="shape"/>
<feColorMatrix in="SourceAlpha" type="matrix" values="0 0 0 0 0 0 0 0 0 0 0 0 0 0 0 0 0 0 127 0" result="hardAlpha"/>
<feOffset dx="-1.45414"/>
<feComposite in2="hardAlpha" operator="arithmetic" k2="-1" k3="1"/>
<feColorMatrix type="matrix" values="0 0 0 0 1 0 0 0 0 1 0 0 0 0 1 0 0 0 0.35 0"/>
<feBlend mode="normal" in2="shape" result="effect3_innerShadow_1247_674"/>
</filter>
<filter id="filter2_bdi_1247_674" x="323.899" y="64.5794" width="176.242" height="280.94" filterUnits="userSpaceOnUse" color-interpolation-filters="sRGB">
<feFlood flood-opacity="0" result="BackgroundImageFix"/>
<feGaussianBlur in="BackgroundImageFix" stdDeviation="3.63535"/>
<feComposite in2="SourceAlpha" operator="in" result="effect1_backgroundBlur_1247_674"/>
<feColorMatrix in="SourceAlpha" type="matrix" values="0 0 0 0 0 0 0 0 0 0 0 0 0 0 0 0 0 0 127 0" result="hardAlpha"/>
<feOffset/>
<feGaussianBlur stdDeviation="5.1622"/>
<feComposite in2="hardAlpha" operator="out"/>
<feColorMatrix type="matrix" values="0 0 0 0 0 0 0 0 0 0 0 0 0 0 0 0 0 0 0.25 0"/>
<feBlend mode="normal" in2="effect1_backgroundBlur_1247_674" result="effect2_dropShadow_1247_674"/>
<feBlend mode="normal" in="SourceGraphic" in2="effect2_dropShadow_1247_674" result="shape"/>
<feColorMatrix in="SourceAlpha" type="matrix" values="0 0 0 0 0 0 0 0 0 0 0 0 0 0 0 0 0 0 127 0" result="hardAlpha"/>
<feOffset dx="-1.45414"/>
<feComposite in2="hardAlpha" operator="arithmetic" k2="-1" k3="1"/>
<feColorMatrix type="matrix" values="0 0 0 0 1 0 0 0 0 1 0 0 0 0 1 0 0 0 0.35 0"/>
<feBlend mode="normal" in2="shape" result="effect3_innerShadow_1247_674"/>
</filter>
<filter id="filter3_bdi_1247_674" x="289" y="82.0291" width="176.242" height="280.94" filterUnits="userSpaceOnUse" color-interpolation-filters="sRGB">
<feFlood flood-opacity="0" result="BackgroundImageFix"/>
<feGaussianBlur in="BackgroundImageFix" stdDeviation="3.63535"/>
<feComposite in2="SourceAlpha" operator="in" result="effect1_backgroundBlur_1247_674"/>
<feColorMatrix in="SourceAlpha" type="matrix" values="0 0 0 0 0 0 0 0 0 0 0 0 0 0 0 0 0 0 127 0" result="hardAlpha"/>
<feOffset/>
<feGaussianBlur stdDeviation="5.1622"/>
<feComposite in2="hardAlpha" operator="out"/>
<feColorMatrix type="matrix" values="0 0 0 0 0 0 0 0 0 0 0 0 0 0 0 0 0 0 0.25 0"/>
<feBlend mode="normal" in2="effect1_backgroundBlur_1247_674" result="effect2_dropShadow_1247_674"/>
<feBlend mode="normal" in="SourceGraphic" in2="effect2_dropShadow_1247_674" result="shape"/>
<feColorMatrix in="SourceAlpha" type="matrix" values="0 0 0 0 0 0 0 0 0 0 0 0 0 0 0 0 0 0 127 0" result="hardAlpha"/>
<feOffset dx="-1.45414"/>
<feComposite in2="hardAlpha" operator="arithmetic" k2="-1" k3="1"/>
<feColorMatrix type="matrix" values="0 0 0 0 1 0 0 0 0 1 0 0 0 0 1 0 0 0 0.35 0"/>
<feBlend mode="normal" in2="shape" result="effect3_innerShadow_1247_674"/>
</filter>
<filter id="filter4_bdi_1247_674" x="259.917" y="100.933" width="176.242" height="280.94" filterUnits="userSpaceOnUse" color-interpolation-filters="sRGB">
<feFlood flood-opacity="0" result="BackgroundImageFix"/>
<feGaussianBlur in="BackgroundImageFix" stdDeviation="3.63535"/>
<feComposite in2="SourceAlpha" operator="in" result="effect1_backgroundBlur_1247_674"/>
<feColorMatrix in="SourceAlpha" type="matrix" values="0 0 0 0 0 0 0 0 0 0 0 0 0 0 0 0 0 0 127 0" result="hardAlpha"/>
<feOffset/>
<feGaussianBlur stdDeviation="5.1622"/>
<feComposite in2="hardAlpha" operator="out"/>
<feColorMatrix type="matrix" values="0 0 0 0 0 0 0 0 0 0 0 0 0 0 0 0 0 0 0.25 0"/>
<feBlend mode="normal" in2="effect1_backgroundBlur_1247_674" result="effect2_dropShadow_1247_674"/>
<feBlend mode="normal" in="SourceGraphic" in2="effect2_dropShadow_1247_674" result="shape"/>
<feColorMatrix in="SourceAlpha" type="matrix" values="0 0 0 0 0 0 0 0 0 0 0 0 0 0 0 0 0 0 127 0" result="hardAlpha"/>
<feOffset dx="-1.45414"/>
<feComposite in2="hardAlpha" operator="arithmetic" k2="-1" k3="1"/>
<feColorMatrix type="matrix" values="0 0 0 0 1 0 0 0 0 1 0 0 0 0 1 0 0 0 0.35 0"/>
<feBlend mode="normal" in2="shape" result="effect3_innerShadow_1247_674"/>
</filter>
<filter id="filter5_f_1247_674" x="99" y="0" width="594" height="420" filterUnits="userSpaceOnUse" color-interpolation-filters="sRGB">
<feFlood flood-opacity="0" result="BackgroundImageFix"/>
<feBlend mode="normal" in="SourceGraphic" in2="BackgroundImageFix" result="shape"/>
<feGaussianBlur stdDeviation="32" result="effect1_foregroundBlur_1247_674"/>
</filter>
<linearGradient id="paint0_linear_1247_674" x1="383" y1="487.846" x2="383" y2="49.5769" gradientUnits="userSpaceOnUse">
<stop offset="0.207188" stop-color="#292929"/>
<stop offset="1" stop-color="#8778D7"/>
</linearGradient>
<linearGradient id="paint1_linear_1247_674" x1="340.04" y1="95.2618" x2="594.679" y2="223.745" gradientUnits="userSpaceOnUse">
<stop stop-color="white"/>
<stop offset="1" stop-color="#6D9BFF"/>
</linearGradient>
<linearGradient id="paint2_linear_1247_674" x1="308.049" y1="114.166" x2="562.688" y2="242.649" gradientUnits="userSpaceOnUse">
<stop stop-color="white"/>
<stop offset="1" stop-color="#6D9BFF"/>
</linearGradient>
<linearGradient id="paint3_linear_1247_674" x1="273.15" y1="131.615" x2="491.71" y2="252.853" gradientUnits="userSpaceOnUse">
<stop stop-color="#FF8A65"/>
<stop offset="0.524" stop-color="#FFF586"/>
<stop offset="1" stop-color="#5081EA"/>
</linearGradient>
<linearGradient id="paint4_linear_1247_674" x1="244.067" y1="150.519" x2="498.706" y2="279.002" gradientUnits="userSpaceOnUse">
<stop stop-color="white"/>
<stop offset="1" stop-color="#6D9BFF"/>
</linearGradient>
</defs>
</svg>
