<svg width="572" height="650" viewBox="0 0 572 650" fill="none" xmlns="http://www.w3.org/2000/svg">
<g filter="url(#filter0_b_1253_7760)">
<rect x="3" y="28" width="510" height="622" rx="9.52381" fill="black" fill-opacity="0.4"/>
<rect x="4" y="29" width="508" height="620" rx="8.52381" stroke="url(#paint0_linear_1253_7760)" stroke-opacity="0.75" stroke-width="2"/>
</g>
<path d="M31.8 381V366.48L32.88 369.56L20.96 352.8H26.92L35 364.28H33.88L42 352.8H47.72L35.88 369.56L36.92 366.48V381H31.8ZM54.9263 381.4C52.8996 381.4 51.1396 380.987 49.6463 380.16C48.1529 379.333 46.9929 378.16 46.1663 376.64C45.3396 375.093 44.9263 373.28 44.9263 371.2C44.9263 369.12 45.3396 367.32 46.1663 365.8C46.9929 364.28 48.1529 363.107 49.6463 362.28C51.1396 361.453 52.8996 361.04 54.9263 361.04C56.9529 361.04 58.7129 361.453 60.2063 362.28C61.6996 363.107 62.8596 364.28 63.6863 365.8C64.5129 367.32 64.9263 369.12 64.9263 371.2C64.9263 373.28 64.5129 375.093 63.6863 376.64C62.8596 378.16 61.6996 379.333 60.2063 380.16C58.7129 380.987 56.9529 381.4 54.9263 381.4ZM54.9263 377.6C56.4196 377.6 57.6196 377.067 58.5263 376C59.4329 374.907 59.8863 373.307 59.8863 371.2C59.8863 369.067 59.4329 367.48 58.5263 366.44C57.6196 365.373 56.4196 364.84 54.9263 364.84C53.4329 364.84 52.2329 365.373 51.3263 366.44C50.4196 367.48 49.9663 369.067 49.9663 371.2C49.9663 373.307 50.4196 374.907 51.3263 376C52.2329 377.067 53.4329 377.6 54.9263 377.6ZM76.1331 381.4C74.5065 381.4 73.1598 381.107 72.0931 380.52C71.0265 379.907 70.2265 379 69.6931 377.8C69.1865 376.6 68.9331 375.107 68.9331 373.32V361.44H73.9331V373.4C73.9331 374.307 74.0531 375.067 74.2931 375.68C74.5598 376.293 74.9465 376.747 75.4531 377.04C75.9865 377.333 76.6531 377.48 77.4531 377.48C78.3598 377.48 79.1465 377.28 79.8131 376.88C80.5065 376.453 81.0398 375.867 81.4131 375.12C81.8131 374.347 82.0131 373.453 82.0131 372.44V361.44H87.0131V381H82.1331V376.92H82.6931C82.1331 378.36 81.2798 379.467 80.1331 380.24C79.0131 381.013 77.6798 381.4 76.1331 381.4ZM92.2172 381V361.44H97.0972V366.16H96.6972C97.0705 364.56 97.8039 363.347 98.8972 362.52C99.9905 361.667 101.444 361.173 103.257 361.04L104.777 360.92L105.097 365.16L102.217 365.44C100.591 365.6 99.3639 366.107 98.5372 366.96C97.7105 367.787 97.2972 368.96 97.2972 370.48V381H92.2172ZM119.143 381V352.8H129.623C132.769 352.8 135.436 353.347 137.623 354.44C139.836 355.533 141.516 357.133 142.663 359.24C143.836 361.32 144.423 363.867 144.423 366.88C144.423 369.893 143.836 372.453 142.663 374.56C141.516 376.667 139.836 378.267 137.623 379.36C135.436 380.453 132.769 381 129.623 381H119.143ZM124.263 376.76H129.303C132.583 376.76 135.023 375.947 136.622 374.32C138.249 372.667 139.063 370.187 139.063 366.88C139.063 363.573 138.249 361.107 136.622 359.48C134.996 357.853 132.556 357.04 129.303 357.04H124.263V376.76ZM155.571 381.4C154.158 381.4 152.891 381.133 151.771 380.6C150.678 380.04 149.811 379.293 149.171 378.36C148.558 377.427 148.251 376.373 148.251 375.2C148.251 373.76 148.625 372.627 149.371 371.8C150.118 370.947 151.331 370.333 153.011 369.96C154.691 369.587 156.945 369.4 159.771 369.4H161.771V372.28H159.811C158.558 372.28 157.505 372.333 156.651 372.44C155.798 372.52 155.105 372.667 154.571 372.88C154.065 373.067 153.691 373.333 153.451 373.68C153.238 374.027 153.131 374.453 153.131 374.96C153.131 375.84 153.438 376.56 154.051 377.12C154.665 377.68 155.518 377.96 156.611 377.96C157.491 377.96 158.265 377.76 158.931 377.36C159.625 376.933 160.171 376.36 160.571 375.64C160.971 374.92 161.171 374.093 161.171 373.16V368.56C161.171 367.227 160.878 366.267 160.291 365.68C159.705 365.093 158.718 364.8 157.331 364.8C156.238 364.8 155.118 364.973 153.971 365.32C152.825 365.64 151.665 366.147 150.491 366.84L149.051 363.44C149.745 362.96 150.558 362.547 151.491 362.2C152.451 361.827 153.451 361.547 154.491 361.36C155.558 361.147 156.558 361.04 157.491 361.04C159.411 361.04 160.985 361.333 162.211 361.92C163.465 362.507 164.398 363.4 165.011 364.6C165.625 365.773 165.931 367.293 165.931 369.16V381H161.251V376.84H161.571C161.385 377.773 161.011 378.587 160.451 379.28C159.918 379.947 159.238 380.467 158.411 380.84C157.585 381.213 156.638 381.4 155.571 381.4ZM179.966 381.4C177.353 381.4 175.406 380.747 174.126 379.44C172.846 378.133 172.206 376.227 172.206 373.72V365.2H168.446V361.44H172.206V355.6H177.206V361.44H183.126V365.2H177.206V373.44C177.206 374.72 177.486 375.68 178.046 376.32C178.606 376.96 179.513 377.28 180.766 377.28C181.14 377.28 181.526 377.24 181.926 377.16C182.326 377.053 182.74 376.947 183.166 376.84L183.926 380.52C183.446 380.787 182.833 381 182.086 381.16C181.366 381.32 180.66 381.4 179.966 381.4ZM192.798 381.4C191.384 381.4 190.118 381.133 188.998 380.6C187.904 380.04 187.038 379.293 186.398 378.36C185.784 377.427 185.478 376.373 185.478 375.2C185.478 373.76 185.851 372.627 186.598 371.8C187.344 370.947 188.558 370.333 190.238 369.96C191.918 369.587 194.171 369.4 196.998 369.4H198.998V372.28H197.038C195.784 372.28 194.731 372.333 193.878 372.44C193.024 372.52 192.331 372.667 191.798 372.88C191.291 373.067 190.918 373.333 190.678 373.68C190.464 374.027 190.358 374.453 190.358 374.96C190.358 375.84 190.664 376.56 191.278 377.12C191.891 377.68 192.744 377.96 193.838 377.96C194.718 377.96 195.491 377.76 196.158 377.36C196.851 376.933 197.398 376.36 197.798 375.64C198.198 374.92 198.398 374.093 198.398 373.16V368.56C198.398 367.227 198.104 366.267 197.518 365.68C196.931 365.093 195.944 364.8 194.558 364.8C193.464 364.8 192.344 364.973 191.198 365.32C190.051 365.64 188.891 366.147 187.718 366.84L186.278 363.44C186.971 362.96 187.784 362.547 188.718 362.2C189.678 361.827 190.678 361.547 191.718 361.36C192.784 361.147 193.784 361.04 194.718 361.04C196.638 361.04 198.211 361.333 199.438 361.92C200.691 362.507 201.624 363.4 202.238 364.6C202.851 365.773 203.158 367.293 203.158 369.16V381H198.478V376.84H198.798C198.611 377.773 198.238 378.587 197.678 379.28C197.144 379.947 196.464 380.467 195.638 380.84C194.811 381.213 193.864 381.4 192.798 381.4ZM210.233 386.32L208.193 384.72C208.779 384.133 209.233 383.573 209.553 383.04C209.873 382.533 210.099 382.013 210.233 381.48C210.393 380.947 210.473 380.4 210.473 379.84L211.553 381H207.793V375.44H213.393V379.12C213.393 380.027 213.286 380.88 213.073 381.68C212.886 382.48 212.566 383.253 212.113 384C211.659 384.773 211.033 385.547 210.233 386.32ZM236.136 381V366.48L237.216 369.56L225.296 352.8H231.256L239.336 364.28H238.216L246.336 352.8H252.056L240.216 369.56L241.256 366.48V381H236.136ZM259.262 381.4C257.236 381.4 255.476 380.987 253.982 380.16C252.489 379.333 251.329 378.16 250.502 376.64C249.676 375.093 249.262 373.28 249.262 371.2C249.262 369.12 249.676 367.32 250.502 365.8C251.329 364.28 252.489 363.107 253.982 362.28C255.476 361.453 257.236 361.04 259.262 361.04C261.289 361.04 263.049 361.453 264.542 362.28C266.036 363.107 267.196 364.28 268.022 365.8C268.849 367.32 269.262 369.12 269.262 371.2C269.262 373.28 268.849 375.093 268.022 376.64C267.196 378.16 266.036 379.333 264.542 380.16C263.049 380.987 261.289 381.4 259.262 381.4ZM259.262 377.6C260.756 377.6 261.956 377.067 262.862 376C263.769 374.907 264.222 373.307 264.222 371.2C264.222 369.067 263.769 367.48 262.862 366.44C261.956 365.373 260.756 364.84 259.262 364.84C257.769 364.84 256.569 365.373 255.662 366.44C254.756 367.48 254.302 369.067 254.302 371.2C254.302 373.307 254.756 374.907 255.662 376C256.569 377.067 257.769 377.6 259.262 377.6ZM280.469 381.4C278.842 381.4 277.496 381.107 276.429 380.52C275.362 379.907 274.562 379 274.029 377.8C273.522 376.6 273.269 375.107 273.269 373.32V361.44H278.269V373.4C278.269 374.307 278.389 375.067 278.629 375.68C278.896 376.293 279.282 376.747 279.789 377.04C280.322 377.333 280.989 377.48 281.789 377.48C282.696 377.48 283.482 377.28 284.149 376.88C284.842 376.453 285.376 375.867 285.749 375.12C286.149 374.347 286.349 373.453 286.349 372.44V361.44H291.349V381H286.469V376.92H287.029C286.469 378.36 285.616 379.467 284.469 380.24C283.349 381.013 282.016 381.4 280.469 381.4ZM296.553 381V361.44H301.433V366.16H301.033C301.406 364.56 302.14 363.347 303.233 362.52C304.326 361.667 305.78 361.173 307.593 361.04L309.113 360.92L309.433 365.16L306.553 365.44C304.926 365.6 303.7 366.107 302.873 366.96C302.046 367.787 301.633 368.96 301.633 370.48V381H296.553ZM25.08 436V407.8H43.84V411.88H30V419.64H42.96V423.72H30V431.92H43.84V436H25.08ZM45.7472 436L54.9072 424.72V427.08L46.2672 416.44H52.1072L57.7072 423.6H55.9472L61.5472 416.44H67.3872L58.7472 427.04V424.8L67.9072 436H62.0272L55.9472 428.32H57.6272L51.5872 436H45.7472ZM70.3031 443.2V416.44H75.1831V420.56H74.7831C75.1831 419.2 75.9965 418.107 77.2231 417.28C78.4765 416.453 79.9298 416.04 81.5831 416.04C83.2898 416.04 84.7831 416.453 86.0631 417.28C87.3698 418.107 88.3831 419.28 89.1031 420.8C89.8231 422.293 90.1831 424.093 90.1831 426.2C90.1831 428.28 89.8231 430.093 89.1031 431.64C88.3831 433.16 87.3831 434.333 86.1031 435.16C84.8231 435.987 83.3165 436.4 81.5831 436.4C79.9565 436.4 78.5298 436 77.3031 435.2C76.0765 434.373 75.2498 433.307 74.8231 432H75.3031V443.2H70.3031ZM80.1831 432.6C81.6765 432.6 82.8765 432.067 83.7831 431C84.6898 429.907 85.1431 428.307 85.1431 426.2C85.1431 424.067 84.6898 422.48 83.7831 421.44C82.8765 420.373 81.6765 419.84 80.1831 419.84C78.6898 419.84 77.4898 420.373 76.5831 421.44C75.6765 422.48 75.2231 424.067 75.2231 426.2C75.2231 428.307 75.6765 429.907 76.5831 431C77.4898 432.067 78.6898 432.6 80.1831 432.6ZM103.928 436.4C101.714 436.4 99.8075 435.987 98.2075 435.16C96.6075 434.333 95.3675 433.16 94.4875 431.64C93.6342 430.12 93.2075 428.32 93.2075 426.24C93.2075 424.213 93.6208 422.44 94.4475 420.92C95.3008 419.4 96.4608 418.213 97.9275 417.36C99.4208 416.48 101.114 416.04 103.008 416.04C104.874 416.04 106.474 416.44 107.808 417.24C109.141 418.04 110.168 419.173 110.888 420.64C111.634 422.107 112.008 423.853 112.008 425.88V427.36H97.2475V424.48H108.488L107.848 425.08C107.848 423.267 107.448 421.88 106.648 420.92C105.848 419.933 104.701 419.44 103.208 419.44C102.088 419.44 101.128 419.707 100.328 420.24C99.5542 420.747 98.9542 421.48 98.5275 422.44C98.1275 423.373 97.9275 424.493 97.9275 425.8V426.08C97.9275 427.547 98.1542 428.76 98.6075 429.72C99.0608 430.68 99.7408 431.4 100.648 431.88C101.554 432.36 102.674 432.6 104.008 432.6C105.101 432.6 106.194 432.44 107.288 432.12C108.381 431.773 109.381 431.24 110.288 430.52L111.688 433.88C110.754 434.653 109.581 435.267 108.168 435.72C106.754 436.173 105.341 436.4 103.928 436.4ZM115.967 436V416.44H120.847V421.16H120.447C120.821 419.56 121.554 418.347 122.647 417.52C123.741 416.667 125.194 416.173 127.007 416.04L128.527 415.92L128.847 420.16L125.967 420.44C124.341 420.6 123.114 421.107 122.287 421.96C121.461 422.787 121.047 423.96 121.047 425.48V436H115.967ZM131.311 412.24V407.36H136.911V412.24H131.311ZM131.631 436V416.44H136.631V436H131.631ZM141.907 436V416.44H146.787V420.36H146.347C146.693 419.453 147.173 418.68 147.787 418.04C148.4 417.4 149.133 416.907 149.987 416.56C150.84 416.213 151.787 416.04 152.827 416.04C154.4 416.04 155.693 416.413 156.707 417.16C157.72 417.907 158.427 419.053 158.827 420.6H158.267C158.8 419.187 159.68 418.08 160.907 417.28C162.133 416.453 163.547 416.04 165.147 416.04C166.64 416.04 167.867 416.333 168.827 416.92C169.813 417.507 170.547 418.4 171.027 419.6C171.507 420.773 171.747 422.267 171.747 424.08V436H166.747V424.28C166.747 422.787 166.493 421.693 165.987 421C165.507 420.307 164.68 419.96 163.507 419.96C162.653 419.96 161.907 420.173 161.267 420.6C160.627 421 160.133 421.587 159.787 422.36C159.467 423.133 159.307 424.067 159.307 425.16V436H154.307V424.28C154.307 422.787 154.053 421.693 153.547 421C153.067 420.307 152.253 419.96 151.107 419.96C150.227 419.96 149.467 420.173 148.827 420.6C148.213 421 147.733 421.587 147.387 422.36C147.067 423.133 146.907 424.067 146.907 425.16V436H141.907ZM186.545 436.4C184.331 436.4 182.425 435.987 180.825 435.16C179.225 434.333 177.985 433.16 177.105 431.64C176.251 430.12 175.825 428.32 175.825 426.24C175.825 424.213 176.238 422.44 177.065 420.92C177.918 419.4 179.078 418.213 180.545 417.36C182.038 416.48 183.731 416.04 185.625 416.04C187.491 416.04 189.091 416.44 190.425 417.24C191.758 418.04 192.785 419.173 193.505 420.64C194.251 422.107 194.625 423.853 194.625 425.88V427.36H179.865V424.48H191.105L190.465 425.08C190.465 423.267 190.065 421.88 189.265 420.92C188.465 419.933 187.318 419.44 185.825 419.44C184.705 419.44 183.745 419.707 182.945 420.24C182.171 420.747 181.571 421.48 181.145 422.44C180.745 423.373 180.545 424.493 180.545 425.8V426.08C180.545 427.547 180.771 428.76 181.225 429.72C181.678 430.68 182.358 431.4 183.265 431.88C184.171 432.36 185.291 432.6 186.625 432.6C187.718 432.6 188.811 432.44 189.905 432.12C190.998 431.773 191.998 431.24 192.905 430.52L194.305 433.88C193.371 434.653 192.198 435.267 190.785 435.72C189.371 436.173 187.958 436.4 186.545 436.4ZM198.584 436V416.44H203.464V420.36H203.024C203.611 418.947 204.518 417.88 205.744 417.16C206.998 416.413 208.411 416.04 209.984 416.04C211.558 416.04 212.851 416.333 213.864 416.92C214.878 417.507 215.638 418.4 216.144 419.6C216.651 420.773 216.904 422.267 216.904 424.08V436H211.904V424.32C211.904 423.307 211.771 422.48 211.504 421.84C211.264 421.2 210.878 420.733 210.344 420.44C209.838 420.12 209.184 419.96 208.384 419.96C207.424 419.96 206.584 420.173 205.864 420.6C205.144 421 204.584 421.587 204.184 422.36C203.784 423.107 203.584 423.987 203.584 425V436H198.584ZM230.943 436.4C228.329 436.4 226.383 435.747 225.103 434.44C223.823 433.133 223.183 431.227 223.183 428.72V420.2H219.423V416.44H223.183V410.6H228.183V416.44H234.103V420.2H228.183V428.44C228.183 429.72 228.463 430.68 229.023 431.32C229.583 431.96 230.489 432.28 231.743 432.28C232.116 432.28 232.503 432.24 232.903 432.16C233.303 432.053 233.716 431.947 234.143 431.84L234.903 435.52C234.423 435.787 233.809 436 233.063 436.16C232.343 436.32 231.636 436.4 230.943 436.4Z" fill="white"/>
<path d="M24.436 488V468.26H26.732V488H24.436ZM31.3481 488V474.392H33.5601V477.416H33.2521C33.4761 476.725 33.8027 476.137 34.2321 475.652C34.6801 475.148 35.2027 474.775 35.8001 474.532C36.4161 474.271 37.0881 474.14 37.8161 474.14C38.9734 474.14 39.9067 474.42 40.6161 474.98C41.3441 475.521 41.8294 476.371 42.0721 477.528H41.6521C41.9881 476.483 42.5854 475.661 43.4441 475.064C44.3214 474.448 45.3387 474.14 46.4961 474.14C47.5227 474.14 48.3627 474.336 49.0161 474.728C49.6881 475.12 50.1921 475.717 50.5281 476.52C50.8641 477.304 51.0321 478.303 51.0321 479.516V488H48.7641V479.628C48.7641 478.377 48.5494 477.463 48.1201 476.884C47.6907 476.287 46.9627 475.988 45.9361 475.988C45.2081 475.988 44.5641 476.165 44.0041 476.52C43.4627 476.875 43.0427 477.379 42.7441 478.032C42.4641 478.667 42.3241 479.423 42.3241 480.3V488H40.0561V479.628C40.0561 478.377 39.8321 477.463 39.3841 476.884C38.9547 476.287 38.2361 475.988 37.2281 475.988C36.4814 475.988 35.8374 476.165 35.2961 476.52C34.7547 476.875 34.3347 477.379 34.0361 478.032C33.7561 478.667 33.6161 479.423 33.6161 480.3V488H31.3481ZM55.2725 493.04V474.392H57.4845V477.612H57.2045C57.5032 476.548 58.0912 475.708 58.9685 475.092C59.8645 474.457 60.9285 474.14 62.1605 474.14C63.3739 474.14 64.4285 474.429 65.3245 475.008C66.2392 475.568 66.9392 476.38 67.4245 477.444C67.9285 478.489 68.1805 479.74 68.1805 481.196C68.1805 482.633 67.9285 483.884 67.4245 484.948C66.9392 485.993 66.2485 486.805 65.3525 487.384C64.4565 487.963 63.3925 488.252 62.1605 488.252C60.9285 488.252 59.8739 487.944 58.9965 487.328C58.1192 486.693 57.5219 485.853 57.2045 484.808H57.5405V493.04H55.2725ZM61.6845 486.432C62.9725 486.432 63.9899 485.984 64.7365 485.088C65.5019 484.173 65.8845 482.876 65.8845 481.196C65.8845 479.497 65.5019 478.2 64.7365 477.304C63.9899 476.408 62.9725 475.96 61.6845 475.96C60.4152 475.96 59.3979 476.408 58.6325 477.304C57.8672 478.2 57.4845 479.497 57.4845 481.196C57.4845 482.876 57.8672 484.173 58.6325 485.088C59.3979 485.984 60.4152 486.432 61.6845 486.432ZM77.2528 488.252C75.9274 488.252 74.7794 487.963 73.8088 487.384C72.8381 486.805 72.0821 485.993 71.5408 484.948C71.0181 483.884 70.7568 482.633 70.7568 481.196C70.7568 479.759 71.0181 478.517 71.5408 477.472C72.0821 476.408 72.8381 475.587 73.8088 475.008C74.7794 474.429 75.9274 474.14 77.2528 474.14C78.5781 474.14 79.7261 474.429 80.6968 475.008C81.6674 475.587 82.4141 476.408 82.9368 477.472C83.4781 478.517 83.7488 479.759 83.7488 481.196C83.7488 482.633 83.4781 483.884 82.9368 484.948C82.4141 485.993 81.6674 486.805 80.6968 487.384C79.7261 487.963 78.5781 488.252 77.2528 488.252ZM77.2528 486.432C78.5408 486.432 79.5581 485.984 80.3048 485.088C81.0701 484.173 81.4528 482.867 81.4528 481.168C81.4528 479.488 81.0701 478.2 80.3048 477.304C79.5581 476.408 78.5408 475.96 77.2528 475.96C75.9834 475.96 74.9661 476.408 74.2008 477.304C73.4354 478.2 73.0528 479.488 73.0528 481.168C73.0528 482.867 73.4354 484.173 74.2008 485.088C74.9661 485.984 75.9834 486.432 77.2528 486.432ZM87.1553 488V474.392H89.3673V477.612H89.0873C89.4047 476.511 89.9553 475.68 90.7393 475.12C91.5233 474.541 92.5593 474.205 93.8473 474.112L94.6593 474.028L94.8273 475.988L93.3993 476.156C92.13 476.268 91.15 476.679 90.4593 477.388C89.7873 478.079 89.4513 479.031 89.4513 480.244V488H87.1553ZM103.389 488.252C101.783 488.252 100.579 487.823 99.7768 486.964C98.9741 486.105 98.5728 484.883 98.5728 483.296V476.156H95.9128V474.392H98.5728V470.22H100.841V474.392H105.153V476.156H100.841V483.072C100.841 484.136 101.065 484.948 101.513 485.508C101.961 486.049 102.689 486.32 103.697 486.32C103.995 486.32 104.294 486.283 104.593 486.208C104.891 486.133 105.162 486.059 105.405 485.984L105.797 487.72C105.554 487.851 105.199 487.972 104.733 488.084C104.266 488.196 103.818 488.252 103.389 488.252ZM119.193 488.252C118.26 488.252 117.42 488.075 116.673 487.72C115.945 487.347 115.367 486.843 114.937 486.208C114.508 485.573 114.293 484.864 114.293 484.08C114.293 483.072 114.545 482.279 115.049 481.7C115.572 481.121 116.421 480.711 117.597 480.468C118.792 480.225 120.416 480.104 122.469 480.104H123.729V481.588H122.497C121.359 481.588 120.407 481.625 119.641 481.7C118.876 481.775 118.269 481.905 117.821 482.092C117.373 482.279 117.056 482.521 116.869 482.82C116.683 483.119 116.589 483.492 116.589 483.94C116.589 484.705 116.851 485.331 117.373 485.816C117.915 486.301 118.643 486.544 119.557 486.544C120.304 486.544 120.957 486.367 121.517 486.012C122.096 485.657 122.544 485.172 122.861 484.556C123.197 483.94 123.365 483.231 123.365 482.428V479.236C123.365 478.079 123.132 477.248 122.665 476.744C122.199 476.221 121.433 475.96 120.369 475.96C119.548 475.96 118.755 476.081 117.989 476.324C117.224 476.548 116.44 476.921 115.637 477.444L114.853 475.792C115.339 475.456 115.889 475.167 116.505 474.924C117.121 474.663 117.765 474.467 118.437 474.336C119.109 474.205 119.753 474.14 120.369 474.14C121.545 474.14 122.516 474.336 123.281 474.728C124.047 475.101 124.616 475.68 124.989 476.464C125.363 477.229 125.549 478.219 125.549 479.432V488H123.421V484.836H123.673C123.524 485.545 123.235 486.152 122.805 486.656C122.395 487.16 121.881 487.552 121.265 487.832C120.649 488.112 119.959 488.252 119.193 488.252ZM129.757 488V474.392H131.969V477.416H131.661C132.053 476.333 132.688 475.521 133.565 474.98C134.461 474.42 135.488 474.14 136.645 474.14C137.728 474.14 138.624 474.336 139.333 474.728C140.061 475.101 140.602 475.689 140.957 476.492C141.312 477.295 141.489 478.303 141.489 479.516V488H139.221V479.656C139.221 478.816 139.109 478.125 138.885 477.584C138.68 477.043 138.344 476.641 137.877 476.38C137.429 476.119 136.841 475.988 136.113 475.988C135.292 475.988 134.573 476.165 133.957 476.52C133.341 476.875 132.865 477.369 132.529 478.004C132.193 478.639 132.025 479.385 132.025 480.244V488H129.757ZM150.851 488.252C149.638 488.252 148.574 487.963 147.659 487.384C146.763 486.805 146.063 485.993 145.559 484.948C145.074 483.884 144.831 482.633 144.831 481.196C144.831 479.74 145.074 478.489 145.559 477.444C146.063 476.38 146.763 475.568 147.659 475.008C148.574 474.429 149.638 474.14 150.851 474.14C152.083 474.14 153.138 474.448 154.015 475.064C154.892 475.68 155.48 476.511 155.779 477.556H155.471V468.26H157.739V488H155.527V484.752H155.807C155.508 485.816 154.911 486.665 154.015 487.3C153.138 487.935 152.083 488.252 150.851 488.252ZM151.327 486.432C152.615 486.432 153.632 485.984 154.379 485.088C155.144 484.173 155.527 482.876 155.527 481.196C155.527 479.497 155.144 478.2 154.379 477.304C153.632 476.408 152.615 475.96 151.327 475.96C150.058 475.96 149.04 476.408 148.275 477.304C147.51 478.2 147.127 479.497 147.127 481.196C147.127 482.876 147.51 484.173 148.275 485.088C149.04 485.984 150.058 486.432 151.327 486.432ZM174.647 488.252C173.041 488.252 171.837 487.823 171.035 486.964C170.232 486.105 169.831 484.883 169.831 483.296V476.156H167.171V474.392H169.831V470.22H172.099V474.392H176.411V476.156H172.099V483.072C172.099 484.136 172.323 484.948 172.771 485.508C173.219 486.049 173.947 486.32 174.955 486.32C175.253 486.32 175.552 486.283 175.851 486.208C176.149 486.133 176.42 486.059 176.663 485.984L177.055 487.72C176.812 487.851 176.457 487.972 175.991 488.084C175.524 488.196 175.076 488.252 174.647 488.252ZM184.971 488.252C183.534 488.252 182.292 487.972 181.247 487.412C180.22 486.833 179.418 486.021 178.839 484.976C178.279 483.931 177.999 482.68 177.999 481.224C177.999 479.805 178.279 478.573 178.839 477.528C179.399 476.464 180.164 475.633 181.135 475.036C182.124 474.439 183.263 474.14 184.551 474.14C185.783 474.14 186.838 474.411 187.715 474.952C188.592 475.493 189.264 476.259 189.731 477.248C190.216 478.237 190.459 479.423 190.459 480.804V481.672H179.735V480.188H188.947L188.499 480.552C188.499 479.059 188.163 477.901 187.491 477.08C186.838 476.24 185.876 475.82 184.607 475.82C183.655 475.82 182.843 476.044 182.171 476.492C181.518 476.921 181.023 477.528 180.687 478.312C180.351 479.077 180.183 479.973 180.183 481V481.168C180.183 482.307 180.36 483.268 180.715 484.052C181.088 484.836 181.639 485.433 182.367 485.844C183.095 486.236 183.963 486.432 184.971 486.432C185.774 486.432 186.548 486.311 187.295 486.068C188.06 485.807 188.779 485.387 189.451 484.808L190.235 486.404C189.619 486.964 188.835 487.412 187.883 487.748C186.931 488.084 185.96 488.252 184.971 488.252ZM198.333 488.252C197.624 488.252 196.933 488.177 196.261 488.028C195.608 487.897 194.992 487.711 194.413 487.468C193.853 487.207 193.368 486.899 192.957 486.544L193.685 484.948C194.133 485.303 194.619 485.601 195.141 485.844C195.664 486.068 196.196 486.236 196.737 486.348C197.279 486.46 197.829 486.516 198.389 486.516C199.453 486.516 200.256 486.32 200.797 485.928C201.339 485.536 201.609 485.004 201.609 484.332C201.609 483.809 201.432 483.399 201.077 483.1C200.723 482.783 200.163 482.54 199.397 482.372L196.849 481.812C195.673 481.569 194.796 481.149 194.217 480.552C193.657 479.955 193.377 479.18 193.377 478.228C193.377 477.388 193.592 476.669 194.021 476.072C194.469 475.456 195.095 474.98 195.897 474.644C196.7 474.308 197.633 474.14 198.697 474.14C199.332 474.14 199.939 474.205 200.517 474.336C201.096 474.467 201.637 474.663 202.141 474.924C202.664 475.167 203.112 475.475 203.485 475.848L202.729 477.444C202.375 477.108 201.973 476.828 201.525 476.604C201.077 476.361 200.611 476.184 200.125 476.072C199.659 475.941 199.183 475.876 198.697 475.876C197.652 475.876 196.859 476.081 196.317 476.492C195.776 476.903 195.505 477.444 195.505 478.116C195.505 478.639 195.673 479.068 196.009 479.404C196.345 479.74 196.868 479.983 197.577 480.132L200.125 480.664C201.339 480.925 202.244 481.345 202.841 481.924C203.457 482.484 203.765 483.249 203.765 484.22C203.765 485.041 203.541 485.76 203.093 486.376C202.645 486.973 202.011 487.44 201.189 487.776C200.387 488.093 199.435 488.252 198.333 488.252ZM212.545 488.252C210.94 488.252 209.736 487.823 208.933 486.964C208.13 486.105 207.729 484.883 207.729 483.296V476.156H205.069V474.392H207.729V470.22H209.997V474.392H214.309V476.156H209.997V483.072C209.997 484.136 210.221 484.948 210.669 485.508C211.117 486.049 211.845 486.32 212.853 486.32C213.152 486.32 213.45 486.283 213.749 486.208C214.048 486.133 214.318 486.059 214.561 485.984L214.953 487.72C214.71 487.851 214.356 487.972 213.889 488.084C213.422 488.196 212.974 488.252 212.545 488.252ZM227.678 488L222.61 474.392H224.99L229.162 486.32H228.49L232.802 474.392H234.734L238.962 486.32H238.318L242.546 474.392H244.814L239.718 488H237.562L233.11 475.764H234.314L229.862 488H227.678ZM247.328 471.004V468.456H250.128V471.004H247.328ZM247.608 488V474.392H249.876V488H247.608ZM259.576 488.252C257.971 488.252 256.767 487.823 255.964 486.964C255.162 486.105 254.76 484.883 254.76 483.296V476.156H252.1V474.392H254.76V470.22H257.028V474.392H261.34V476.156H257.028V483.072C257.028 484.136 257.252 484.948 257.7 485.508C258.148 486.049 258.876 486.32 259.884 486.32C260.183 486.32 260.482 486.283 260.78 486.208C261.079 486.133 261.35 486.059 261.592 485.984L261.984 487.72C261.742 487.851 261.387 487.972 260.92 488.084C260.454 488.196 260.006 488.252 259.576 488.252ZM263.905 488V468.26H266.173V477.416H265.809C266.201 476.333 266.836 475.521 267.713 474.98C268.609 474.42 269.636 474.14 270.793 474.14C271.876 474.14 272.772 474.336 273.481 474.728C274.209 475.12 274.751 475.717 275.105 476.52C275.46 477.304 275.637 478.303 275.637 479.516V488H273.369V479.656C273.369 478.816 273.257 478.125 273.033 477.584C272.828 477.043 272.492 476.641 272.025 476.38C271.577 476.119 270.989 475.988 270.261 475.988C269.44 475.988 268.721 476.165 268.105 476.52C267.489 476.875 267.013 477.369 266.677 478.004C266.341 478.639 266.173 479.385 266.173 480.244V488H263.905ZM288.579 493.04L291.127 487.3V488.28L285.163 474.392H287.627L292.499 486.32H291.743L296.671 474.392H299.051L290.959 493.04H288.579ZM306.858 488.252C305.533 488.252 304.385 487.963 303.414 487.384C302.444 486.805 301.688 485.993 301.146 484.948C300.624 483.884 300.362 482.633 300.362 481.196C300.362 479.759 300.624 478.517 301.146 477.472C301.688 476.408 302.444 475.587 303.414 475.008C304.385 474.429 305.533 474.14 306.858 474.14C308.184 474.14 309.332 474.429 310.302 475.008C311.273 475.587 312.02 476.408 312.542 477.472C313.084 478.517 313.354 479.759 313.354 481.196C313.354 482.633 313.084 483.884 312.542 484.948C312.02 485.993 311.273 486.805 310.302 487.384C309.332 487.963 308.184 488.252 306.858 488.252ZM306.858 486.432C308.146 486.432 309.164 485.984 309.91 485.088C310.676 484.173 311.058 482.867 311.058 481.168C311.058 479.488 310.676 478.2 309.91 477.304C309.164 476.408 308.146 475.96 306.858 475.96C305.589 475.96 304.572 476.408 303.806 477.304C303.041 478.2 302.658 479.488 302.658 481.168C302.658 482.867 303.041 484.173 303.806 485.088C304.572 485.984 305.589 486.432 306.858 486.432ZM321.577 488.252C320.475 488.252 319.561 488.056 318.833 487.664C318.123 487.253 317.582 486.647 317.209 485.844C316.854 485.041 316.677 484.043 316.677 482.848V474.392H318.945V482.82C318.945 483.623 319.047 484.295 319.253 484.836C319.477 485.359 319.822 485.751 320.289 486.012C320.755 486.255 321.334 486.376 322.025 486.376C322.809 486.376 323.49 486.199 324.069 485.844C324.647 485.489 325.105 484.995 325.441 484.36C325.777 483.725 325.945 482.979 325.945 482.12V474.392H328.213V488H326.001V484.864H326.365C325.991 485.965 325.375 486.805 324.517 487.384C323.677 487.963 322.697 488.252 321.577 488.252ZM332.456 488V474.392H334.668V477.612H334.388C334.705 476.511 335.256 475.68 336.04 475.12C336.824 474.541 337.86 474.205 339.148 474.112L339.96 474.028L340.128 475.988L338.7 476.156C337.431 476.268 336.451 476.679 335.76 477.388C335.088 478.079 334.752 479.031 334.752 480.244V488H332.456ZM354.863 488.252C353.649 488.252 352.585 487.963 351.671 487.384C350.775 486.805 350.075 485.993 349.571 484.948C349.085 483.884 348.843 482.633 348.843 481.196C348.843 479.74 349.085 478.489 349.571 477.444C350.075 476.38 350.775 475.568 351.671 475.008C352.585 474.429 353.649 474.14 354.863 474.14C356.095 474.14 357.149 474.448 358.027 475.064C358.904 475.68 359.492 476.511 359.791 477.556H359.483V468.26H361.751V488H359.539V484.752H359.819C359.52 485.816 358.923 486.665 358.027 487.3C357.149 487.935 356.095 488.252 354.863 488.252ZM355.339 486.432C356.627 486.432 357.644 485.984 358.391 485.088C359.156 484.173 359.539 482.876 359.539 481.196C359.539 479.497 359.156 478.2 358.391 477.304C357.644 476.408 356.627 475.96 355.339 475.96C354.069 475.96 353.052 476.408 352.287 477.304C351.521 478.2 351.139 479.497 351.139 481.196C351.139 482.876 351.521 484.173 352.287 485.088C353.052 485.984 354.069 486.432 355.339 486.432ZM370.291 488.252C369.358 488.252 368.518 488.075 367.771 487.72C367.043 487.347 366.464 486.843 366.035 486.208C365.606 485.573 365.391 484.864 365.391 484.08C365.391 483.072 365.643 482.279 366.147 481.7C366.67 481.121 367.519 480.711 368.695 480.468C369.89 480.225 371.514 480.104 373.567 480.104H374.827V481.588H373.595C372.456 481.588 371.504 481.625 370.739 481.7C369.974 481.775 369.367 481.905 368.919 482.092C368.471 482.279 368.154 482.521 367.967 482.82C367.78 483.119 367.687 483.492 367.687 483.94C367.687 484.705 367.948 485.331 368.471 485.816C369.012 486.301 369.74 486.544 370.655 486.544C371.402 486.544 372.055 486.367 372.615 486.012C373.194 485.657 373.642 485.172 373.959 484.556C374.295 483.94 374.463 483.231 374.463 482.428V479.236C374.463 478.079 374.23 477.248 373.763 476.744C373.296 476.221 372.531 475.96 371.467 475.96C370.646 475.96 369.852 476.081 369.087 476.324C368.322 476.548 367.538 476.921 366.735 477.444L365.951 475.792C366.436 475.456 366.987 475.167 367.603 474.924C368.219 474.663 368.863 474.467 369.535 474.336C370.207 474.205 370.851 474.14 371.467 474.14C372.643 474.14 373.614 474.336 374.379 474.728C375.144 475.101 375.714 475.68 376.087 476.464C376.46 477.229 376.647 478.219 376.647 479.432V488H374.519V484.836H374.771C374.622 485.545 374.332 486.152 373.903 486.656C373.492 487.16 372.979 487.552 372.363 487.832C371.747 488.112 371.056 488.252 370.291 488.252ZM386.315 488.252C384.709 488.252 383.505 487.823 382.703 486.964C381.9 486.105 381.499 484.883 381.499 483.296V476.156H378.839V474.392H381.499V470.22H383.767V474.392H388.079V476.156H383.767V483.072C383.767 484.136 383.991 484.948 384.439 485.508C384.887 486.049 385.615 486.32 386.623 486.32C386.921 486.32 387.22 486.283 387.519 486.208C387.817 486.133 388.088 486.059 388.331 485.984L388.723 487.72C388.48 487.851 388.125 487.972 387.659 488.084C387.192 488.196 386.744 488.252 386.315 488.252ZM394.928 488.252C393.994 488.252 393.154 488.075 392.408 487.72C391.68 487.347 391.101 486.843 390.672 486.208C390.242 485.573 390.028 484.864 390.028 484.08C390.028 483.072 390.28 482.279 390.784 481.7C391.306 481.121 392.156 480.711 393.332 480.468C394.526 480.225 396.15 480.104 398.204 480.104H399.464V481.588H398.232C397.093 481.588 396.141 481.625 395.376 481.7C394.61 481.775 394.004 481.905 393.556 482.092C393.108 482.279 392.79 482.521 392.604 482.82C392.417 483.119 392.324 483.492 392.324 483.94C392.324 484.705 392.585 485.331 393.108 485.816C393.649 486.301 394.377 486.544 395.292 486.544C396.038 486.544 396.692 486.367 397.252 486.012C397.83 485.657 398.278 485.172 398.596 484.556C398.932 483.94 399.1 483.231 399.1 482.428V479.236C399.1 478.079 398.866 477.248 398.4 476.744C397.933 476.221 397.168 475.96 396.104 475.96C395.282 475.96 394.489 476.081 393.724 476.324C392.958 476.548 392.174 476.921 391.372 477.444L390.588 475.792C391.073 475.456 391.624 475.167 392.24 474.924C392.856 474.663 393.5 474.467 394.172 474.336C394.844 474.205 395.488 474.14 396.104 474.14C397.28 474.14 398.25 474.336 399.016 474.728C399.781 475.101 400.35 475.68 400.724 476.464C401.097 477.229 401.284 478.219 401.284 479.432V488H399.156V484.836H399.408C399.258 485.545 398.969 486.152 398.54 486.656C398.129 487.16 397.616 487.552 397 487.832C396.384 488.112 395.693 488.252 394.928 488.252ZM29.308 526.252C28.0947 526.252 27.0307 525.963 26.116 525.384C25.22 524.805 24.52 523.993 24.016 522.948C23.5307 521.884 23.288 520.633 23.288 519.196C23.288 517.74 23.5307 516.489 24.016 515.444C24.52 514.38 25.22 513.568 26.116 513.008C27.0307 512.429 28.0947 512.14 29.308 512.14C30.54 512.14 31.5947 512.448 32.472 513.064C33.3493 513.68 33.9373 514.511 34.236 515.556H33.928V506.26H36.196V526H33.984V522.752H34.264C33.9653 523.816 33.368 524.665 32.472 525.3C31.5947 525.935 30.54 526.252 29.308 526.252ZM29.784 524.432C31.072 524.432 32.0893 523.984 32.836 523.088C33.6013 522.173 33.984 520.876 33.984 519.196C33.984 517.497 33.6013 516.2 32.836 515.304C32.0893 514.408 31.072 513.96 29.784 513.96C28.5147 513.96 27.4973 514.408 26.732 515.304C25.9667 516.2 25.584 517.497 25.584 519.196C25.584 520.876 25.9667 522.173 26.732 523.088C27.4973 523.984 28.5147 524.432 29.784 524.432ZM45.2682 526.252C44.1669 526.252 43.2522 526.056 42.5242 525.664C41.8149 525.253 41.2736 524.647 40.9002 523.844C40.5456 523.041 40.3682 522.043 40.3682 520.848V512.392H42.6362V520.82C42.6362 521.623 42.7389 522.295 42.9442 522.836C43.1682 523.359 43.5136 523.751 43.9802 524.012C44.4469 524.255 45.0256 524.376 45.7162 524.376C46.5002 524.376 47.1816 524.199 47.7602 523.844C48.3389 523.489 48.7962 522.995 49.1322 522.36C49.4682 521.725 49.6362 520.979 49.6362 520.12V512.392H51.9042V526H49.6922V522.864H50.0562C49.6829 523.965 49.0669 524.805 48.2082 525.384C47.3682 525.963 46.3882 526.252 45.2682 526.252ZM56.1475 526V512.392H58.3595V515.612H58.0795C58.3969 514.511 58.9475 513.68 59.7315 513.12C60.5155 512.541 61.5515 512.205 62.8395 512.112L63.6515 512.028L63.8195 513.988L62.3915 514.156C61.1222 514.268 60.1422 514.679 59.4515 515.388C58.7795 516.079 58.4435 517.031 58.4435 518.244V526H56.1475ZM65.9027 509.004V506.456H68.7027V509.004H65.9027ZM66.1827 526V512.392H68.4507V526H66.1827ZM72.6905 526V512.392H74.9025V515.416H74.5945C74.9865 514.333 75.6212 513.521 76.4985 512.98C77.3945 512.42 78.4212 512.14 79.5785 512.14C80.6612 512.14 81.5572 512.336 82.2665 512.728C82.9945 513.101 83.5358 513.689 83.8905 514.492C84.2452 515.295 84.4225 516.303 84.4225 517.516V526H82.1545V517.656C82.1545 516.816 82.0425 516.125 81.8185 515.584C81.6132 515.043 81.2772 514.641 80.8105 514.38C80.3625 514.119 79.7745 513.988 79.0465 513.988C78.2252 513.988 77.5065 514.165 76.8905 514.52C76.2745 514.875 75.7985 515.369 75.4625 516.004C75.1265 516.639 74.9585 517.385 74.9585 518.244V526H72.6905ZM94.6246 531.292C93.4486 531.292 92.3379 531.133 91.2926 530.816C90.2659 530.517 89.3512 530.06 88.5486 529.444L89.3046 527.792C89.8646 528.184 90.4152 528.501 90.9566 528.744C91.5166 529.005 92.0859 529.192 92.6646 529.304C93.2619 529.416 93.8779 529.472 94.5126 529.472C95.8379 529.472 96.8366 529.117 97.5086 528.408C98.1992 527.699 98.5446 526.672 98.5446 525.328V522.164H98.8246C98.5446 523.247 97.9472 524.105 97.0326 524.74C96.1366 525.375 95.0819 525.692 93.8686 525.692C92.6179 525.692 91.5352 525.412 90.6206 524.852C89.7059 524.273 88.9966 523.471 88.4926 522.444C88.0072 521.417 87.7646 520.232 87.7646 518.888C87.7646 517.544 88.0072 516.368 88.4926 515.36C88.9966 514.333 89.7059 513.54 90.6206 512.98C91.5352 512.42 92.6179 512.14 93.8686 512.14C95.1006 512.14 96.1646 512.457 97.0606 513.092C97.9566 513.708 98.5352 514.548 98.7966 515.612H98.5446V512.392H100.757V525.02C100.757 526.401 100.523 527.559 100.057 528.492C99.6086 529.425 98.9272 530.125 98.0126 530.592C97.0979 531.059 95.9686 531.292 94.6246 531.292ZM94.2886 523.844C95.5952 523.844 96.6312 523.396 97.3966 522.5C98.1619 521.604 98.5446 520.4 98.5446 518.888C98.5446 517.376 98.1619 516.181 97.3966 515.304C96.6312 514.408 95.5952 513.96 94.2886 513.96C93.0006 513.96 91.9739 514.408 91.2086 515.304C90.4432 516.181 90.0606 517.376 90.0606 518.888C90.0606 520.4 90.4432 521.604 91.2086 522.5C91.9739 523.396 93.0006 523.844 94.2886 523.844ZM117.382 526.252C116.169 526.252 115.105 525.963 114.19 525.384C113.294 524.805 112.594 523.993 112.09 522.948C111.605 521.884 111.362 520.633 111.362 519.196C111.362 517.74 111.605 516.489 112.09 515.444C112.594 514.38 113.294 513.568 114.19 513.008C115.105 512.429 116.169 512.14 117.382 512.14C118.614 512.14 119.669 512.448 120.546 513.064C121.424 513.68 122.012 514.511 122.31 515.556H122.002V506.26H124.27V526H122.058V522.752H122.338C122.04 523.816 121.442 524.665 120.546 525.3C119.669 525.935 118.614 526.252 117.382 526.252ZM117.858 524.432C119.146 524.432 120.164 523.984 120.91 523.088C121.676 522.173 122.058 520.876 122.058 519.196C122.058 517.497 121.676 516.2 120.91 515.304C120.164 514.408 119.146 513.96 117.858 513.96C116.589 513.96 115.572 514.408 114.806 515.304C114.041 516.2 113.658 517.497 113.658 519.196C113.658 520.876 114.041 522.173 114.806 523.088C115.572 523.984 116.589 524.432 117.858 524.432ZM134.658 526.252C133.221 526.252 131.98 525.972 130.934 525.412C129.908 524.833 129.105 524.021 128.526 522.976C127.966 521.931 127.686 520.68 127.686 519.224C127.686 517.805 127.966 516.573 128.526 515.528C129.086 514.464 129.852 513.633 130.822 513.036C131.812 512.439 132.95 512.14 134.238 512.14C135.47 512.14 136.525 512.411 137.402 512.952C138.28 513.493 138.952 514.259 139.418 515.248C139.904 516.237 140.146 517.423 140.146 518.804V519.672H129.422V518.188H138.634L138.186 518.552C138.186 517.059 137.85 515.901 137.178 515.08C136.525 514.24 135.564 513.82 134.294 513.82C133.342 513.82 132.53 514.044 131.858 514.492C131.205 514.921 130.71 515.528 130.374 516.312C130.038 517.077 129.87 517.973 129.87 519V519.168C129.87 520.307 130.048 521.268 130.402 522.052C130.776 522.836 131.326 523.433 132.054 523.844C132.782 524.236 133.65 524.432 134.658 524.432C135.461 524.432 136.236 524.311 136.982 524.068C137.748 523.807 138.466 523.387 139.138 522.808L139.922 524.404C139.306 524.964 138.522 525.412 137.57 525.748C136.618 526.084 135.648 526.252 134.658 526.252ZM147.269 526L141.417 512.392H143.881L148.753 524.32H147.997L152.953 512.392H155.277L149.397 526H147.269ZM163.615 526.252C162.178 526.252 160.937 525.972 159.891 525.412C158.865 524.833 158.062 524.021 157.483 522.976C156.923 521.931 156.643 520.68 156.643 519.224C156.643 517.805 156.923 516.573 157.483 515.528C158.043 514.464 158.809 513.633 159.779 513.036C160.769 512.439 161.907 512.14 163.195 512.14C164.427 512.14 165.482 512.411 166.359 512.952C167.237 513.493 167.909 514.259 168.375 515.248C168.861 516.237 169.103 517.423 169.103 518.804V519.672H158.379V518.188H167.591L167.143 518.552C167.143 517.059 166.807 515.901 166.135 515.08C165.482 514.24 164.521 513.82 163.251 513.82C162.299 513.82 161.487 514.044 160.815 514.492C160.162 514.921 159.667 515.528 159.331 516.312C158.995 517.077 158.827 517.973 158.827 519V519.168C158.827 520.307 159.005 521.268 159.359 522.052C159.733 522.836 160.283 523.433 161.011 523.844C161.739 524.236 162.607 524.432 163.615 524.432C164.418 524.432 165.193 524.311 165.939 524.068C166.705 523.807 167.423 523.387 168.095 522.808L168.879 524.404C168.263 524.964 167.479 525.412 166.527 525.748C165.575 526.084 164.605 526.252 163.615 526.252ZM176.558 526.252C175.176 526.252 174.131 525.841 173.422 525.02C172.731 524.199 172.386 523.023 172.386 521.492V506.26H174.654V521.324C174.654 521.977 174.738 522.528 174.906 522.976C175.092 523.424 175.363 523.76 175.718 523.984C176.072 524.208 176.511 524.32 177.034 524.32C177.258 524.32 177.472 524.311 177.678 524.292C177.902 524.255 178.107 524.208 178.294 524.152L178.238 526.056C177.939 526.112 177.65 526.159 177.37 526.196C177.108 526.233 176.838 526.252 176.558 526.252ZM186.19 526.252C184.865 526.252 183.717 525.963 182.746 525.384C181.776 524.805 181.02 523.993 180.478 522.948C179.956 521.884 179.694 520.633 179.694 519.196C179.694 517.759 179.956 516.517 180.478 515.472C181.02 514.408 181.776 513.587 182.746 513.008C183.717 512.429 184.865 512.14 186.19 512.14C187.516 512.14 188.664 512.429 189.634 513.008C190.605 513.587 191.352 514.408 191.874 515.472C192.416 516.517 192.686 517.759 192.686 519.196C192.686 520.633 192.416 521.884 191.874 522.948C191.352 523.993 190.605 524.805 189.634 525.384C188.664 525.963 187.516 526.252 186.19 526.252ZM186.19 524.432C187.478 524.432 188.496 523.984 189.242 523.088C190.008 522.173 190.39 520.867 190.39 519.168C190.39 517.488 190.008 516.2 189.242 515.304C188.496 514.408 187.478 513.96 186.19 513.96C184.921 513.96 183.904 514.408 183.138 515.304C182.373 516.2 181.99 517.488 181.99 519.168C181.99 520.867 182.373 522.173 183.138 523.088C183.904 523.984 184.921 524.432 186.19 524.432ZM196.093 531.04V512.392H198.305V515.612H198.025C198.324 514.548 198.912 513.708 199.789 513.092C200.685 512.457 201.749 512.14 202.981 512.14C204.194 512.14 205.249 512.429 206.145 513.008C207.06 513.568 207.76 514.38 208.245 515.444C208.749 516.489 209.001 517.74 209.001 519.196C209.001 520.633 208.749 521.884 208.245 522.948C207.76 523.993 207.069 524.805 206.173 525.384C205.277 525.963 204.213 526.252 202.981 526.252C201.749 526.252 200.694 525.944 199.817 525.328C198.94 524.693 198.342 523.853 198.025 522.808H198.361V531.04H196.093ZM202.505 524.432C203.793 524.432 204.81 523.984 205.557 523.088C206.322 522.173 206.705 520.876 206.705 519.196C206.705 517.497 206.322 516.2 205.557 515.304C204.81 514.408 203.793 513.96 202.505 513.96C201.236 513.96 200.218 514.408 199.453 515.304C198.688 516.2 198.305 517.497 198.305 519.196C198.305 520.876 198.688 522.173 199.453 523.088C200.218 523.984 201.236 524.432 202.505 524.432ZM212.473 526V512.392H214.685V515.416H214.377C214.601 514.725 214.928 514.137 215.357 513.652C215.805 513.148 216.328 512.775 216.925 512.532C217.541 512.271 218.213 512.14 218.941 512.14C220.098 512.14 221.032 512.42 221.741 512.98C222.469 513.521 222.954 514.371 223.197 515.528H222.777C223.113 514.483 223.71 513.661 224.569 513.064C225.446 512.448 226.464 512.14 227.621 512.14C228.648 512.14 229.488 512.336 230.141 512.728C230.813 513.12 231.317 513.717 231.653 514.52C231.989 515.304 232.157 516.303 232.157 517.516V526H229.889V517.628C229.889 516.377 229.674 515.463 229.245 514.884C228.816 514.287 228.088 513.988 227.061 513.988C226.333 513.988 225.689 514.165 225.129 514.52C224.588 514.875 224.168 515.379 223.869 516.032C223.589 516.667 223.449 517.423 223.449 518.3V526H221.181V517.628C221.181 516.377 220.957 515.463 220.509 514.884C220.08 514.287 219.361 513.988 218.353 513.988C217.606 513.988 216.962 514.165 216.421 514.52C215.88 514.875 215.46 515.379 215.161 516.032C214.881 516.667 214.741 517.423 214.741 518.3V526H212.473ZM242.53 526.252C241.092 526.252 239.851 525.972 238.806 525.412C237.779 524.833 236.976 524.021 236.398 522.976C235.838 521.931 235.558 520.68 235.558 519.224C235.558 517.805 235.838 516.573 236.398 515.528C236.958 514.464 237.723 513.633 238.694 513.036C239.683 512.439 240.822 512.14 242.11 512.14C243.342 512.14 244.396 512.411 245.274 512.952C246.151 513.493 246.823 514.259 247.29 515.248C247.775 516.237 248.018 517.423 248.018 518.804V519.672H237.294V518.188H246.506L246.058 518.552C246.058 517.059 245.722 515.901 245.05 515.08C244.396 514.24 243.435 513.82 242.166 513.82C241.214 513.82 240.402 514.044 239.73 514.492C239.076 514.921 238.582 515.528 238.246 516.312C237.91 517.077 237.742 517.973 237.742 519V519.168C237.742 520.307 237.919 521.268 238.274 522.052C238.647 522.836 239.198 523.433 239.926 523.844C240.654 524.236 241.522 524.432 242.53 524.432C243.332 524.432 244.107 524.311 244.854 524.068C245.619 523.807 246.338 523.387 247.01 522.808L247.794 524.404C247.178 524.964 246.394 525.412 245.442 525.748C244.49 526.084 243.519 526.252 242.53 526.252ZM251.3 526V512.392H253.512V515.416H253.204C253.596 514.333 254.231 513.521 255.108 512.98C256.004 512.42 257.031 512.14 258.188 512.14C259.271 512.14 260.167 512.336 260.876 512.728C261.604 513.101 262.145 513.689 262.5 514.492C262.855 515.295 263.032 516.303 263.032 517.516V526H260.764V517.656C260.764 516.816 260.652 516.125 260.428 515.584C260.223 515.043 259.887 514.641 259.42 514.38C258.972 514.119 258.384 513.988 257.656 513.988C256.835 513.988 256.116 514.165 255.5 514.52C254.884 514.875 254.408 515.369 254.072 516.004C253.736 516.639 253.568 517.385 253.568 518.244V526H251.3ZM272.674 526.252C271.069 526.252 269.865 525.823 269.062 524.964C268.259 524.105 267.858 522.883 267.858 521.296V514.156H265.198V512.392H267.858V508.22H270.126V512.392H274.438V514.156H270.126V521.072C270.126 522.136 270.35 522.948 270.798 523.508C271.246 524.049 271.974 524.32 272.982 524.32C273.281 524.32 273.579 524.283 273.878 524.208C274.177 524.133 274.447 524.059 274.69 523.984L275.082 525.72C274.839 525.851 274.485 525.972 274.018 526.084C273.551 526.196 273.103 526.252 272.674 526.252ZM278.198 529.192L277.134 528.38C277.47 528.025 277.722 527.689 277.89 527.372C278.076 527.073 278.198 526.765 278.254 526.448C278.328 526.149 278.366 525.841 278.366 525.524L278.87 526H277.022V523.144H279.878V525.16C279.878 525.664 279.822 526.14 279.71 526.588C279.616 527.055 279.448 527.503 279.206 527.932C278.963 528.361 278.627 528.781 278.198 529.192ZM290.948 526V512.392H293.16V515.416H292.852C293.244 514.333 293.879 513.521 294.756 512.98C295.652 512.42 296.679 512.14 297.836 512.14C298.919 512.14 299.815 512.336 300.524 512.728C301.252 513.101 301.794 513.689 302.148 514.492C302.503 515.295 302.68 516.303 302.68 517.516V526H300.412V517.656C300.412 516.816 300.3 516.125 300.076 515.584C299.871 515.043 299.535 514.641 299.068 514.38C298.62 514.119 298.032 513.988 297.304 513.988C296.483 513.988 295.764 514.165 295.148 514.52C294.532 514.875 294.056 515.369 293.72 516.004C293.384 516.639 293.216 517.385 293.216 518.244V526H290.948ZM312.518 526.252C311.193 526.252 310.045 525.963 309.074 525.384C308.104 524.805 307.348 523.993 306.806 522.948C306.284 521.884 306.022 520.633 306.022 519.196C306.022 517.759 306.284 516.517 306.806 515.472C307.348 514.408 308.104 513.587 309.074 513.008C310.045 512.429 311.193 512.14 312.518 512.14C313.844 512.14 314.992 512.429 315.962 513.008C316.933 513.587 317.68 514.408 318.202 515.472C318.744 516.517 319.014 517.759 319.014 519.196C319.014 520.633 318.744 521.884 318.202 522.948C317.68 523.993 316.933 524.805 315.962 525.384C314.992 525.963 313.844 526.252 312.518 526.252ZM312.518 524.432C313.806 524.432 314.824 523.984 315.57 523.088C316.336 522.173 316.718 520.867 316.718 519.168C316.718 517.488 316.336 516.2 315.57 515.304C314.824 514.408 313.806 513.96 312.518 513.96C311.249 513.96 310.232 514.408 309.466 515.304C308.701 516.2 308.318 517.488 308.318 519.168C308.318 520.867 308.701 522.173 309.466 523.088C310.232 523.984 311.249 524.432 312.518 524.432ZM327.744 526.252C326.139 526.252 324.935 525.823 324.132 524.964C323.33 524.105 322.928 522.883 322.928 521.296V514.156H320.268V512.392H322.928V508.22H325.196V512.392H329.508V514.156H325.196V521.072C325.196 522.136 325.42 522.948 325.868 523.508C326.316 524.049 327.044 524.32 328.052 524.32C328.351 524.32 328.65 524.283 328.948 524.208C329.247 524.133 329.518 524.059 329.76 523.984L330.152 525.72C329.91 525.851 329.555 525.972 329.088 526.084C328.622 526.196 328.174 526.252 327.744 526.252ZM343.549 526.252C342.615 526.252 341.775 526.075 341.029 525.72C340.301 525.347 339.722 524.843 339.293 524.208C338.863 523.573 338.649 522.864 338.649 522.08C338.649 521.072 338.901 520.279 339.405 519.7C339.927 519.121 340.777 518.711 341.953 518.468C343.147 518.225 344.771 518.104 346.825 518.104H348.085V519.588H346.853C345.714 519.588 344.762 519.625 343.997 519.7C343.231 519.775 342.625 519.905 342.177 520.092C341.729 520.279 341.411 520.521 341.225 520.82C341.038 521.119 340.945 521.492 340.945 521.94C340.945 522.705 341.206 523.331 341.729 523.816C342.27 524.301 342.998 524.544 343.913 524.544C344.659 524.544 345.313 524.367 345.873 524.012C346.451 523.657 346.899 523.172 347.217 522.556C347.553 521.94 347.721 521.231 347.721 520.428V517.236C347.721 516.079 347.487 515.248 347.021 514.744C346.554 514.221 345.789 513.96 344.725 513.96C343.903 513.96 343.11 514.081 342.345 514.324C341.579 514.548 340.795 514.921 339.993 515.444L339.209 513.792C339.694 513.456 340.245 513.167 340.861 512.924C341.477 512.663 342.121 512.467 342.793 512.336C343.465 512.205 344.109 512.14 344.725 512.14C345.901 512.14 346.871 512.336 347.637 512.728C348.402 513.101 348.971 513.68 349.345 514.464C349.718 515.229 349.905 516.219 349.905 517.432V526H347.777V522.836H348.029C347.879 523.545 347.59 524.152 347.161 524.656C346.75 525.16 346.237 525.552 345.621 525.832C345.005 526.112 344.314 526.252 343.549 526.252ZM354.84 526V514.156H352.152V512.392H355.456L354.84 512.98V511.916C354.84 510.105 355.288 508.733 356.184 507.8C357.099 506.867 358.499 506.344 360.384 506.232L361.476 506.176L361.672 507.912L360.384 507.996C359.619 508.052 358.994 508.22 358.508 508.5C358.023 508.78 357.668 509.181 357.444 509.704C357.22 510.227 357.108 510.871 357.108 511.636V512.812L356.772 512.392H361.028V514.156H357.108V526H354.84ZM368.24 526.252C366.635 526.252 365.431 525.823 364.628 524.964C363.826 524.105 363.424 522.883 363.424 521.296V514.156H360.764V512.392H363.424V508.22H365.692V512.392H370.004V514.156H365.692V521.072C365.692 522.136 365.916 522.948 366.364 523.508C366.812 524.049 367.54 524.32 368.548 524.32C368.847 524.32 369.146 524.283 369.444 524.208C369.743 524.133 370.014 524.059 370.256 523.984L370.648 525.72C370.406 525.851 370.051 525.972 369.584 526.084C369.118 526.196 368.67 526.252 368.24 526.252ZM378.565 526.252C377.127 526.252 375.886 525.972 374.841 525.412C373.814 524.833 373.011 524.021 372.433 522.976C371.873 521.931 371.593 520.68 371.593 519.224C371.593 517.805 371.873 516.573 372.433 515.528C372.993 514.464 373.758 513.633 374.729 513.036C375.718 512.439 376.857 512.14 378.145 512.14C379.377 512.14 380.431 512.411 381.309 512.952C382.186 513.493 382.858 514.259 383.325 515.248C383.81 516.237 384.053 517.423 384.053 518.804V519.672H373.329V518.188H382.541L382.093 518.552C382.093 517.059 381.757 515.901 381.085 515.08C380.431 514.24 379.47 513.82 378.201 513.82C377.249 513.82 376.437 514.044 375.765 514.492C375.111 514.921 374.617 515.528 374.281 516.312C373.945 517.077 373.777 517.973 373.777 519V519.168C373.777 520.307 373.954 521.268 374.309 522.052C374.682 522.836 375.233 523.433 375.961 523.844C376.689 524.236 377.557 524.432 378.565 524.432C379.367 524.432 380.142 524.311 380.889 524.068C381.654 523.807 382.373 523.387 383.045 522.808L383.829 524.404C383.213 524.964 382.429 525.412 381.477 525.748C380.525 526.084 379.554 526.252 378.565 526.252ZM387.335 526V512.392H389.547V515.612H389.267C389.584 514.511 390.135 513.68 390.919 513.12C391.703 512.541 392.739 512.205 394.027 512.112L394.839 512.028L395.007 513.988L393.579 514.156C392.31 514.268 391.33 514.679 390.639 515.388C389.967 516.079 389.631 517.031 389.631 518.244V526H387.335ZM396.432 526V523.144H399.288V526H396.432Z" fill="#D9D9D9"/>
<ellipse cx="286" cy="217" rx="286" ry="187" fill="url(#paint1_radial_1253_7760)"/>
<g filter="url(#filter1_bdi_1253_7760)">
<path d="M104 244.75L255.229 173.658L401 244.75L255.229 321.146L104 244.75Z" fill="#63B6FF"/>
</g>
<path fill-rule="evenodd" clip-rule="evenodd" d="M251.75 70C295.657 70 331.25 87.1251 331.25 108.25V234.25V238H330.873C326.956 257.365 293.027 272.5 251.75 272.5C210.473 272.5 176.544 257.365 172.627 238H172.25V234.25V108.25C172.25 87.1251 207.843 70 251.75 70Z" fill="url(#paint2_linear_1253_7760)"/>
<path d="M329.75 237.25C329.75 247.364 321.287 256.735 307.107 263.622C292.979 270.485 273.408 274.75 251.75 274.75C230.092 274.75 210.521 270.485 196.393 263.622C182.213 256.735 173.75 247.364 173.75 237.25C173.75 227.136 182.213 217.765 196.393 210.878C210.521 204.015 230.092 199.75 251.75 199.75C273.408 199.75 292.979 204.015 307.107 210.878C321.287 217.765 329.75 227.136 329.75 237.25Z" stroke="#9CE6FF" stroke-width="1.5"/>
<path d="M330.5 169.75C330.5 190.875 295.242 208 251.75 208C208.258 208 173 190.875 173 169.75" stroke="#9CE6FF" stroke-width="1.5"/>
<path d="M330.5 136C330.5 157.125 295.242 174.25 251.75 174.25C208.258 174.25 173 157.125 173 136" stroke="#9CE6FF" stroke-width="1.5"/>
<path d="M330.5 204.25C330.5 225.375 295.242 242.5 251.75 242.5C208.258 242.5 173 225.375 173 204.25" stroke="#9CE6FF" stroke-width="1.5"/>
<ellipse cx="251.75" cy="108.25" rx="54" ry="26.25" fill="url(#paint3_linear_1253_7760)"/>
<path fill-rule="evenodd" clip-rule="evenodd" d="M172.25 136.433C156.36 145.37 146.75 157.015 146.75 169.75C146.75 197.917 193.76 220.75 251.75 220.75C309.74 220.75 356.75 197.917 356.75 169.75C356.75 157.015 347.14 145.37 331.25 136.433V138.158C346.487 146.915 355.25 158.008 355.25 169.75C355.25 182.936 344.199 195.303 325.341 204.463C306.585 213.573 280.568 219.25 251.75 219.25C222.932 219.25 196.915 213.573 178.159 204.463C159.301 195.303 148.25 182.936 148.25 169.75C148.25 158.008 157.013 146.915 172.25 138.158V136.433Z" fill="white"/>
<circle cx="147.125" cy="165.625" r="5.625" fill="white"/>
<circle cx="355.625" cy="165.625" r="5.625" fill="white"/>
<circle cx="256.625" cy="220.375" r="5.625" fill="white"/>
<defs>
<filter id="filter0_b_1253_7760" x="-8.7" y="16.3" width="533.4" height="645.4" filterUnits="userSpaceOnUse" color-interpolation-filters="sRGB">
<feFlood flood-opacity="0" result="BackgroundImageFix"/>
<feGaussianBlur in="BackgroundImageFix" stdDeviation="5.85"/>
<feComposite in2="SourceAlpha" operator="in" result="effect1_backgroundBlur_1253_7760"/>
<feBlend mode="normal" in="SourceGraphic" in2="effect1_backgroundBlur_1253_7760" result="shape"/>
</filter>
<filter id="filter1_bdi_1253_7760" x="98.675" y="168.333" width="307.65" height="158.138" filterUnits="userSpaceOnUse" color-interpolation-filters="sRGB">
<feFlood flood-opacity="0" result="BackgroundImageFix"/>
<feGaussianBlur in="BackgroundImageFix" stdDeviation="1.875"/>
<feComposite in2="SourceAlpha" operator="in" result="effect1_backgroundBlur_1253_7760"/>
<feColorMatrix in="SourceAlpha" type="matrix" values="0 0 0 0 0 0 0 0 0 0 0 0 0 0 0 0 0 0 127 0" result="hardAlpha"/>
<feOffset/>
<feGaussianBlur stdDeviation="2.6625"/>
<feComposite in2="hardAlpha" operator="out"/>
<feColorMatrix type="matrix" values="0 0 0 0 0 0 0 0 0 0 0 0 0 0 0 0 0 0 0.25 0"/>
<feBlend mode="normal" in2="effect1_backgroundBlur_1253_7760" result="effect2_dropShadow_1253_7760"/>
<feBlend mode="normal" in="SourceGraphic" in2="effect2_dropShadow_1253_7760" result="shape"/>
<feColorMatrix in="SourceAlpha" type="matrix" values="0 0 0 0 0 0 0 0 0 0 0 0 0 0 0 0 0 0 127 0" result="hardAlpha"/>
<feOffset dx="-0.75"/>
<feComposite in2="hardAlpha" operator="arithmetic" k2="-1" k3="1"/>
<feColorMatrix type="matrix" values="0 0 0 0 1 0 0 0 0 1 0 0 0 0 1 0 0 0 0.35 0"/>
<feBlend mode="normal" in2="shape" result="effect3_innerShadow_1253_7760"/>
</filter>
<linearGradient id="paint0_linear_1253_7760" x1="258" y1="578.231" x2="258" y2="63.8846" gradientUnits="userSpaceOnUse">
<stop offset="0.207188" stop-color="#292929"/>
<stop offset="1" stop-color="#8778D7"/>
</linearGradient>
<radialGradient id="paint1_radial_1253_7760" cx="0" cy="0" r="1" gradientUnits="userSpaceOnUse" gradientTransform="translate(286 217) rotate(90) scale(187 286)">
<stop stop-color="#42A5F5"/>
<stop offset="1" stop-opacity="0"/>
</radialGradient>
<linearGradient id="paint2_linear_1253_7760" x1="251.75" y1="191.5" x2="251.75" y2="272.5" gradientUnits="userSpaceOnUse">
<stop stop-color="#CFF2FF"/>
<stop offset="1" stop-color="white" stop-opacity="0"/>
</linearGradient>
<linearGradient id="paint3_linear_1253_7760" x1="251.75" y1="82" x2="251.75" y2="134.5" gradientUnits="userSpaceOnUse">
<stop stop-color="#42A5F5"/>
<stop offset="1" stop-color="#4C5CEC"/>
</linearGradient>
</defs>
</svg>
